<svg width="408" height="106" viewBox="0 0 408 106" fill="none" xmlns="http://www.w3.org/2000/svg">
<path d="M3.852 11.12C3.14 11.12 2.528 11.012 2.016 10.796C1.504 10.58 1.116 10.296 0.852 9.944C0.588 9.592 0.448 9.212 0.432 8.804C0.432 8.732 0.456 8.672 0.504 8.624C0.552 8.576 0.612 8.552 0.684 8.552H1.752C1.848 8.552 1.92 8.572 1.968 8.612C2.024 8.644 2.076 8.7 2.124 8.78C2.204 9.052 2.388 9.28 2.676 9.464C2.964 9.648 3.356 9.74 3.852 9.74C4.42 9.74 4.848 9.648 5.136 9.464C5.424 9.272 5.568 9.008 5.568 8.672C5.568 8.448 5.492 8.264 5.34 8.12C5.196 7.976 4.976 7.852 4.68 7.748C4.392 7.644 3.96 7.516 3.384 7.364C2.44 7.14 1.748 6.844 1.308 6.476C0.876 6.1 0.66 5.568 0.66 4.88C0.66 4.416 0.784 4.004 1.032 3.644C1.288 3.284 1.652 3 2.124 2.792C2.604 2.584 3.16 2.48 3.792 2.48C4.448 2.48 5.016 2.596 5.496 2.828C5.976 3.06 6.34 3.352 6.588 3.704C6.844 4.048 6.98 4.392 6.996 4.736C6.996 4.808 6.972 4.868 6.924 4.916C6.876 4.964 6.816 4.988 6.744 4.988H5.628C5.46 4.988 5.344 4.912 5.28 4.76C5.232 4.504 5.072 4.292 4.8 4.124C4.528 3.948 4.192 3.86 3.792 3.86C3.344 3.86 2.992 3.944 2.736 4.112C2.48 4.28 2.352 4.524 2.352 4.844C2.352 5.068 2.416 5.252 2.544 5.396C2.672 5.54 2.872 5.668 3.144 5.78C3.424 5.892 3.824 6.016 4.344 6.152C5.048 6.312 5.608 6.492 6.024 6.692C6.448 6.892 6.76 7.144 6.96 7.448C7.16 7.752 7.26 8.14 7.26 8.612C7.26 9.124 7.116 9.572 6.828 9.956C6.548 10.332 6.148 10.62 5.628 10.82C5.116 11.02 4.524 11.12 3.852 11.12ZM11.9112 11C11.1832 11 10.6352 10.812 10.2672 10.436C9.90722 10.052 9.72722 9.492 9.72722 8.756V6.032H8.77922C8.69922 6.032 8.63122 6.004 8.57522 5.948C8.51922 5.884 8.49122 5.812 8.49122 5.732V5.048C8.49122 4.968 8.51922 4.9 8.57522 4.844C8.63122 4.788 8.69922 4.76 8.77922 4.76H9.72722V2.768C9.72722 2.68 9.75522 2.612 9.81122 2.564C9.86722 2.508 9.93522 2.48 10.0152 2.48H10.9872C11.0752 2.48 11.1432 2.508 11.1912 2.564C11.2472 2.612 11.2752 2.68 11.2752 2.768V4.76H12.7752C12.8632 4.76 12.9312 4.788 12.9792 4.844C13.0352 4.892 13.0632 4.96 13.0632 5.048V5.732C13.0632 5.82 13.0352 5.892 12.9792 5.948C12.9232 6.004 12.8552 6.032 12.7752 6.032H11.2752V8.636C11.2752 8.98 11.3352 9.24 11.4552 9.416C11.5752 9.592 11.7752 9.68 12.0552 9.68H12.8832C12.9632 9.68 13.0312 9.708 13.0872 9.764C13.1432 9.82 13.1712 9.888 13.1712 9.968V10.712C13.1712 10.792 13.1432 10.86 13.0872 10.916C13.0392 10.972 12.9712 11 12.8832 11H11.9112ZM16.6478 11.12C16.2398 11.12 15.8638 11.04 15.5198 10.88C15.1838 10.712 14.9158 10.488 14.7158 10.208C14.5238 9.928 14.4278 9.62 14.4278 9.284C14.4278 8.74 14.6478 8.3 15.0878 7.964C15.5278 7.628 16.1318 7.4 16.8998 7.28L18.5438 7.04V6.788C18.5438 6.436 18.4558 6.172 18.2798 5.996C18.1038 5.82 17.8198 5.732 17.4278 5.732C17.1638 5.732 16.9478 5.784 16.7798 5.888C16.6198 5.984 16.4918 6.08 16.3958 6.176C16.2998 6.28 16.2358 6.348 16.2038 6.38C16.1718 6.476 16.1118 6.524 16.0238 6.524H15.0998C15.0278 6.524 14.9638 6.5 14.9078 6.452C14.8598 6.404 14.8358 6.34 14.8358 6.26C14.8438 6.06 14.9398 5.832 15.1238 5.576C15.3158 5.32 15.6078 5.1 15.9998 4.916C16.3918 4.732 16.8718 4.64 17.4398 4.64C18.3838 4.64 19.0718 4.852 19.5038 5.276C19.9358 5.7 20.1518 6.256 20.1518 6.944V10.712C20.1518 10.792 20.1238 10.86 20.0678 10.916C20.0198 10.972 19.9518 11 19.8638 11H18.8918C18.8118 11 18.7438 10.972 18.6878 10.916C18.6318 10.86 18.6038 10.792 18.6038 10.712V10.244C18.4278 10.5 18.1758 10.712 17.8478 10.88C17.5278 11.04 17.1278 11.12 16.6478 11.12ZM17.0558 9.98C17.4958 9.98 17.8558 9.836 18.1358 9.548C18.4158 9.26 18.5558 8.84 18.5558 8.288V8.036L17.3558 8.228C16.8918 8.3 16.5398 8.416 16.2998 8.576C16.0678 8.736 15.9518 8.932 15.9518 9.164C15.9518 9.42 16.0598 9.62 16.2758 9.764C16.4918 9.908 16.7518 9.98 17.0558 9.98ZM24.6072 11.12C23.7992 11.12 23.1792 10.86 22.7472 10.34C22.3152 9.82 22.0832 9.128 22.0512 8.264L22.0392 7.868L22.0512 7.484C22.0752 6.644 22.3032 5.96 22.7352 5.432C23.1752 4.904 23.7992 4.64 24.6072 4.64C25.3832 4.64 25.9992 4.904 26.4552 5.432V2.768C26.4552 2.68 26.4832 2.612 26.5392 2.564C26.5952 2.508 26.6632 2.48 26.7432 2.48H27.7632C27.8512 2.48 27.9192 2.508 27.9672 2.564C28.0232 2.612 28.0512 2.68 28.0512 2.768V10.712C28.0512 10.792 28.0232 10.86 27.9672 10.916C27.9192 10.972 27.8512 11 27.7632 11H26.8152C26.7352 11 26.6672 10.972 26.6112 10.916C26.5552 10.86 26.5272 10.792 26.5272 10.712V10.268C26.0712 10.836 25.4312 11.12 24.6072 11.12ZM25.0512 9.836C25.5152 9.836 25.8592 9.688 26.0832 9.392C26.3072 9.096 26.4312 8.732 26.4552 8.3C26.4632 8.204 26.4672 8.048 26.4672 7.832C26.4672 7.624 26.4632 7.472 26.4552 7.376C26.4392 6.976 26.3112 6.636 26.0712 6.356C25.8392 6.068 25.4992 5.924 25.0512 5.924C24.1872 5.924 23.7272 6.456 23.6712 7.52L23.6592 7.88L23.6712 8.24C23.7272 9.304 24.1872 9.836 25.0512 9.836ZM33.0706 11C32.3426 11 31.7946 10.812 31.4266 10.436C31.0666 10.052 30.8866 9.492 30.8866 8.756V6.032H29.9386C29.8586 6.032 29.7906 6.004 29.7346 5.948C29.6786 5.884 29.6506 5.812 29.6506 5.732V5.048C29.6506 4.968 29.6786 4.9 29.7346 4.844C29.7906 4.788 29.8586 4.76 29.9386 4.76H30.8866V2.768C30.8866 2.68 30.9146 2.612 30.9706 2.564C31.0266 2.508 31.0946 2.48 31.1746 2.48H32.1466C32.2346 2.48 32.3026 2.508 32.3506 2.564C32.4066 2.612 32.4346 2.68 32.4346 2.768V4.76H33.9346C34.0226 4.76 34.0906 4.788 34.1386 4.844C34.1946 4.892 34.2226 4.96 34.2226 5.048V5.732C34.2226 5.82 34.1946 5.892 34.1386 5.948C34.0826 6.004 34.0146 6.032 33.9346 6.032H32.4346V8.636C32.4346 8.98 32.4946 9.24 32.6146 9.416C32.7346 9.592 32.9346 9.68 33.2146 9.68H34.0426C34.1226 9.68 34.1906 9.708 34.2466 9.764C34.3026 9.82 34.3306 9.888 34.3306 9.968V10.712C34.3306 10.792 34.3026 10.86 34.2466 10.916C34.1986 10.972 34.1306 11 34.0426 11H33.0706ZM38.8151 11C38.0871 11 37.5391 10.812 37.1711 10.436C36.8111 10.052 36.6311 9.492 36.6311 8.756V6.032H35.6831C35.6031 6.032 35.5351 6.004 35.4791 5.948C35.4231 5.884 35.3951 5.812 35.3951 5.732V5.048C35.3951 4.968 35.4231 4.9 35.4791 4.844C35.5351 4.788 35.6031 4.76 35.6831 4.76H36.6311V2.768C36.6311 2.68 36.6591 2.612 36.7151 2.564C36.7711 2.508 36.8391 2.48 36.9191 2.48H37.8911C37.9791 2.48 38.0471 2.508 38.0951 2.564C38.1511 2.612 38.1791 2.68 38.1791 2.768V4.76H39.6791C39.7671 4.76 39.8351 4.788 39.8831 4.844C39.9391 4.892 39.9671 4.96 39.9671 5.048V5.732C39.9671 5.82 39.9391 5.892 39.8831 5.948C39.8271 6.004 39.7591 6.032 39.6791 6.032H38.1791V8.636C38.1791 8.98 38.2391 9.24 38.3591 9.416C38.4791 9.592 38.6791 9.68 38.9591 9.68H39.7871C39.8671 9.68 39.9351 9.708 39.9911 9.764C40.0471 9.82 40.0751 9.888 40.0751 9.968V10.712C40.0751 10.792 40.0471 10.86 39.9911 10.916C39.9431 10.972 39.8751 11 39.7871 11H38.8151ZM44.4277 11.12C43.5397 11.12 42.8317 10.864 42.3037 10.352C41.7837 9.832 41.5077 9.104 41.4757 8.168L41.4637 7.868L41.4757 7.568C41.5157 6.656 41.7957 5.94 42.3157 5.42C42.8437 4.9 43.5477 4.64 44.4277 4.64C45.3717 4.64 46.0997 4.928 46.6117 5.504C47.1317 6.08 47.3917 6.848 47.3917 7.808V8.06C47.3917 8.14 47.3637 8.208 47.3077 8.264C47.2517 8.32 47.1797 8.348 47.0917 8.348H43.1077V8.444C43.1237 8.884 43.2437 9.256 43.4677 9.56C43.6997 9.856 44.0157 10.004 44.4157 10.004C44.8877 10.004 45.2677 9.82 45.5557 9.452C45.6277 9.364 45.6837 9.308 45.7237 9.284C45.7717 9.26 45.8397 9.248 45.9277 9.248H46.9597C47.0317 9.248 47.0917 9.272 47.1397 9.32C47.1957 9.36 47.2237 9.412 47.2237 9.476C47.2237 9.668 47.1077 9.896 46.8757 10.16C46.6517 10.416 46.3277 10.64 45.9037 10.832C45.4797 11.024 44.9877 11.12 44.4277 11.12ZM45.7597 7.34V7.304C45.7597 6.832 45.6397 6.452 45.3997 6.164C45.1677 5.876 44.8437 5.732 44.4277 5.732C44.0117 5.732 43.6877 5.876 43.4557 6.164C43.2237 6.452 43.1077 6.832 43.1077 7.304V7.34H45.7597ZM49.5054 3.728C49.4254 3.728 49.3574 3.7 49.3014 3.644C49.2454 3.588 49.2174 3.52 49.2174 3.44V2.576C49.2174 2.496 49.2454 2.428 49.3014 2.372C49.3574 2.316 49.4254 2.288 49.5054 2.288H50.5974C50.6774 2.288 50.7454 2.316 50.8014 2.372C50.8654 2.428 50.8974 2.496 50.8974 2.576V3.44C50.8974 3.52 50.8694 3.588 50.8134 3.644C50.7574 3.7 50.6854 3.728 50.5974 3.728H49.5054ZM49.5534 11C49.4734 11 49.4054 10.972 49.3494 10.916C49.2934 10.86 49.2654 10.792 49.2654 10.712V5.048C49.2654 4.968 49.2934 4.9 49.3494 4.844C49.4054 4.788 49.4734 4.76 49.5534 4.76H50.5494C50.6374 4.76 50.7054 4.788 50.7534 4.844C50.8094 4.892 50.8374 4.96 50.8374 5.048V10.712C50.8374 10.792 50.8094 10.86 50.7534 10.916C50.7054 10.972 50.6374 11 50.5494 11H49.5534ZM53.3295 11C53.2495 11 53.1815 10.972 53.1255 10.916C53.0695 10.86 53.0415 10.792 53.0415 10.712V2.768C53.0415 2.68 53.0695 2.612 53.1255 2.564C53.1815 2.508 53.2495 2.48 53.3295 2.48H54.3255C54.4135 2.48 54.4815 2.508 54.5295 2.564C54.5855 2.612 54.6135 2.68 54.6135 2.768V10.712C54.6135 10.792 54.5855 10.86 54.5295 10.916C54.4815 10.972 54.4135 11 54.3255 11H53.3295ZM59.4933 11.12C58.6053 11.12 57.8973 10.864 57.3693 10.352C56.8493 9.832 56.5733 9.104 56.5413 8.168L56.5293 7.868L56.5413 7.568C56.5813 6.656 56.8613 5.94 57.3813 5.42C57.9093 4.9 58.6133 4.64 59.4933 4.64C60.4373 4.64 61.1653 4.928 61.6773 5.504C62.1973 6.08 62.4573 6.848 62.4573 7.808V8.06C62.4573 8.14 62.4293 8.208 62.3733 8.264C62.3173 8.32 62.2453 8.348 62.1573 8.348H58.1733V8.444C58.1893 8.884 58.3093 9.256 58.5333 9.56C58.7653 9.856 59.0813 10.004 59.4813 10.004C59.9533 10.004 60.3333 9.82 60.6213 9.452C60.6933 9.364 60.7493 9.308 60.7893 9.284C60.8373 9.26 60.9053 9.248 60.9933 9.248H62.0253C62.0973 9.248 62.1573 9.272 62.2053 9.32C62.2613 9.36 62.2893 9.412 62.2893 9.476C62.2893 9.668 62.1733 9.896 61.9413 10.16C61.7173 10.416 61.3933 10.64 60.9693 10.832C60.5453 11.024 60.0533 11.12 59.4933 11.12ZM60.8253 7.34V7.304C60.8253 6.832 60.7053 6.452 60.4653 6.164C60.2333 5.876 59.9093 5.732 59.4933 5.732C59.0773 5.732 58.7533 5.876 58.5213 6.164C58.2893 6.452 58.1733 6.832 58.1733 7.304V7.34H60.8253ZM67.9612 11C67.8812 11 67.8132 10.972 67.7572 10.916C67.7012 10.86 67.6732 10.792 67.6732 10.712V5.048C67.6732 4.968 67.7012 4.9 67.7572 4.844C67.8132 4.788 67.8812 4.76 67.9612 4.76H68.8972C68.9772 4.76 69.0452 4.788 69.1012 4.844C69.1572 4.9 69.1852 4.968 69.1852 5.048V5.456C69.6012 4.912 70.1812 4.64 70.9252 4.64C71.8132 4.64 72.4332 4.996 72.7852 5.708C72.9772 5.388 73.2492 5.132 73.6012 4.94C73.9532 4.74 74.3332 4.64 74.7412 4.64C75.3972 4.64 75.9332 4.864 76.3492 5.312C76.7652 5.76 76.9732 6.412 76.9732 7.268V10.712C76.9732 10.792 76.9452 10.86 76.8892 10.916C76.8412 10.972 76.7732 11 76.6852 11H75.7012C75.6212 11 75.5532 10.972 75.4972 10.916C75.4412 10.86 75.4132 10.792 75.4132 10.712V7.364C75.4132 6.86 75.3052 6.496 75.0892 6.272C74.8812 6.04 74.6012 5.924 74.2492 5.924C73.9372 5.924 73.6692 6.04 73.4452 6.272C73.2292 6.504 73.1212 6.868 73.1212 7.364V10.712C73.1212 10.792 73.0932 10.86 73.0372 10.916C72.9812 10.972 72.9132 11 72.8332 11H71.8492C71.7692 11 71.7012 10.972 71.6452 10.916C71.5892 10.86 71.5612 10.792 71.5612 10.712V7.364C71.5612 6.86 71.4492 6.496 71.2252 6.272C71.0092 6.04 70.7332 5.924 70.3972 5.924C70.0772 5.924 69.8052 6.04 69.5812 6.272C69.3652 6.504 69.2572 6.868 69.2572 7.364V10.712C69.2572 10.792 69.2292 10.86 69.1732 10.916C69.1172 10.972 69.0492 11 68.9692 11H67.9612ZM79.3414 3.728C79.2614 3.728 79.1934 3.7 79.1374 3.644C79.0814 3.588 79.0534 3.52 79.0534 3.44V2.576C79.0534 2.496 79.0814 2.428 79.1374 2.372C79.1934 2.316 79.2614 2.288 79.3414 2.288H80.4334C80.5134 2.288 80.5814 2.316 80.6374 2.372C80.7014 2.428 80.7334 2.496 80.7334 2.576V3.44C80.7334 3.52 80.7054 3.588 80.6494 3.644C80.5934 3.7 80.5214 3.728 80.4334 3.728H79.3414ZM79.3894 11C79.3094 11 79.2414 10.972 79.1854 10.916C79.1294 10.86 79.1014 10.792 79.1014 10.712V5.048C79.1014 4.968 79.1294 4.9 79.1854 4.844C79.2414 4.788 79.3094 4.76 79.3894 4.76H80.3854C80.4734 4.76 80.5414 4.788 80.5894 4.844C80.6454 4.892 80.6734 4.96 80.6734 5.048V10.712C80.6734 10.792 80.6454 10.86 80.5894 10.916C80.5414 10.972 80.4734 11 80.3854 11H79.3894ZM85.6854 11C84.9574 11 84.4094 10.812 84.0414 10.436C83.6814 10.052 83.5014 9.492 83.5014 8.756V6.032H82.5534C82.4734 6.032 82.4054 6.004 82.3494 5.948C82.2934 5.884 82.2654 5.812 82.2654 5.732V5.048C82.2654 4.968 82.2934 4.9 82.3494 4.844C82.4054 4.788 82.4734 4.76 82.5534 4.76H83.5014V2.768C83.5014 2.68 83.5294 2.612 83.5854 2.564C83.6414 2.508 83.7094 2.48 83.7894 2.48H84.7614C84.8494 2.48 84.9174 2.508 84.9654 2.564C85.0214 2.612 85.0494 2.68 85.0494 2.768V4.76H86.5494C86.6374 4.76 86.7054 4.788 86.7534 4.844C86.8094 4.892 86.8374 4.96 86.8374 5.048V5.732C86.8374 5.82 86.8094 5.892 86.7534 5.948C86.6974 6.004 86.6294 6.032 86.5494 6.032H85.0494V8.636C85.0494 8.98 85.1094 9.24 85.2294 9.416C85.3494 9.592 85.5494 9.68 85.8294 9.68H86.6574C86.7374 9.68 86.8054 9.708 86.8614 9.764C86.9174 9.82 86.9454 9.888 86.9454 9.968V10.712C86.9454 10.792 86.9174 10.86 86.8614 10.916C86.8134 10.972 86.7454 11 86.6574 11H85.6854ZM1.092 27C1.012 27 0.944 26.972 0.888 26.916C0.832 26.86 0.804 26.792 0.804 26.712V18.768C0.804 18.68 0.832 18.612 0.888 18.564C0.944 18.508 1.012 18.48 1.092 18.48H2.16C2.248 18.48 2.316 18.508 2.364 18.564C2.42 18.612 2.448 18.68 2.448 18.768V21.504C2.928 20.928 3.576 20.64 4.392 20.64C5.128 20.64 5.716 20.884 6.156 21.372C6.596 21.852 6.816 22.508 6.816 23.34V26.712C6.816 26.792 6.788 26.86 6.732 26.916C6.684 26.972 6.616 27 6.528 27H5.448C5.368 27 5.3 26.972 5.244 26.916C5.188 26.86 5.16 26.792 5.16 26.712V23.412C5.16 22.94 5.044 22.576 4.812 22.32C4.588 22.056 4.26 21.924 3.828 21.924C3.404 21.924 3.068 22.056 2.82 22.32C2.572 22.584 2.448 22.948 2.448 23.412V26.712C2.448 26.792 2.42 26.86 2.364 26.916C2.316 26.972 2.248 27 2.16 27H1.092ZM11.6989 27.12C10.7629 27.12 10.0389 26.88 9.52688 26.4C9.01488 25.912 8.73888 25.248 8.69888 24.408L8.68688 23.88L8.69888 23.352C8.73888 22.52 9.01888 21.86 9.53888 21.372C10.0589 20.884 10.7789 20.64 11.6989 20.64C12.6189 20.64 13.3389 20.884 13.8589 21.372C14.3789 21.86 14.6589 22.52 14.6989 23.352C14.7069 23.448 14.7109 23.624 14.7109 23.88C14.7109 24.136 14.7069 24.312 14.6989 24.408C14.6589 25.248 14.3829 25.912 13.8709 26.4C13.3589 26.88 12.6349 27.12 11.6989 27.12ZM11.6989 25.932C12.1229 25.932 12.4509 25.8 12.6829 25.536C12.9149 25.264 13.0429 24.868 13.0669 24.348C13.0749 24.268 13.0789 24.112 13.0789 23.88C13.0789 23.648 13.0749 23.492 13.0669 23.412C13.0429 22.892 12.9149 22.5 12.6829 22.236C12.4509 21.964 12.1229 21.828 11.6989 21.828C11.2749 21.828 10.9469 21.964 10.7149 22.236C10.4829 22.5 10.3549 22.892 10.3309 23.412L10.3189 23.88L10.3309 24.348C10.3549 24.868 10.4829 25.264 10.7149 25.536C10.9469 25.8 11.2749 25.932 11.6989 25.932ZM16.9404 27C16.8604 27 16.7924 26.972 16.7364 26.916C16.6804 26.86 16.6524 26.792 16.6524 26.712V18.768C16.6524 18.68 16.6804 18.612 16.7364 18.564C16.7924 18.508 16.8604 18.48 16.9404 18.48H18.0084C18.0964 18.48 18.1644 18.508 18.2124 18.564C18.2684 18.612 18.2964 18.68 18.2964 18.768V21.504C18.7764 20.928 19.4244 20.64 20.2404 20.64C20.9764 20.64 21.5644 20.884 22.0044 21.372C22.4444 21.852 22.6644 22.508 22.6644 23.34V26.712C22.6644 26.792 22.6364 26.86 22.5804 26.916C22.5324 26.972 22.4644 27 22.3764 27H21.2964C21.2164 27 21.1484 26.972 21.0924 26.916C21.0364 26.86 21.0084 26.792 21.0084 26.712V23.412C21.0084 22.94 20.8924 22.576 20.6604 22.32C20.4364 22.056 20.1084 21.924 19.6764 21.924C19.2524 21.924 18.9164 22.056 18.6684 22.32C18.4204 22.584 18.2964 22.948 18.2964 23.412V26.712C18.2964 26.792 18.2684 26.86 18.2124 26.916C18.1644 26.972 18.0964 27 18.0084 27H16.9404ZM27.4753 27.12C26.5873 27.12 25.8793 26.864 25.3513 26.352C24.8313 25.832 24.5553 25.104 24.5233 24.168L24.5113 23.868L24.5233 23.568C24.5633 22.656 24.8433 21.94 25.3633 21.42C25.8913 20.9 26.5953 20.64 27.4753 20.64C28.4193 20.64 29.1473 20.928 29.6593 21.504C30.1793 22.08 30.4393 22.848 30.4393 23.808V24.06C30.4393 24.14 30.4113 24.208 30.3553 24.264C30.2993 24.32 30.2273 24.348 30.1393 24.348H26.1553V24.444C26.1713 24.884 26.2913 25.256 26.5153 25.56C26.7473 25.856 27.0633 26.004 27.4633 26.004C27.9353 26.004 28.3153 25.82 28.6033 25.452C28.6753 25.364 28.7313 25.308 28.7713 25.284C28.8193 25.26 28.8873 25.248 28.9753 25.248H30.0073C30.0793 25.248 30.1393 25.272 30.1873 25.32C30.2433 25.36 30.2713 25.412 30.2713 25.476C30.2713 25.668 30.1553 25.896 29.9233 26.16C29.6993 26.416 29.3753 26.64 28.9513 26.832C28.5273 27.024 28.0353 27.12 27.4753 27.12ZM28.8073 23.34V23.304C28.8073 22.832 28.6873 22.452 28.4473 22.164C28.2153 21.876 27.8913 21.732 27.4753 21.732C27.0593 21.732 26.7353 21.876 26.5033 22.164C26.2713 22.452 26.1553 22.832 26.1553 23.304V23.34H28.8073ZM32.6011 27C32.5211 27 32.4531 26.972 32.3971 26.916C32.3411 26.86 32.3131 26.792 32.3131 26.712V21.048C32.3131 20.968 32.3411 20.9 32.3971 20.844C32.4531 20.788 32.5211 20.76 32.6011 20.76H33.5371C33.6171 20.76 33.6851 20.788 33.7411 20.844C33.7971 20.9 33.8251 20.968 33.8251 21.048V21.456C34.2411 20.912 34.8211 20.64 35.5651 20.64C36.4531 20.64 37.0731 20.996 37.4251 21.708C37.6171 21.388 37.8891 21.132 38.2411 20.94C38.5931 20.74 38.9731 20.64 39.3811 20.64C40.0371 20.64 40.5731 20.864 40.9891 21.312C41.4051 21.76 41.6131 22.412 41.6131 23.268V26.712C41.6131 26.792 41.5851 26.86 41.5291 26.916C41.4811 26.972 41.4131 27 41.3251 27H40.3411C40.2611 27 40.1931 26.972 40.1371 26.916C40.0811 26.86 40.0531 26.792 40.0531 26.712V23.364C40.0531 22.86 39.9451 22.496 39.7291 22.272C39.5211 22.04 39.2411 21.924 38.8891 21.924C38.5771 21.924 38.3091 22.04 38.0851 22.272C37.8691 22.504 37.7611 22.868 37.7611 23.364V26.712C37.7611 26.792 37.7331 26.86 37.6771 26.916C37.6211 26.972 37.5531 27 37.4731 27H36.4891C36.4091 27 36.3411 26.972 36.2851 26.916C36.2291 26.86 36.2011 26.792 36.2011 26.712V23.364C36.2011 22.86 36.0891 22.496 35.8651 22.272C35.6491 22.04 35.3731 21.924 35.0371 21.924C34.7171 21.924 34.4451 22.04 34.2211 22.272C34.0051 22.504 33.8971 22.868 33.8971 23.364V26.712C33.8971 26.792 33.8691 26.86 33.8131 26.916C33.7571 26.972 33.6891 27 33.6091 27H32.6011ZM47.5154 27C47.4354 27 47.3674 26.972 47.3114 26.916C47.2554 26.86 47.2274 26.792 47.2274 26.712V18.9C47.2274 18.812 47.2514 18.74 47.2994 18.684C47.3554 18.628 47.4274 18.6 47.5154 18.6H52.7954C52.8834 18.6 52.9554 18.628 53.0114 18.684C53.0674 18.74 53.0954 18.812 53.0954 18.9V19.692C53.0954 19.78 53.0674 19.852 53.0114 19.908C52.9554 19.956 52.8834 19.98 52.7954 19.98H48.8474V22.104H52.5314C52.6194 22.104 52.6914 22.132 52.7474 22.188C52.8034 22.236 52.8314 22.304 52.8314 22.392V23.136C52.8314 23.224 52.8034 23.296 52.7474 23.352C52.6914 23.4 52.6194 23.424 52.5314 23.424H48.8474V25.62H52.8914C52.9794 25.62 53.0514 25.648 53.1074 25.704C53.1634 25.76 53.1914 25.832 53.1914 25.92V26.712C53.1914 26.8 53.1634 26.872 53.1074 26.928C53.0514 26.976 52.9794 27 52.8914 27H47.5154ZM55.3883 19.728C55.3083 19.728 55.2403 19.7 55.1843 19.644C55.1283 19.588 55.1003 19.52 55.1003 19.44V18.576C55.1003 18.496 55.1283 18.428 55.1843 18.372C55.2403 18.316 55.3083 18.288 55.3883 18.288H56.4803C56.5603 18.288 56.6283 18.316 56.6843 18.372C56.7483 18.428 56.7803 18.496 56.7803 18.576V19.44C56.7803 19.52 56.7523 19.588 56.6963 19.644C56.6403 19.7 56.5683 19.728 56.4803 19.728H55.3883ZM55.4363 27C55.3563 27 55.2883 26.972 55.2323 26.916C55.1763 26.86 55.1483 26.792 55.1483 26.712V21.048C55.1483 20.968 55.1763 20.9 55.2323 20.844C55.2883 20.788 55.3563 20.76 55.4363 20.76H56.4323C56.5203 20.76 56.5883 20.788 56.6363 20.844C56.6923 20.892 56.7203 20.96 56.7203 21.048V26.712C56.7203 26.792 56.6923 26.86 56.6363 26.916C56.5883 26.972 56.5203 27 56.4323 27H55.4363ZM59.2003 27C59.1203 27 59.0523 26.972 58.9963 26.916C58.9403 26.86 58.9123 26.792 58.9123 26.712V21.048C58.9123 20.968 58.9403 20.9 58.9963 20.844C59.0523 20.788 59.1203 20.76 59.2003 20.76H60.1843C60.2643 20.76 60.3323 20.788 60.3883 20.844C60.4443 20.9 60.4723 20.968 60.4723 21.048V21.54C60.9443 20.94 61.6123 20.64 62.4763 20.64C63.2123 20.64 63.7963 20.884 64.2283 21.372C64.6603 21.852 64.8763 22.508 64.8763 23.34V26.712C64.8763 26.792 64.8483 26.86 64.7923 26.916C64.7443 26.972 64.6763 27 64.5883 27H63.5323C63.4523 27 63.3843 26.972 63.3283 26.916C63.2723 26.86 63.2443 26.792 63.2443 26.712V23.412C63.2443 22.94 63.1283 22.576 62.8963 22.32C62.6723 22.056 62.3443 21.924 61.9123 21.924C61.4883 21.924 61.1523 22.056 60.9043 22.32C60.6643 22.584 60.5443 22.948 60.5443 23.412V26.712C60.5443 26.792 60.5163 26.86 60.4603 26.916C60.4123 26.972 60.3443 27 60.2563 27H59.2003ZM67.3006 27C67.2206 27 67.1526 26.972 67.0966 26.916C67.0406 26.86 67.0126 26.792 67.0126 26.712V18.768C67.0126 18.68 67.0406 18.612 67.0966 18.564C67.1526 18.508 67.2206 18.48 67.3006 18.48H68.2726C68.3606 18.48 68.4286 18.508 68.4766 18.564C68.5326 18.612 68.5606 18.68 68.5606 18.768V22.872L70.5766 20.964C70.6006 20.948 70.6406 20.916 70.6966 20.868C70.7446 20.828 70.7926 20.8 70.8406 20.784C70.8886 20.768 70.9486 20.76 71.0206 20.76H72.1366C72.2166 20.76 72.2806 20.784 72.3286 20.832C72.3766 20.88 72.4006 20.944 72.4006 21.024C72.4006 21.096 72.3606 21.168 72.2806 21.24L69.8086 23.556L72.5806 26.532C72.6606 26.612 72.7006 26.68 72.7006 26.736C72.7006 26.816 72.6726 26.88 72.6166 26.928C72.5686 26.976 72.5086 27 72.4366 27H71.2966C71.1846 27 71.1006 26.988 71.0446 26.964C70.9966 26.932 70.9326 26.876 70.8526 26.796L68.5606 24.384V26.712C68.5606 26.792 68.5326 26.86 68.4766 26.916C68.4286 26.972 68.3606 27 68.2726 27H67.3006ZM76.6653 27.12C75.7293 27.12 75.0053 26.88 74.4933 26.4C73.9813 25.912 73.7053 25.248 73.6653 24.408L73.6533 23.88L73.6653 23.352C73.7053 22.52 73.9853 21.86 74.5053 21.372C75.0253 20.884 75.7453 20.64 76.6653 20.64C77.5853 20.64 78.3053 20.884 78.8253 21.372C79.3453 21.86 79.6253 22.52 79.6653 23.352C79.6733 23.448 79.6773 23.624 79.6773 23.88C79.6773 24.136 79.6733 24.312 79.6653 24.408C79.6253 25.248 79.3493 25.912 78.8373 26.4C78.3253 26.88 77.6013 27.12 76.6653 27.12ZM76.6653 25.932C77.0893 25.932 77.4173 25.8 77.6493 25.536C77.8813 25.264 78.0093 24.868 78.0333 24.348C78.0413 24.268 78.0453 24.112 78.0453 23.88C78.0453 23.648 78.0413 23.492 78.0333 23.412C78.0093 22.892 77.8813 22.5 77.6493 22.236C77.4173 21.964 77.0893 21.828 76.6653 21.828C76.2413 21.828 75.9133 21.964 75.6813 22.236C75.4493 22.5 75.3213 22.892 75.2973 23.412L75.2853 23.88L75.2973 24.348C75.3213 24.868 75.4493 25.264 75.6813 25.536C75.9133 25.8 76.2413 25.932 76.6653 25.932ZM81.8948 27C81.8148 27 81.7468 26.972 81.6908 26.916C81.6348 26.86 81.6068 26.792 81.6068 26.712V21.048C81.6068 20.968 81.6348 20.9 81.6908 20.844C81.7468 20.788 81.8148 20.76 81.8948 20.76H82.8308C82.9108 20.76 82.9788 20.788 83.0348 20.844C83.0908 20.9 83.1188 20.968 83.1188 21.048V21.456C83.5348 20.912 84.1148 20.64 84.8588 20.64C85.7468 20.64 86.3668 20.996 86.7188 21.708C86.9108 21.388 87.1828 21.132 87.5348 20.94C87.8868 20.74 88.2668 20.64 88.6748 20.64C89.3308 20.64 89.8668 20.864 90.2828 21.312C90.6988 21.76 90.9068 22.412 90.9068 23.268V26.712C90.9068 26.792 90.8788 26.86 90.8228 26.916C90.7748 26.972 90.7068 27 90.6188 27H89.6348C89.5548 27 89.4868 26.972 89.4308 26.916C89.3748 26.86 89.3468 26.792 89.3468 26.712V23.364C89.3468 22.86 89.2388 22.496 89.0228 22.272C88.8148 22.04 88.5348 21.924 88.1828 21.924C87.8708 21.924 87.6028 22.04 87.3788 22.272C87.1628 22.504 87.0548 22.868 87.0548 23.364V26.712C87.0548 26.792 87.0268 26.86 86.9708 26.916C86.9148 26.972 86.8468 27 86.7668 27H85.7828C85.7028 27 85.6348 26.972 85.5788 26.916C85.5228 26.86 85.4948 26.792 85.4948 26.712V23.364C85.4948 22.86 85.3828 22.496 85.1588 22.272C84.9428 22.04 84.6668 21.924 84.3308 21.924C84.0108 21.924 83.7388 22.04 83.5148 22.272C83.2988 22.504 83.1908 22.868 83.1908 23.364V26.712C83.1908 26.792 83.1628 26.86 83.1068 26.916C83.0508 26.972 82.9828 27 82.9028 27H81.8948ZM93.323 27C93.243 27 93.175 26.972 93.119 26.916C93.063 26.86 93.035 26.792 93.035 26.712V21.048C93.035 20.968 93.063 20.9 93.119 20.844C93.175 20.788 93.243 20.76 93.323 20.76H94.259C94.339 20.76 94.407 20.788 94.463 20.844C94.519 20.9 94.547 20.968 94.547 21.048V21.456C94.963 20.912 95.543 20.64 96.287 20.64C97.175 20.64 97.795 20.996 98.147 21.708C98.339 21.388 98.611 21.132 98.963 20.94C99.315 20.74 99.695 20.64 100.103 20.64C100.759 20.64 101.295 20.864 101.711 21.312C102.127 21.76 102.335 22.412 102.335 23.268V26.712C102.335 26.792 102.307 26.86 102.251 26.916C102.203 26.972 102.135 27 102.047 27H101.063C100.983 27 100.915 26.972 100.859 26.916C100.803 26.86 100.775 26.792 100.775 26.712V23.364C100.775 22.86 100.667 22.496 100.451 22.272C100.243 22.04 99.963 21.924 99.611 21.924C99.299 21.924 99.031 22.04 98.807 22.272C98.591 22.504 98.483 22.868 98.483 23.364V26.712C98.483 26.792 98.455 26.86 98.399 26.916C98.343 26.972 98.275 27 98.195 27H97.211C97.131 27 97.063 26.972 97.007 26.916C96.951 26.86 96.923 26.792 96.923 26.712V23.364C96.923 22.86 96.811 22.496 96.587 22.272C96.371 22.04 96.095 21.924 95.759 21.924C95.439 21.924 95.167 22.04 94.943 22.272C94.727 22.504 94.619 22.868 94.619 23.364V26.712C94.619 26.792 94.591 26.86 94.535 26.916C94.479 26.972 94.411 27 94.331 27H93.323ZM107.151 27.12C106.263 27.12 105.555 26.864 105.027 26.352C104.507 25.832 104.231 25.104 104.199 24.168L104.187 23.868L104.199 23.568C104.239 22.656 104.519 21.94 105.039 21.42C105.567 20.9 106.271 20.64 107.151 20.64C108.095 20.64 108.823 20.928 109.335 21.504C109.855 22.08 110.115 22.848 110.115 23.808V24.06C110.115 24.14 110.087 24.208 110.031 24.264C109.975 24.32 109.903 24.348 109.815 24.348H105.831V24.444C105.847 24.884 105.967 25.256 106.191 25.56C106.423 25.856 106.739 26.004 107.139 26.004C107.611 26.004 107.991 25.82 108.279 25.452C108.351 25.364 108.407 25.308 108.447 25.284C108.495 25.26 108.563 25.248 108.651 25.248H109.683C109.755 25.248 109.815 25.272 109.863 25.32C109.919 25.36 109.947 25.412 109.947 25.476C109.947 25.668 109.831 25.896 109.599 26.16C109.375 26.416 109.051 26.64 108.627 26.832C108.203 27.024 107.711 27.12 107.151 27.12ZM108.483 23.34V23.304C108.483 22.832 108.363 22.452 108.123 22.164C107.891 21.876 107.567 21.732 107.151 21.732C106.735 21.732 106.411 21.876 106.179 22.164C105.947 22.452 105.831 22.832 105.831 23.304V23.34H108.483ZM112.277 27C112.197 27 112.129 26.972 112.073 26.916C112.017 26.86 111.989 26.792 111.989 26.712V21.048C111.989 20.968 112.017 20.9 112.073 20.844C112.129 20.788 112.197 20.76 112.277 20.76H113.261C113.341 20.76 113.409 20.788 113.465 20.844C113.521 20.9 113.549 20.968 113.549 21.048V21.54C114.021 20.94 114.689 20.64 115.553 20.64C116.289 20.64 116.873 20.884 117.305 21.372C117.737 21.852 117.953 22.508 117.953 23.34V26.712C117.953 26.792 117.925 26.86 117.869 26.916C117.821 26.972 117.753 27 117.665 27H116.609C116.529 27 116.461 26.972 116.405 26.916C116.349 26.86 116.321 26.792 116.321 26.712V23.412C116.321 22.94 116.205 22.576 115.973 22.32C115.749 22.056 115.421 21.924 114.989 21.924C114.565 21.924 114.229 22.056 113.981 22.32C113.741 22.584 113.621 22.948 113.621 23.412V26.712C113.621 26.792 113.593 26.86 113.537 26.916C113.489 26.972 113.421 27 113.333 27H112.277Z" fill="#333333"/>
<path d="M402.2 40H284.2V79.45H402.2V40Z" fill="#034E7B"/>
<mask id="mask0" mask-type="alpha" maskUnits="userSpaceOnUse" x="184" y="38" width="284" height="44">
<line x1="226.707" y1="38.7071" x2="184.707" y2="80.7071" stroke="#470184" stroke-width="2"/>
<line x1="234.707" y1="38.7071" x2="192.707" y2="80.7071" stroke="#470184" stroke-width="2"/>
<line x1="242.707" y1="38.7071" x2="200.707" y2="80.7071" stroke="#470184" stroke-width="2"/>
<line x1="250.707" y1="38.7071" x2="208.707" y2="80.7071" stroke="#470184" stroke-width="2"/>
<line x1="258.707" y1="38.7071" x2="216.707" y2="80.7071" stroke="#470184" stroke-width="2"/>
<line x1="266.707" y1="38.7071" x2="224.707" y2="80.7071" stroke="#470184" stroke-width="2"/>
<line x1="274.707" y1="38.7071" x2="232.707" y2="80.7071" stroke="#470184" stroke-width="2"/>
<line x1="282.707" y1="38.7071" x2="240.707" y2="80.7071" stroke="#470184" stroke-width="2"/>
<line x1="290.707" y1="38.7071" x2="248.707" y2="80.7071" stroke="#470184" stroke-width="2"/>
<line x1="298.707" y1="38.7071" x2="256.707" y2="80.7071" stroke="#470184" stroke-width="2"/>
<line x1="306.707" y1="38.7071" x2="264.707" y2="80.7071" stroke="#470184" stroke-width="2"/>
<line x1="314.707" y1="38.7071" x2="272.707" y2="80.7071" stroke="#470184" stroke-width="2"/>
<line x1="322.707" y1="38.7071" x2="280.707" y2="80.7071" stroke="#470184" stroke-width="2"/>
<line x1="330.707" y1="38.7071" x2="288.707" y2="80.7071" stroke="#470184" stroke-width="2"/>
<line x1="338.707" y1="38.7071" x2="296.707" y2="80.7071" stroke="#470184" stroke-width="2"/>
<line x1="346.707" y1="38.7071" x2="304.707" y2="80.7071" stroke="#470184" stroke-width="2"/>
<line x1="354.707" y1="38.7071" x2="312.707" y2="80.7071" stroke="#470184" stroke-width="2"/>
<line x1="362.707" y1="38.7071" x2="320.707" y2="80.7071" stroke="#470184" stroke-width="2"/>
<line x1="370.707" y1="38.7071" x2="328.707" y2="80.7071" stroke="#470184" stroke-width="2"/>
<line x1="378.707" y1="38.7071" x2="336.707" y2="80.7071" stroke="#470184" stroke-width="2"/>
<line x1="386.707" y1="38.7071" x2="344.707" y2="80.7071" stroke="#470184" stroke-width="2"/>
<line x1="394.707" y1="38.7071" x2="352.707" y2="80.7071" stroke="#470184" stroke-width="2"/>
<line x1="402.707" y1="38.7071" x2="360.707" y2="80.7071" stroke="#470184" stroke-width="2"/>
<line x1="410.707" y1="38.7071" x2="368.707" y2="80.7071" stroke="#470184" stroke-width="2"/>
<line x1="418.707" y1="38.7071" x2="376.707" y2="80.7071" stroke="#470184" stroke-width="2"/>
<line x1="426.707" y1="38.7071" x2="384.707" y2="80.7071" stroke="#470184" stroke-width="2"/>
<line x1="434.707" y1="38.7071" x2="392.707" y2="80.7071" stroke="#470184" stroke-width="2"/>
<line x1="442.707" y1="38.7071" x2="400.707" y2="80.7071" stroke="#470184" stroke-width="2"/>
</mask>
<g mask="url(#mask0)">
<path d="M402.2 40H284.2V79.45H402.2V40Z" fill="#046AA7"/>
</g>
<path d="M279.2 40H108.7V79.4506H279.2V40Z" fill="#0570B0"/>
<mask id="mask1" mask-type="alpha" maskUnits="userSpaceOnUse" x="57" y="38" width="284" height="44">
<line x1="99.7071" y1="38.7071" x2="57.7071" y2="80.7071" stroke="#A55F8A" stroke-width="2"/>
<line x1="107.707" y1="38.7071" x2="65.7071" y2="80.7071" stroke="#A55F8A" stroke-width="2"/>
<line x1="115.707" y1="38.7071" x2="73.7071" y2="80.7071" stroke="#A55F8A" stroke-width="2"/>
<line x1="123.707" y1="38.7071" x2="81.7071" y2="80.7071" stroke="#A55F8A" stroke-width="2"/>
<line x1="131.707" y1="38.7071" x2="89.7071" y2="80.7071" stroke="#A55F8A" stroke-width="2"/>
<line x1="139.707" y1="38.7071" x2="97.7071" y2="80.7071" stroke="#A55F8A" stroke-width="2"/>
<line x1="147.707" y1="38.7071" x2="105.707" y2="80.7071" stroke="#A55F8A" stroke-width="2"/>
<line x1="155.707" y1="38.7071" x2="113.707" y2="80.7071" stroke="#A55F8A" stroke-width="2"/>
<line x1="163.707" y1="38.7071" x2="121.707" y2="80.7071" stroke="#A55F8A" stroke-width="2"/>
<line x1="171.707" y1="38.7071" x2="129.707" y2="80.7071" stroke="#A55F8A" stroke-width="2"/>
<line x1="179.707" y1="38.7071" x2="137.707" y2="80.7071" stroke="#A55F8A" stroke-width="2"/>
<line x1="187.707" y1="38.7071" x2="145.707" y2="80.7071" stroke="#A55F8A" stroke-width="2"/>
<line x1="195.707" y1="38.7071" x2="153.707" y2="80.7071" stroke="#A55F8A" stroke-width="2"/>
<line x1="203.707" y1="38.7071" x2="161.707" y2="80.7071" stroke="#A55F8A" stroke-width="2"/>
<line x1="211.707" y1="38.7071" x2="169.707" y2="80.7071" stroke="#A55F8A" stroke-width="2"/>
<line x1="219.707" y1="38.7071" x2="177.707" y2="80.7071" stroke="#A55F8A" stroke-width="2"/>
<line x1="227.707" y1="38.7071" x2="185.707" y2="80.7071" stroke="#A55F8A" stroke-width="2"/>
<line x1="235.707" y1="38.7071" x2="193.707" y2="80.7071" stroke="#A55F8A" stroke-width="2"/>
<line x1="243.707" y1="38.7071" x2="201.707" y2="80.7071" stroke="#A55F8A" stroke-width="2"/>
<line x1="251.707" y1="38.7071" x2="209.707" y2="80.7071" stroke="#A55F8A" stroke-width="2"/>
<line x1="259.707" y1="38.7071" x2="217.707" y2="80.7071" stroke="#A55F8A" stroke-width="2"/>
<line x1="267.707" y1="38.7071" x2="225.707" y2="80.7071" stroke="#A55F8A" stroke-width="2"/>
<line x1="275.707" y1="38.7071" x2="233.707" y2="80.7071" stroke="#A55F8A" stroke-width="2"/>
<line x1="283.707" y1="38.7071" x2="241.707" y2="80.7071" stroke="#A55F8A" stroke-width="2"/>
<line x1="291.707" y1="38.7071" x2="249.707" y2="80.7071" stroke="#A55F8A" stroke-width="2"/>
<line x1="299.707" y1="38.7071" x2="257.707" y2="80.7071" stroke="#A55F8A" stroke-width="2"/>
<line x1="307.707" y1="38.7071" x2="265.707" y2="80.7071" stroke="#A55F8A" stroke-width="2"/>
<line x1="315.707" y1="38.7071" x2="273.707" y2="80.7071" stroke="#A55F8A" stroke-width="2"/>
<line x1="323.707" y1="38.7071" x2="281.707" y2="80.7071" stroke="#A55F8A" stroke-width="2"/>
<line x1="331.707" y1="38.7071" x2="289.707" y2="80.7071" stroke="#A55F8A" stroke-width="2"/>
<line x1="339.707" y1="38.7071" x2="297.707" y2="80.7071" stroke="#A55F8A" stroke-width="2"/>
</mask>
<g mask="url(#mask1)">
<path d="M279.2 40H108.7V79.4506H279.2V40Z" fill="#0991E2"/>
</g>
<path d="M104 40H0V79H104V40Z" fill="#A6BDDD"/>
<mask id="mask2" mask-type="alpha" maskUnits="userSpaceOnUse" x="-47" y="37" width="196" height="44">
<line x1="3.70711" y1="37.7071" x2="-38.2929" y2="79.7071" stroke="#333333" stroke-width="2"/>
<line x1="11.7071" y1="37.7071" x2="-30.2929" y2="79.7071" stroke="#333333" stroke-width="2"/>
<line x1="19.7071" y1="37.7071" x2="-22.2929" y2="79.7071" stroke="#333333" stroke-width="2"/>
<line x1="27.7071" y1="37.7071" x2="-14.2929" y2="79.7071" stroke="#333333" stroke-width="2"/>
<line x1="35.7071" y1="37.7071" x2="-6.29289" y2="79.7071" stroke="#333333" stroke-width="2"/>
<line x1="43.7071" y1="37.7071" x2="1.70711" y2="79.7071" stroke="#333333" stroke-width="2"/>
<line x1="51.7071" y1="37.7071" x2="9.70711" y2="79.7071" stroke="#333333" stroke-width="2"/>
<line x1="59.7071" y1="37.7071" x2="17.7071" y2="79.7071" stroke="#333333" stroke-width="2"/>
<line x1="67.7071" y1="37.7071" x2="25.7071" y2="79.7071" stroke="#333333" stroke-width="2"/>
<line x1="75.7071" y1="37.7071" x2="33.7071" y2="79.7071" stroke="#333333" stroke-width="2"/>
<line x1="83.7071" y1="37.7071" x2="41.7071" y2="79.7071" stroke="#333333" stroke-width="2"/>
<line x1="91.7071" y1="37.7071" x2="49.7071" y2="79.7071" stroke="#333333" stroke-width="2"/>
<line x1="99.7071" y1="37.7071" x2="57.7071" y2="79.7071" stroke="#333333" stroke-width="2"/>
<line x1="107.707" y1="37.7071" x2="65.7071" y2="79.7071" stroke="#333333" stroke-width="2"/>
<line x1="115.707" y1="37.7071" x2="73.7071" y2="79.7071" stroke="#333333" stroke-width="2"/>
<line x1="123.707" y1="37.7071" x2="81.7071" y2="79.7071" stroke="#333333" stroke-width="2"/>
<line x1="131.707" y1="37.7071" x2="89.7071" y2="79.7071" stroke="#333333" stroke-width="2"/>
<line x1="139.707" y1="37.7071" x2="97.7071" y2="79.7071" stroke="#333333" stroke-width="2"/>
<line x1="147.707" y1="37.7071" x2="105.707" y2="79.7071" stroke="#333333" stroke-width="2"/>
</mask>
<g mask="url(#mask2)">
<path d="M104 40H0V79H104V40Z" fill="#C2DBFF"/>
</g>
<path d="M74.5485 101C74.4605 101 74.3845 100.972 74.3205 100.916C74.2645 100.86 74.2365 100.788 74.2365 100.7V99.848C74.2365 99.608 74.3365 99.412 74.5365 99.26L75.7845 98.036C76.5125 97.476 77.0645 97.04 77.4405 96.728C77.8165 96.416 78.1005 96.132 78.2925 95.876C78.4845 95.62 78.5805 95.376 78.5805 95.144C78.5805 94.512 78.2685 94.196 77.6445 94.196C77.3165 94.196 77.0645 94.296 76.8885 94.496C76.7125 94.688 76.5965 94.932 76.5405 95.228C76.4925 95.412 76.3565 95.504 76.1325 95.504H74.6325C74.5605 95.504 74.5005 95.48 74.4525 95.432C74.4045 95.384 74.3805 95.324 74.3805 95.252C74.3965 94.74 74.5365 94.272 74.8005 93.848C75.0725 93.416 75.4525 93.076 75.9405 92.828C76.4365 92.572 77.0045 92.444 77.6445 92.444C78.3165 92.444 78.8925 92.552 79.3725 92.768C79.8525 92.984 80.2165 93.288 80.4645 93.68C80.7125 94.072 80.8365 94.528 80.8365 95.048C80.8365 95.608 80.6605 96.12 80.3085 96.584C79.9645 97.04 79.4365 97.536 78.7245 98.072L77.6205 99.188H80.7045C80.7925 99.188 80.8645 99.216 80.9205 99.272C80.9845 99.328 81.0165 99.4 81.0165 99.488V100.7C81.0165 100.788 80.9845 100.86 80.9205 100.916C80.8645 100.972 80.7925 101 80.7045 101H74.5485ZM86.1212 101.12C85.4172 101.12 84.7932 100.996 84.2492 100.748C83.7132 100.492 83.2932 100.136 82.9892 99.68C82.6932 99.224 82.5452 98.704 82.5452 98.12C82.5452 97.408 82.8812 96.596 83.5532 95.684L85.6652 92.84C85.7292 92.768 85.7892 92.712 85.8452 92.672C85.9092 92.624 85.9932 92.6 86.0972 92.6H87.6932C87.7652 92.6 87.8252 92.628 87.8732 92.684C87.9212 92.732 87.9452 92.792 87.9452 92.864C87.9452 92.92 87.9292 92.972 87.8972 93.02L86.2772 95.228C86.3732 95.204 86.4932 95.192 86.6372 95.192C87.1252 95.216 87.5972 95.352 88.0532 95.6C88.5172 95.84 88.8932 96.176 89.1812 96.608C89.4692 97.04 89.6132 97.528 89.6132 98.072C89.6132 98.632 89.4692 99.144 89.1812 99.608C88.8932 100.072 88.4812 100.44 87.9452 100.712C87.4172 100.984 86.8092 101.12 86.1212 101.12ZM86.0972 99.392C86.4652 99.392 86.7772 99.28 87.0332 99.056C87.2892 98.824 87.4172 98.508 87.4172 98.108C87.4172 97.708 87.2892 97.396 87.0332 97.172C86.7852 96.948 86.4732 96.836 86.0972 96.836C85.7212 96.836 85.4052 96.948 85.1492 97.172C84.8932 97.396 84.7652 97.708 84.7652 98.108C84.7652 98.508 84.8932 98.824 85.1492 99.056C85.4052 99.28 85.7212 99.392 86.0972 99.392ZM96.0243 96.836C95.4803 96.836 95.0443 96.696 94.7163 96.416C94.3883 96.128 94.2083 95.744 94.1763 95.264C94.1603 95.024 94.1523 94.856 94.1523 94.76C94.1523 94.664 94.1603 94.456 94.1763 94.136C94.2003 93.648 94.3723 93.26 94.6923 92.972C95.0123 92.684 95.4563 92.54 96.0243 92.54C96.5843 92.54 97.0243 92.684 97.3443 92.972C97.6643 93.26 97.8363 93.648 97.8603 94.136C97.8763 94.456 97.8843 94.664 97.8843 94.76C97.8843 94.856 97.8763 95.024 97.8603 95.264C97.8283 95.744 97.6483 96.128 97.3203 96.416C96.9923 96.696 96.5603 96.836 96.0243 96.836ZM95.0643 101C94.9843 101 94.9163 100.98 94.8603 100.94C94.8123 100.892 94.7883 100.832 94.7883 100.76C94.7883 100.712 94.8043 100.668 94.8363 100.628L100.764 92.828C100.828 92.748 100.888 92.692 100.944 92.66C101 92.62 101.08 92.6 101.184 92.6H102.036C102.116 92.6 102.18 92.624 102.228 92.672C102.284 92.712 102.312 92.768 102.312 92.84C102.312 92.888 102.296 92.932 102.264 92.972L96.3363 100.772C96.2723 100.852 96.2123 100.912 96.1563 100.952C96.1003 100.984 96.0203 101 95.9163 101H95.0643ZM96.0243 95.792C96.3603 95.792 96.5443 95.596 96.5763 95.204C96.5923 94.948 96.6003 94.78 96.6003 94.7C96.6003 94.596 96.5923 94.432 96.5763 94.208C96.5683 94.032 96.5163 93.888 96.4203 93.776C96.3323 93.664 96.2003 93.608 96.0243 93.608C95.8403 93.608 95.7043 93.664 95.6163 93.776C95.5283 93.888 95.4763 94.032 95.4603 94.208C95.4523 94.32 95.4483 94.484 95.4483 94.7C95.4483 94.908 95.4523 95.076 95.4603 95.204C95.4923 95.596 95.6803 95.792 96.0243 95.792ZM101.1 101.06C100.556 101.06 100.12 100.92 99.7923 100.64C99.4723 100.352 99.2923 99.964 99.2523 99.476C99.2443 99.34 99.2403 99.156 99.2403 98.924C99.2403 98.684 99.2443 98.492 99.2523 98.348C99.2843 97.852 99.4563 97.46 99.7683 97.172C100.088 96.884 100.532 96.74 101.1 96.74C101.668 96.74 102.108 96.884 102.42 97.172C102.74 97.46 102.916 97.852 102.948 98.348C102.964 98.668 102.972 98.876 102.972 98.972C102.972 99.068 102.964 99.236 102.948 99.476C102.916 99.956 102.736 100.34 102.408 100.628C102.08 100.916 101.644 101.06 101.1 101.06ZM101.1 100.004C101.284 100.004 101.42 99.948 101.508 99.836C101.596 99.716 101.648 99.572 101.664 99.404C101.68 99.164 101.688 98.996 101.688 98.9C101.688 98.796 101.68 98.632 101.664 98.408C101.648 98.24 101.596 98.1 101.508 97.988C101.42 97.868 101.284 97.808 101.1 97.808C100.916 97.808 100.78 97.868 100.692 97.988C100.604 98.1 100.556 98.24 100.548 98.408C100.54 98.52 100.536 98.684 100.536 98.9C100.536 99.116 100.54 99.284 100.548 99.404C100.564 99.58 100.612 99.724 100.692 99.836C100.78 99.948 100.916 100.004 101.1 100.004Z" fill="#333333"/>
<path d="M251.651 101C251.571 101 251.499 100.972 251.435 100.916C251.379 100.852 251.351 100.78 251.351 100.7V99.344H247.619C247.531 99.344 247.459 99.316 247.403 99.26C247.347 99.204 247.319 99.132 247.319 99.044V97.904C247.319 97.784 247.363 97.66 247.451 97.532L250.943 92.804C251.055 92.668 251.203 92.6 251.387 92.6H253.139C253.227 92.6 253.299 92.628 253.355 92.684C253.411 92.74 253.439 92.812 253.439 92.9V97.556H254.495C254.591 97.556 254.667 97.588 254.723 97.652C254.779 97.708 254.807 97.776 254.807 97.856V99.044C254.807 99.132 254.779 99.204 254.723 99.26C254.667 99.316 254.595 99.344 254.507 99.344H253.439V100.7C253.439 100.78 253.411 100.852 253.355 100.916C253.299 100.972 253.227 101 253.139 101H251.651ZM251.399 97.64V94.808L249.383 97.64H251.399ZM260.442 101C260.362 101 260.29 100.972 260.226 100.916C260.17 100.852 260.142 100.78 260.142 100.7V99.344H256.41C256.322 99.344 256.25 99.316 256.194 99.26C256.138 99.204 256.11 99.132 256.11 99.044V97.904C256.11 97.784 256.154 97.66 256.242 97.532L259.734 92.804C259.846 92.668 259.994 92.6 260.178 92.6H261.93C262.018 92.6 262.09 92.628 262.146 92.684C262.202 92.74 262.23 92.812 262.23 92.9V97.556H263.286C263.382 97.556 263.458 97.588 263.514 97.652C263.57 97.708 263.598 97.776 263.598 97.856V99.044C263.598 99.132 263.57 99.204 263.514 99.26C263.458 99.316 263.386 99.344 263.298 99.344H262.23V100.7C262.23 100.78 262.202 100.852 262.146 100.916C262.09 100.972 262.018 101 261.93 101H260.442ZM260.19 97.64V94.808L258.174 97.64H260.19ZM270.024 96.836C269.48 96.836 269.044 96.696 268.716 96.416C268.388 96.128 268.208 95.744 268.176 95.264C268.16 95.024 268.152 94.856 268.152 94.76C268.152 94.664 268.16 94.456 268.176 94.136C268.2 93.648 268.372 93.26 268.692 92.972C269.012 92.684 269.456 92.54 270.024 92.54C270.584 92.54 271.024 92.684 271.344 92.972C271.664 93.26 271.836 93.648 271.86 94.136C271.876 94.456 271.884 94.664 271.884 94.76C271.884 94.856 271.876 95.024 271.86 95.264C271.828 95.744 271.648 96.128 271.32 96.416C270.992 96.696 270.56 96.836 270.024 96.836ZM269.064 101C268.984 101 268.916 100.98 268.86 100.94C268.812 100.892 268.788 100.832 268.788 100.76C268.788 100.712 268.804 100.668 268.836 100.628L274.764 92.828C274.828 92.748 274.888 92.692 274.944 92.66C275 92.62 275.08 92.6 275.184 92.6H276.036C276.116 92.6 276.18 92.624 276.228 92.672C276.284 92.712 276.312 92.768 276.312 92.84C276.312 92.888 276.296 92.932 276.264 92.972L270.336 100.772C270.272 100.852 270.212 100.912 270.156 100.952C270.1 100.984 270.02 101 269.916 101H269.064ZM270.024 95.792C270.36 95.792 270.544 95.596 270.576 95.204C270.592 94.948 270.6 94.78 270.6 94.7C270.6 94.596 270.592 94.432 270.576 94.208C270.568 94.032 270.516 93.888 270.42 93.776C270.332 93.664 270.2 93.608 270.024 93.608C269.84 93.608 269.704 93.664 269.616 93.776C269.528 93.888 269.476 94.032 269.46 94.208C269.452 94.32 269.448 94.484 269.448 94.7C269.448 94.908 269.452 95.076 269.46 95.204C269.492 95.596 269.68 95.792 270.024 95.792ZM275.1 101.06C274.556 101.06 274.12 100.92 273.792 100.64C273.472 100.352 273.292 99.964 273.252 99.476C273.244 99.34 273.24 99.156 273.24 98.924C273.24 98.684 273.244 98.492 273.252 98.348C273.284 97.852 273.456 97.46 273.768 97.172C274.088 96.884 274.532 96.74 275.1 96.74C275.668 96.74 276.108 96.884 276.42 97.172C276.74 97.46 276.916 97.852 276.948 98.348C276.964 98.668 276.972 98.876 276.972 98.972C276.972 99.068 276.964 99.236 276.948 99.476C276.916 99.956 276.736 100.34 276.408 100.628C276.08 100.916 275.644 101.06 275.1 101.06ZM275.1 100.004C275.284 100.004 275.42 99.948 275.508 99.836C275.596 99.716 275.648 99.572 275.664 99.404C275.68 99.164 275.688 98.996 275.688 98.9C275.688 98.796 275.68 98.632 275.664 98.408C275.648 98.24 275.596 98.1 275.508 97.988C275.42 97.868 275.284 97.808 275.1 97.808C274.916 97.808 274.78 97.868 274.692 97.988C274.604 98.1 274.556 98.24 274.548 98.408C274.54 98.52 274.536 98.684 274.536 98.9C274.536 99.116 274.54 99.284 274.548 99.404C274.564 99.58 274.612 99.724 274.692 99.836C274.78 99.948 274.916 100.004 275.1 100.004Z" fill="#333333"/>
<path d="M377.199 101.12C376.423 101.12 375.771 101 375.243 100.76C374.723 100.52 374.335 100.224 374.079 99.872C373.831 99.512 373.699 99.152 373.683 98.792C373.683 98.72 373.707 98.66 373.755 98.612C373.811 98.564 373.875 98.54 373.947 98.54H375.519C375.607 98.54 375.679 98.556 375.735 98.588C375.791 98.62 375.843 98.68 375.891 98.768C376.051 99.184 376.487 99.392 377.199 99.392C377.607 99.392 377.923 99.3 378.147 99.116C378.379 98.924 378.495 98.664 378.495 98.336C378.495 97.696 378.079 97.376 377.247 97.376H375.915C375.835 97.376 375.763 97.348 375.699 97.292C375.643 97.228 375.615 97.156 375.615 97.076V96.404C375.615 96.228 375.679 96.092 375.807 95.996L377.775 94.328H374.439C374.359 94.328 374.287 94.3 374.223 94.244C374.167 94.18 374.139 94.108 374.139 94.028V92.9C374.139 92.812 374.167 92.74 374.223 92.684C374.287 92.628 374.359 92.6 374.439 92.6H379.959C380.047 92.6 380.119 92.628 380.175 92.684C380.239 92.74 380.271 92.812 380.271 92.9V93.92C380.271 94.072 380.207 94.204 380.079 94.316L378.255 96.008L378.339 96.032C379.075 96.128 379.655 96.376 380.079 96.776C380.511 97.168 380.727 97.732 380.727 98.468C380.727 99.004 380.575 99.472 380.271 99.872C379.967 100.272 379.547 100.58 379.011 100.796C378.475 101.012 377.871 101.12 377.199 101.12ZM385.877 101.12C384.773 101.112 383.937 100.82 383.369 100.244C382.801 99.66 382.493 98.896 382.445 97.952C382.429 97.52 382.421 97.136 382.421 96.8C382.421 96.456 382.429 96.06 382.445 95.612C382.477 95.012 382.621 94.48 382.877 94.016C383.141 93.544 383.525 93.172 384.029 92.9C384.533 92.62 385.149 92.48 385.877 92.48C386.957 92.488 387.789 92.78 388.373 93.356C388.957 93.932 389.273 94.684 389.321 95.612C389.337 96.06 389.345 96.456 389.345 96.8C389.345 97.136 389.337 97.52 389.321 97.952C389.265 98.896 388.953 99.66 388.385 100.244C387.817 100.82 386.981 101.112 385.877 101.12ZM385.877 99.38C386.269 99.38 386.561 99.252 386.753 98.996C386.953 98.732 387.061 98.364 387.077 97.892C387.093 97.66 387.101 97.288 387.101 96.776C387.101 96.264 387.093 95.9 387.077 95.684C387.061 95.228 386.957 94.868 386.765 94.604C386.573 94.34 386.277 94.204 385.877 94.196C385.485 94.204 385.189 94.34 384.989 94.604C384.797 94.868 384.693 95.228 384.677 95.684C384.669 95.9 384.665 96.264 384.665 96.776C384.665 97.288 384.669 97.66 384.677 97.892C384.717 98.884 385.117 99.38 385.877 99.38ZM396.024 96.836C395.48 96.836 395.044 96.696 394.716 96.416C394.388 96.128 394.208 95.744 394.176 95.264C394.16 95.024 394.152 94.856 394.152 94.76C394.152 94.664 394.16 94.456 394.176 94.136C394.2 93.648 394.372 93.26 394.692 92.972C395.012 92.684 395.456 92.54 396.024 92.54C396.584 92.54 397.024 92.684 397.344 92.972C397.664 93.26 397.836 93.648 397.86 94.136C397.876 94.456 397.884 94.664 397.884 94.76C397.884 94.856 397.876 95.024 397.86 95.264C397.828 95.744 397.648 96.128 397.32 96.416C396.992 96.696 396.56 96.836 396.024 96.836ZM395.064 101C394.984 101 394.916 100.98 394.86 100.94C394.812 100.892 394.788 100.832 394.788 100.76C394.788 100.712 394.804 100.668 394.836 100.628L400.764 92.828C400.828 92.748 400.888 92.692 400.944 92.66C401 92.62 401.08 92.6 401.184 92.6H402.036C402.116 92.6 402.18 92.624 402.228 92.672C402.284 92.712 402.312 92.768 402.312 92.84C402.312 92.888 402.296 92.932 402.264 92.972L396.336 100.772C396.272 100.852 396.212 100.912 396.156 100.952C396.1 100.984 396.02 101 395.916 101H395.064ZM396.024 95.792C396.36 95.792 396.544 95.596 396.576 95.204C396.592 94.948 396.6 94.78 396.6 94.7C396.6 94.596 396.592 94.432 396.576 94.208C396.568 94.032 396.516 93.888 396.42 93.776C396.332 93.664 396.2 93.608 396.024 93.608C395.84 93.608 395.704 93.664 395.616 93.776C395.528 93.888 395.476 94.032 395.46 94.208C395.452 94.32 395.448 94.484 395.448 94.7C395.448 94.908 395.452 95.076 395.46 95.204C395.492 95.596 395.68 95.792 396.024 95.792ZM401.1 101.06C400.556 101.06 400.12 100.92 399.792 100.64C399.472 100.352 399.292 99.964 399.252 99.476C399.244 99.34 399.24 99.156 399.24 98.924C399.24 98.684 399.244 98.492 399.252 98.348C399.284 97.852 399.456 97.46 399.768 97.172C400.088 96.884 400.532 96.74 401.1 96.74C401.668 96.74 402.108 96.884 402.42 97.172C402.74 97.46 402.916 97.852 402.948 98.348C402.964 98.668 402.972 98.876 402.972 98.972C402.972 99.068 402.964 99.236 402.948 99.476C402.916 99.956 402.736 100.34 402.408 100.628C402.08 100.916 401.644 101.06 401.1 101.06ZM401.1 100.004C401.284 100.004 401.42 99.948 401.508 99.836C401.596 99.716 401.648 99.572 401.664 99.404C401.68 99.164 401.688 98.996 401.688 98.9C401.688 98.796 401.68 98.632 401.664 98.408C401.648 98.24 401.596 98.1 401.508 97.988C401.42 97.868 401.284 97.808 401.1 97.808C400.916 97.808 400.78 97.868 400.692 97.988C400.604 98.1 400.556 98.24 400.548 98.408C400.54 98.52 400.536 98.684 400.536 98.9C400.536 99.116 400.54 99.284 400.548 99.404C400.564 99.58 400.612 99.724 400.692 99.836C400.78 99.948 400.916 100.004 401.1 100.004Z" fill="#333333"/>
<circle cx="103.5" cy="78.6108" r="2.5" fill="#333333"/>
<rect x="103.222" y="75" width="0.555556" height="16.52" fill="#333333"/>
<mask id="mask3" mask-type="alpha" maskUnits="userSpaceOnUse" x="101" y="76" width="5" height="6">
<circle cx="103.5" cy="78.6108" r="2.5" fill="#333333"/>
</mask>
<g mask="url(#mask3)">
<rect x="103.222" y="75" width="0.555556" height="7.77778" fill="white"/>
</g>
<circle cx="278.85" cy="78.6108" r="2.5" fill="#333333"/>
<rect x="278.571" y="75" width="0.555556" height="16.52" fill="#333333"/>
<mask id="mask4" mask-type="alpha" maskUnits="userSpaceOnUse" x="276" y="76" width="6" height="6">
<circle cx="278.85" cy="78.6108" r="2.5" fill="#333333"/>
</mask>
<g mask="url(#mask4)">
<rect x="278.571" y="75" width="0.555556" height="7.77778" fill="white"/>
</g>
<circle cx="401.85" cy="78.6108" r="2.5" fill="#333333"/>
<rect x="401.571" y="75" width="0.555556" height="16.52" fill="#333333"/>
<mask id="mask5" mask-type="alpha" maskUnits="userSpaceOnUse" x="399" y="76" width="6" height="6">
<circle cx="401.85" cy="78.6108" r="2.5" fill="#333333"/>
</mask>
<g mask="url(#mask5)">
<rect x="401.571" y="75" width="0.555556" height="7.77778" fill="white"/>
</g>
</svg>
