<svg width="408" height="106" viewBox="0 0 408 106" fill="none" xmlns="http://www.w3.org/2000/svg">
<path d="M15.852 11.12C15.14 11.12 14.528 11.012 14.016 10.796C13.504 10.58 13.116 10.296 12.852 9.944C12.588 9.592 12.448 9.212 12.432 8.804C12.432 8.732 12.456 8.672 12.504 8.624C12.552 8.576 12.612 8.552 12.684 8.552H13.752C13.848 8.552 13.92 8.572 13.968 8.612C14.024 8.644 14.076 8.7 14.124 8.78C14.204 9.052 14.388 9.28 14.676 9.464C14.964 9.648 15.356 9.74 15.852 9.74C16.42 9.74 16.848 9.648 17.136 9.464C17.424 9.272 17.568 9.008 17.568 8.672C17.568 8.448 17.492 8.264 17.34 8.12C17.196 7.976 16.976 7.852 16.68 7.748C16.392 7.644 15.96 7.516 15.384 7.364C14.44 7.14 13.748 6.844 13.308 6.476C12.876 6.1 12.66 5.568 12.66 4.88C12.66 4.416 12.784 4.004 13.032 3.644C13.288 3.284 13.652 3 14.124 2.792C14.604 2.584 15.16 2.48 15.792 2.48C16.448 2.48 17.016 2.596 17.496 2.828C17.976 3.06 18.34 3.352 18.588 3.704C18.844 4.048 18.98 4.392 18.996 4.736C18.996 4.808 18.972 4.868 18.924 4.916C18.876 4.964 18.816 4.988 18.744 4.988H17.628C17.46 4.988 17.344 4.912 17.28 4.76C17.232 4.504 17.072 4.292 16.8 4.124C16.528 3.948 16.192 3.86 15.792 3.86C15.344 3.86 14.992 3.944 14.736 4.112C14.48 4.28 14.352 4.524 14.352 4.844C14.352 5.068 14.416 5.252 14.544 5.396C14.672 5.54 14.872 5.668 15.144 5.78C15.424 5.892 15.824 6.016 16.344 6.152C17.048 6.312 17.608 6.492 18.024 6.692C18.448 6.892 18.76 7.144 18.96 7.448C19.16 7.752 19.26 8.14 19.26 8.612C19.26 9.124 19.116 9.572 18.828 9.956C18.548 10.332 18.148 10.62 17.628 10.82C17.116 11.02 16.524 11.12 15.852 11.12ZM23.9112 11C23.1832 11 22.6352 10.812 22.2672 10.436C21.9072 10.052 21.7272 9.492 21.7272 8.756V6.032H20.7792C20.6992 6.032 20.6312 6.004 20.5752 5.948C20.5192 5.884 20.4912 5.812 20.4912 5.732V5.048C20.4912 4.968 20.5192 4.9 20.5752 4.844C20.6312 4.788 20.6992 4.76 20.7792 4.76H21.7272V2.768C21.7272 2.68 21.7552 2.612 21.8112 2.564C21.8672 2.508 21.9352 2.48 22.0152 2.48H22.9872C23.0752 2.48 23.1432 2.508 23.1912 2.564C23.2472 2.612 23.2752 2.68 23.2752 2.768V4.76H24.7752C24.8632 4.76 24.9312 4.788 24.9792 4.844C25.0352 4.892 25.0632 4.96 25.0632 5.048V5.732C25.0632 5.82 25.0352 5.892 24.9792 5.948C24.9232 6.004 24.8552 6.032 24.7752 6.032H23.2752V8.636C23.2752 8.98 23.3352 9.24 23.4552 9.416C23.5752 9.592 23.7752 9.68 24.0552 9.68H24.8832C24.9632 9.68 25.0312 9.708 25.0872 9.764C25.1432 9.82 25.1712 9.888 25.1712 9.968V10.712C25.1712 10.792 25.1432 10.86 25.0872 10.916C25.0392 10.972 24.9712 11 24.8832 11H23.9112ZM28.6478 11.12C28.2398 11.12 27.8638 11.04 27.5198 10.88C27.1838 10.712 26.9158 10.488 26.7158 10.208C26.5238 9.928 26.4278 9.62 26.4278 9.284C26.4278 8.74 26.6478 8.3 27.0878 7.964C27.5278 7.628 28.1318 7.4 28.8998 7.28L30.5438 7.04V6.788C30.5438 6.436 30.4558 6.172 30.2798 5.996C30.1038 5.82 29.8198 5.732 29.4278 5.732C29.1638 5.732 28.9478 5.784 28.7798 5.888C28.6198 5.984 28.4918 6.08 28.3958 6.176C28.2998 6.28 28.2358 6.348 28.2038 6.38C28.1718 6.476 28.1118 6.524 28.0238 6.524H27.0998C27.0278 6.524 26.9638 6.5 26.9078 6.452C26.8598 6.404 26.8358 6.34 26.8358 6.26C26.8438 6.06 26.9398 5.832 27.1238 5.576C27.3158 5.32 27.6078 5.1 27.9998 4.916C28.3918 4.732 28.8718 4.64 29.4398 4.64C30.3838 4.64 31.0718 4.852 31.5038 5.276C31.9358 5.7 32.1518 6.256 32.1518 6.944V10.712C32.1518 10.792 32.1238 10.86 32.0678 10.916C32.0198 10.972 31.9518 11 31.8638 11H30.8918C30.8118 11 30.7438 10.972 30.6878 10.916C30.6318 10.86 30.6038 10.792 30.6038 10.712V10.244C30.4278 10.5 30.1758 10.712 29.8478 10.88C29.5278 11.04 29.1278 11.12 28.6478 11.12ZM29.0558 9.98C29.4958 9.98 29.8558 9.836 30.1358 9.548C30.4158 9.26 30.5558 8.84 30.5558 8.288V8.036L29.3558 8.228C28.8918 8.3 28.5398 8.416 28.2998 8.576C28.0678 8.736 27.9518 8.932 27.9518 9.164C27.9518 9.42 28.0598 9.62 28.2758 9.764C28.4918 9.908 28.7518 9.98 29.0558 9.98ZM36.6072 11.12C35.7992 11.12 35.1792 10.86 34.7472 10.34C34.3152 9.82 34.0832 9.128 34.0512 8.264L34.0392 7.868L34.0512 7.484C34.0752 6.644 34.3032 5.96 34.7352 5.432C35.1752 4.904 35.7992 4.64 36.6072 4.64C37.3832 4.64 37.9992 4.904 38.4552 5.432V2.768C38.4552 2.68 38.4832 2.612 38.5392 2.564C38.5952 2.508 38.6632 2.48 38.7432 2.48H39.7632C39.8512 2.48 39.9192 2.508 39.9672 2.564C40.0232 2.612 40.0512 2.68 40.0512 2.768V10.712C40.0512 10.792 40.0232 10.86 39.9672 10.916C39.9192 10.972 39.8512 11 39.7632 11H38.8152C38.7352 11 38.6672 10.972 38.6112 10.916C38.5552 10.86 38.5272 10.792 38.5272 10.712V10.268C38.0712 10.836 37.4312 11.12 36.6072 11.12ZM37.0512 9.836C37.5152 9.836 37.8592 9.688 38.0832 9.392C38.3072 9.096 38.4312 8.732 38.4552 8.3C38.4632 8.204 38.4672 8.048 38.4672 7.832C38.4672 7.624 38.4632 7.472 38.4552 7.376C38.4392 6.976 38.3112 6.636 38.0712 6.356C37.8392 6.068 37.4992 5.924 37.0512 5.924C36.1872 5.924 35.7272 6.456 35.6712 7.52L35.6592 7.88L35.6712 8.24C35.7272 9.304 36.1872 9.836 37.0512 9.836ZM45.0706 11C44.3426 11 43.7946 10.812 43.4266 10.436C43.0666 10.052 42.8866 9.492 42.8866 8.756V6.032H41.9386C41.8586 6.032 41.7906 6.004 41.7346 5.948C41.6786 5.884 41.6506 5.812 41.6506 5.732V5.048C41.6506 4.968 41.6786 4.9 41.7346 4.844C41.7906 4.788 41.8586 4.76 41.9386 4.76H42.8866V2.768C42.8866 2.68 42.9146 2.612 42.9706 2.564C43.0266 2.508 43.0946 2.48 43.1746 2.48H44.1466C44.2346 2.48 44.3026 2.508 44.3506 2.564C44.4066 2.612 44.4346 2.68 44.4346 2.768V4.76H45.9346C46.0226 4.76 46.0906 4.788 46.1386 4.844C46.1946 4.892 46.2226 4.96 46.2226 5.048V5.732C46.2226 5.82 46.1946 5.892 46.1386 5.948C46.0826 6.004 46.0146 6.032 45.9346 6.032H44.4346V8.636C44.4346 8.98 44.4946 9.24 44.6146 9.416C44.7346 9.592 44.9346 9.68 45.2146 9.68H46.0426C46.1226 9.68 46.1906 9.708 46.2466 9.764C46.3026 9.82 46.3306 9.888 46.3306 9.968V10.712C46.3306 10.792 46.3026 10.86 46.2466 10.916C46.1986 10.972 46.1306 11 46.0426 11H45.0706ZM50.8151 11C50.0871 11 49.5391 10.812 49.1711 10.436C48.8111 10.052 48.6311 9.492 48.6311 8.756V6.032H47.6831C47.6031 6.032 47.5351 6.004 47.4791 5.948C47.4231 5.884 47.3951 5.812 47.3951 5.732V5.048C47.3951 4.968 47.4231 4.9 47.4791 4.844C47.5351 4.788 47.6031 4.76 47.6831 4.76H48.6311V2.768C48.6311 2.68 48.6591 2.612 48.7151 2.564C48.7711 2.508 48.8391 2.48 48.9191 2.48H49.8911C49.9791 2.48 50.0471 2.508 50.0951 2.564C50.1511 2.612 50.1791 2.68 50.1791 2.768V4.76H51.6791C51.7671 4.76 51.8351 4.788 51.8831 4.844C51.9391 4.892 51.9671 4.96 51.9671 5.048V5.732C51.9671 5.82 51.9391 5.892 51.8831 5.948C51.8271 6.004 51.7591 6.032 51.6791 6.032H50.1791V8.636C50.1791 8.98 50.2391 9.24 50.3591 9.416C50.4791 9.592 50.6791 9.68 50.9591 9.68H51.7871C51.8671 9.68 51.9351 9.708 51.9911 9.764C52.0471 9.82 52.0751 9.888 52.0751 9.968V10.712C52.0751 10.792 52.0471 10.86 51.9911 10.916C51.9431 10.972 51.8751 11 51.7871 11H50.8151ZM56.4277 11.12C55.5397 11.12 54.8317 10.864 54.3037 10.352C53.7837 9.832 53.5077 9.104 53.4757 8.168L53.4637 7.868L53.4757 7.568C53.5157 6.656 53.7957 5.94 54.3157 5.42C54.8437 4.9 55.5477 4.64 56.4277 4.64C57.3717 4.64 58.0997 4.928 58.6117 5.504C59.1317 6.08 59.3917 6.848 59.3917 7.808V8.06C59.3917 8.14 59.3637 8.208 59.3077 8.264C59.2517 8.32 59.1797 8.348 59.0917 8.348H55.1077V8.444C55.1237 8.884 55.2437 9.256 55.4677 9.56C55.6997 9.856 56.0157 10.004 56.4157 10.004C56.8877 10.004 57.2677 9.82 57.5557 9.452C57.6277 9.364 57.6837 9.308 57.7237 9.284C57.7717 9.26 57.8397 9.248 57.9277 9.248H58.9597C59.0317 9.248 59.0917 9.272 59.1397 9.32C59.1957 9.36 59.2237 9.412 59.2237 9.476C59.2237 9.668 59.1077 9.896 58.8757 10.16C58.6517 10.416 58.3277 10.64 57.9037 10.832C57.4797 11.024 56.9877 11.12 56.4277 11.12ZM57.7597 7.34V7.304C57.7597 6.832 57.6397 6.452 57.3997 6.164C57.1677 5.876 56.8437 5.732 56.4277 5.732C56.0117 5.732 55.6877 5.876 55.4557 6.164C55.2237 6.452 55.1077 6.832 55.1077 7.304V7.34H57.7597ZM61.5054 3.728C61.4254 3.728 61.3574 3.7 61.3014 3.644C61.2454 3.588 61.2174 3.52 61.2174 3.44V2.576C61.2174 2.496 61.2454 2.428 61.3014 2.372C61.3574 2.316 61.4254 2.288 61.5054 2.288H62.5974C62.6774 2.288 62.7454 2.316 62.8014 2.372C62.8654 2.428 62.8974 2.496 62.8974 2.576V3.44C62.8974 3.52 62.8694 3.588 62.8134 3.644C62.7574 3.7 62.6854 3.728 62.5974 3.728H61.5054ZM61.5534 11C61.4734 11 61.4054 10.972 61.3494 10.916C61.2934 10.86 61.2654 10.792 61.2654 10.712V5.048C61.2654 4.968 61.2934 4.9 61.3494 4.844C61.4054 4.788 61.4734 4.76 61.5534 4.76H62.5494C62.6374 4.76 62.7054 4.788 62.7534 4.844C62.8094 4.892 62.8374 4.96 62.8374 5.048V10.712C62.8374 10.792 62.8094 10.86 62.7534 10.916C62.7054 10.972 62.6374 11 62.5494 11H61.5534ZM65.3295 11C65.2495 11 65.1815 10.972 65.1255 10.916C65.0695 10.86 65.0415 10.792 65.0415 10.712V2.768C65.0415 2.68 65.0695 2.612 65.1255 2.564C65.1815 2.508 65.2495 2.48 65.3295 2.48H66.3255C66.4135 2.48 66.4815 2.508 66.5295 2.564C66.5855 2.612 66.6135 2.68 66.6135 2.768V10.712C66.6135 10.792 66.5855 10.86 66.5295 10.916C66.4815 10.972 66.4135 11 66.3255 11H65.3295ZM71.4933 11.12C70.6053 11.12 69.8973 10.864 69.3693 10.352C68.8493 9.832 68.5733 9.104 68.5413 8.168L68.5293 7.868L68.5413 7.568C68.5813 6.656 68.8613 5.94 69.3813 5.42C69.9093 4.9 70.6133 4.64 71.4933 4.64C72.4373 4.64 73.1653 4.928 73.6773 5.504C74.1973 6.08 74.4573 6.848 74.4573 7.808V8.06C74.4573 8.14 74.4293 8.208 74.3733 8.264C74.3173 8.32 74.2453 8.348 74.1573 8.348H70.1733V8.444C70.1893 8.884 70.3093 9.256 70.5333 9.56C70.7653 9.856 71.0813 10.004 71.4813 10.004C71.9533 10.004 72.3333 9.82 72.6213 9.452C72.6933 9.364 72.7493 9.308 72.7893 9.284C72.8373 9.26 72.9053 9.248 72.9933 9.248H74.0253C74.0973 9.248 74.1573 9.272 74.2053 9.32C74.2613 9.36 74.2893 9.412 74.2893 9.476C74.2893 9.668 74.1733 9.896 73.9413 10.16C73.7173 10.416 73.3933 10.64 72.9693 10.832C72.5453 11.024 72.0533 11.12 71.4933 11.12ZM72.8253 7.34V7.304C72.8253 6.832 72.7053 6.452 72.4653 6.164C72.2333 5.876 71.9093 5.732 71.4933 5.732C71.0773 5.732 70.7533 5.876 70.5213 6.164C70.2893 6.452 70.1733 6.832 70.1733 7.304V7.34H72.8253ZM79.9612 11C79.8812 11 79.8132 10.972 79.7572 10.916C79.7012 10.86 79.6732 10.792 79.6732 10.712V5.048C79.6732 4.968 79.7012 4.9 79.7572 4.844C79.8132 4.788 79.8812 4.76 79.9612 4.76H80.8972C80.9772 4.76 81.0452 4.788 81.1012 4.844C81.1572 4.9 81.1852 4.968 81.1852 5.048V5.456C81.6012 4.912 82.1812 4.64 82.9252 4.64C83.8132 4.64 84.4332 4.996 84.7852 5.708C84.9772 5.388 85.2492 5.132 85.6012 4.94C85.9532 4.74 86.3332 4.64 86.7412 4.64C87.3972 4.64 87.9332 4.864 88.3492 5.312C88.7652 5.76 88.9732 6.412 88.9732 7.268V10.712C88.9732 10.792 88.9452 10.86 88.8892 10.916C88.8412 10.972 88.7732 11 88.6852 11H87.7012C87.6212 11 87.5532 10.972 87.4972 10.916C87.4412 10.86 87.4132 10.792 87.4132 10.712V7.364C87.4132 6.86 87.3052 6.496 87.0892 6.272C86.8812 6.04 86.6012 5.924 86.2492 5.924C85.9372 5.924 85.6692 6.04 85.4452 6.272C85.2292 6.504 85.1212 6.868 85.1212 7.364V10.712C85.1212 10.792 85.0932 10.86 85.0372 10.916C84.9812 10.972 84.9132 11 84.8332 11H83.8492C83.7692 11 83.7012 10.972 83.6452 10.916C83.5892 10.86 83.5612 10.792 83.5612 10.712V7.364C83.5612 6.86 83.4492 6.496 83.2252 6.272C83.0092 6.04 82.7332 5.924 82.3972 5.924C82.0772 5.924 81.8052 6.04 81.5812 6.272C81.3652 6.504 81.2572 6.868 81.2572 7.364V10.712C81.2572 10.792 81.2292 10.86 81.1732 10.916C81.1172 10.972 81.0492 11 80.9692 11H79.9612ZM91.3414 3.728C91.2614 3.728 91.1934 3.7 91.1374 3.644C91.0814 3.588 91.0534 3.52 91.0534 3.44V2.576C91.0534 2.496 91.0814 2.428 91.1374 2.372C91.1934 2.316 91.2614 2.288 91.3414 2.288H92.4334C92.5134 2.288 92.5814 2.316 92.6374 2.372C92.7014 2.428 92.7334 2.496 92.7334 2.576V3.44C92.7334 3.52 92.7054 3.588 92.6494 3.644C92.5934 3.7 92.5214 3.728 92.4334 3.728H91.3414ZM91.3894 11C91.3094 11 91.2414 10.972 91.1854 10.916C91.1294 10.86 91.1014 10.792 91.1014 10.712V5.048C91.1014 4.968 91.1294 4.9 91.1854 4.844C91.2414 4.788 91.3094 4.76 91.3894 4.76H92.3854C92.4734 4.76 92.5414 4.788 92.5894 4.844C92.6454 4.892 92.6734 4.96 92.6734 5.048V10.712C92.6734 10.792 92.6454 10.86 92.5894 10.916C92.5414 10.972 92.4734 11 92.3854 11H91.3894ZM97.6854 11C96.9574 11 96.4094 10.812 96.0414 10.436C95.6814 10.052 95.5014 9.492 95.5014 8.756V6.032H94.5534C94.4734 6.032 94.4054 6.004 94.3494 5.948C94.2934 5.884 94.2654 5.812 94.2654 5.732V5.048C94.2654 4.968 94.2934 4.9 94.3494 4.844C94.4054 4.788 94.4734 4.76 94.5534 4.76H95.5014V2.768C95.5014 2.68 95.5294 2.612 95.5854 2.564C95.6414 2.508 95.7094 2.48 95.7894 2.48H96.7614C96.8494 2.48 96.9174 2.508 96.9654 2.564C97.0214 2.612 97.0494 2.68 97.0494 2.768V4.76H98.5494C98.6374 4.76 98.7054 4.788 98.7534 4.844C98.8094 4.892 98.8374 4.96 98.8374 5.048V5.732C98.8374 5.82 98.8094 5.892 98.7534 5.948C98.6974 6.004 98.6294 6.032 98.5494 6.032H97.0494V8.636C97.0494 8.98 97.1094 9.24 97.2294 9.416C97.3494 9.592 97.5494 9.68 97.8294 9.68H98.6574C98.7374 9.68 98.8054 9.708 98.8614 9.764C98.9174 9.82 98.9454 9.888 98.9454 9.968V10.712C98.9454 10.792 98.9174 10.86 98.8614 10.916C98.8134 10.972 98.7454 11 98.6574 11H97.6854ZM13.092 27C13.012 27 12.944 26.972 12.888 26.916C12.832 26.86 12.804 26.792 12.804 26.712V18.768C12.804 18.68 12.832 18.612 12.888 18.564C12.944 18.508 13.012 18.48 13.092 18.48H14.16C14.248 18.48 14.316 18.508 14.364 18.564C14.42 18.612 14.448 18.68 14.448 18.768V21.504C14.928 20.928 15.576 20.64 16.392 20.64C17.128 20.64 17.716 20.884 18.156 21.372C18.596 21.852 18.816 22.508 18.816 23.34V26.712C18.816 26.792 18.788 26.86 18.732 26.916C18.684 26.972 18.616 27 18.528 27H17.448C17.368 27 17.3 26.972 17.244 26.916C17.188 26.86 17.16 26.792 17.16 26.712V23.412C17.16 22.94 17.044 22.576 16.812 22.32C16.588 22.056 16.26 21.924 15.828 21.924C15.404 21.924 15.068 22.056 14.82 22.32C14.572 22.584 14.448 22.948 14.448 23.412V26.712C14.448 26.792 14.42 26.86 14.364 26.916C14.316 26.972 14.248 27 14.16 27H13.092ZM23.6989 27.12C22.7629 27.12 22.0389 26.88 21.5269 26.4C21.0149 25.912 20.7389 25.248 20.6989 24.408L20.6869 23.88L20.6989 23.352C20.7389 22.52 21.0189 21.86 21.5389 21.372C22.0589 20.884 22.7789 20.64 23.6989 20.64C24.6189 20.64 25.3389 20.884 25.8589 21.372C26.3789 21.86 26.6589 22.52 26.6989 23.352C26.7069 23.448 26.7109 23.624 26.7109 23.88C26.7109 24.136 26.7069 24.312 26.6989 24.408C26.6589 25.248 26.3829 25.912 25.8709 26.4C25.3589 26.88 24.6349 27.12 23.6989 27.12ZM23.6989 25.932C24.1229 25.932 24.4509 25.8 24.6829 25.536C24.9149 25.264 25.0429 24.868 25.0669 24.348C25.0749 24.268 25.0789 24.112 25.0789 23.88C25.0789 23.648 25.0749 23.492 25.0669 23.412C25.0429 22.892 24.9149 22.5 24.6829 22.236C24.4509 21.964 24.1229 21.828 23.6989 21.828C23.2749 21.828 22.9469 21.964 22.7149 22.236C22.4829 22.5 22.3549 22.892 22.3309 23.412L22.3189 23.88L22.3309 24.348C22.3549 24.868 22.4829 25.264 22.7149 25.536C22.9469 25.8 23.2749 25.932 23.6989 25.932ZM28.9404 27C28.8604 27 28.7924 26.972 28.7364 26.916C28.6804 26.86 28.6524 26.792 28.6524 26.712V18.768C28.6524 18.68 28.6804 18.612 28.7364 18.564C28.7924 18.508 28.8604 18.48 28.9404 18.48H30.0084C30.0964 18.48 30.1644 18.508 30.2124 18.564C30.2684 18.612 30.2964 18.68 30.2964 18.768V21.504C30.7764 20.928 31.4244 20.64 32.2404 20.64C32.9764 20.64 33.5644 20.884 34.0044 21.372C34.4444 21.852 34.6644 22.508 34.6644 23.34V26.712C34.6644 26.792 34.6364 26.86 34.5804 26.916C34.5324 26.972 34.4644 27 34.3764 27H33.2964C33.2164 27 33.1484 26.972 33.0924 26.916C33.0364 26.86 33.0084 26.792 33.0084 26.712V23.412C33.0084 22.94 32.8924 22.576 32.6604 22.32C32.4364 22.056 32.1084 21.924 31.6764 21.924C31.2524 21.924 30.9164 22.056 30.6684 22.32C30.4204 22.584 30.2964 22.948 30.2964 23.412V26.712C30.2964 26.792 30.2684 26.86 30.2124 26.916C30.1644 26.972 30.0964 27 30.0084 27H28.9404ZM39.4753 27.12C38.5873 27.12 37.8793 26.864 37.3513 26.352C36.8313 25.832 36.5553 25.104 36.5233 24.168L36.5113 23.868L36.5233 23.568C36.5633 22.656 36.8433 21.94 37.3633 21.42C37.8913 20.9 38.5953 20.64 39.4753 20.64C40.4193 20.64 41.1473 20.928 41.6593 21.504C42.1793 22.08 42.4393 22.848 42.4393 23.808V24.06C42.4393 24.14 42.4113 24.208 42.3553 24.264C42.2993 24.32 42.2273 24.348 42.1393 24.348H38.1553V24.444C38.1713 24.884 38.2913 25.256 38.5153 25.56C38.7473 25.856 39.0633 26.004 39.4633 26.004C39.9353 26.004 40.3153 25.82 40.6033 25.452C40.6753 25.364 40.7313 25.308 40.7713 25.284C40.8193 25.26 40.8873 25.248 40.9753 25.248H42.0073C42.0793 25.248 42.1393 25.272 42.1873 25.32C42.2433 25.36 42.2713 25.412 42.2713 25.476C42.2713 25.668 42.1553 25.896 41.9233 26.16C41.6993 26.416 41.3753 26.64 40.9513 26.832C40.5273 27.024 40.0353 27.12 39.4753 27.12ZM40.8073 23.34V23.304C40.8073 22.832 40.6873 22.452 40.4473 22.164C40.2153 21.876 39.8913 21.732 39.4753 21.732C39.0593 21.732 38.7353 21.876 38.5033 22.164C38.2713 22.452 38.1553 22.832 38.1553 23.304V23.34H40.8073ZM44.6011 27C44.5211 27 44.4531 26.972 44.3971 26.916C44.3411 26.86 44.3131 26.792 44.3131 26.712V21.048C44.3131 20.968 44.3411 20.9 44.3971 20.844C44.4531 20.788 44.5211 20.76 44.6011 20.76H45.5371C45.6171 20.76 45.6851 20.788 45.7411 20.844C45.7971 20.9 45.8251 20.968 45.8251 21.048V21.456C46.2411 20.912 46.8211 20.64 47.5651 20.64C48.4531 20.64 49.0731 20.996 49.4251 21.708C49.6171 21.388 49.8891 21.132 50.2411 20.94C50.5931 20.74 50.9731 20.64 51.3811 20.64C52.0371 20.64 52.5731 20.864 52.9891 21.312C53.4051 21.76 53.6131 22.412 53.6131 23.268V26.712C53.6131 26.792 53.5851 26.86 53.5291 26.916C53.4811 26.972 53.4131 27 53.3251 27H52.3411C52.2611 27 52.1931 26.972 52.1371 26.916C52.0811 26.86 52.0531 26.792 52.0531 26.712V23.364C52.0531 22.86 51.9451 22.496 51.7291 22.272C51.5211 22.04 51.2411 21.924 50.8891 21.924C50.5771 21.924 50.3091 22.04 50.0851 22.272C49.8691 22.504 49.7611 22.868 49.7611 23.364V26.712C49.7611 26.792 49.7331 26.86 49.6771 26.916C49.6211 26.972 49.5531 27 49.4731 27H48.4891C48.4091 27 48.3411 26.972 48.2851 26.916C48.2291 26.86 48.2011 26.792 48.2011 26.712V23.364C48.2011 22.86 48.0891 22.496 47.8651 22.272C47.6491 22.04 47.3731 21.924 47.0371 21.924C46.7171 21.924 46.4451 22.04 46.2211 22.272C46.0051 22.504 45.8971 22.868 45.8971 23.364V26.712C45.8971 26.792 45.8691 26.86 45.8131 26.916C45.7571 26.972 45.6891 27 45.6091 27H44.6011ZM59.5154 27C59.4354 27 59.3674 26.972 59.3114 26.916C59.2554 26.86 59.2274 26.792 59.2274 26.712V18.9C59.2274 18.812 59.2514 18.74 59.2994 18.684C59.3554 18.628 59.4274 18.6 59.5154 18.6H64.7954C64.8834 18.6 64.9554 18.628 65.0114 18.684C65.0674 18.74 65.0954 18.812 65.0954 18.9V19.692C65.0954 19.78 65.0674 19.852 65.0114 19.908C64.9554 19.956 64.8834 19.98 64.7954 19.98H60.8474V22.104H64.5314C64.6194 22.104 64.6914 22.132 64.7474 22.188C64.8034 22.236 64.8314 22.304 64.8314 22.392V23.136C64.8314 23.224 64.8034 23.296 64.7474 23.352C64.6914 23.4 64.6194 23.424 64.5314 23.424H60.8474V25.62H64.8914C64.9794 25.62 65.0514 25.648 65.1074 25.704C65.1634 25.76 65.1914 25.832 65.1914 25.92V26.712C65.1914 26.8 65.1634 26.872 65.1074 26.928C65.0514 26.976 64.9794 27 64.8914 27H59.5154ZM67.3883 19.728C67.3083 19.728 67.2403 19.7 67.1843 19.644C67.1283 19.588 67.1003 19.52 67.1003 19.44V18.576C67.1003 18.496 67.1283 18.428 67.1843 18.372C67.2403 18.316 67.3083 18.288 67.3883 18.288H68.4803C68.5603 18.288 68.6283 18.316 68.6843 18.372C68.7483 18.428 68.7803 18.496 68.7803 18.576V19.44C68.7803 19.52 68.7523 19.588 68.6963 19.644C68.6403 19.7 68.5683 19.728 68.4803 19.728H67.3883ZM67.4363 27C67.3563 27 67.2883 26.972 67.2323 26.916C67.1763 26.86 67.1483 26.792 67.1483 26.712V21.048C67.1483 20.968 67.1763 20.9 67.2323 20.844C67.2883 20.788 67.3563 20.76 67.4363 20.76H68.4323C68.5203 20.76 68.5883 20.788 68.6363 20.844C68.6923 20.892 68.7203 20.96 68.7203 21.048V26.712C68.7203 26.792 68.6923 26.86 68.6363 26.916C68.5883 26.972 68.5203 27 68.4323 27H67.4363ZM71.2003 27C71.1203 27 71.0523 26.972 70.9963 26.916C70.9403 26.86 70.9123 26.792 70.9123 26.712V21.048C70.9123 20.968 70.9403 20.9 70.9963 20.844C71.0523 20.788 71.1203 20.76 71.2003 20.76H72.1843C72.2643 20.76 72.3323 20.788 72.3883 20.844C72.4443 20.9 72.4723 20.968 72.4723 21.048V21.54C72.9443 20.94 73.6123 20.64 74.4763 20.64C75.2123 20.64 75.7963 20.884 76.2283 21.372C76.6603 21.852 76.8763 22.508 76.8763 23.34V26.712C76.8763 26.792 76.8483 26.86 76.7923 26.916C76.7443 26.972 76.6763 27 76.5883 27H75.5323C75.4523 27 75.3843 26.972 75.3283 26.916C75.2723 26.86 75.2443 26.792 75.2443 26.712V23.412C75.2443 22.94 75.1283 22.576 74.8963 22.32C74.6723 22.056 74.3443 21.924 73.9123 21.924C73.4883 21.924 73.1523 22.056 72.9043 22.32C72.6643 22.584 72.5443 22.948 72.5443 23.412V26.712C72.5443 26.792 72.5163 26.86 72.4603 26.916C72.4123 26.972 72.3443 27 72.2563 27H71.2003ZM79.3006 27C79.2206 27 79.1526 26.972 79.0966 26.916C79.0406 26.86 79.0126 26.792 79.0126 26.712V18.768C79.0126 18.68 79.0406 18.612 79.0966 18.564C79.1526 18.508 79.2206 18.48 79.3006 18.48H80.2726C80.3606 18.48 80.4286 18.508 80.4766 18.564C80.5326 18.612 80.5606 18.68 80.5606 18.768V22.872L82.5766 20.964C82.6006 20.948 82.6406 20.916 82.6966 20.868C82.7446 20.828 82.7926 20.8 82.8406 20.784C82.8886 20.768 82.9486 20.76 83.0206 20.76H84.1366C84.2166 20.76 84.2806 20.784 84.3286 20.832C84.3766 20.88 84.4006 20.944 84.4006 21.024C84.4006 21.096 84.3606 21.168 84.2806 21.24L81.8086 23.556L84.5806 26.532C84.6606 26.612 84.7006 26.68 84.7006 26.736C84.7006 26.816 84.6726 26.88 84.6166 26.928C84.5686 26.976 84.5086 27 84.4366 27H83.2966C83.1846 27 83.1006 26.988 83.0446 26.964C82.9966 26.932 82.9326 26.876 82.8526 26.796L80.5606 24.384V26.712C80.5606 26.792 80.5326 26.86 80.4766 26.916C80.4286 26.972 80.3606 27 80.2726 27H79.3006ZM88.6653 27.12C87.7293 27.12 87.0053 26.88 86.4933 26.4C85.9813 25.912 85.7053 25.248 85.6653 24.408L85.6533 23.88L85.6653 23.352C85.7053 22.52 85.9853 21.86 86.5053 21.372C87.0253 20.884 87.7453 20.64 88.6653 20.64C89.5853 20.64 90.3053 20.884 90.8253 21.372C91.3453 21.86 91.6253 22.52 91.6653 23.352C91.6733 23.448 91.6773 23.624 91.6773 23.88C91.6773 24.136 91.6733 24.312 91.6653 24.408C91.6253 25.248 91.3493 25.912 90.8373 26.4C90.3253 26.88 89.6013 27.12 88.6653 27.12ZM88.6653 25.932C89.0893 25.932 89.4173 25.8 89.6493 25.536C89.8813 25.264 90.0093 24.868 90.0333 24.348C90.0413 24.268 90.0453 24.112 90.0453 23.88C90.0453 23.648 90.0413 23.492 90.0333 23.412C90.0093 22.892 89.8813 22.5 89.6493 22.236C89.4173 21.964 89.0893 21.828 88.6653 21.828C88.2413 21.828 87.9133 21.964 87.6813 22.236C87.4493 22.5 87.3213 22.892 87.2973 23.412L87.2853 23.88L87.2973 24.348C87.3213 24.868 87.4493 25.264 87.6813 25.536C87.9133 25.8 88.2413 25.932 88.6653 25.932ZM93.8948 27C93.8148 27 93.7468 26.972 93.6908 26.916C93.6348 26.86 93.6068 26.792 93.6068 26.712V21.048C93.6068 20.968 93.6348 20.9 93.6908 20.844C93.7468 20.788 93.8148 20.76 93.8948 20.76H94.8308C94.9108 20.76 94.9788 20.788 95.0348 20.844C95.0908 20.9 95.1188 20.968 95.1188 21.048V21.456C95.5348 20.912 96.1148 20.64 96.8588 20.64C97.7468 20.64 98.3668 20.996 98.7188 21.708C98.9108 21.388 99.1828 21.132 99.5348 20.94C99.8868 20.74 100.267 20.64 100.675 20.64C101.331 20.64 101.867 20.864 102.283 21.312C102.699 21.76 102.907 22.412 102.907 23.268V26.712C102.907 26.792 102.879 26.86 102.823 26.916C102.775 26.972 102.707 27 102.619 27H101.635C101.555 27 101.487 26.972 101.431 26.916C101.375 26.86 101.347 26.792 101.347 26.712V23.364C101.347 22.86 101.239 22.496 101.023 22.272C100.815 22.04 100.535 21.924 100.183 21.924C99.8708 21.924 99.6028 22.04 99.3788 22.272C99.1628 22.504 99.0548 22.868 99.0548 23.364V26.712C99.0548 26.792 99.0268 26.86 98.9708 26.916C98.9148 26.972 98.8468 27 98.7668 27H97.7828C97.7028 27 97.6348 26.972 97.5788 26.916C97.5228 26.86 97.4948 26.792 97.4948 26.712V23.364C97.4948 22.86 97.3828 22.496 97.1588 22.272C96.9428 22.04 96.6668 21.924 96.3308 21.924C96.0108 21.924 95.7388 22.04 95.5148 22.272C95.2988 22.504 95.1908 22.868 95.1908 23.364V26.712C95.1908 26.792 95.1628 26.86 95.1068 26.916C95.0508 26.972 94.9828 27 94.9028 27H93.8948ZM105.323 27C105.243 27 105.175 26.972 105.119 26.916C105.063 26.86 105.035 26.792 105.035 26.712V21.048C105.035 20.968 105.063 20.9 105.119 20.844C105.175 20.788 105.243 20.76 105.323 20.76H106.259C106.339 20.76 106.407 20.788 106.463 20.844C106.519 20.9 106.547 20.968 106.547 21.048V21.456C106.963 20.912 107.543 20.64 108.287 20.64C109.175 20.64 109.795 20.996 110.147 21.708C110.339 21.388 110.611 21.132 110.963 20.94C111.315 20.74 111.695 20.64 112.103 20.64C112.759 20.64 113.295 20.864 113.711 21.312C114.127 21.76 114.335 22.412 114.335 23.268V26.712C114.335 26.792 114.307 26.86 114.251 26.916C114.203 26.972 114.135 27 114.047 27H113.063C112.983 27 112.915 26.972 112.859 26.916C112.803 26.86 112.775 26.792 112.775 26.712V23.364C112.775 22.86 112.667 22.496 112.451 22.272C112.243 22.04 111.963 21.924 111.611 21.924C111.299 21.924 111.031 22.04 110.807 22.272C110.591 22.504 110.483 22.868 110.483 23.364V26.712C110.483 26.792 110.455 26.86 110.399 26.916C110.343 26.972 110.275 27 110.195 27H109.211C109.131 27 109.063 26.972 109.007 26.916C108.951 26.86 108.923 26.792 108.923 26.712V23.364C108.923 22.86 108.811 22.496 108.587 22.272C108.371 22.04 108.095 21.924 107.759 21.924C107.439 21.924 107.167 22.04 106.943 22.272C106.727 22.504 106.619 22.868 106.619 23.364V26.712C106.619 26.792 106.591 26.86 106.535 26.916C106.479 26.972 106.411 27 106.331 27H105.323ZM119.151 27.12C118.263 27.12 117.555 26.864 117.027 26.352C116.507 25.832 116.231 25.104 116.199 24.168L116.187 23.868L116.199 23.568C116.239 22.656 116.519 21.94 117.039 21.42C117.567 20.9 118.271 20.64 119.151 20.64C120.095 20.64 120.823 20.928 121.335 21.504C121.855 22.08 122.115 22.848 122.115 23.808V24.06C122.115 24.14 122.087 24.208 122.031 24.264C121.975 24.32 121.903 24.348 121.815 24.348H117.831V24.444C117.847 24.884 117.967 25.256 118.191 25.56C118.423 25.856 118.739 26.004 119.139 26.004C119.611 26.004 119.991 25.82 120.279 25.452C120.351 25.364 120.407 25.308 120.447 25.284C120.495 25.26 120.563 25.248 120.651 25.248H121.683C121.755 25.248 121.815 25.272 121.863 25.32C121.919 25.36 121.947 25.412 121.947 25.476C121.947 25.668 121.831 25.896 121.599 26.16C121.375 26.416 121.051 26.64 120.627 26.832C120.203 27.024 119.711 27.12 119.151 27.12ZM120.483 23.34V23.304C120.483 22.832 120.363 22.452 120.123 22.164C119.891 21.876 119.567 21.732 119.151 21.732C118.735 21.732 118.411 21.876 118.179 22.164C117.947 22.452 117.831 22.832 117.831 23.304V23.34H120.483ZM124.277 27C124.197 27 124.129 26.972 124.073 26.916C124.017 26.86 123.989 26.792 123.989 26.712V21.048C123.989 20.968 124.017 20.9 124.073 20.844C124.129 20.788 124.197 20.76 124.277 20.76H125.261C125.341 20.76 125.409 20.788 125.465 20.844C125.521 20.9 125.549 20.968 125.549 21.048V21.54C126.021 20.94 126.689 20.64 127.553 20.64C128.289 20.64 128.873 20.884 129.305 21.372C129.737 21.852 129.953 22.508 129.953 23.34V26.712C129.953 26.792 129.925 26.86 129.869 26.916C129.821 26.972 129.753 27 129.665 27H128.609C128.529 27 128.461 26.972 128.405 26.916C128.349 26.86 128.321 26.792 128.321 26.712V23.412C128.321 22.94 128.205 22.576 127.973 22.32C127.749 22.056 127.421 21.924 126.989 21.924C126.565 21.924 126.229 22.056 125.981 22.32C125.741 22.584 125.621 22.948 125.621 23.412V26.712C125.621 26.792 125.593 26.86 125.537 26.916C125.489 26.972 125.421 27 125.333 27H124.277Z" fill="#333333"/>
<path d="M402.2 40H284.2V79.45H402.2V40Z" fill="#034E7B"/>
<mask id="mask0" mask-type="alpha" maskUnits="userSpaceOnUse" x="184" y="38" width="284" height="44">
<line x1="226.707" y1="38.7071" x2="184.707" y2="80.7071" stroke="#470184" stroke-width="2"/>
<line x1="234.707" y1="38.7071" x2="192.707" y2="80.7071" stroke="#470184" stroke-width="2"/>
<line x1="242.707" y1="38.7071" x2="200.707" y2="80.7071" stroke="#470184" stroke-width="2"/>
<line x1="250.707" y1="38.7071" x2="208.707" y2="80.7071" stroke="#470184" stroke-width="2"/>
<line x1="258.707" y1="38.7071" x2="216.707" y2="80.7071" stroke="#470184" stroke-width="2"/>
<line x1="266.707" y1="38.7071" x2="224.707" y2="80.7071" stroke="#470184" stroke-width="2"/>
<line x1="274.707" y1="38.7071" x2="232.707" y2="80.7071" stroke="#470184" stroke-width="2"/>
<line x1="282.707" y1="38.7071" x2="240.707" y2="80.7071" stroke="#470184" stroke-width="2"/>
<line x1="290.707" y1="38.7071" x2="248.707" y2="80.7071" stroke="#470184" stroke-width="2"/>
<line x1="298.707" y1="38.7071" x2="256.707" y2="80.7071" stroke="#470184" stroke-width="2"/>
<line x1="306.707" y1="38.7071" x2="264.707" y2="80.7071" stroke="#470184" stroke-width="2"/>
<line x1="314.707" y1="38.7071" x2="272.707" y2="80.7071" stroke="#470184" stroke-width="2"/>
<line x1="322.707" y1="38.7071" x2="280.707" y2="80.7071" stroke="#470184" stroke-width="2"/>
<line x1="330.707" y1="38.7071" x2="288.707" y2="80.7071" stroke="#470184" stroke-width="2"/>
<line x1="338.707" y1="38.7071" x2="296.707" y2="80.7071" stroke="#470184" stroke-width="2"/>
<line x1="346.707" y1="38.7071" x2="304.707" y2="80.7071" stroke="#470184" stroke-width="2"/>
<line x1="354.707" y1="38.7071" x2="312.707" y2="80.7071" stroke="#470184" stroke-width="2"/>
<line x1="362.707" y1="38.7071" x2="320.707" y2="80.7071" stroke="#470184" stroke-width="2"/>
<line x1="370.707" y1="38.7071" x2="328.707" y2="80.7071" stroke="#470184" stroke-width="2"/>
<line x1="378.707" y1="38.7071" x2="336.707" y2="80.7071" stroke="#470184" stroke-width="2"/>
<line x1="386.707" y1="38.7071" x2="344.707" y2="80.7071" stroke="#470184" stroke-width="2"/>
<line x1="394.707" y1="38.7071" x2="352.707" y2="80.7071" stroke="#470184" stroke-width="2"/>
<line x1="402.707" y1="38.7071" x2="360.707" y2="80.7071" stroke="#470184" stroke-width="2"/>
<line x1="410.707" y1="38.7071" x2="368.707" y2="80.7071" stroke="#470184" stroke-width="2"/>
<line x1="418.707" y1="38.7071" x2="376.707" y2="80.7071" stroke="#470184" stroke-width="2"/>
<line x1="426.707" y1="38.7071" x2="384.707" y2="80.7071" stroke="#470184" stroke-width="2"/>
<line x1="434.707" y1="38.7071" x2="392.707" y2="80.7071" stroke="#470184" stroke-width="2"/>
<line x1="442.707" y1="38.7071" x2="400.707" y2="80.7071" stroke="#470184" stroke-width="2"/>
</mask>
<g mask="url(#mask0)">
<path d="M403 40H285V79.45H403V40Z" fill="#046AA7"/>
</g>
<path d="M279.2 40H108.7V79.4506H279.2V40Z" fill="#0570B0"/>
<mask id="mask1" mask-type="alpha" maskUnits="userSpaceOnUse" x="57" y="38" width="284" height="44">
<line x1="99.7071" y1="38.7071" x2="57.7071" y2="80.7071" stroke="#A55F8A" stroke-width="2"/>
<line x1="107.707" y1="38.7071" x2="65.7071" y2="80.7071" stroke="#A55F8A" stroke-width="2"/>
<line x1="115.707" y1="38.7071" x2="73.7071" y2="80.7071" stroke="#A55F8A" stroke-width="2"/>
<line x1="123.707" y1="38.7071" x2="81.7071" y2="80.7071" stroke="#A55F8A" stroke-width="2"/>
<line x1="131.707" y1="38.7071" x2="89.7071" y2="80.7071" stroke="#A55F8A" stroke-width="2"/>
<line x1="139.707" y1="38.7071" x2="97.7071" y2="80.7071" stroke="#A55F8A" stroke-width="2"/>
<line x1="147.707" y1="38.7071" x2="105.707" y2="80.7071" stroke="#A55F8A" stroke-width="2"/>
<line x1="155.707" y1="38.7071" x2="113.707" y2="80.7071" stroke="#A55F8A" stroke-width="2"/>
<line x1="163.707" y1="38.7071" x2="121.707" y2="80.7071" stroke="#A55F8A" stroke-width="2"/>
<line x1="171.707" y1="38.7071" x2="129.707" y2="80.7071" stroke="#A55F8A" stroke-width="2"/>
<line x1="179.707" y1="38.7071" x2="137.707" y2="80.7071" stroke="#A55F8A" stroke-width="2"/>
<line x1="187.707" y1="38.7071" x2="145.707" y2="80.7071" stroke="#A55F8A" stroke-width="2"/>
<line x1="195.707" y1="38.7071" x2="153.707" y2="80.7071" stroke="#A55F8A" stroke-width="2"/>
<line x1="203.707" y1="38.7071" x2="161.707" y2="80.7071" stroke="#A55F8A" stroke-width="2"/>
<line x1="211.707" y1="38.7071" x2="169.707" y2="80.7071" stroke="#A55F8A" stroke-width="2"/>
<line x1="219.707" y1="38.7071" x2="177.707" y2="80.7071" stroke="#A55F8A" stroke-width="2"/>
<line x1="227.707" y1="38.7071" x2="185.707" y2="80.7071" stroke="#A55F8A" stroke-width="2"/>
<line x1="235.707" y1="38.7071" x2="193.707" y2="80.7071" stroke="#A55F8A" stroke-width="2"/>
<line x1="243.707" y1="38.7071" x2="201.707" y2="80.7071" stroke="#A55F8A" stroke-width="2"/>
<line x1="251.707" y1="38.7071" x2="209.707" y2="80.7071" stroke="#A55F8A" stroke-width="2"/>
<line x1="259.707" y1="38.7071" x2="217.707" y2="80.7071" stroke="#A55F8A" stroke-width="2"/>
<line x1="267.707" y1="38.7071" x2="225.707" y2="80.7071" stroke="#A55F8A" stroke-width="2"/>
<line x1="275.707" y1="38.7071" x2="233.707" y2="80.7071" stroke="#A55F8A" stroke-width="2"/>
<line x1="283.707" y1="38.7071" x2="241.707" y2="80.7071" stroke="#A55F8A" stroke-width="2"/>
<line x1="291.707" y1="38.7071" x2="249.707" y2="80.7071" stroke="#A55F8A" stroke-width="2"/>
<line x1="299.707" y1="38.7071" x2="257.707" y2="80.7071" stroke="#A55F8A" stroke-width="2"/>
<line x1="307.707" y1="38.7071" x2="265.707" y2="80.7071" stroke="#A55F8A" stroke-width="2"/>
<line x1="315.707" y1="38.7071" x2="273.707" y2="80.7071" stroke="#A55F8A" stroke-width="2"/>
<line x1="323.707" y1="38.7071" x2="281.707" y2="80.7071" stroke="#A55F8A" stroke-width="2"/>
<line x1="331.707" y1="38.7071" x2="289.707" y2="80.7071" stroke="#A55F8A" stroke-width="2"/>
<line x1="339.707" y1="38.7071" x2="297.707" y2="80.7071" stroke="#A55F8A" stroke-width="2"/>
</mask>
<g mask="url(#mask1)">
<path d="M279.5 40H109V79.4506H279.5V40Z" fill="#0991E2"/>
</g>
<path d="M104 40H0V79H104V40Z" fill="#A6BDDD"/>
<mask id="mask2" mask-type="alpha" maskUnits="userSpaceOnUse" x="-47" y="37" width="196" height="44">
<line x1="3.70711" y1="37.7071" x2="-38.2929" y2="79.7071" stroke="#333333" stroke-width="2"/>
<line x1="11.7071" y1="37.7071" x2="-30.2929" y2="79.7071" stroke="#333333" stroke-width="2"/>
<line x1="19.7071" y1="37.7071" x2="-22.2929" y2="79.7071" stroke="#333333" stroke-width="2"/>
<line x1="27.7071" y1="37.7071" x2="-14.2929" y2="79.7071" stroke="#333333" stroke-width="2"/>
<line x1="35.7071" y1="37.7071" x2="-6.29289" y2="79.7071" stroke="#333333" stroke-width="2"/>
<line x1="43.7071" y1="37.7071" x2="1.70711" y2="79.7071" stroke="#333333" stroke-width="2"/>
<line x1="51.7071" y1="37.7071" x2="9.70711" y2="79.7071" stroke="#333333" stroke-width="2"/>
<line x1="59.7071" y1="37.7071" x2="17.7071" y2="79.7071" stroke="#333333" stroke-width="2"/>
<line x1="67.7071" y1="37.7071" x2="25.7071" y2="79.7071" stroke="#333333" stroke-width="2"/>
<line x1="75.7071" y1="37.7071" x2="33.7071" y2="79.7071" stroke="#333333" stroke-width="2"/>
<line x1="83.7071" y1="37.7071" x2="41.7071" y2="79.7071" stroke="#333333" stroke-width="2"/>
<line x1="91.7071" y1="37.7071" x2="49.7071" y2="79.7071" stroke="#333333" stroke-width="2"/>
<line x1="99.7071" y1="37.7071" x2="57.7071" y2="79.7071" stroke="#333333" stroke-width="2"/>
<line x1="107.707" y1="37.7071" x2="65.7071" y2="79.7071" stroke="#333333" stroke-width="2"/>
<line x1="115.707" y1="37.7071" x2="73.7071" y2="79.7071" stroke="#333333" stroke-width="2"/>
<line x1="123.707" y1="37.7071" x2="81.7071" y2="79.7071" stroke="#333333" stroke-width="2"/>
<line x1="131.707" y1="37.7071" x2="89.7071" y2="79.7071" stroke="#333333" stroke-width="2"/>
<line x1="139.707" y1="37.7071" x2="97.7071" y2="79.7071" stroke="#333333" stroke-width="2"/>
<line x1="147.707" y1="37.7071" x2="105.707" y2="79.7071" stroke="#333333" stroke-width="2"/>
</mask>
<g mask="url(#mask2)">
<path d="M104 40H0V79H104V40Z" fill="#C2DBFF"/>
</g>
<path d="M39.7032 96C39.6152 96 39.5392 95.972 39.4752 95.916C39.4192 95.86 39.3912 95.788 39.3912 95.7V94.848C39.3912 94.608 39.4912 94.412 39.6912 94.26L40.9392 93.036C41.6672 92.476 42.2192 92.04 42.5952 91.728C42.9712 91.416 43.2552 91.132 43.4472 90.876C43.6392 90.62 43.7352 90.376 43.7352 90.144C43.7352 89.512 43.4232 89.196 42.7992 89.196C42.4712 89.196 42.2192 89.296 42.0432 89.496C41.8672 89.688 41.7512 89.932 41.6952 90.228C41.6472 90.412 41.5112 90.504 41.2872 90.504H39.7872C39.7152 90.504 39.6552 90.48 39.6072 90.432C39.5592 90.384 39.5352 90.324 39.5352 90.252C39.5512 89.74 39.6912 89.272 39.9552 88.848C40.2272 88.416 40.6072 88.076 41.0952 87.828C41.5912 87.572 42.1592 87.444 42.7992 87.444C43.4712 87.444 44.0472 87.552 44.5272 87.768C45.0072 87.984 45.3712 88.288 45.6192 88.68C45.8672 89.072 45.9912 89.528 45.9912 90.048C45.9912 90.608 45.8152 91.12 45.4632 91.584C45.1192 92.04 44.5912 92.536 43.8792 93.072L42.7752 94.188H45.8592C45.9472 94.188 46.0192 94.216 46.0752 94.272C46.1392 94.328 46.1712 94.4 46.1712 94.488V95.7C46.1712 95.788 46.1392 95.86 46.0752 95.916C46.0192 95.972 45.9472 96 45.8592 96H39.7032ZM51.2759 96.12C50.5719 96.12 49.9479 95.996 49.4039 95.748C48.8679 95.492 48.4479 95.136 48.1439 94.68C47.8479 94.224 47.6999 93.704 47.6999 93.12C47.6999 92.408 48.0359 91.596 48.7079 90.684L50.8199 87.84C50.8839 87.768 50.9439 87.712 50.9999 87.672C51.0639 87.624 51.1479 87.6 51.2519 87.6H52.8479C52.9199 87.6 52.9799 87.628 53.0279 87.684C53.0759 87.732 53.0999 87.792 53.0999 87.864C53.0999 87.92 53.0839 87.972 53.0519 88.02L51.4319 90.228C51.5279 90.204 51.6479 90.192 51.7919 90.192C52.2799 90.216 52.7519 90.352 53.2079 90.6C53.6719 90.84 54.0479 91.176 54.3359 91.608C54.6239 92.04 54.7679 92.528 54.7679 93.072C54.7679 93.632 54.6239 94.144 54.3359 94.608C54.0479 95.072 53.6359 95.44 53.0999 95.712C52.5719 95.984 51.9639 96.12 51.2759 96.12ZM51.2519 94.392C51.6199 94.392 51.9319 94.28 52.1879 94.056C52.4439 93.824 52.5719 93.508 52.5719 93.108C52.5719 92.708 52.4439 92.396 52.1879 92.172C51.9399 91.948 51.6279 91.836 51.2519 91.836C50.8759 91.836 50.5599 91.948 50.3039 92.172C50.0479 92.396 49.9199 92.708 49.9199 93.108C49.9199 93.508 50.0479 93.824 50.3039 94.056C50.5599 94.28 50.8759 94.392 51.2519 94.392ZM58.0243 91.836C57.4803 91.836 57.0443 91.696 56.7163 91.416C56.3883 91.128 56.2083 90.744 56.1763 90.264C56.1603 90.024 56.1523 89.856 56.1523 89.76C56.1523 89.664 56.1603 89.456 56.1763 89.136C56.2003 88.648 56.3723 88.26 56.6923 87.972C57.0123 87.684 57.4563 87.54 58.0243 87.54C58.5843 87.54 59.0243 87.684 59.3443 87.972C59.6643 88.26 59.8363 88.648 59.8603 89.136C59.8763 89.456 59.8843 89.664 59.8843 89.76C59.8843 89.856 59.8763 90.024 59.8603 90.264C59.8283 90.744 59.6483 91.128 59.3203 91.416C58.9923 91.696 58.5603 91.836 58.0243 91.836ZM57.0643 96C56.9843 96 56.9163 95.98 56.8603 95.94C56.8123 95.892 56.7883 95.832 56.7883 95.76C56.7883 95.712 56.8043 95.668 56.8363 95.628L62.7643 87.828C62.8283 87.748 62.8883 87.692 62.9443 87.66C63.0003 87.62 63.0803 87.6 63.1843 87.6H64.0363C64.1163 87.6 64.1803 87.624 64.2283 87.672C64.2843 87.712 64.3123 87.768 64.3123 87.84C64.3123 87.888 64.2963 87.932 64.2643 87.972L58.3363 95.772C58.2723 95.852 58.2123 95.912 58.1563 95.952C58.1003 95.984 58.0203 96 57.9163 96H57.0643ZM58.0243 90.792C58.3603 90.792 58.5443 90.596 58.5763 90.204C58.5923 89.948 58.6003 89.78 58.6003 89.7C58.6003 89.596 58.5923 89.432 58.5763 89.208C58.5683 89.032 58.5163 88.888 58.4203 88.776C58.3323 88.664 58.2003 88.608 58.0243 88.608C57.8403 88.608 57.7043 88.664 57.6163 88.776C57.5283 88.888 57.4763 89.032 57.4603 89.208C57.4523 89.32 57.4483 89.484 57.4483 89.7C57.4483 89.908 57.4523 90.076 57.4603 90.204C57.4923 90.596 57.6803 90.792 58.0243 90.792ZM63.1003 96.06C62.5563 96.06 62.1203 95.92 61.7923 95.64C61.4723 95.352 61.2923 94.964 61.2523 94.476C61.2443 94.34 61.2403 94.156 61.2403 93.924C61.2403 93.684 61.2443 93.492 61.2523 93.348C61.2843 92.852 61.4563 92.46 61.7683 92.172C62.0883 91.884 62.5323 91.74 63.1003 91.74C63.6683 91.74 64.1083 91.884 64.4203 92.172C64.7403 92.46 64.9163 92.852 64.9483 93.348C64.9643 93.668 64.9723 93.876 64.9723 93.972C64.9723 94.068 64.9643 94.236 64.9483 94.476C64.9163 94.956 64.7363 95.34 64.4083 95.628C64.0803 95.916 63.6443 96.06 63.1003 96.06ZM63.1003 95.004C63.2843 95.004 63.4203 94.948 63.5083 94.836C63.5963 94.716 63.6483 94.572 63.6643 94.404C63.6803 94.164 63.6883 93.996 63.6883 93.9C63.6883 93.796 63.6803 93.632 63.6643 93.408C63.6483 93.24 63.5963 93.1 63.5083 92.988C63.4203 92.868 63.2843 92.808 63.1003 92.808C62.9163 92.808 62.7803 92.868 62.6923 92.988C62.6043 93.1 62.5563 93.24 62.5483 93.408C62.5403 93.52 62.5363 93.684 62.5363 93.9C62.5363 94.116 62.5403 94.284 62.5483 94.404C62.5643 94.58 62.6123 94.724 62.6923 94.836C62.7803 94.948 62.9163 95.004 63.1003 95.004Z" fill="#333333"/>
<path d="M184.805 96C184.725 96 184.653 95.972 184.589 95.916C184.533 95.852 184.505 95.78 184.505 95.7V94.344H180.773C180.685 94.344 180.613 94.316 180.557 94.26C180.501 94.204 180.473 94.132 180.473 94.044V92.904C180.473 92.784 180.517 92.66 180.605 92.532L184.097 87.804C184.209 87.668 184.357 87.6 184.541 87.6H186.293C186.381 87.6 186.453 87.628 186.509 87.684C186.565 87.74 186.593 87.812 186.593 87.9V92.556H187.649C187.745 92.556 187.821 92.588 187.877 92.652C187.933 92.708 187.961 92.776 187.961 92.856V94.044C187.961 94.132 187.933 94.204 187.877 94.26C187.821 94.316 187.749 94.344 187.661 94.344H186.593V95.7C186.593 95.78 186.565 95.852 186.509 95.916C186.453 95.972 186.381 96 186.293 96H184.805ZM184.553 92.64V89.808L182.537 92.64H184.553ZM193.597 96C193.517 96 193.445 95.972 193.381 95.916C193.325 95.852 193.297 95.78 193.297 95.7V94.344H189.565C189.477 94.344 189.405 94.316 189.349 94.26C189.293 94.204 189.265 94.132 189.265 94.044V92.904C189.265 92.784 189.309 92.66 189.397 92.532L192.889 87.804C193.001 87.668 193.149 87.6 193.333 87.6H195.085C195.173 87.6 195.245 87.628 195.301 87.684C195.357 87.74 195.385 87.812 195.385 87.9V92.556H196.441C196.537 92.556 196.613 92.588 196.669 92.652C196.725 92.708 196.753 92.776 196.753 92.856V94.044C196.753 94.132 196.725 94.204 196.669 94.26C196.613 94.316 196.541 94.344 196.453 94.344H195.385V95.7C195.385 95.78 195.357 95.852 195.301 95.916C195.245 95.972 195.173 96 195.085 96H193.597ZM193.345 92.64V89.808L191.329 92.64H193.345ZM200.024 91.836C199.48 91.836 199.044 91.696 198.716 91.416C198.388 91.128 198.208 90.744 198.176 90.264C198.16 90.024 198.152 89.856 198.152 89.76C198.152 89.664 198.16 89.456 198.176 89.136C198.2 88.648 198.372 88.26 198.692 87.972C199.012 87.684 199.456 87.54 200.024 87.54C200.584 87.54 201.024 87.684 201.344 87.972C201.664 88.26 201.836 88.648 201.86 89.136C201.876 89.456 201.884 89.664 201.884 89.76C201.884 89.856 201.876 90.024 201.86 90.264C201.828 90.744 201.648 91.128 201.32 91.416C200.992 91.696 200.56 91.836 200.024 91.836ZM199.064 96C198.984 96 198.916 95.98 198.86 95.94C198.812 95.892 198.788 95.832 198.788 95.76C198.788 95.712 198.804 95.668 198.836 95.628L204.764 87.828C204.828 87.748 204.888 87.692 204.944 87.66C205 87.62 205.08 87.6 205.184 87.6H206.036C206.116 87.6 206.18 87.624 206.228 87.672C206.284 87.712 206.312 87.768 206.312 87.84C206.312 87.888 206.296 87.932 206.264 87.972L200.336 95.772C200.272 95.852 200.212 95.912 200.156 95.952C200.1 95.984 200.02 96 199.916 96H199.064ZM200.024 90.792C200.36 90.792 200.544 90.596 200.576 90.204C200.592 89.948 200.6 89.78 200.6 89.7C200.6 89.596 200.592 89.432 200.576 89.208C200.568 89.032 200.516 88.888 200.42 88.776C200.332 88.664 200.2 88.608 200.024 88.608C199.84 88.608 199.704 88.664 199.616 88.776C199.528 88.888 199.476 89.032 199.46 89.208C199.452 89.32 199.448 89.484 199.448 89.7C199.448 89.908 199.452 90.076 199.46 90.204C199.492 90.596 199.68 90.792 200.024 90.792ZM205.1 96.06C204.556 96.06 204.12 95.92 203.792 95.64C203.472 95.352 203.292 94.964 203.252 94.476C203.244 94.34 203.24 94.156 203.24 93.924C203.24 93.684 203.244 93.492 203.252 93.348C203.284 92.852 203.456 92.46 203.768 92.172C204.088 91.884 204.532 91.74 205.1 91.74C205.668 91.74 206.108 91.884 206.42 92.172C206.74 92.46 206.916 92.852 206.948 93.348C206.964 93.668 206.972 93.876 206.972 93.972C206.972 94.068 206.964 94.236 206.948 94.476C206.916 94.956 206.736 95.34 206.408 95.628C206.08 95.916 205.644 96.06 205.1 96.06ZM205.1 95.004C205.284 95.004 205.42 94.948 205.508 94.836C205.596 94.716 205.648 94.572 205.664 94.404C205.68 94.164 205.688 93.996 205.688 93.9C205.688 93.796 205.68 93.632 205.664 93.408C205.648 93.24 205.596 93.1 205.508 92.988C205.42 92.868 205.284 92.808 205.1 92.808C204.916 92.808 204.78 92.868 204.692 92.988C204.604 93.1 204.556 93.24 204.548 93.408C204.54 93.52 204.536 93.684 204.536 93.9C204.536 94.116 204.54 94.284 204.548 94.404C204.564 94.58 204.612 94.724 204.692 94.836C204.78 94.948 204.916 95.004 205.1 95.004Z" fill="#333333"/>
<path d="M334.354 96.12C333.578 96.12 332.926 96 332.398 95.76C331.878 95.52 331.49 95.224 331.234 94.872C330.986 94.512 330.854 94.152 330.838 93.792C330.838 93.72 330.862 93.66 330.91 93.612C330.966 93.564 331.03 93.54 331.102 93.54H332.674C332.762 93.54 332.834 93.556 332.89 93.588C332.946 93.62 332.998 93.68 333.046 93.768C333.206 94.184 333.642 94.392 334.354 94.392C334.762 94.392 335.078 94.3 335.302 94.116C335.534 93.924 335.65 93.664 335.65 93.336C335.65 92.696 335.234 92.376 334.402 92.376H333.07C332.99 92.376 332.918 92.348 332.854 92.292C332.798 92.228 332.77 92.156 332.77 92.076V91.404C332.77 91.228 332.834 91.092 332.962 90.996L334.93 89.328H331.594C331.514 89.328 331.442 89.3 331.378 89.244C331.322 89.18 331.294 89.108 331.294 89.028V87.9C331.294 87.812 331.322 87.74 331.378 87.684C331.442 87.628 331.514 87.6 331.594 87.6H337.114C337.202 87.6 337.274 87.628 337.33 87.684C337.394 87.74 337.426 87.812 337.426 87.9V88.92C337.426 89.072 337.362 89.204 337.234 89.316L335.41 91.008L335.494 91.032C336.23 91.128 336.81 91.376 337.234 91.776C337.666 92.168 337.882 92.732 337.882 93.468C337.882 94.004 337.73 94.472 337.426 94.872C337.122 95.272 336.702 95.58 336.166 95.796C335.63 96.012 335.026 96.12 334.354 96.12ZM343.032 96.12C341.928 96.112 341.092 95.82 340.524 95.244C339.956 94.66 339.648 93.896 339.6 92.952C339.584 92.52 339.576 92.136 339.576 91.8C339.576 91.456 339.584 91.06 339.6 90.612C339.632 90.012 339.776 89.48 340.032 89.016C340.296 88.544 340.68 88.172 341.184 87.9C341.688 87.62 342.304 87.48 343.032 87.48C344.112 87.488 344.944 87.78 345.528 88.356C346.112 88.932 346.428 89.684 346.476 90.612C346.492 91.06 346.5 91.456 346.5 91.8C346.5 92.136 346.492 92.52 346.476 92.952C346.42 93.896 346.108 94.66 345.54 95.244C344.972 95.82 344.136 96.112 343.032 96.12ZM343.032 94.38C343.424 94.38 343.716 94.252 343.908 93.996C344.108 93.732 344.216 93.364 344.232 92.892C344.248 92.66 344.256 92.288 344.256 91.776C344.256 91.264 344.248 90.9 344.232 90.684C344.216 90.228 344.112 89.868 343.92 89.604C343.728 89.34 343.432 89.204 343.032 89.196C342.64 89.204 342.344 89.34 342.144 89.604C341.952 89.868 341.848 90.228 341.832 90.684C341.824 90.9 341.82 91.264 341.82 91.776C341.82 92.288 341.824 92.66 341.832 92.892C341.872 93.884 342.272 94.38 343.032 94.38ZM350.024 91.836C349.48 91.836 349.044 91.696 348.716 91.416C348.388 91.128 348.208 90.744 348.176 90.264C348.16 90.024 348.152 89.856 348.152 89.76C348.152 89.664 348.16 89.456 348.176 89.136C348.2 88.648 348.372 88.26 348.692 87.972C349.012 87.684 349.456 87.54 350.024 87.54C350.584 87.54 351.024 87.684 351.344 87.972C351.664 88.26 351.836 88.648 351.86 89.136C351.876 89.456 351.884 89.664 351.884 89.76C351.884 89.856 351.876 90.024 351.86 90.264C351.828 90.744 351.648 91.128 351.32 91.416C350.992 91.696 350.56 91.836 350.024 91.836ZM349.064 96C348.984 96 348.916 95.98 348.86 95.94C348.812 95.892 348.788 95.832 348.788 95.76C348.788 95.712 348.804 95.668 348.836 95.628L354.764 87.828C354.828 87.748 354.888 87.692 354.944 87.66C355 87.62 355.08 87.6 355.184 87.6H356.036C356.116 87.6 356.18 87.624 356.228 87.672C356.284 87.712 356.312 87.768 356.312 87.84C356.312 87.888 356.296 87.932 356.264 87.972L350.336 95.772C350.272 95.852 350.212 95.912 350.156 95.952C350.1 95.984 350.02 96 349.916 96H349.064ZM350.024 90.792C350.36 90.792 350.544 90.596 350.576 90.204C350.592 89.948 350.6 89.78 350.6 89.7C350.6 89.596 350.592 89.432 350.576 89.208C350.568 89.032 350.516 88.888 350.42 88.776C350.332 88.664 350.2 88.608 350.024 88.608C349.84 88.608 349.704 88.664 349.616 88.776C349.528 88.888 349.476 89.032 349.46 89.208C349.452 89.32 349.448 89.484 349.448 89.7C349.448 89.908 349.452 90.076 349.46 90.204C349.492 90.596 349.68 90.792 350.024 90.792ZM355.1 96.06C354.556 96.06 354.12 95.92 353.792 95.64C353.472 95.352 353.292 94.964 353.252 94.476C353.244 94.34 353.24 94.156 353.24 93.924C353.24 93.684 353.244 93.492 353.252 93.348C353.284 92.852 353.456 92.46 353.768 92.172C354.088 91.884 354.532 91.74 355.1 91.74C355.668 91.74 356.108 91.884 356.42 92.172C356.74 92.46 356.916 92.852 356.948 93.348C356.964 93.668 356.972 93.876 356.972 93.972C356.972 94.068 356.964 94.236 356.948 94.476C356.916 94.956 356.736 95.34 356.408 95.628C356.08 95.916 355.644 96.06 355.1 96.06ZM355.1 95.004C355.284 95.004 355.42 94.948 355.508 94.836C355.596 94.716 355.648 94.572 355.664 94.404C355.68 94.164 355.688 93.996 355.688 93.9C355.688 93.796 355.68 93.632 355.664 93.408C355.648 93.24 355.596 93.1 355.508 92.988C355.42 92.868 355.284 92.808 355.1 92.808C354.916 92.808 354.78 92.868 354.692 92.988C354.604 93.1 354.556 93.24 354.548 93.408C354.54 93.52 354.536 93.684 354.536 93.9C354.536 94.116 354.54 94.284 354.548 94.404C354.564 94.58 354.612 94.724 354.692 94.836C354.78 94.948 354.916 95.004 355.1 95.004Z" fill="#333333"/>
<line x1="2" y1="30" x2="2" y2="-8.74228e-08" stroke="#790177" stroke-width="4"/>
</svg>
