<svg width="408" height="107" viewBox="0 0 408 107" fill="none" xmlns="http://www.w3.org/2000/svg">
<path d="M3.852 11.12C3.14 11.12 2.528 11.012 2.016 10.796C1.504 10.58 1.116 10.296 0.852 9.944C0.588 9.592 0.448 9.212 0.432 8.804C0.432 8.732 0.456 8.672 0.504 8.624C0.552 8.576 0.612 8.552 0.684 8.552H1.752C1.848 8.552 1.92 8.572 1.968 8.612C2.024 8.644 2.076 8.7 2.124 8.78C2.204 9.052 2.388 9.28 2.676 9.464C2.964 9.648 3.356 9.74 3.852 9.74C4.42 9.74 4.848 9.648 5.136 9.464C5.424 9.272 5.568 9.008 5.568 8.672C5.568 8.448 5.492 8.264 5.34 8.12C5.196 7.976 4.976 7.852 4.68 7.748C4.392 7.644 3.96 7.516 3.384 7.364C2.44 7.14 1.748 6.844 1.308 6.476C0.876 6.1 0.66 5.568 0.66 4.88C0.66 4.416 0.784 4.004 1.032 3.644C1.288 3.284 1.652 3 2.124 2.792C2.604 2.584 3.16 2.48 3.792 2.48C4.448 2.48 5.016 2.596 5.496 2.828C5.976 3.06 6.34 3.352 6.588 3.704C6.844 4.048 6.98 4.392 6.996 4.736C6.996 4.808 6.972 4.868 6.924 4.916C6.876 4.964 6.816 4.988 6.744 4.988H5.628C5.46 4.988 5.344 4.912 5.28 4.76C5.232 4.504 5.072 4.292 4.8 4.124C4.528 3.948 4.192 3.86 3.792 3.86C3.344 3.86 2.992 3.944 2.736 4.112C2.48 4.28 2.352 4.524 2.352 4.844C2.352 5.068 2.416 5.252 2.544 5.396C2.672 5.54 2.872 5.668 3.144 5.78C3.424 5.892 3.824 6.016 4.344 6.152C5.048 6.312 5.608 6.492 6.024 6.692C6.448 6.892 6.76 7.144 6.96 7.448C7.16 7.752 7.26 8.14 7.26 8.612C7.26 9.124 7.116 9.572 6.828 9.956C6.548 10.332 6.148 10.62 5.628 10.82C5.116 11.02 4.524 11.12 3.852 11.12ZM11.9112 11C11.1832 11 10.6352 10.812 10.2672 10.436C9.90722 10.052 9.72722 9.492 9.72722 8.756V6.032H8.77922C8.69922 6.032 8.63122 6.004 8.57522 5.948C8.51922 5.884 8.49122 5.812 8.49122 5.732V5.048C8.49122 4.968 8.51922 4.9 8.57522 4.844C8.63122 4.788 8.69922 4.76 8.77922 4.76H9.72722V2.768C9.72722 2.68 9.75522 2.612 9.81122 2.564C9.86722 2.508 9.93522 2.48 10.0152 2.48H10.9872C11.0752 2.48 11.1432 2.508 11.1912 2.564C11.2472 2.612 11.2752 2.68 11.2752 2.768V4.76H12.7752C12.8632 4.76 12.9312 4.788 12.9792 4.844C13.0352 4.892 13.0632 4.96 13.0632 5.048V5.732C13.0632 5.82 13.0352 5.892 12.9792 5.948C12.9232 6.004 12.8552 6.032 12.7752 6.032H11.2752V8.636C11.2752 8.98 11.3352 9.24 11.4552 9.416C11.5752 9.592 11.7752 9.68 12.0552 9.68H12.8832C12.9632 9.68 13.0312 9.708 13.0872 9.764C13.1432 9.82 13.1712 9.888 13.1712 9.968V10.712C13.1712 10.792 13.1432 10.86 13.0872 10.916C13.0392 10.972 12.9712 11 12.8832 11H11.9112ZM16.6478 11.12C16.2398 11.12 15.8638 11.04 15.5198 10.88C15.1838 10.712 14.9158 10.488 14.7158 10.208C14.5238 9.928 14.4278 9.62 14.4278 9.284C14.4278 8.74 14.6478 8.3 15.0878 7.964C15.5278 7.628 16.1318 7.4 16.8998 7.28L18.5438 7.04V6.788C18.5438 6.436 18.4558 6.172 18.2798 5.996C18.1038 5.82 17.8198 5.732 17.4278 5.732C17.1638 5.732 16.9478 5.784 16.7798 5.888C16.6198 5.984 16.4918 6.08 16.3958 6.176C16.2998 6.28 16.2358 6.348 16.2038 6.38C16.1718 6.476 16.1118 6.524 16.0238 6.524H15.0998C15.0278 6.524 14.9638 6.5 14.9078 6.452C14.8598 6.404 14.8358 6.34 14.8358 6.26C14.8438 6.06 14.9398 5.832 15.1238 5.576C15.3158 5.32 15.6078 5.1 15.9998 4.916C16.3918 4.732 16.8718 4.64 17.4398 4.64C18.3838 4.64 19.0718 4.852 19.5038 5.276C19.9358 5.7 20.1518 6.256 20.1518 6.944V10.712C20.1518 10.792 20.1238 10.86 20.0678 10.916C20.0198 10.972 19.9518 11 19.8638 11H18.8918C18.8118 11 18.7438 10.972 18.6878 10.916C18.6318 10.86 18.6038 10.792 18.6038 10.712V10.244C18.4278 10.5 18.1758 10.712 17.8478 10.88C17.5278 11.04 17.1278 11.12 16.6478 11.12ZM17.0558 9.98C17.4958 9.98 17.8558 9.836 18.1358 9.548C18.4158 9.26 18.5558 8.84 18.5558 8.288V8.036L17.3558 8.228C16.8918 8.3 16.5398 8.416 16.2998 8.576C16.0678 8.736 15.9518 8.932 15.9518 9.164C15.9518 9.42 16.0598 9.62 16.2758 9.764C16.4918 9.908 16.7518 9.98 17.0558 9.98ZM24.6072 11.12C23.7992 11.12 23.1792 10.86 22.7472 10.34C22.3152 9.82 22.0832 9.128 22.0512 8.264L22.0392 7.868L22.0512 7.484C22.0752 6.644 22.3032 5.96 22.7352 5.432C23.1752 4.904 23.7992 4.64 24.6072 4.64C25.3832 4.64 25.9992 4.904 26.4552 5.432V2.768C26.4552 2.68 26.4832 2.612 26.5392 2.564C26.5952 2.508 26.6632 2.48 26.7432 2.48H27.7632C27.8512 2.48 27.9192 2.508 27.9672 2.564C28.0232 2.612 28.0512 2.68 28.0512 2.768V10.712C28.0512 10.792 28.0232 10.86 27.9672 10.916C27.9192 10.972 27.8512 11 27.7632 11H26.8152C26.7352 11 26.6672 10.972 26.6112 10.916C26.5552 10.86 26.5272 10.792 26.5272 10.712V10.268C26.0712 10.836 25.4312 11.12 24.6072 11.12ZM25.0512 9.836C25.5152 9.836 25.8592 9.688 26.0832 9.392C26.3072 9.096 26.4312 8.732 26.4552 8.3C26.4632 8.204 26.4672 8.048 26.4672 7.832C26.4672 7.624 26.4632 7.472 26.4552 7.376C26.4392 6.976 26.3112 6.636 26.0712 6.356C25.8392 6.068 25.4992 5.924 25.0512 5.924C24.1872 5.924 23.7272 6.456 23.6712 7.52L23.6592 7.88L23.6712 8.24C23.7272 9.304 24.1872 9.836 25.0512 9.836ZM33.0706 11C32.3426 11 31.7946 10.812 31.4266 10.436C31.0666 10.052 30.8866 9.492 30.8866 8.756V6.032H29.9386C29.8586 6.032 29.7906 6.004 29.7346 5.948C29.6786 5.884 29.6506 5.812 29.6506 5.732V5.048C29.6506 4.968 29.6786 4.9 29.7346 4.844C29.7906 4.788 29.8586 4.76 29.9386 4.76H30.8866V2.768C30.8866 2.68 30.9146 2.612 30.9706 2.564C31.0266 2.508 31.0946 2.48 31.1746 2.48H32.1466C32.2346 2.48 32.3026 2.508 32.3506 2.564C32.4066 2.612 32.4346 2.68 32.4346 2.768V4.76H33.9346C34.0226 4.76 34.0906 4.788 34.1386 4.844C34.1946 4.892 34.2226 4.96 34.2226 5.048V5.732C34.2226 5.82 34.1946 5.892 34.1386 5.948C34.0826 6.004 34.0146 6.032 33.9346 6.032H32.4346V8.636C32.4346 8.98 32.4946 9.24 32.6146 9.416C32.7346 9.592 32.9346 9.68 33.2146 9.68H34.0426C34.1226 9.68 34.1906 9.708 34.2466 9.764C34.3026 9.82 34.3306 9.888 34.3306 9.968V10.712C34.3306 10.792 34.3026 10.86 34.2466 10.916C34.1986 10.972 34.1306 11 34.0426 11H33.0706ZM38.8151 11C38.0871 11 37.5391 10.812 37.1711 10.436C36.8111 10.052 36.6311 9.492 36.6311 8.756V6.032H35.6831C35.6031 6.032 35.5351 6.004 35.4791 5.948C35.4231 5.884 35.3951 5.812 35.3951 5.732V5.048C35.3951 4.968 35.4231 4.9 35.4791 4.844C35.5351 4.788 35.6031 4.76 35.6831 4.76H36.6311V2.768C36.6311 2.68 36.6591 2.612 36.7151 2.564C36.7711 2.508 36.8391 2.48 36.9191 2.48H37.8911C37.9791 2.48 38.0471 2.508 38.0951 2.564C38.1511 2.612 38.1791 2.68 38.1791 2.768V4.76H39.6791C39.7671 4.76 39.8351 4.788 39.8831 4.844C39.9391 4.892 39.9671 4.96 39.9671 5.048V5.732C39.9671 5.82 39.9391 5.892 39.8831 5.948C39.8271 6.004 39.7591 6.032 39.6791 6.032H38.1791V8.636C38.1791 8.98 38.2391 9.24 38.3591 9.416C38.4791 9.592 38.6791 9.68 38.9591 9.68H39.7871C39.8671 9.68 39.9351 9.708 39.9911 9.764C40.0471 9.82 40.0751 9.888 40.0751 9.968V10.712C40.0751 10.792 40.0471 10.86 39.9911 10.916C39.9431 10.972 39.8751 11 39.7871 11H38.8151ZM44.4277 11.12C43.5397 11.12 42.8317 10.864 42.3037 10.352C41.7837 9.832 41.5077 9.104 41.4757 8.168L41.4637 7.868L41.4757 7.568C41.5157 6.656 41.7957 5.94 42.3157 5.42C42.8437 4.9 43.5477 4.64 44.4277 4.64C45.3717 4.64 46.0997 4.928 46.6117 5.504C47.1317 6.08 47.3917 6.848 47.3917 7.808V8.06C47.3917 8.14 47.3637 8.208 47.3077 8.264C47.2517 8.32 47.1797 8.348 47.0917 8.348H43.1077V8.444C43.1237 8.884 43.2437 9.256 43.4677 9.56C43.6997 9.856 44.0157 10.004 44.4157 10.004C44.8877 10.004 45.2677 9.82 45.5557 9.452C45.6277 9.364 45.6837 9.308 45.7237 9.284C45.7717 9.26 45.8397 9.248 45.9277 9.248H46.9597C47.0317 9.248 47.0917 9.272 47.1397 9.32C47.1957 9.36 47.2237 9.412 47.2237 9.476C47.2237 9.668 47.1077 9.896 46.8757 10.16C46.6517 10.416 46.3277 10.64 45.9037 10.832C45.4797 11.024 44.9877 11.12 44.4277 11.12ZM45.7597 7.34V7.304C45.7597 6.832 45.6397 6.452 45.3997 6.164C45.1677 5.876 44.8437 5.732 44.4277 5.732C44.0117 5.732 43.6877 5.876 43.4557 6.164C43.2237 6.452 43.1077 6.832 43.1077 7.304V7.34H45.7597ZM49.5054 3.728C49.4254 3.728 49.3574 3.7 49.3014 3.644C49.2454 3.588 49.2174 3.52 49.2174 3.44V2.576C49.2174 2.496 49.2454 2.428 49.3014 2.372C49.3574 2.316 49.4254 2.288 49.5054 2.288H50.5974C50.6774 2.288 50.7454 2.316 50.8014 2.372C50.8654 2.428 50.8974 2.496 50.8974 2.576V3.44C50.8974 3.52 50.8694 3.588 50.8134 3.644C50.7574 3.7 50.6854 3.728 50.5974 3.728H49.5054ZM49.5534 11C49.4734 11 49.4054 10.972 49.3494 10.916C49.2934 10.86 49.2654 10.792 49.2654 10.712V5.048C49.2654 4.968 49.2934 4.9 49.3494 4.844C49.4054 4.788 49.4734 4.76 49.5534 4.76H50.5494C50.6374 4.76 50.7054 4.788 50.7534 4.844C50.8094 4.892 50.8374 4.96 50.8374 5.048V10.712C50.8374 10.792 50.8094 10.86 50.7534 10.916C50.7054 10.972 50.6374 11 50.5494 11H49.5534ZM53.3295 11C53.2495 11 53.1815 10.972 53.1255 10.916C53.0695 10.86 53.0415 10.792 53.0415 10.712V2.768C53.0415 2.68 53.0695 2.612 53.1255 2.564C53.1815 2.508 53.2495 2.48 53.3295 2.48H54.3255C54.4135 2.48 54.4815 2.508 54.5295 2.564C54.5855 2.612 54.6135 2.68 54.6135 2.768V10.712C54.6135 10.792 54.5855 10.86 54.5295 10.916C54.4815 10.972 54.4135 11 54.3255 11H53.3295ZM59.4933 11.12C58.6053 11.12 57.8973 10.864 57.3693 10.352C56.8493 9.832 56.5733 9.104 56.5413 8.168L56.5293 7.868L56.5413 7.568C56.5813 6.656 56.8613 5.94 57.3813 5.42C57.9093 4.9 58.6133 4.64 59.4933 4.64C60.4373 4.64 61.1653 4.928 61.6773 5.504C62.1973 6.08 62.4573 6.848 62.4573 7.808V8.06C62.4573 8.14 62.4293 8.208 62.3733 8.264C62.3173 8.32 62.2453 8.348 62.1573 8.348H58.1733V8.444C58.1893 8.884 58.3093 9.256 58.5333 9.56C58.7653 9.856 59.0813 10.004 59.4813 10.004C59.9533 10.004 60.3333 9.82 60.6213 9.452C60.6933 9.364 60.7493 9.308 60.7893 9.284C60.8373 9.26 60.9053 9.248 60.9933 9.248H62.0253C62.0973 9.248 62.1573 9.272 62.2053 9.32C62.2613 9.36 62.2893 9.412 62.2893 9.476C62.2893 9.668 62.1733 9.896 61.9413 10.16C61.7173 10.416 61.3933 10.64 60.9693 10.832C60.5453 11.024 60.0533 11.12 59.4933 11.12ZM60.8253 7.34V7.304C60.8253 6.832 60.7053 6.452 60.4653 6.164C60.2333 5.876 59.9093 5.732 59.4933 5.732C59.0773 5.732 58.7533 5.876 58.5213 6.164C58.2893 6.452 58.1733 6.832 58.1733 7.304V7.34H60.8253ZM67.9612 11C67.8812 11 67.8132 10.972 67.7572 10.916C67.7012 10.86 67.6732 10.792 67.6732 10.712V5.048C67.6732 4.968 67.7012 4.9 67.7572 4.844C67.8132 4.788 67.8812 4.76 67.9612 4.76H68.8972C68.9772 4.76 69.0452 4.788 69.1012 4.844C69.1572 4.9 69.1852 4.968 69.1852 5.048V5.456C69.6012 4.912 70.1812 4.64 70.9252 4.64C71.8132 4.64 72.4332 4.996 72.7852 5.708C72.9772 5.388 73.2492 5.132 73.6012 4.94C73.9532 4.74 74.3332 4.64 74.7412 4.64C75.3972 4.64 75.9332 4.864 76.3492 5.312C76.7652 5.76 76.9732 6.412 76.9732 7.268V10.712C76.9732 10.792 76.9452 10.86 76.8892 10.916C76.8412 10.972 76.7732 11 76.6852 11H75.7012C75.6212 11 75.5532 10.972 75.4972 10.916C75.4412 10.86 75.4132 10.792 75.4132 10.712V7.364C75.4132 6.86 75.3052 6.496 75.0892 6.272C74.8812 6.04 74.6012 5.924 74.2492 5.924C73.9372 5.924 73.6692 6.04 73.4452 6.272C73.2292 6.504 73.1212 6.868 73.1212 7.364V10.712C73.1212 10.792 73.0932 10.86 73.0372 10.916C72.9812 10.972 72.9132 11 72.8332 11H71.8492C71.7692 11 71.7012 10.972 71.6452 10.916C71.5892 10.86 71.5612 10.792 71.5612 10.712V7.364C71.5612 6.86 71.4492 6.496 71.2252 6.272C71.0092 6.04 70.7332 5.924 70.3972 5.924C70.0772 5.924 69.8052 6.04 69.5812 6.272C69.3652 6.504 69.2572 6.868 69.2572 7.364V10.712C69.2572 10.792 69.2292 10.86 69.1732 10.916C69.1172 10.972 69.0492 11 68.9692 11H67.9612ZM79.3414 3.728C79.2614 3.728 79.1934 3.7 79.1374 3.644C79.0814 3.588 79.0534 3.52 79.0534 3.44V2.576C79.0534 2.496 79.0814 2.428 79.1374 2.372C79.1934 2.316 79.2614 2.288 79.3414 2.288H80.4334C80.5134 2.288 80.5814 2.316 80.6374 2.372C80.7014 2.428 80.7334 2.496 80.7334 2.576V3.44C80.7334 3.52 80.7054 3.588 80.6494 3.644C80.5934 3.7 80.5214 3.728 80.4334 3.728H79.3414ZM79.3894 11C79.3094 11 79.2414 10.972 79.1854 10.916C79.1294 10.86 79.1014 10.792 79.1014 10.712V5.048C79.1014 4.968 79.1294 4.9 79.1854 4.844C79.2414 4.788 79.3094 4.76 79.3894 4.76H80.3854C80.4734 4.76 80.5414 4.788 80.5894 4.844C80.6454 4.892 80.6734 4.96 80.6734 5.048V10.712C80.6734 10.792 80.6454 10.86 80.5894 10.916C80.5414 10.972 80.4734 11 80.3854 11H79.3894ZM85.6854 11C84.9574 11 84.4094 10.812 84.0414 10.436C83.6814 10.052 83.5014 9.492 83.5014 8.756V6.032H82.5534C82.4734 6.032 82.4054 6.004 82.3494 5.948C82.2934 5.884 82.2654 5.812 82.2654 5.732V5.048C82.2654 4.968 82.2934 4.9 82.3494 4.844C82.4054 4.788 82.4734 4.76 82.5534 4.76H83.5014V2.768C83.5014 2.68 83.5294 2.612 83.5854 2.564C83.6414 2.508 83.7094 2.48 83.7894 2.48H84.7614C84.8494 2.48 84.9174 2.508 84.9654 2.564C85.0214 2.612 85.0494 2.68 85.0494 2.768V4.76H86.5494C86.6374 4.76 86.7054 4.788 86.7534 4.844C86.8094 4.892 86.8374 4.96 86.8374 5.048V5.732C86.8374 5.82 86.8094 5.892 86.7534 5.948C86.6974 6.004 86.6294 6.032 86.5494 6.032H85.0494V8.636C85.0494 8.98 85.1094 9.24 85.2294 9.416C85.3494 9.592 85.5494 9.68 85.8294 9.68H86.6574C86.7374 9.68 86.8054 9.708 86.8614 9.764C86.9174 9.82 86.9454 9.888 86.9454 9.968V10.712C86.9454 10.792 86.9174 10.86 86.8614 10.916C86.8134 10.972 86.7454 11 86.6574 11H85.6854ZM1.08 27C1 27 0.932 26.972 0.876 26.916C0.82 26.86 0.792 26.792 0.792 26.712V21.048C0.792 20.968 0.82 20.9 0.876 20.844C0.932 20.788 1 20.76 1.08 20.76H2.064C2.144 20.76 2.212 20.788 2.268 20.844C2.324 20.9 2.352 20.968 2.352 21.048V21.54C2.824 20.94 3.492 20.64 4.356 20.64C5.092 20.64 5.676 20.884 6.108 21.372C6.54 21.852 6.756 22.508 6.756 23.34V26.712C6.756 26.792 6.728 26.86 6.672 26.916C6.624 26.972 6.556 27 6.468 27H5.412C5.332 27 5.264 26.972 5.208 26.916C5.152 26.86 5.124 26.792 5.124 26.712V23.412C5.124 22.94 5.008 22.576 4.776 22.32C4.552 22.056 4.224 21.924 3.792 21.924C3.368 21.924 3.032 22.056 2.784 22.32C2.544 22.584 2.424 22.948 2.424 23.412V26.712C2.424 26.792 2.396 26.86 2.34 26.916C2.292 26.972 2.224 27 2.136 27H1.08ZM9.12028 19.728C9.04028 19.728 8.97228 19.7 8.91628 19.644C8.86028 19.588 8.83228 19.52 8.83228 19.44V18.576C8.83228 18.496 8.86028 18.428 8.91628 18.372C8.97228 18.316 9.04028 18.288 9.12028 18.288H10.2123C10.2923 18.288 10.3603 18.316 10.4163 18.372C10.4803 18.428 10.5123 18.496 10.5123 18.576V19.44C10.5123 19.52 10.4843 19.588 10.4283 19.644C10.3723 19.7 10.3003 19.728 10.2123 19.728H9.12028ZM9.16828 27C9.08828 27 9.02028 26.972 8.96428 26.916C8.90828 26.86 8.88028 26.792 8.88028 26.712V21.048C8.88028 20.968 8.90828 20.9 8.96428 20.844C9.02028 20.788 9.08828 20.76 9.16828 20.76H10.1643C10.2523 20.76 10.3203 20.788 10.3683 20.844C10.4243 20.892 10.4523 20.96 10.4523 21.048V26.712C10.4523 26.792 10.4243 26.86 10.3683 26.916C10.3203 26.972 10.2523 27 10.1643 27H9.16828ZM15.3323 27.12C14.4443 27.12 13.7363 26.864 13.2083 26.352C12.6883 25.832 12.4123 25.104 12.3803 24.168L12.3683 23.868L12.3803 23.568C12.4203 22.656 12.7003 21.94 13.2203 21.42C13.7483 20.9 14.4523 20.64 15.3323 20.64C16.2763 20.64 17.0043 20.928 17.5163 21.504C18.0363 22.08 18.2963 22.848 18.2963 23.808V24.06C18.2963 24.14 18.2683 24.208 18.2123 24.264C18.1563 24.32 18.0843 24.348 17.9963 24.348H14.0123V24.444C14.0283 24.884 14.1483 25.256 14.3723 25.56C14.6043 25.856 14.9203 26.004 15.3203 26.004C15.7923 26.004 16.1723 25.82 16.4603 25.452C16.5323 25.364 16.5883 25.308 16.6283 25.284C16.6763 25.26 16.7443 25.248 16.8323 25.248H17.8643C17.9363 25.248 17.9963 25.272 18.0443 25.32C18.1003 25.36 18.1283 25.412 18.1283 25.476C18.1283 25.668 18.0123 25.896 17.7803 26.16C17.5563 26.416 17.2323 26.64 16.8083 26.832C16.3843 27.024 15.8923 27.12 15.3323 27.12ZM16.6643 23.34V23.304C16.6643 22.832 16.5443 22.452 16.3043 22.164C16.0723 21.876 15.7483 21.732 15.3323 21.732C14.9163 21.732 14.5923 21.876 14.3603 22.164C14.1283 22.452 14.0123 22.832 14.0123 23.304V23.34H16.6643ZM22.4861 27.12C21.6781 27.12 21.0581 26.86 20.6261 26.34C20.1941 25.82 19.9621 25.128 19.9301 24.264L19.9181 23.868L19.9301 23.484C19.9541 22.644 20.1821 21.96 20.6141 21.432C21.0541 20.904 21.6781 20.64 22.4861 20.64C23.2621 20.64 23.8781 20.904 24.3341 21.432V18.768C24.3341 18.68 24.3621 18.612 24.4181 18.564C24.4741 18.508 24.5421 18.48 24.6221 18.48H25.6421C25.7301 18.48 25.7981 18.508 25.8461 18.564C25.9021 18.612 25.9301 18.68 25.9301 18.768V26.712C25.9301 26.792 25.9021 26.86 25.8461 26.916C25.7981 26.972 25.7301 27 25.6421 27H24.6941C24.6141 27 24.5461 26.972 24.4901 26.916C24.4341 26.86 24.4061 26.792 24.4061 26.712V26.268C23.9501 26.836 23.3101 27.12 22.4861 27.12ZM22.9301 25.836C23.3941 25.836 23.7381 25.688 23.9621 25.392C24.1861 25.096 24.3101 24.732 24.3341 24.3C24.3421 24.204 24.3461 24.048 24.3461 23.832C24.3461 23.624 24.3421 23.472 24.3341 23.376C24.3181 22.976 24.1901 22.636 23.9501 22.356C23.7181 22.068 23.3781 21.924 22.9301 21.924C22.0661 21.924 21.6061 22.456 21.5501 23.52L21.5381 23.88L21.5501 24.24C21.6061 25.304 22.0661 25.836 22.9301 25.836ZM28.4175 27C28.3375 27 28.2695 26.972 28.2135 26.916C28.1575 26.86 28.1295 26.792 28.1295 26.712V21.06C28.1295 20.98 28.1575 20.912 28.2135 20.856C28.2695 20.792 28.3375 20.76 28.4175 20.76H29.3895C29.4775 20.76 29.5495 20.788 29.6055 20.844C29.6615 20.9 29.6895 20.972 29.6895 21.06V21.552C29.8815 21.296 30.1215 21.1 30.4095 20.964C30.7055 20.828 31.0415 20.76 31.4175 20.76H31.9095C31.9975 20.76 32.0655 20.788 32.1135 20.844C32.1695 20.892 32.1975 20.96 32.1975 21.048V21.912C32.1975 21.992 32.1695 22.06 32.1135 22.116C32.0655 22.172 31.9975 22.2 31.9095 22.2H30.9735C30.5975 22.2 30.3015 22.308 30.0855 22.524C29.8695 22.74 29.7615 23.036 29.7615 23.412V26.712C29.7615 26.792 29.7335 26.86 29.6775 26.916C29.6215 26.972 29.5495 27 29.4615 27H28.4175ZM33.9734 19.728C33.8934 19.728 33.8254 19.7 33.7694 19.644C33.7134 19.588 33.6854 19.52 33.6854 19.44V18.576C33.6854 18.496 33.7134 18.428 33.7694 18.372C33.8254 18.316 33.8934 18.288 33.9734 18.288H35.0654C35.1454 18.288 35.2134 18.316 35.2694 18.372C35.3334 18.428 35.3654 18.496 35.3654 18.576V19.44C35.3654 19.52 35.3374 19.588 35.2814 19.644C35.2254 19.7 35.1534 19.728 35.0654 19.728H33.9734ZM34.0214 27C33.9414 27 33.8734 26.972 33.8174 26.916C33.7614 26.86 33.7334 26.792 33.7334 26.712V21.048C33.7334 20.968 33.7614 20.9 33.8174 20.844C33.8734 20.788 33.9414 20.76 34.0214 20.76H35.0174C35.1054 20.76 35.1734 20.788 35.2214 20.844C35.2774 20.892 35.3054 20.96 35.3054 21.048V26.712C35.3054 26.792 35.2774 26.86 35.2214 26.916C35.1734 26.972 35.1054 27 35.0174 27H34.0214ZM40.3175 29.64C39.6055 29.64 39.0295 29.52 38.5895 29.28C38.1495 29.048 37.8375 28.78 37.6535 28.476C37.4695 28.172 37.3775 27.912 37.3775 27.696C37.3775 27.624 37.4055 27.56 37.4615 27.504C37.5255 27.448 37.5935 27.42 37.6655 27.42H38.7095C38.7815 27.42 38.8415 27.436 38.8895 27.468C38.9455 27.508 38.9895 27.576 39.0215 27.672C39.1015 27.888 39.2295 28.068 39.4055 28.212C39.5895 28.364 39.8735 28.44 40.2575 28.44C40.7375 28.44 41.0895 28.332 41.3135 28.116C41.5455 27.9 41.6615 27.528 41.6615 27V26.184C41.2215 26.704 40.6055 26.964 39.8135 26.964C38.9815 26.964 38.3535 26.708 37.9295 26.196C37.5135 25.684 37.2895 24.996 37.2575 24.132L37.2455 23.808L37.2575 23.484C37.2895 22.636 37.5175 21.952 37.9415 21.432C38.3655 20.904 38.9895 20.64 39.8135 20.64C40.2375 20.64 40.6095 20.72 40.9295 20.88C41.2495 21.04 41.5175 21.26 41.7335 21.54V21.06C41.7335 20.972 41.7615 20.9 41.8175 20.844C41.8735 20.788 41.9415 20.76 42.0215 20.76H42.9935C43.0735 20.76 43.1415 20.792 43.1975 20.856C43.2535 20.912 43.2815 20.98 43.2815 21.06L43.2935 26.844C43.2935 27.732 43.0455 28.42 42.5495 28.908C42.0535 29.396 41.3095 29.64 40.3175 29.64ZM40.2575 25.692C40.7135 25.692 41.0535 25.548 41.2775 25.26C41.5095 24.972 41.6375 24.62 41.6615 24.204C41.6695 24.14 41.6735 24.008 41.6735 23.808C41.6735 23.616 41.6695 23.488 41.6615 23.424C41.6375 23 41.5095 22.644 41.2775 22.356C41.0535 22.068 40.7135 21.924 40.2575 21.924C39.3935 21.924 38.9375 22.456 38.8895 23.52L38.8775 23.808C38.8775 24.376 38.9775 24.832 39.1775 25.176C39.3855 25.52 39.7455 25.692 40.2575 25.692ZM48.18 27.12C47.292 27.12 46.584 26.864 46.056 26.352C45.536 25.832 45.26 25.104 45.228 24.168L45.216 23.868L45.228 23.568C45.268 22.656 45.548 21.94 46.068 21.42C46.596 20.9 47.3 20.64 48.18 20.64C49.124 20.64 49.852 20.928 50.364 21.504C50.884 22.08 51.144 22.848 51.144 23.808V24.06C51.144 24.14 51.116 24.208 51.06 24.264C51.004 24.32 50.932 24.348 50.844 24.348H46.86V24.444C46.876 24.884 46.996 25.256 47.22 25.56C47.452 25.856 47.768 26.004 48.168 26.004C48.64 26.004 49.02 25.82 49.308 25.452C49.38 25.364 49.436 25.308 49.476 25.284C49.524 25.26 49.592 25.248 49.68 25.248H50.712C50.784 25.248 50.844 25.272 50.892 25.32C50.948 25.36 50.976 25.412 50.976 25.476C50.976 25.668 50.86 25.896 50.628 26.16C50.404 26.416 50.08 26.64 49.656 26.832C49.232 27.024 48.74 27.12 48.18 27.12ZM49.512 23.34V23.304C49.512 22.832 49.392 22.452 49.152 22.164C48.92 21.876 48.596 21.732 48.18 21.732C47.764 21.732 47.44 21.876 47.208 22.164C46.976 22.452 46.86 22.832 46.86 23.304V23.34H49.512ZM53.3058 27C53.2258 27 53.1578 26.972 53.1018 26.916C53.0458 26.86 53.0178 26.792 53.0178 26.712V21.048C53.0178 20.968 53.0458 20.9 53.1018 20.844C53.1578 20.788 53.2258 20.76 53.3058 20.76H54.2418C54.3218 20.76 54.3898 20.788 54.4458 20.844C54.5018 20.9 54.5298 20.968 54.5298 21.048V21.456C54.9458 20.912 55.5258 20.64 56.2698 20.64C57.1578 20.64 57.7778 20.996 58.1298 21.708C58.3218 21.388 58.5938 21.132 58.9458 20.94C59.2978 20.74 59.6778 20.64 60.0858 20.64C60.7418 20.64 61.2778 20.864 61.6938 21.312C62.1098 21.76 62.3178 22.412 62.3178 23.268V26.712C62.3178 26.792 62.2898 26.86 62.2338 26.916C62.1858 26.972 62.1178 27 62.0298 27H61.0458C60.9658 27 60.8978 26.972 60.8418 26.916C60.7858 26.86 60.7578 26.792 60.7578 26.712V23.364C60.7578 22.86 60.6498 22.496 60.4338 22.272C60.2258 22.04 59.9458 21.924 59.5938 21.924C59.2818 21.924 59.0138 22.04 58.7898 22.272C58.5738 22.504 58.4658 22.868 58.4658 23.364V26.712C58.4658 26.792 58.4378 26.86 58.3818 26.916C58.3258 26.972 58.2578 27 58.1778 27H57.1938C57.1138 27 57.0458 26.972 56.9898 26.916C56.9338 26.86 56.9058 26.792 56.9058 26.712V23.364C56.9058 22.86 56.7938 22.496 56.5698 22.272C56.3538 22.04 56.0778 21.924 55.7418 21.924C55.4218 21.924 55.1498 22.04 54.9258 22.272C54.7098 22.504 54.6018 22.868 54.6018 23.364V26.712C54.6018 26.792 54.5738 26.86 54.5178 26.916C54.4618 26.972 54.3938 27 54.3138 27H53.3058ZM68.2201 27C68.1401 27 68.0721 26.972 68.0161 26.916C67.9601 26.86 67.9321 26.792 67.9321 26.712V18.9C67.9321 18.812 67.9561 18.74 68.0041 18.684C68.0601 18.628 68.1321 18.6 68.2201 18.6H73.5001C73.5881 18.6 73.6601 18.628 73.7161 18.684C73.7721 18.74 73.8001 18.812 73.8001 18.9V19.692C73.8001 19.78 73.7721 19.852 73.7161 19.908C73.6601 19.956 73.5881 19.98 73.5001 19.98H69.5521V22.104H73.2361C73.3241 22.104 73.3961 22.132 73.4521 22.188C73.5081 22.236 73.5361 22.304 73.5361 22.392V23.136C73.5361 23.224 73.5081 23.296 73.4521 23.352C73.3961 23.4 73.3241 23.424 73.2361 23.424H69.5521V25.62H73.5961C73.6841 25.62 73.7561 25.648 73.8121 25.704C73.8681 25.76 73.8961 25.832 73.8961 25.92V26.712C73.8961 26.8 73.8681 26.872 73.8121 26.928C73.7561 26.976 73.6841 27 73.5961 27H68.2201ZM76.0929 19.728C76.0129 19.728 75.9449 19.7 75.8889 19.644C75.8329 19.588 75.8049 19.52 75.8049 19.44V18.576C75.8049 18.496 75.8329 18.428 75.8889 18.372C75.9449 18.316 76.0129 18.288 76.0929 18.288H77.1849C77.2649 18.288 77.3329 18.316 77.3889 18.372C77.4529 18.428 77.4849 18.496 77.4849 18.576V19.44C77.4849 19.52 77.4569 19.588 77.4009 19.644C77.3449 19.7 77.2729 19.728 77.1849 19.728H76.0929ZM76.1409 27C76.0609 27 75.9929 26.972 75.9369 26.916C75.8809 26.86 75.8529 26.792 75.8529 26.712V21.048C75.8529 20.968 75.8809 20.9 75.9369 20.844C75.9929 20.788 76.0609 20.76 76.1409 20.76H77.1369C77.2249 20.76 77.2929 20.788 77.3409 20.844C77.3969 20.892 77.4249 20.96 77.4249 21.048V26.712C77.4249 26.792 77.3969 26.86 77.3409 26.916C77.2929 26.972 77.2249 27 77.1369 27H76.1409ZM79.905 27C79.825 27 79.757 26.972 79.701 26.916C79.645 26.86 79.617 26.792 79.617 26.712V21.048C79.617 20.968 79.645 20.9 79.701 20.844C79.757 20.788 79.825 20.76 79.905 20.76H80.889C80.969 20.76 81.037 20.788 81.093 20.844C81.149 20.9 81.177 20.968 81.177 21.048V21.54C81.649 20.94 82.317 20.64 83.181 20.64C83.917 20.64 84.501 20.884 84.933 21.372C85.365 21.852 85.581 22.508 85.581 23.34V26.712C85.581 26.792 85.553 26.86 85.497 26.916C85.449 26.972 85.381 27 85.293 27H84.237C84.157 27 84.089 26.972 84.033 26.916C83.977 26.86 83.949 26.792 83.949 26.712V23.412C83.949 22.94 83.833 22.576 83.601 22.32C83.377 22.056 83.049 21.924 82.617 21.924C82.193 21.924 81.857 22.056 81.609 22.32C81.369 22.584 81.249 22.948 81.249 23.412V26.712C81.249 26.792 81.221 26.86 81.165 26.916C81.117 26.972 81.049 27 80.961 27H79.905ZM88.0053 27C87.9253 27 87.8573 26.972 87.8013 26.916C87.7453 26.86 87.7173 26.792 87.7173 26.712V18.768C87.7173 18.68 87.7453 18.612 87.8013 18.564C87.8573 18.508 87.9253 18.48 88.0053 18.48H88.9773C89.0653 18.48 89.1333 18.508 89.1813 18.564C89.2373 18.612 89.2653 18.68 89.2653 18.768V22.872L91.2813 20.964C91.3053 20.948 91.3453 20.916 91.4013 20.868C91.4493 20.828 91.4973 20.8 91.5453 20.784C91.5933 20.768 91.6533 20.76 91.7253 20.76H92.8413C92.9213 20.76 92.9853 20.784 93.0333 20.832C93.0813 20.88 93.1053 20.944 93.1053 21.024C93.1053 21.096 93.0653 21.168 92.9853 21.24L90.5133 23.556L93.2853 26.532C93.3653 26.612 93.4053 26.68 93.4053 26.736C93.4053 26.816 93.3773 26.88 93.3213 26.928C93.2733 26.976 93.2133 27 93.1413 27H92.0013C91.8893 27 91.8053 26.988 91.7493 26.964C91.7013 26.932 91.6373 26.876 91.5573 26.796L89.2653 24.384V26.712C89.2653 26.792 89.2373 26.86 89.1813 26.916C89.1333 26.972 89.0653 27 88.9773 27H88.0053ZM97.37 27.12C96.434 27.12 95.71 26.88 95.198 26.4C94.686 25.912 94.41 25.248 94.37 24.408L94.358 23.88L94.37 23.352C94.41 22.52 94.69 21.86 95.21 21.372C95.73 20.884 96.45 20.64 97.37 20.64C98.29 20.64 99.01 20.884 99.53 21.372C100.05 21.86 100.33 22.52 100.37 23.352C100.378 23.448 100.382 23.624 100.382 23.88C100.382 24.136 100.378 24.312 100.37 24.408C100.33 25.248 100.054 25.912 99.542 26.4C99.03 26.88 98.306 27.12 97.37 27.12ZM97.37 25.932C97.794 25.932 98.122 25.8 98.354 25.536C98.586 25.264 98.714 24.868 98.738 24.348C98.746 24.268 98.75 24.112 98.75 23.88C98.75 23.648 98.746 23.492 98.738 23.412C98.714 22.892 98.586 22.5 98.354 22.236C98.122 21.964 97.794 21.828 97.37 21.828C96.946 21.828 96.618 21.964 96.386 22.236C96.154 22.5 96.026 22.892 96.002 23.412L95.99 23.88L96.002 24.348C96.026 24.868 96.154 25.264 96.386 25.536C96.618 25.8 96.946 25.932 97.37 25.932ZM102.6 27C102.52 27 102.452 26.972 102.396 26.916C102.34 26.86 102.312 26.792 102.312 26.712V21.048C102.312 20.968 102.34 20.9 102.396 20.844C102.452 20.788 102.52 20.76 102.6 20.76H103.536C103.616 20.76 103.684 20.788 103.74 20.844C103.796 20.9 103.824 20.968 103.824 21.048V21.456C104.24 20.912 104.82 20.64 105.564 20.64C106.452 20.64 107.072 20.996 107.424 21.708C107.616 21.388 107.888 21.132 108.24 20.94C108.592 20.74 108.972 20.64 109.38 20.64C110.036 20.64 110.572 20.864 110.988 21.312C111.404 21.76 111.612 22.412 111.612 23.268V26.712C111.612 26.792 111.584 26.86 111.528 26.916C111.48 26.972 111.412 27 111.324 27H110.34C110.26 27 110.192 26.972 110.136 26.916C110.08 26.86 110.052 26.792 110.052 26.712V23.364C110.052 22.86 109.944 22.496 109.728 22.272C109.52 22.04 109.24 21.924 108.888 21.924C108.576 21.924 108.308 22.04 108.084 22.272C107.868 22.504 107.76 22.868 107.76 23.364V26.712C107.76 26.792 107.732 26.86 107.676 26.916C107.62 26.972 107.552 27 107.472 27H106.488C106.408 27 106.34 26.972 106.284 26.916C106.228 26.86 106.2 26.792 106.2 26.712V23.364C106.2 22.86 106.088 22.496 105.864 22.272C105.648 22.04 105.372 21.924 105.036 21.924C104.716 21.924 104.444 22.04 104.22 22.272C104.004 22.504 103.896 22.868 103.896 23.364V26.712C103.896 26.792 103.868 26.86 103.812 26.916C103.756 26.972 103.688 27 103.608 27H102.6ZM114.028 27C113.948 27 113.88 26.972 113.824 26.916C113.768 26.86 113.74 26.792 113.74 26.712V21.048C113.74 20.968 113.768 20.9 113.824 20.844C113.88 20.788 113.948 20.76 114.028 20.76H114.964C115.044 20.76 115.112 20.788 115.168 20.844C115.224 20.9 115.252 20.968 115.252 21.048V21.456C115.668 20.912 116.248 20.64 116.992 20.64C117.88 20.64 118.5 20.996 118.852 21.708C119.044 21.388 119.316 21.132 119.668 20.94C120.02 20.74 120.4 20.64 120.808 20.64C121.464 20.64 122 20.864 122.416 21.312C122.832 21.76 123.04 22.412 123.04 23.268V26.712C123.04 26.792 123.012 26.86 122.956 26.916C122.908 26.972 122.84 27 122.752 27H121.768C121.688 27 121.62 26.972 121.564 26.916C121.508 26.86 121.48 26.792 121.48 26.712V23.364C121.48 22.86 121.372 22.496 121.156 22.272C120.948 22.04 120.668 21.924 120.316 21.924C120.004 21.924 119.736 22.04 119.512 22.272C119.296 22.504 119.188 22.868 119.188 23.364V26.712C119.188 26.792 119.16 26.86 119.104 26.916C119.048 26.972 118.98 27 118.9 27H117.916C117.836 27 117.768 26.972 117.712 26.916C117.656 26.86 117.628 26.792 117.628 26.712V23.364C117.628 22.86 117.516 22.496 117.292 22.272C117.076 22.04 116.8 21.924 116.464 21.924C116.144 21.924 115.872 22.04 115.648 22.272C115.432 22.504 115.324 22.868 115.324 23.364V26.712C115.324 26.792 115.296 26.86 115.24 26.916C115.184 26.972 115.116 27 115.036 27H114.028ZM127.856 27.12C126.968 27.12 126.26 26.864 125.732 26.352C125.212 25.832 124.936 25.104 124.904 24.168L124.892 23.868L124.904 23.568C124.944 22.656 125.224 21.94 125.744 21.42C126.272 20.9 126.976 20.64 127.856 20.64C128.8 20.64 129.528 20.928 130.04 21.504C130.56 22.08 130.82 22.848 130.82 23.808V24.06C130.82 24.14 130.792 24.208 130.736 24.264C130.68 24.32 130.608 24.348 130.52 24.348H126.536V24.444C126.552 24.884 126.672 25.256 126.896 25.56C127.128 25.856 127.444 26.004 127.844 26.004C128.316 26.004 128.696 25.82 128.984 25.452C129.056 25.364 129.112 25.308 129.152 25.284C129.2 25.26 129.268 25.248 129.356 25.248H130.388C130.46 25.248 130.52 25.272 130.568 25.32C130.624 25.36 130.652 25.412 130.652 25.476C130.652 25.668 130.536 25.896 130.304 26.16C130.08 26.416 129.756 26.64 129.332 26.832C128.908 27.024 128.416 27.12 127.856 27.12ZM129.188 23.34V23.304C129.188 22.832 129.068 22.452 128.828 22.164C128.596 21.876 128.272 21.732 127.856 21.732C127.44 21.732 127.116 21.876 126.884 22.164C126.652 22.452 126.536 22.832 126.536 23.304V23.34H129.188ZM132.982 27C132.902 27 132.834 26.972 132.778 26.916C132.722 26.86 132.694 26.792 132.694 26.712V21.048C132.694 20.968 132.722 20.9 132.778 20.844C132.834 20.788 132.902 20.76 132.982 20.76H133.966C134.046 20.76 134.114 20.788 134.17 20.844C134.226 20.9 134.254 20.968 134.254 21.048V21.54C134.726 20.94 135.394 20.64 136.258 20.64C136.994 20.64 137.578 20.884 138.01 21.372C138.442 21.852 138.658 22.508 138.658 23.34V26.712C138.658 26.792 138.63 26.86 138.574 26.916C138.526 26.972 138.458 27 138.37 27H137.314C137.234 27 137.166 26.972 137.11 26.916C137.054 26.86 137.026 26.792 137.026 26.712V23.412C137.026 22.94 136.91 22.576 136.678 22.32C136.454 22.056 136.126 21.924 135.694 21.924C135.27 21.924 134.934 22.056 134.686 22.32C134.446 22.584 134.326 22.948 134.326 23.412V26.712C134.326 26.792 134.298 26.86 134.242 26.916C134.194 26.972 134.126 27 134.038 27H132.982Z" fill="#333333"/>
<path d="M402.4 39.6997H379.2V79.6992H402.4V39.6997Z" fill="#F8F8F8"/>
<mask id="mask0" mask-type="alpha" maskUnits="userSpaceOnUse" x="263" y="38" width="284" height="44">
<line x1="305.707" y1="38.7071" x2="263.707" y2="80.7071" stroke="#470184" stroke-width="2"/>
<line x1="313.707" y1="38.7071" x2="271.707" y2="80.7071" stroke="#470184" stroke-width="2"/>
<line x1="321.707" y1="38.7071" x2="279.707" y2="80.7071" stroke="#470184" stroke-width="2"/>
<line x1="329.707" y1="38.7071" x2="287.707" y2="80.7071" stroke="#470184" stroke-width="2"/>
<line x1="337.707" y1="38.7071" x2="295.707" y2="80.7071" stroke="#470184" stroke-width="2"/>
<line x1="345.707" y1="38.7071" x2="303.707" y2="80.7071" stroke="#470184" stroke-width="2"/>
<line x1="353.707" y1="38.7071" x2="311.707" y2="80.7071" stroke="#470184" stroke-width="2"/>
<line x1="361.707" y1="38.7071" x2="319.707" y2="80.7071" stroke="#470184" stroke-width="2"/>
<line x1="369.707" y1="38.7071" x2="327.707" y2="80.7071" stroke="#470184" stroke-width="2"/>
<line x1="377.707" y1="38.7071" x2="335.707" y2="80.7071" stroke="#470184" stroke-width="2"/>
<line x1="385.707" y1="38.7071" x2="343.707" y2="80.7071" stroke="#470184" stroke-width="2"/>
<line x1="393.707" y1="38.7071" x2="351.707" y2="80.7071" stroke="#470184" stroke-width="2"/>
<line x1="401.707" y1="38.7071" x2="359.707" y2="80.7071" stroke="#470184" stroke-width="2"/>
<line x1="409.707" y1="38.7071" x2="367.707" y2="80.7071" stroke="#470184" stroke-width="2"/>
<line x1="417.707" y1="38.7071" x2="375.707" y2="80.7071" stroke="#470184" stroke-width="2"/>
<line x1="425.707" y1="38.7071" x2="383.707" y2="80.7071" stroke="#470184" stroke-width="2"/>
<line x1="433.707" y1="38.7071" x2="391.707" y2="80.7071" stroke="#470184" stroke-width="2"/>
<line x1="441.707" y1="38.7071" x2="399.707" y2="80.7071" stroke="#470184" stroke-width="2"/>
<line x1="449.707" y1="38.7071" x2="407.707" y2="80.7071" stroke="#470184" stroke-width="2"/>
</mask>
<g mask="url(#mask0)">
<path d="M402.4 39.6997H379.2V79.6992H402.4V39.6997Z" fill="#E0E0E0"/>
</g>
<path d="M374.201 39.7002H339.301V79.6996H374.201V39.7002Z" fill="#034E7B"/>
<mask id="mask1" mask-type="alpha" maskUnits="userSpaceOnUse" x="163" y="38" width="284" height="44">
<line x1="205.707" y1="38.7071" x2="163.707" y2="80.7071" stroke="#C2DBFF" stroke-width="2"/>
<line x1="213.707" y1="38.7071" x2="171.707" y2="80.7071" stroke="#C2DBFF" stroke-width="2"/>
<line x1="221.707" y1="38.7071" x2="179.707" y2="80.7071" stroke="#C2DBFF" stroke-width="2"/>
<line x1="229.707" y1="38.7071" x2="187.707" y2="80.7071" stroke="#C2DBFF" stroke-width="2"/>
<line x1="237.707" y1="38.7071" x2="195.707" y2="80.7071" stroke="#C2DBFF" stroke-width="2"/>
<line x1="245.707" y1="38.7071" x2="203.707" y2="80.7071" stroke="#C2DBFF" stroke-width="2"/>
<line x1="253.707" y1="38.7071" x2="211.707" y2="80.7071" stroke="#C2DBFF" stroke-width="2"/>
<line x1="261.707" y1="38.7071" x2="219.707" y2="80.7071" stroke="#C2DBFF" stroke-width="2"/>
<line x1="269.707" y1="38.7071" x2="227.707" y2="80.7071" stroke="#C2DBFF" stroke-width="2"/>
<line x1="277.707" y1="38.7071" x2="235.707" y2="80.7071" stroke="#C2DBFF" stroke-width="2"/>
<line x1="285.707" y1="38.7071" x2="243.707" y2="80.7071" stroke="#C2DBFF" stroke-width="2"/>
<line x1="293.707" y1="38.7071" x2="251.707" y2="80.7071" stroke="#C2DBFF" stroke-width="2"/>
<line x1="301.707" y1="38.7071" x2="259.707" y2="80.7071" stroke="#C2DBFF" stroke-width="2"/>
<line x1="309.707" y1="38.7071" x2="267.707" y2="80.7071" stroke="#C2DBFF" stroke-width="2"/>
<line x1="317.707" y1="38.7071" x2="275.707" y2="80.7071" stroke="#C2DBFF" stroke-width="2"/>
<line x1="325.707" y1="38.7071" x2="283.707" y2="80.7071" stroke="#C2DBFF" stroke-width="2"/>
<line x1="333.707" y1="38.7071" x2="291.707" y2="80.7071" stroke="#C2DBFF" stroke-width="2"/>
<line x1="341.707" y1="38.7071" x2="299.707" y2="80.7071" stroke="#C2DBFF" stroke-width="2"/>
<line x1="349.707" y1="38.7071" x2="307.707" y2="80.7071" stroke="#C2DBFF" stroke-width="2"/>
<line x1="357.707" y1="38.7071" x2="315.707" y2="80.7071" stroke="#C2DBFF" stroke-width="2"/>
<line x1="365.707" y1="38.7071" x2="323.707" y2="80.7071" stroke="#C2DBFF" stroke-width="2"/>
<line x1="373.707" y1="38.7071" x2="331.707" y2="80.7071" stroke="#C2DBFF" stroke-width="2"/>
<line x1="381.707" y1="38.7071" x2="339.707" y2="80.7071" stroke="#C2DBFF" stroke-width="2"/>
<line x1="389.707" y1="38.7071" x2="347.707" y2="80.7071" stroke="#C2DBFF" stroke-width="2"/>
<line x1="397.707" y1="38.7071" x2="355.707" y2="80.7071" stroke="#C2DBFF" stroke-width="2"/>
<line x1="405.707" y1="38.7071" x2="363.707" y2="80.7071" stroke="#C2DBFF" stroke-width="2"/>
<line x1="413.707" y1="38.7071" x2="371.707" y2="80.7071" stroke="#C2DBFF" stroke-width="2"/>
<line x1="421.707" y1="38.7071" x2="379.707" y2="80.7071" stroke="#C2DBFF" stroke-width="2"/>
<line x1="429.707" y1="38.7071" x2="387.707" y2="80.7071" stroke="#C2DBFF" stroke-width="2"/>
<line x1="437.707" y1="38.7071" x2="395.707" y2="80.7071" stroke="#C2DBFF" stroke-width="2"/>
<line x1="445.707" y1="38.7071" x2="403.707" y2="80.7071" stroke="#C2DBFF" stroke-width="2"/>
</mask>
<g mask="url(#mask1)">
<path d="M374.201 39.7002H339.301V79.6996H374.201V39.7002Z" fill="#046AA7"/>
</g>
<path d="M334.301 39.7002H303.301V79.6996H334.301V39.7002Z" fill="#0570B0"/>
<mask id="mask2" mask-type="alpha" maskUnits="userSpaceOnUse" x="92" y="38" width="284" height="44">
<line x1="134.707" y1="38.7071" x2="92.7071" y2="80.7071" stroke="#A55F8A" stroke-width="2"/>
<line x1="142.707" y1="38.7071" x2="100.707" y2="80.7071" stroke="#A55F8A" stroke-width="2"/>
<line x1="150.707" y1="38.7071" x2="108.707" y2="80.7071" stroke="#A55F8A" stroke-width="2"/>
<line x1="158.707" y1="38.7071" x2="116.707" y2="80.7071" stroke="#A55F8A" stroke-width="2"/>
<line x1="166.707" y1="38.7071" x2="124.707" y2="80.7071" stroke="#A55F8A" stroke-width="2"/>
<line x1="174.707" y1="38.7071" x2="132.707" y2="80.7071" stroke="#A55F8A" stroke-width="2"/>
<line x1="182.707" y1="38.7071" x2="140.707" y2="80.7071" stroke="#A55F8A" stroke-width="2"/>
<line x1="190.707" y1="38.7071" x2="148.707" y2="80.7071" stroke="#A55F8A" stroke-width="2"/>
<line x1="198.707" y1="38.7071" x2="156.707" y2="80.7071" stroke="#A55F8A" stroke-width="2"/>
<line x1="206.707" y1="38.7071" x2="164.707" y2="80.7071" stroke="#A55F8A" stroke-width="2"/>
<line x1="214.707" y1="38.7071" x2="172.707" y2="80.7071" stroke="#A55F8A" stroke-width="2"/>
<line x1="222.707" y1="38.7071" x2="180.707" y2="80.7071" stroke="#A55F8A" stroke-width="2"/>
<line x1="230.707" y1="38.7071" x2="188.707" y2="80.7071" stroke="#A55F8A" stroke-width="2"/>
<line x1="238.707" y1="38.7071" x2="196.707" y2="80.7071" stroke="#A55F8A" stroke-width="2"/>
<line x1="246.707" y1="38.7071" x2="204.707" y2="80.7071" stroke="#A55F8A" stroke-width="2"/>
<line x1="254.707" y1="38.7071" x2="212.707" y2="80.7071" stroke="#A55F8A" stroke-width="2"/>
<line x1="262.707" y1="38.7071" x2="220.707" y2="80.7071" stroke="#A55F8A" stroke-width="2"/>
<line x1="270.707" y1="38.7071" x2="228.707" y2="80.7071" stroke="#A55F8A" stroke-width="2"/>
<line x1="278.707" y1="38.7071" x2="236.707" y2="80.7071" stroke="#A55F8A" stroke-width="2"/>
<line x1="286.707" y1="38.7071" x2="244.707" y2="80.7071" stroke="#A55F8A" stroke-width="2"/>
<line x1="294.707" y1="38.7071" x2="252.707" y2="80.7071" stroke="#A55F8A" stroke-width="2"/>
<line x1="302.707" y1="38.7071" x2="260.707" y2="80.7071" stroke="#A55F8A" stroke-width="2"/>
<line x1="310.707" y1="38.7071" x2="268.707" y2="80.7071" stroke="#A55F8A" stroke-width="2"/>
<line x1="318.707" y1="38.7071" x2="276.707" y2="80.7071" stroke="#A55F8A" stroke-width="2"/>
<line x1="326.707" y1="38.7071" x2="284.707" y2="80.7071" stroke="#A55F8A" stroke-width="2"/>
<line x1="334.707" y1="38.7071" x2="292.707" y2="80.7071" stroke="#A55F8A" stroke-width="2"/>
<line x1="342.707" y1="38.7071" x2="300.707" y2="80.7071" stroke="#A55F8A" stroke-width="2"/>
<line x1="350.707" y1="38.7071" x2="308.707" y2="80.7071" stroke="#A55F8A" stroke-width="2"/>
<line x1="358.707" y1="38.7071" x2="316.707" y2="80.7071" stroke="#A55F8A" stroke-width="2"/>
<line x1="366.707" y1="38.7071" x2="324.707" y2="80.7071" stroke="#A55F8A" stroke-width="2"/>
<line x1="374.707" y1="38.7071" x2="332.707" y2="80.7071" stroke="#A55F8A" stroke-width="2"/>
</mask>
<g mask="url(#mask2)">
<path d="M334.3 39.7002H303.3V79.7002H334.3V39.7002Z" fill="#0991E2"/>
</g>
<path d="M298.4 39.7002H0V79.6996H298.4V39.7002Z" fill="#A6BDDD"/>
<mask id="mask3" mask-type="alpha" maskUnits="userSpaceOnUse" x="-45" y="38" width="404" height="44">
<line x1="5.70711" y1="38.7071" x2="-36.2929" y2="80.7071" stroke="#6B6B6B" stroke-width="2"/>
<line x1="13.7071" y1="38.7071" x2="-28.2929" y2="80.7071" stroke="#6B6B6B" stroke-width="2"/>
<line x1="21.7071" y1="38.7071" x2="-20.2929" y2="80.7071" stroke="#6B6B6B" stroke-width="2"/>
<line x1="29.7071" y1="38.7071" x2="-12.2929" y2="80.7071" stroke="#6B6B6B" stroke-width="2"/>
<line x1="37.7071" y1="38.7071" x2="-4.29289" y2="80.7071" stroke="#6B6B6B" stroke-width="2"/>
<line x1="45.7071" y1="38.7071" x2="3.70711" y2="80.7071" stroke="#6B6B6B" stroke-width="2"/>
<line x1="53.7071" y1="38.7071" x2="11.7071" y2="80.7071" stroke="#6B6B6B" stroke-width="2"/>
<line x1="61.7071" y1="38.7071" x2="19.7071" y2="80.7071" stroke="#6B6B6B" stroke-width="2"/>
<line x1="69.7071" y1="38.7071" x2="27.7071" y2="80.7071" stroke="#6B6B6B" stroke-width="2"/>
<line x1="77.7071" y1="38.7071" x2="35.7071" y2="80.7071" stroke="#6B6B6B" stroke-width="2"/>
<line x1="85.7071" y1="38.7071" x2="43.7071" y2="80.7071" stroke="#6B6B6B" stroke-width="2"/>
<line x1="93.7071" y1="38.7071" x2="51.7071" y2="80.7071" stroke="#6B6B6B" stroke-width="2"/>
<line x1="101.707" y1="38.7071" x2="59.7071" y2="80.7071" stroke="#6B6B6B" stroke-width="2"/>
<line x1="109.707" y1="38.7071" x2="67.7071" y2="80.7071" stroke="#6B6B6B" stroke-width="2"/>
<line x1="117.707" y1="38.7071" x2="75.7071" y2="80.7071" stroke="#6B6B6B" stroke-width="2"/>
<line x1="125.707" y1="38.7071" x2="83.7071" y2="80.7071" stroke="#6B6B6B" stroke-width="2"/>
<line x1="133.707" y1="38.7071" x2="91.7071" y2="80.7071" stroke="#6B6B6B" stroke-width="2"/>
<line x1="141.707" y1="38.7071" x2="99.7071" y2="80.7071" stroke="#6B6B6B" stroke-width="2"/>
<line x1="149.707" y1="38.7071" x2="107.707" y2="80.7071" stroke="#6B6B6B" stroke-width="2"/>
<line x1="157.707" y1="38.7071" x2="115.707" y2="80.7071" stroke="#6B6B6B" stroke-width="2"/>
<line x1="165.707" y1="38.7071" x2="123.707" y2="80.7071" stroke="#6B6B6B" stroke-width="2"/>
<line x1="173.707" y1="38.7071" x2="131.707" y2="80.7071" stroke="#6B6B6B" stroke-width="2"/>
<line x1="181.707" y1="38.7071" x2="139.707" y2="80.7071" stroke="#6B6B6B" stroke-width="2"/>
<line x1="189.707" y1="38.7071" x2="147.707" y2="80.7071" stroke="#6B6B6B" stroke-width="2"/>
<line x1="197.707" y1="38.7071" x2="155.707" y2="80.7071" stroke="#6B6B6B" stroke-width="2"/>
<line x1="205.707" y1="38.7071" x2="163.707" y2="80.7071" stroke="#6B6B6B" stroke-width="2"/>
<line x1="213.707" y1="38.7071" x2="171.707" y2="80.7071" stroke="#6B6B6B" stroke-width="2"/>
<line x1="221.707" y1="38.7071" x2="179.707" y2="80.7071" stroke="#6B6B6B" stroke-width="2"/>
<line x1="229.707" y1="38.7071" x2="187.707" y2="80.7071" stroke="#6B6B6B" stroke-width="2"/>
<line x1="237.707" y1="38.7071" x2="195.707" y2="80.7071" stroke="#6B6B6B" stroke-width="2"/>
<line x1="245.707" y1="38.7071" x2="203.707" y2="80.7071" stroke="#6B6B6B" stroke-width="2"/>
<line x1="253.707" y1="38.7071" x2="211.707" y2="80.7071" stroke="#6B6B6B" stroke-width="2"/>
<line x1="261.707" y1="38.7071" x2="219.707" y2="80.7071" stroke="#6B6B6B" stroke-width="2"/>
<line x1="269.707" y1="38.7071" x2="227.707" y2="80.7071" stroke="#6B6B6B" stroke-width="2"/>
<line x1="277.707" y1="38.7071" x2="235.707" y2="80.7071" stroke="#6B6B6B" stroke-width="2"/>
<line x1="285.707" y1="38.7071" x2="243.707" y2="80.7071" stroke="#6B6B6B" stroke-width="2"/>
<line x1="293.707" y1="38.7071" x2="251.707" y2="80.7071" stroke="#6B6B6B" stroke-width="2"/>
<line x1="301.707" y1="38.7071" x2="259.707" y2="80.7071" stroke="#6B6B6B" stroke-width="2"/>
<line x1="309.707" y1="38.7071" x2="267.707" y2="80.7071" stroke="#6B6B6B" stroke-width="2"/>
<line x1="317.707" y1="38.7071" x2="275.707" y2="80.7071" stroke="#6B6B6B" stroke-width="2"/>
<line x1="325.707" y1="38.7071" x2="283.707" y2="80.7071" stroke="#6B6B6B" stroke-width="2"/>
<line x1="333.707" y1="38.7071" x2="291.707" y2="80.7071" stroke="#6B6B6B" stroke-width="2"/>
<line x1="341.707" y1="38.7071" x2="299.707" y2="80.7071" stroke="#6B6B6B" stroke-width="2"/>
<line x1="349.707" y1="38.7071" x2="307.707" y2="80.7071" stroke="#6B6B6B" stroke-width="2"/>
<line x1="357.707" y1="38.7071" x2="315.707" y2="80.7071" stroke="#6B6B6B" stroke-width="2"/>
</mask>
<g mask="url(#mask3)">
<path d="M298.4 39.7002H0V79.6996H298.4V39.7002Z" fill="#C2DBFF"/>
</g>
<path d="M274.012 95.52H270.436C270.348 95.52 270.272 95.488 270.208 95.424C270.144 95.36 270.112 95.284 270.112 95.196V93.924C270.112 93.836 270.144 93.76 270.208 93.696C270.272 93.632 270.348 93.6 270.436 93.6H276.172C276.26 93.6 276.336 93.632 276.4 93.696C276.464 93.76 276.496 93.836 276.496 93.924V95.04C276.496 95.168 276.432 95.372 276.304 95.652L273.7 101.712C273.62 101.904 273.504 102 273.352 102H271.672C271.592 102 271.524 101.972 271.468 101.916C271.412 101.86 271.384 101.792 271.384 101.712C271.384 101.672 271.396 101.624 271.42 101.568L274.012 95.52ZM281.678 95.52H278.102C278.014 95.52 277.938 95.488 277.874 95.424C277.81 95.36 277.778 95.284 277.778 95.196V93.924C277.778 93.836 277.81 93.76 277.874 93.696C277.938 93.632 278.014 93.6 278.102 93.6H283.838C283.926 93.6 284.002 93.632 284.066 93.696C284.13 93.76 284.162 93.836 284.162 93.924V95.04C284.162 95.168 284.098 95.372 283.97 95.652L281.366 101.712C281.286 101.904 281.17 102 281.018 102H279.338C279.258 102 279.19 101.972 279.134 101.916C279.078 101.86 279.05 101.792 279.05 101.712C279.05 101.672 279.062 101.624 279.086 101.568L281.678 95.52ZM292.416 96.156C292.392 96.66 292.22 97.072 291.9 97.392C291.588 97.704 291.132 97.86 290.532 97.86C289.932 97.86 289.476 97.704 289.164 97.392C288.86 97.08 288.688 96.668 288.648 96.156C288.64 96.052 288.636 95.904 288.636 95.712C288.636 95.512 288.64 95.356 288.648 95.244C288.688 94.732 288.86 94.32 289.164 94.008C289.476 93.696 289.932 93.54 290.532 93.54C291.132 93.54 291.584 93.696 291.888 94.008C292.2 94.32 292.376 94.732 292.416 95.244C292.432 95.468 292.44 95.624 292.44 95.712C292.44 95.8 292.432 95.948 292.416 96.156ZM295.416 93.828C295.48 93.748 295.54 93.692 295.596 93.66C295.66 93.62 295.744 93.6 295.848 93.6H296.832C296.92 93.6 296.988 93.624 297.036 93.672C297.092 93.712 297.12 93.768 297.12 93.84C297.12 93.888 297.104 93.932 297.072 93.972L291.144 101.772C291.08 101.852 291.016 101.912 290.952 101.952C290.896 101.984 290.816 102 290.712 102H289.728C289.64 102 289.568 101.98 289.512 101.94C289.464 101.892 289.44 101.832 289.44 101.76C289.44 101.712 289.456 101.668 289.488 101.628L295.416 93.828ZM290.532 96.72C290.7 96.72 290.82 96.672 290.892 96.576C290.964 96.48 291.008 96.32 291.024 96.096C291.04 95.904 291.048 95.772 291.048 95.7C291.048 95.612 291.04 95.48 291.024 95.304C291.008 95.08 290.964 94.92 290.892 94.824C290.82 94.728 290.7 94.68 290.532 94.68C290.364 94.68 290.244 94.728 290.172 94.824C290.1 94.92 290.056 95.08 290.04 95.304C290.032 95.392 290.028 95.524 290.028 95.7C290.028 95.868 290.032 96 290.04 96.096C290.056 96.32 290.1 96.48 290.172 96.576C290.244 96.672 290.364 96.72 290.532 96.72ZM297.984 100.356C297.96 100.86 297.788 101.272 297.468 101.592C297.156 101.904 296.7 102.06 296.1 102.06C295.5 102.06 295.044 101.904 294.732 101.592C294.428 101.28 294.256 100.868 294.216 100.356C294.208 100.252 294.204 100.104 294.204 99.912C294.204 99.712 294.208 99.556 294.216 99.444C294.256 98.932 294.428 98.52 294.732 98.208C295.044 97.896 295.5 97.74 296.1 97.74C296.7 97.74 297.152 97.896 297.456 98.208C297.768 98.52 297.944 98.932 297.984 99.444C298 99.668 298.008 99.824 298.008 99.912C298.008 100 298 100.148 297.984 100.356ZM296.1 100.92C296.268 100.92 296.388 100.872 296.46 100.776C296.532 100.68 296.576 100.52 296.592 100.296C296.608 100.104 296.616 99.972 296.616 99.9C296.616 99.812 296.608 99.68 296.592 99.504C296.576 99.28 296.532 99.12 296.46 99.024C296.388 98.928 296.268 98.88 296.1 98.88C295.932 98.88 295.812 98.928 295.74 99.024C295.668 99.12 295.624 99.28 295.608 99.504C295.6 99.592 295.596 99.724 295.596 99.9C295.596 100.068 295.6 100.2 295.608 100.296C295.624 100.52 295.668 100.68 295.74 100.776C295.812 100.872 295.932 100.92 296.1 100.92Z" fill="#333333"/>
<path d="M314.901 102.12C314.133 102.12 313.485 102.004 312.957 101.772C312.429 101.54 312.033 101.224 311.769 100.824C311.513 100.424 311.385 99.976 311.385 99.48C311.385 99.056 311.489 98.676 311.697 98.34C311.913 97.996 312.197 97.728 312.549 97.536C312.269 97.352 312.053 97.12 311.901 96.84C311.757 96.56 311.685 96.24 311.685 95.88C311.685 95.424 311.801 95.016 312.033 94.656C312.273 94.288 312.633 94 313.113 93.792C313.593 93.584 314.189 93.48 314.901 93.48C315.949 93.48 316.741 93.7 317.277 94.14C317.821 94.58 318.093 95.156 318.093 95.868C318.093 96.596 317.813 97.152 317.253 97.536C317.613 97.712 317.897 97.972 318.105 98.316C318.321 98.66 318.429 99.052 318.429 99.492C318.429 99.988 318.297 100.436 318.033 100.836C317.769 101.228 317.369 101.54 316.833 101.772C316.305 102.004 315.661 102.12 314.901 102.12ZM314.901 96.936C315.253 96.928 315.541 96.836 315.765 96.66C315.989 96.484 316.101 96.256 316.101 95.976C316.101 95.688 315.989 95.456 315.765 95.28C315.541 95.104 315.253 95.016 314.901 95.016C314.549 95.016 314.261 95.104 314.037 95.28C313.813 95.456 313.701 95.688 313.701 95.976C313.701 96.264 313.813 96.496 314.037 96.672C314.261 96.848 314.549 96.936 314.901 96.936ZM314.901 100.584C315.293 100.584 315.617 100.484 315.873 100.284C316.129 100.084 316.257 99.816 316.257 99.48C316.257 99.144 316.129 98.88 315.873 98.688C315.617 98.488 315.293 98.388 314.901 98.388C314.509 98.388 314.181 98.488 313.917 98.688C313.661 98.88 313.533 99.144 313.533 99.48C313.533 99.816 313.661 100.084 313.917 100.284C314.181 100.484 314.509 100.584 314.901 100.584ZM325.024 97.836C324.48 97.836 324.044 97.696 323.716 97.416C323.388 97.128 323.208 96.744 323.176 96.264C323.16 96.024 323.152 95.856 323.152 95.76C323.152 95.664 323.16 95.456 323.176 95.136C323.2 94.648 323.372 94.26 323.692 93.972C324.012 93.684 324.456 93.54 325.024 93.54C325.584 93.54 326.024 93.684 326.344 93.972C326.664 94.26 326.836 94.648 326.86 95.136C326.876 95.456 326.884 95.664 326.884 95.76C326.884 95.856 326.876 96.024 326.86 96.264C326.828 96.744 326.648 97.128 326.32 97.416C325.992 97.696 325.56 97.836 325.024 97.836ZM324.064 102C323.984 102 323.916 101.98 323.86 101.94C323.812 101.892 323.788 101.832 323.788 101.76C323.788 101.712 323.804 101.668 323.836 101.628L329.764 93.828C329.828 93.748 329.888 93.692 329.944 93.66C330 93.62 330.08 93.6 330.184 93.6H331.036C331.116 93.6 331.18 93.624 331.228 93.672C331.284 93.712 331.312 93.768 331.312 93.84C331.312 93.888 331.296 93.932 331.264 93.972L325.336 101.772C325.272 101.852 325.212 101.912 325.156 101.952C325.1 101.984 325.02 102 324.916 102H324.064ZM325.024 96.792C325.36 96.792 325.544 96.596 325.576 96.204C325.592 95.948 325.6 95.78 325.6 95.7C325.6 95.596 325.592 95.432 325.576 95.208C325.568 95.032 325.516 94.888 325.42 94.776C325.332 94.664 325.2 94.608 325.024 94.608C324.84 94.608 324.704 94.664 324.616 94.776C324.528 94.888 324.476 95.032 324.46 95.208C324.452 95.32 324.448 95.484 324.448 95.7C324.448 95.908 324.452 96.076 324.46 96.204C324.492 96.596 324.68 96.792 325.024 96.792ZM330.1 102.06C329.556 102.06 329.12 101.92 328.792 101.64C328.472 101.352 328.292 100.964 328.252 100.476C328.244 100.34 328.24 100.156 328.24 99.924C328.24 99.684 328.244 99.492 328.252 99.348C328.284 98.852 328.456 98.46 328.768 98.172C329.088 97.884 329.532 97.74 330.1 97.74C330.668 97.74 331.108 97.884 331.42 98.172C331.74 98.46 331.916 98.852 331.948 99.348C331.964 99.668 331.972 99.876 331.972 99.972C331.972 100.068 331.964 100.236 331.948 100.476C331.916 100.956 331.736 101.34 331.408 101.628C331.08 101.916 330.644 102.06 330.1 102.06ZM330.1 101.004C330.284 101.004 330.42 100.948 330.508 100.836C330.596 100.716 330.648 100.572 330.664 100.404C330.68 100.164 330.688 99.996 330.688 99.9C330.688 99.796 330.68 99.632 330.664 99.408C330.648 99.24 330.596 99.1 330.508 98.988C330.42 98.868 330.284 98.808 330.1 98.808C329.916 98.808 329.78 98.868 329.692 98.988C329.604 99.1 329.556 99.24 329.548 99.408C329.54 99.52 329.536 99.684 329.536 99.9C329.536 100.116 329.54 100.284 329.548 100.404C329.564 100.58 329.612 100.724 329.692 100.836C329.78 100.948 329.916 101.004 330.1 101.004Z" fill="#333333"/>
<path d="M386.121 102.12C385.417 102.12 384.793 101.996 384.249 101.748C383.713 101.492 383.293 101.136 382.989 100.68C382.693 100.224 382.545 99.704 382.545 99.12C382.545 98.408 382.881 97.596 383.553 96.684L385.665 93.84C385.729 93.768 385.789 93.712 385.845 93.672C385.909 93.624 385.993 93.6 386.097 93.6H387.693C387.765 93.6 387.825 93.628 387.873 93.684C387.921 93.732 387.945 93.792 387.945 93.864C387.945 93.92 387.929 93.972 387.897 94.02L386.277 96.228C386.373 96.204 386.493 96.192 386.637 96.192C387.125 96.216 387.597 96.352 388.053 96.6C388.517 96.84 388.893 97.176 389.181 97.608C389.469 98.04 389.613 98.528 389.613 99.072C389.613 99.632 389.469 100.144 389.181 100.608C388.893 101.072 388.481 101.44 387.945 101.712C387.417 101.984 386.809 102.12 386.121 102.12ZM386.097 100.392C386.465 100.392 386.777 100.28 387.033 100.056C387.289 99.824 387.417 99.508 387.417 99.108C387.417 98.708 387.289 98.396 387.033 98.172C386.785 97.948 386.473 97.836 386.097 97.836C385.721 97.836 385.405 97.948 385.149 98.172C384.893 98.396 384.765 98.708 384.765 99.108C384.765 99.508 384.893 99.824 385.149 100.056C385.405 100.28 385.721 100.392 386.097 100.392ZM396.024 97.836C395.48 97.836 395.044 97.696 394.716 97.416C394.388 97.128 394.208 96.744 394.176 96.264C394.16 96.024 394.152 95.856 394.152 95.76C394.152 95.664 394.16 95.456 394.176 95.136C394.2 94.648 394.372 94.26 394.692 93.972C395.012 93.684 395.456 93.54 396.024 93.54C396.584 93.54 397.024 93.684 397.344 93.972C397.664 94.26 397.836 94.648 397.86 95.136C397.876 95.456 397.884 95.664 397.884 95.76C397.884 95.856 397.876 96.024 397.86 96.264C397.828 96.744 397.648 97.128 397.32 97.416C396.992 97.696 396.56 97.836 396.024 97.836ZM395.064 102C394.984 102 394.916 101.98 394.86 101.94C394.812 101.892 394.788 101.832 394.788 101.76C394.788 101.712 394.804 101.668 394.836 101.628L400.764 93.828C400.828 93.748 400.888 93.692 400.944 93.66C401 93.62 401.08 93.6 401.184 93.6H402.036C402.116 93.6 402.18 93.624 402.228 93.672C402.284 93.712 402.312 93.768 402.312 93.84C402.312 93.888 402.296 93.932 402.264 93.972L396.336 101.772C396.272 101.852 396.212 101.912 396.156 101.952C396.1 101.984 396.02 102 395.916 102H395.064ZM396.024 96.792C396.36 96.792 396.544 96.596 396.576 96.204C396.592 95.948 396.6 95.78 396.6 95.7C396.6 95.596 396.592 95.432 396.576 95.208C396.568 95.032 396.516 94.888 396.42 94.776C396.332 94.664 396.2 94.608 396.024 94.608C395.84 94.608 395.704 94.664 395.616 94.776C395.528 94.888 395.476 95.032 395.46 95.208C395.452 95.32 395.448 95.484 395.448 95.7C395.448 95.908 395.452 96.076 395.46 96.204C395.492 96.596 395.68 96.792 396.024 96.792ZM401.1 102.06C400.556 102.06 400.12 101.92 399.792 101.64C399.472 101.352 399.292 100.964 399.252 100.476C399.244 100.34 399.24 100.156 399.24 99.924C399.24 99.684 399.244 99.492 399.252 99.348C399.284 98.852 399.456 98.46 399.768 98.172C400.088 97.884 400.532 97.74 401.1 97.74C401.668 97.74 402.108 97.884 402.42 98.172C402.74 98.46 402.916 98.852 402.948 99.348C402.964 99.668 402.972 99.876 402.972 99.972C402.972 100.068 402.964 100.236 402.948 100.476C402.916 100.956 402.736 101.34 402.408 101.628C402.08 101.916 401.644 102.06 401.1 102.06ZM401.1 101.004C401.284 101.004 401.42 100.948 401.508 100.836C401.596 100.716 401.648 100.572 401.664 100.404C401.68 100.164 401.688 99.996 401.688 99.9C401.688 99.796 401.68 99.632 401.664 99.408C401.648 99.24 401.596 99.1 401.508 98.988C401.42 98.868 401.284 98.808 401.1 98.808C400.916 98.808 400.78 98.868 400.692 98.988C400.604 99.1 400.556 99.24 400.548 99.408C400.54 99.52 400.536 99.684 400.536 99.9C400.536 100.116 400.54 100.284 400.548 100.404C400.564 100.58 400.612 100.724 400.692 100.836C400.78 100.948 400.916 101.004 401.1 101.004Z" fill="#333333"/>
<circle cx="298" cy="79.6108" r="2.5" fill="#333333"/>
<rect x="297.722" y="76" width="0.555556" height="16.52" fill="#333333"/>
<mask id="mask4" mask-type="alpha" maskUnits="userSpaceOnUse" x="295" y="77" width="6" height="6">
<circle cx="298" cy="79.6108" r="2.5" fill="#333333"/>
</mask>
<g mask="url(#mask4)">
<rect x="297.722" y="76" width="0.555556" height="7.77778" fill="white"/>
</g>
<circle cx="333.85" cy="79.6108" r="2.5" fill="#333333"/>
<rect x="333.571" y="76" width="0.555556" height="16.52" fill="#333333"/>
<mask id="mask5" mask-type="alpha" maskUnits="userSpaceOnUse" x="331" y="77" width="6" height="6">
<circle cx="333.85" cy="79.6108" r="2.5" fill="#333333"/>
</mask>
<g mask="url(#mask5)">
<rect x="333.571" y="76" width="0.555556" height="7.77778" fill="white"/>
</g>
<circle cx="401.85" cy="79.6108" r="2.5" fill="#333333"/>
<rect x="401.571" y="76" width="0.555556" height="16.52" fill="#333333"/>
<mask id="mask6" mask-type="alpha" maskUnits="userSpaceOnUse" x="399" y="77" width="6" height="6">
<circle cx="401.85" cy="79.6108" r="2.5" fill="#333333"/>
</mask>
<g mask="url(#mask6)">
<rect x="401.571" y="76" width="0.555556" height="7.77778" fill="white"/>
</g>
<path d="M356.366 102C356.294 102 356.234 101.976 356.186 101.928C356.138 101.872 356.114 101.808 356.114 101.736C356.114 101.68 356.13 101.628 356.162 101.58L357.854 99.264C357.75 99.288 357.634 99.3 357.506 99.3C357.01 99.268 356.542 99.132 356.102 98.892C355.662 98.652 355.306 98.324 355.034 97.908C354.762 97.492 354.626 97.016 354.626 96.48C354.626 95.952 354.758 95.46 355.022 95.004C355.286 94.548 355.674 94.18 356.186 93.9C356.706 93.62 357.33 93.48 358.058 93.48C358.794 93.48 359.426 93.608 359.954 93.864C360.49 94.12 360.894 94.472 361.166 94.92C361.438 95.36 361.574 95.852 361.574 96.396C361.574 96.836 361.482 97.236 361.298 97.596C361.122 97.956 360.858 98.38 360.506 98.868C360.49 98.884 360.426 98.972 360.314 99.132L358.394 101.76C358.282 101.92 358.138 102 357.962 102H356.366ZM358.082 97.716C358.45 97.716 358.754 97.604 358.994 97.38C359.234 97.156 359.354 96.852 359.354 96.468C359.354 96.084 359.234 95.78 358.994 95.556C358.754 95.324 358.45 95.208 358.082 95.208C357.714 95.208 357.41 95.324 357.17 95.556C356.938 95.78 356.822 96.084 356.822 96.468C356.822 96.852 356.942 97.156 357.182 97.38C357.422 97.604 357.722 97.716 358.082 97.716ZM368.024 97.836C367.48 97.836 367.044 97.696 366.716 97.416C366.388 97.128 366.208 96.744 366.176 96.264C366.16 96.024 366.152 95.856 366.152 95.76C366.152 95.664 366.16 95.456 366.176 95.136C366.2 94.648 366.372 94.26 366.692 93.972C367.012 93.684 367.456 93.54 368.024 93.54C368.584 93.54 369.024 93.684 369.344 93.972C369.664 94.26 369.836 94.648 369.86 95.136C369.876 95.456 369.884 95.664 369.884 95.76C369.884 95.856 369.876 96.024 369.86 96.264C369.828 96.744 369.648 97.128 369.32 97.416C368.992 97.696 368.56 97.836 368.024 97.836ZM367.064 102C366.984 102 366.916 101.98 366.86 101.94C366.812 101.892 366.788 101.832 366.788 101.76C366.788 101.712 366.804 101.668 366.836 101.628L372.764 93.828C372.828 93.748 372.888 93.692 372.944 93.66C373 93.62 373.08 93.6 373.184 93.6H374.036C374.116 93.6 374.18 93.624 374.228 93.672C374.284 93.712 374.312 93.768 374.312 93.84C374.312 93.888 374.296 93.932 374.264 93.972L368.336 101.772C368.272 101.852 368.212 101.912 368.156 101.952C368.1 101.984 368.02 102 367.916 102H367.064ZM368.024 96.792C368.36 96.792 368.544 96.596 368.576 96.204C368.592 95.948 368.6 95.78 368.6 95.7C368.6 95.596 368.592 95.432 368.576 95.208C368.568 95.032 368.516 94.888 368.42 94.776C368.332 94.664 368.2 94.608 368.024 94.608C367.84 94.608 367.704 94.664 367.616 94.776C367.528 94.888 367.476 95.032 367.46 95.208C367.452 95.32 367.448 95.484 367.448 95.7C367.448 95.908 367.452 96.076 367.46 96.204C367.492 96.596 367.68 96.792 368.024 96.792ZM373.1 102.06C372.556 102.06 372.12 101.92 371.792 101.64C371.472 101.352 371.292 100.964 371.252 100.476C371.244 100.34 371.24 100.156 371.24 99.924C371.24 99.684 371.244 99.492 371.252 99.348C371.284 98.852 371.456 98.46 371.768 98.172C372.088 97.884 372.532 97.74 373.1 97.74C373.668 97.74 374.108 97.884 374.42 98.172C374.74 98.46 374.916 98.852 374.948 99.348C374.964 99.668 374.972 99.876 374.972 99.972C374.972 100.068 374.964 100.236 374.948 100.476C374.916 100.956 374.736 101.34 374.408 101.628C374.08 101.916 373.644 102.06 373.1 102.06ZM373.1 101.004C373.284 101.004 373.42 100.948 373.508 100.836C373.596 100.716 373.648 100.572 373.664 100.404C373.68 100.164 373.688 99.996 373.688 99.9C373.688 99.796 373.68 99.632 373.664 99.408C373.648 99.24 373.596 99.1 373.508 98.988C373.42 98.868 373.284 98.808 373.1 98.808C372.916 98.808 372.78 98.868 372.692 98.988C372.604 99.1 372.556 99.24 372.548 99.408C372.54 99.52 372.536 99.684 372.536 99.9C372.536 100.116 372.54 100.284 372.548 100.404C372.564 100.58 372.612 100.724 372.692 100.836C372.78 100.948 372.916 101.004 373.1 101.004Z" fill="#333333"/>
<circle cx="373.85" cy="79.6108" r="2.5" fill="#333333"/>
<rect x="373.571" y="76" width="0.555556" height="16.52" fill="#333333"/>
<mask id="mask7" mask-type="alpha" maskUnits="userSpaceOnUse" x="371" y="77" width="6" height="6">
<circle cx="373.85" cy="79.6108" r="2.5" fill="#333333"/>
</mask>
<g mask="url(#mask7)">
<rect x="373.571" y="76" width="0.555556" height="7.77778" fill="white"/>
</g>
</svg>
