<svg width="236" height="43" viewBox="0 0 236 43" fill="none" xmlns="http://www.w3.org/2000/svg">
<line x1="119" y1="0.75" x2="235" y2="0.75" stroke="#C4C4C4" stroke-width="0.5"/>
<line x1="119" y1="21.75" x2="235" y2="21.75" stroke="#C4C4C4" stroke-width="0.5"/>
<line x1="119" y1="42.75" x2="235" y2="42.75" stroke="#C4C4C4" stroke-width="0.5"/>
<line y1="0.75" x2="116" y2="0.75" stroke="#C4C4C4" stroke-width="0.5"/>
<line y1="21.75" x2="116" y2="21.75" stroke="#C4C4C4" stroke-width="0.5"/>
<line y1="42.75" x2="116" y2="42.75" stroke="#C4C4C4" stroke-width="0.5"/>
<rect y="30" width="7" height="7" fill="#A6BDDD"/>
<path d="M13.216 37.12C12.456 37.12 11.868 36.876 11.452 36.388C11.036 35.892 10.828 35.236 10.828 34.42V31.036C10.828 30.956 10.852 30.892 10.9 30.844C10.956 30.788 11.024 30.76 11.104 30.76H11.704C11.784 30.76 11.848 30.788 11.896 30.844C11.952 30.892 11.98 30.956 11.98 31.036V34.36C11.98 35.552 12.5 36.148 13.54 36.148C14.044 36.148 14.444 35.992 14.74 35.68C15.036 35.36 15.184 34.92 15.184 34.36V31.036C15.184 30.956 15.208 30.892 15.256 30.844C15.312 30.788 15.38 30.76 15.46 30.76H16.06C16.14 30.76 16.204 30.788 16.252 30.844C16.3 30.892 16.324 30.956 16.324 31.036V36.724C16.324 36.804 16.3 36.872 16.252 36.928C16.204 36.976 16.14 37 16.06 37H15.496C15.416 37 15.348 36.976 15.292 36.928C15.244 36.872 15.22 36.804 15.22 36.724V36.196C14.996 36.5 14.724 36.732 14.404 36.892C14.084 37.044 13.688 37.12 13.216 37.12ZM18.9827 37C18.9027 37 18.8347 36.976 18.7787 36.928C18.7307 36.872 18.7067 36.804 18.7067 36.724V31.036C18.7067 30.956 18.7307 30.892 18.7787 30.844C18.8347 30.788 18.9027 30.76 18.9827 30.76H19.5468C19.6268 30.76 19.6908 30.788 19.7388 30.844C19.7948 30.892 19.8228 30.956 19.8228 31.036V31.564C20.0548 31.268 20.3268 31.04 20.6388 30.88C20.9588 30.72 21.3548 30.64 21.8268 30.64C22.5948 30.64 23.1908 30.888 23.6148 31.384C24.0467 31.872 24.2627 32.524 24.2627 33.34V36.724C24.2627 36.804 24.2348 36.872 24.1788 36.928C24.1308 36.976 24.0668 37 23.9867 37H23.3868C23.3068 37 23.2388 36.976 23.1828 36.928C23.1348 36.872 23.1108 36.804 23.1108 36.724V33.4C23.1108 32.832 22.9708 32.392 22.6908 32.08C22.4188 31.768 22.0228 31.612 21.5028 31.612C20.9988 31.612 20.5988 31.772 20.3028 32.092C20.0067 32.404 19.8587 32.84 19.8587 33.4V36.724C19.8587 36.804 19.8307 36.872 19.7747 36.928C19.7267 36.976 19.6627 37 19.5827 37H18.9827ZM28.9381 37C27.6741 37 27.0421 36.296 27.0421 34.888V31.72H26.1061C26.0261 31.72 25.9581 31.696 25.9021 31.648C25.8541 31.592 25.8301 31.524 25.8301 31.444V31.036C25.8301 30.956 25.8541 30.892 25.9021 30.844C25.9581 30.788 26.0261 30.76 26.1061 30.76H27.0421V28.756C27.0421 28.676 27.0661 28.612 27.1141 28.564C27.1701 28.508 27.2381 28.48 27.3181 28.48H27.8821C27.9621 28.48 28.0261 28.508 28.0741 28.564C28.1301 28.612 28.1581 28.676 28.1581 28.756V30.76H29.6461C29.7261 30.76 29.7901 30.788 29.8381 30.844C29.8941 30.892 29.9221 30.956 29.9221 31.036V31.444C29.9221 31.524 29.8941 31.592 29.8381 31.648C29.7901 31.696 29.7261 31.72 29.6461 31.72H28.1581V34.804C28.1581 35.204 28.2261 35.508 28.3621 35.716C28.4981 35.916 28.7221 36.016 29.0341 36.016H29.7661C29.8461 36.016 29.9101 36.044 29.9581 36.1C30.0141 36.148 30.0421 36.212 30.0421 36.292V36.724C30.0421 36.804 30.0141 36.872 29.9581 36.928C29.9101 36.976 29.8461 37 29.7661 37H28.9381ZM34.2856 37.12C33.4616 37.12 32.8016 36.868 32.3056 36.364C31.8176 35.852 31.5496 35.156 31.5016 34.276L31.4896 33.868L31.5016 33.472C31.5576 32.608 31.8296 31.92 32.3176 31.408C32.8136 30.896 33.4656 30.64 34.2736 30.64C35.1616 30.64 35.8496 30.924 36.3376 31.492C36.8256 32.052 37.0696 32.812 37.0696 33.772V33.976C37.0696 34.056 37.0416 34.124 36.9856 34.18C36.9376 34.228 36.8736 34.252 36.7936 34.252H32.6416V34.36C32.6656 34.88 32.8216 35.324 33.1096 35.692C33.4056 36.052 33.7936 36.232 34.2736 36.232C34.6416 36.232 34.9416 36.16 35.1736 36.016C35.4136 35.864 35.5896 35.708 35.7016 35.548C35.7736 35.452 35.8256 35.396 35.8576 35.38C35.8976 35.356 35.9656 35.344 36.0616 35.344H36.6496C36.7216 35.344 36.7816 35.364 36.8296 35.404C36.8776 35.444 36.9016 35.5 36.9016 35.572C36.9016 35.748 36.7896 35.96 36.5656 36.208C36.3496 36.456 36.0416 36.672 35.6416 36.856C35.2496 37.032 34.7976 37.12 34.2856 37.12ZM35.9296 33.424V33.388C35.9296 32.836 35.7776 32.388 35.4736 32.044C35.1776 31.692 34.7776 31.516 34.2736 31.516C33.7696 31.516 33.3696 31.692 33.0736 32.044C32.7856 32.388 32.6416 32.836 32.6416 33.388V33.424H35.9296ZM39.3804 37C39.3004 37 39.2324 36.976 39.1764 36.928C39.1284 36.872 39.1044 36.804 39.1044 36.724V31.048C39.1044 30.968 39.1284 30.9 39.1764 30.844C39.2324 30.788 39.3004 30.76 39.3804 30.76H39.9324C40.0124 30.76 40.0804 30.788 40.1364 30.844C40.1924 30.9 40.2204 30.968 40.2204 31.048V31.576C40.5484 31.032 41.1084 30.76 41.9004 30.76H42.3684C42.4484 30.76 42.5124 30.788 42.5604 30.844C42.6164 30.892 42.6444 30.956 42.6444 31.036V31.528C42.6444 31.608 42.6164 31.672 42.5604 31.72C42.5124 31.768 42.4484 31.792 42.3684 31.792H41.6484C41.2164 31.792 40.8764 31.92 40.6284 32.176C40.3804 32.424 40.2564 32.764 40.2564 33.196V36.724C40.2564 36.804 40.2284 36.872 40.1724 36.928C40.1164 36.976 40.0484 37 39.9684 37H39.3804ZM46.435 37C46.227 37 46.079 36.9 45.991 36.7L43.771 31.132L43.747 31.012C43.747 30.94 43.771 30.88 43.819 30.832C43.867 30.784 43.927 30.76 43.999 30.76H44.575C44.711 30.76 44.811 30.828 44.875 30.964L46.699 35.692L48.523 30.964C48.595 30.828 48.691 30.76 48.811 30.76H49.399C49.463 30.76 49.519 30.784 49.567 30.832C49.623 30.88 49.651 30.94 49.651 31.012L49.627 31.132L47.395 36.7C47.307 36.9 47.159 37 46.951 37H46.435ZM53.7809 37.12C52.9569 37.12 52.2969 36.868 51.8009 36.364C51.3129 35.852 51.0449 35.156 50.9969 34.276L50.9849 33.868L50.9969 33.472C51.0529 32.608 51.3249 31.92 51.8129 31.408C52.3089 30.896 52.9609 30.64 53.7689 30.64C54.6569 30.64 55.3449 30.924 55.8329 31.492C56.3209 32.052 56.5649 32.812 56.5649 33.772V33.976C56.5649 34.056 56.5369 34.124 56.4809 34.18C56.4329 34.228 56.3689 34.252 56.2889 34.252H52.1369V34.36C52.1609 34.88 52.3169 35.324 52.6049 35.692C52.9009 36.052 53.2889 36.232 53.7689 36.232C54.1369 36.232 54.4369 36.16 54.6689 36.016C54.9089 35.864 55.0849 35.708 55.1969 35.548C55.2689 35.452 55.3209 35.396 55.3529 35.38C55.3929 35.356 55.4609 35.344 55.5569 35.344H56.1449C56.2169 35.344 56.2769 35.364 56.3249 35.404C56.3729 35.444 56.3969 35.5 56.3969 35.572C56.3969 35.748 56.2849 35.96 56.0609 36.208C55.8449 36.456 55.5369 36.672 55.1369 36.856C54.7449 37.032 54.2929 37.12 53.7809 37.12ZM55.4249 33.424V33.388C55.4249 32.836 55.2729 32.388 54.9689 32.044C54.6729 31.692 54.2729 31.516 53.7689 31.516C53.2649 31.516 52.8649 31.692 52.5689 32.044C52.2809 32.388 52.1369 32.836 52.1369 33.388V33.424H55.4249ZM58.8757 37C58.7957 37 58.7277 36.976 58.6717 36.928C58.6237 36.872 58.5997 36.804 58.5997 36.724V31.048C58.5997 30.968 58.6237 30.9 58.6717 30.844C58.7277 30.788 58.7957 30.76 58.8757 30.76H59.4277C59.5077 30.76 59.5757 30.788 59.6317 30.844C59.6877 30.9 59.7157 30.968 59.7157 31.048V31.576C60.0437 31.032 60.6037 30.76 61.3957 30.76H61.8637C61.9437 30.76 62.0077 30.788 62.0557 30.844C62.1117 30.892 62.1397 30.956 62.1397 31.036V31.528C62.1397 31.608 62.1117 31.672 62.0557 31.72C62.0077 31.768 61.9437 31.792 61.8637 31.792H61.1437C60.7117 31.792 60.3717 31.92 60.1237 32.176C59.8757 32.424 59.7517 32.764 59.7517 33.196V36.724C59.7517 36.804 59.7237 36.872 59.6677 36.928C59.6117 36.976 59.5437 37 59.4637 37H58.8757ZM65.9183 37.12C65.3583 37.12 64.8863 37.032 64.5023 36.856C64.1263 36.672 63.8423 36.464 63.6503 36.232C63.4663 36 63.3743 35.808 63.3743 35.656C63.3743 35.576 63.4023 35.516 63.4583 35.476C63.5223 35.428 63.5863 35.404 63.6503 35.404H64.1903C64.2703 35.404 64.3423 35.444 64.4063 35.524C64.5983 35.748 64.8063 35.924 65.0303 36.052C65.2543 36.18 65.5543 36.244 65.9303 36.244C66.3463 36.244 66.6823 36.164 66.9383 36.004C67.2023 35.836 67.3343 35.608 67.3343 35.32C67.3343 35.128 67.2783 34.972 67.1663 34.852C67.0623 34.724 66.8783 34.616 66.6143 34.528C66.3583 34.432 65.9743 34.328 65.4623 34.216C64.7663 34.064 64.2703 33.844 63.9743 33.556C63.6863 33.268 63.5423 32.896 63.5423 32.44C63.5423 32.136 63.6303 31.848 63.8063 31.576C63.9903 31.296 64.2543 31.072 64.5983 30.904C64.9503 30.728 65.3703 30.64 65.8583 30.64C66.3703 30.64 66.8063 30.724 67.1663 30.892C67.5263 31.06 67.7943 31.26 67.9703 31.492C68.1543 31.716 68.2463 31.904 68.2463 32.056C68.2463 32.128 68.2183 32.188 68.1623 32.236C68.1143 32.284 68.0543 32.308 67.9823 32.308H67.4783C67.3823 32.308 67.3023 32.268 67.2383 32.188C67.1103 32.036 66.9983 31.92 66.9023 31.84C66.8143 31.752 66.6823 31.676 66.5063 31.612C66.3383 31.548 66.1223 31.516 65.8583 31.516C65.4743 31.516 65.1783 31.6 64.9703 31.768C64.7623 31.928 64.6583 32.14 64.6583 32.404C64.6583 32.572 64.7023 32.716 64.7903 32.836C64.8783 32.948 65.0463 33.052 65.2943 33.148C65.5503 33.244 65.9183 33.344 66.3983 33.448C67.1583 33.608 67.6943 33.84 68.0063 34.144C68.3263 34.44 68.4863 34.82 68.4863 35.284C68.4863 35.628 68.3863 35.94 68.1863 36.22C67.9863 36.5 67.6903 36.72 67.2983 36.88C66.9143 37.04 66.4543 37.12 65.9183 37.12ZM73.0315 37.12C72.1515 37.12 71.4675 36.872 70.9795 36.376C70.4995 35.88 70.2435 35.22 70.2115 34.396L70.1995 33.88L70.2115 33.364C70.2435 32.548 70.5035 31.892 70.9915 31.396C71.4795 30.892 72.1595 30.64 73.0315 30.64C73.9035 30.64 74.5835 30.892 75.0715 31.396C75.5595 31.892 75.8195 32.548 75.8515 33.364C75.8595 33.452 75.8635 33.624 75.8635 33.88C75.8635 34.136 75.8595 34.308 75.8515 34.396C75.8195 35.22 75.5595 35.88 75.0715 36.376C74.5915 36.872 73.9115 37.12 73.0315 37.12ZM73.0315 36.196C73.5355 36.196 73.9315 36.036 74.2195 35.716C74.5155 35.396 74.6755 34.936 74.6995 34.336C74.7075 34.256 74.7115 34.104 74.7115 33.88C74.7115 33.656 74.7075 33.504 74.6995 33.424C74.6755 32.824 74.5155 32.364 74.2195 32.044C73.9315 31.724 73.5355 31.564 73.0315 31.564C72.5275 31.564 72.1275 31.724 71.8315 32.044C71.5355 32.364 71.3795 32.824 71.3635 33.424L71.3515 33.88L71.3635 34.336C71.3795 34.936 71.5355 35.396 71.8315 35.716C72.1275 36.036 72.5275 36.196 73.0315 36.196ZM78.2421 37C78.1621 37 78.0941 36.976 78.0381 36.928C77.9901 36.872 77.9661 36.804 77.9661 36.724V31.048C77.9661 30.968 77.9901 30.9 78.0381 30.844C78.0941 30.788 78.1621 30.76 78.2421 30.76H78.7941C78.8741 30.76 78.9421 30.788 78.9981 30.844C79.0541 30.9 79.0821 30.968 79.0821 31.048V31.576C79.4101 31.032 79.9701 30.76 80.7621 30.76H81.2301C81.3101 30.76 81.3741 30.788 81.4221 30.844C81.4781 30.892 81.5061 30.956 81.5061 31.036V31.528C81.5061 31.608 81.4781 31.672 81.4221 31.72C81.3741 31.768 81.3101 31.792 81.2301 31.792H80.5101C80.0781 31.792 79.7381 31.92 79.4901 32.176C79.2421 32.424 79.1181 32.764 79.1181 33.196V36.724C79.1181 36.804 79.0901 36.872 79.0341 36.928C78.9781 36.976 78.9101 37 78.8301 37H78.2421ZM85.5518 39.64C84.8958 39.64 84.3678 39.528 83.9678 39.304C83.5678 39.088 83.2838 38.84 83.1158 38.56C82.9478 38.28 82.8558 38.028 82.8398 37.804C82.8318 37.724 82.8558 37.656 82.9118 37.6C82.9758 37.544 83.0438 37.516 83.1158 37.516H83.6918C83.7638 37.516 83.8238 37.532 83.8718 37.564C83.9198 37.604 83.9598 37.672 83.9918 37.768C84.0878 38.024 84.2438 38.244 84.4598 38.428C84.6838 38.62 85.0278 38.716 85.4918 38.716C86.0838 38.716 86.5198 38.588 86.7998 38.332C87.0798 38.084 87.2198 37.64 87.2198 37V36.184C87.0118 36.448 86.7478 36.66 86.4278 36.82C86.1078 36.972 85.7278 37.048 85.2878 37.048C84.4398 37.048 83.8038 36.78 83.3798 36.244C82.9638 35.7 82.7438 35.012 82.7198 34.18L82.7078 33.844L82.7198 33.52C82.7438 32.696 82.9678 32.012 83.3918 31.468C83.8158 30.916 84.4478 30.64 85.2878 30.64C86.1278 30.64 86.7838 30.948 87.2558 31.564V31.048C87.2558 30.968 87.2798 30.9 87.3278 30.844C87.3838 30.788 87.4518 30.76 87.5318 30.76H88.0838C88.1638 30.76 88.2318 30.788 88.2878 30.844C88.3438 30.9 88.3718 30.968 88.3718 31.048V36.868C88.3718 38.716 87.4318 39.64 85.5518 39.64ZM85.5278 36.088C86.0718 36.088 86.4838 35.908 86.7638 35.548C87.0438 35.188 87.1958 34.76 87.2198 34.264C87.2278 34.192 87.2318 34.052 87.2318 33.844C87.2318 33.644 87.2278 33.508 87.2198 33.436C87.1958 32.94 87.0438 32.512 86.7638 32.152C86.4918 31.792 86.0798 31.612 85.5278 31.612C84.9598 31.612 84.5478 31.788 84.2918 32.14C84.0358 32.492 83.8958 32.956 83.8718 33.532L83.8598 33.844L83.8718 34.168C83.8958 34.736 84.0358 35.2 84.2918 35.56C84.5478 35.912 84.9598 36.088 85.5278 36.088ZM93.192 37C91.928 37 91.296 36.296 91.296 34.888V31.72H90.36C90.28 31.72 90.212 31.696 90.156 31.648C90.108 31.592 90.084 31.524 90.084 31.444V31.036C90.084 30.956 90.108 30.892 90.156 30.844C90.212 30.788 90.28 30.76 90.36 30.76H91.296V28.756C91.296 28.676 91.32 28.612 91.368 28.564C91.424 28.508 91.492 28.48 91.572 28.48H92.136C92.216 28.48 92.28 28.508 92.328 28.564C92.384 28.612 92.412 28.676 92.412 28.756V30.76H93.9C93.98 30.76 94.044 30.788 94.092 30.844C94.148 30.892 94.176 30.956 94.176 31.036V31.444C94.176 31.524 94.148 31.592 94.092 31.648C94.044 31.696 93.98 31.72 93.9 31.72H92.412V34.804C92.412 35.204 92.48 35.508 92.616 35.716C92.752 35.916 92.976 36.016 93.288 36.016H94.02C94.1 36.016 94.164 36.044 94.212 36.1C94.268 36.148 94.296 36.212 94.296 36.292V36.724C94.296 36.804 94.268 36.872 94.212 36.928C94.164 36.976 94.1 37 94.02 37H93.192Z" fill="#333333"/>
<rect x="119" y="8" width="7" height="7" fill="#0570B0"/>
<path d="M130.164 15C130.084 15 130.016 14.976 129.96 14.928C129.912 14.872 129.888 14.804 129.888 14.724V9.036C129.888 8.956 129.912 8.892 129.96 8.844C130.016 8.788 130.084 8.76 130.164 8.76H130.728C130.808 8.76 130.872 8.788 130.92 8.844C130.976 8.892 131.004 8.956 131.004 9.036V9.564C131.236 9.268 131.508 9.04 131.82 8.88C132.14 8.72 132.536 8.64 133.008 8.64C133.776 8.64 134.372 8.888 134.796 9.384C135.228 9.872 135.444 10.524 135.444 11.34V14.724C135.444 14.804 135.416 14.872 135.36 14.928C135.312 14.976 135.248 15 135.168 15H134.568C134.488 15 134.42 14.976 134.364 14.928C134.316 14.872 134.292 14.804 134.292 14.724V11.4C134.292 10.832 134.152 10.392 133.872 10.08C133.6 9.768 133.204 9.612 132.684 9.612C132.18 9.612 131.78 9.772 131.484 10.092C131.188 10.404 131.04 10.84 131.04 11.4V14.724C131.04 14.804 131.012 14.872 130.956 14.928C130.908 14.976 130.844 15 130.764 15H130.164ZM140.321 15.12C139.441 15.12 138.757 14.872 138.269 14.376C137.789 13.88 137.533 13.22 137.501 12.396L137.489 11.88L137.501 11.364C137.533 10.548 137.793 9.892 138.281 9.396C138.769 8.892 139.449 8.64 140.321 8.64C141.193 8.64 141.873 8.892 142.361 9.396C142.849 9.892 143.109 10.548 143.141 11.364C143.149 11.452 143.153 11.624 143.153 11.88C143.153 12.136 143.149 12.308 143.141 12.396C143.109 13.22 142.849 13.88 142.361 14.376C141.881 14.872 141.201 15.12 140.321 15.12ZM140.321 14.196C140.825 14.196 141.221 14.036 141.509 13.716C141.805 13.396 141.965 12.936 141.989 12.336C141.997 12.256 142.001 12.104 142.001 11.88C142.001 11.656 141.997 11.504 141.989 11.424C141.965 10.824 141.805 10.364 141.509 10.044C141.221 9.724 140.825 9.564 140.321 9.564C139.817 9.564 139.417 9.724 139.121 10.044C138.825 10.364 138.669 10.824 138.653 11.424L138.641 11.88L138.653 12.336C138.669 12.936 138.825 13.396 139.121 13.716C139.417 14.036 139.817 14.196 140.321 14.196ZM145.532 15C145.452 15 145.384 14.976 145.328 14.928C145.28 14.872 145.256 14.804 145.256 14.724V9.048C145.256 8.968 145.28 8.9 145.328 8.844C145.384 8.788 145.452 8.76 145.532 8.76H146.084C146.164 8.76 146.232 8.788 146.288 8.844C146.344 8.9 146.372 8.968 146.372 9.048V9.576C146.7 9.032 147.26 8.76 148.052 8.76H148.52C148.6 8.76 148.664 8.788 148.712 8.844C148.768 8.892 148.796 8.956 148.796 9.036V9.528C148.796 9.608 148.768 9.672 148.712 9.72C148.664 9.768 148.6 9.792 148.52 9.792H147.8C147.368 9.792 147.028 9.92 146.78 10.176C146.532 10.424 146.408 10.764 146.408 11.196V14.724C146.408 14.804 146.38 14.872 146.324 14.928C146.268 14.976 146.2 15 146.12 15H145.532ZM150.691 15C150.611 15 150.543 14.976 150.487 14.928C150.439 14.872 150.415 14.804 150.415 14.724V9.036C150.415 8.956 150.439 8.892 150.487 8.844C150.543 8.788 150.611 8.76 150.691 8.76H151.231C151.311 8.76 151.375 8.788 151.423 8.844C151.479 8.892 151.507 8.956 151.507 9.036V9.456C151.923 8.912 152.503 8.64 153.247 8.64C154.135 8.64 154.763 9.008 155.131 9.744C155.323 9.408 155.595 9.14 155.947 8.94C156.299 8.74 156.695 8.64 157.135 8.64C157.791 8.64 158.327 8.864 158.743 9.312C159.159 9.76 159.367 10.408 159.367 11.256V14.724C159.367 14.804 159.339 14.872 159.283 14.928C159.235 14.976 159.171 15 159.091 15H158.527C158.447 15 158.379 14.976 158.323 14.928C158.275 14.872 158.251 14.804 158.251 14.724V11.364C158.251 10.74 158.119 10.292 157.855 10.02C157.599 9.748 157.259 9.612 156.835 9.612C156.459 9.612 156.135 9.752 155.863 10.032C155.591 10.304 155.455 10.748 155.455 11.364V14.724C155.455 14.804 155.427 14.872 155.371 14.928C155.323 14.976 155.259 15 155.179 15H154.615C154.535 15 154.467 14.976 154.411 14.928C154.363 14.872 154.339 14.804 154.339 14.724V11.364C154.339 10.74 154.203 10.292 153.931 10.02C153.667 9.748 153.331 9.612 152.923 9.612C152.547 9.612 152.223 9.752 151.951 10.032C151.679 10.304 151.543 10.744 151.543 11.352V14.724C151.543 14.804 151.515 14.872 151.459 14.928C151.411 14.976 151.347 15 151.267 15H150.691ZM163.419 15.12C163.027 15.12 162.663 15.04 162.327 14.88C161.991 14.72 161.723 14.504 161.523 14.232C161.331 13.952 161.235 13.644 161.235 13.308C161.235 12.78 161.451 12.348 161.883 12.012C162.323 11.668 162.915 11.444 163.659 11.34L165.447 11.088V10.74C165.447 9.924 164.979 9.516 164.043 9.516C163.691 9.516 163.403 9.592 163.179 9.744C162.955 9.888 162.787 10.06 162.675 10.26C162.651 10.332 162.619 10.384 162.579 10.416C162.547 10.448 162.499 10.464 162.435 10.464H161.919C161.847 10.464 161.783 10.44 161.727 10.392C161.679 10.336 161.655 10.272 161.655 10.2C161.663 10.008 161.751 9.792 161.919 9.552C162.095 9.304 162.363 9.092 162.723 8.916C163.083 8.732 163.527 8.64 164.055 8.64C164.951 8.64 165.595 8.852 165.987 9.276C166.379 9.692 166.575 10.212 166.575 10.836V14.724C166.575 14.804 166.547 14.872 166.491 14.928C166.443 14.976 166.379 15 166.299 15H165.747C165.667 15 165.599 14.976 165.543 14.928C165.495 14.872 165.471 14.804 165.471 14.724V14.208C165.295 14.464 165.039 14.68 164.703 14.856C164.367 15.032 163.939 15.12 163.419 15.12ZM163.671 14.22C164.191 14.22 164.615 14.052 164.943 13.716C165.279 13.372 165.447 12.88 165.447 12.24V11.904L164.055 12.108C163.487 12.188 163.059 12.324 162.771 12.516C162.483 12.7 162.339 12.936 162.339 13.224C162.339 13.544 162.471 13.792 162.735 13.968C162.999 14.136 163.311 14.22 163.671 14.22ZM169.188 15C169.108 15 169.04 14.976 168.984 14.928C168.936 14.872 168.912 14.804 168.912 14.724V6.756C168.912 6.676 168.936 6.612 168.984 6.564C169.04 6.508 169.108 6.48 169.188 6.48H169.752C169.832 6.48 169.896 6.508 169.944 6.564C170 6.612 170.028 6.676 170.028 6.756V14.724C170.028 14.804 170 14.872 169.944 14.928C169.896 14.976 169.832 15 169.752 15H169.188ZM174.59 15C174.382 15 174.234 14.9 174.146 14.7L171.926 9.132L171.902 9.012C171.902 8.94 171.926 8.88 171.974 8.832C172.022 8.784 172.082 8.76 172.154 8.76H172.73C172.866 8.76 172.966 8.828 173.03 8.964L174.854 13.692L176.678 8.964C176.75 8.828 176.846 8.76 176.966 8.76H177.554C177.618 8.76 177.674 8.784 177.722 8.832C177.778 8.88 177.806 8.94 177.806 9.012L177.782 9.132L175.55 14.7C175.462 14.9 175.314 15 175.106 15H174.59ZM181.936 15.12C181.112 15.12 180.452 14.868 179.956 14.364C179.468 13.852 179.2 13.156 179.152 12.276L179.14 11.868L179.152 11.472C179.208 10.608 179.48 9.92 179.968 9.408C180.464 8.896 181.116 8.64 181.924 8.64C182.812 8.64 183.5 8.924 183.988 9.492C184.476 10.052 184.72 10.812 184.72 11.772V11.976C184.72 12.056 184.692 12.124 184.636 12.18C184.588 12.228 184.524 12.252 184.444 12.252H180.292V12.36C180.316 12.88 180.472 13.324 180.76 13.692C181.056 14.052 181.444 14.232 181.924 14.232C182.292 14.232 182.592 14.16 182.824 14.016C183.064 13.864 183.24 13.708 183.352 13.548C183.424 13.452 183.476 13.396 183.508 13.38C183.548 13.356 183.616 13.344 183.712 13.344H184.3C184.372 13.344 184.432 13.364 184.48 13.404C184.528 13.444 184.552 13.5 184.552 13.572C184.552 13.748 184.44 13.96 184.216 14.208C184 14.456 183.692 14.672 183.292 14.856C182.9 15.032 182.448 15.12 181.936 15.12ZM183.58 11.424V11.388C183.58 10.836 183.428 10.388 183.124 10.044C182.828 9.692 182.428 9.516 181.924 9.516C181.42 9.516 181.02 9.692 180.724 10.044C180.436 10.388 180.292 10.836 180.292 11.388V11.424H183.58ZM187.03 15C186.95 15 186.882 14.976 186.826 14.928C186.778 14.872 186.754 14.804 186.754 14.724V9.048C186.754 8.968 186.778 8.9 186.826 8.844C186.882 8.788 186.95 8.76 187.03 8.76H187.582C187.662 8.76 187.73 8.788 187.786 8.844C187.842 8.9 187.87 8.968 187.87 9.048V9.576C188.198 9.032 188.758 8.76 189.55 8.76H190.018C190.098 8.76 190.162 8.788 190.21 8.844C190.266 8.892 190.294 8.956 190.294 9.036V9.528C190.294 9.608 190.266 9.672 190.21 9.72C190.162 9.768 190.098 9.792 190.018 9.792H189.298C188.866 9.792 188.526 9.92 188.278 10.176C188.03 10.424 187.906 10.764 187.906 11.196V14.724C187.906 14.804 187.878 14.872 187.822 14.928C187.766 14.976 187.698 15 187.618 15H187.03ZM194.073 15.12C193.513 15.12 193.041 15.032 192.657 14.856C192.281 14.672 191.997 14.464 191.805 14.232C191.621 14 191.529 13.808 191.529 13.656C191.529 13.576 191.557 13.516 191.613 13.476C191.677 13.428 191.741 13.404 191.805 13.404H192.345C192.425 13.404 192.497 13.444 192.561 13.524C192.753 13.748 192.961 13.924 193.185 14.052C193.409 14.18 193.709 14.244 194.085 14.244C194.501 14.244 194.837 14.164 195.093 14.004C195.357 13.836 195.489 13.608 195.489 13.32C195.489 13.128 195.433 12.972 195.321 12.852C195.217 12.724 195.033 12.616 194.769 12.528C194.513 12.432 194.129 12.328 193.617 12.216C192.921 12.064 192.425 11.844 192.129 11.556C191.841 11.268 191.697 10.896 191.697 10.44C191.697 10.136 191.785 9.848 191.961 9.576C192.145 9.296 192.409 9.072 192.753 8.904C193.105 8.728 193.525 8.64 194.013 8.64C194.525 8.64 194.961 8.724 195.321 8.892C195.681 9.06 195.949 9.26 196.125 9.492C196.309 9.716 196.401 9.904 196.401 10.056C196.401 10.128 196.373 10.188 196.317 10.236C196.269 10.284 196.209 10.308 196.137 10.308H195.633C195.537 10.308 195.457 10.268 195.393 10.188C195.265 10.036 195.153 9.92 195.057 9.84C194.969 9.752 194.837 9.676 194.661 9.612C194.493 9.548 194.277 9.516 194.013 9.516C193.629 9.516 193.333 9.6 193.125 9.768C192.917 9.928 192.813 10.14 192.813 10.404C192.813 10.572 192.857 10.716 192.945 10.836C193.033 10.948 193.201 11.052 193.449 11.148C193.705 11.244 194.073 11.344 194.553 11.448C195.313 11.608 195.849 11.84 196.161 12.144C196.481 12.44 196.641 12.82 196.641 13.284C196.641 13.628 196.541 13.94 196.341 14.22C196.141 14.5 195.845 14.72 195.453 14.88C195.069 15.04 194.609 15.12 194.073 15.12ZM201.186 15.12C200.306 15.12 199.622 14.872 199.134 14.376C198.654 13.88 198.398 13.22 198.366 12.396L198.354 11.88L198.366 11.364C198.398 10.548 198.658 9.892 199.146 9.396C199.634 8.892 200.314 8.64 201.186 8.64C202.058 8.64 202.738 8.892 203.226 9.396C203.714 9.892 203.974 10.548 204.006 11.364C204.014 11.452 204.018 11.624 204.018 11.88C204.018 12.136 204.014 12.308 204.006 12.396C203.974 13.22 203.714 13.88 203.226 14.376C202.746 14.872 202.066 15.12 201.186 15.12ZM201.186 14.196C201.69 14.196 202.086 14.036 202.374 13.716C202.67 13.396 202.83 12.936 202.854 12.336C202.862 12.256 202.866 12.104 202.866 11.88C202.866 11.656 202.862 11.504 202.854 11.424C202.83 10.824 202.67 10.364 202.374 10.044C202.086 9.724 201.69 9.564 201.186 9.564C200.682 9.564 200.282 9.724 199.986 10.044C199.69 10.364 199.534 10.824 199.518 11.424L199.506 11.88L199.518 12.336C199.534 12.936 199.69 13.396 199.986 13.716C200.282 14.036 200.682 14.196 201.186 14.196ZM206.397 15C206.317 15 206.249 14.976 206.193 14.928C206.145 14.872 206.121 14.804 206.121 14.724V9.048C206.121 8.968 206.145 8.9 206.193 8.844C206.249 8.788 206.317 8.76 206.397 8.76H206.949C207.029 8.76 207.097 8.788 207.153 8.844C207.209 8.9 207.237 8.968 207.237 9.048V9.576C207.565 9.032 208.125 8.76 208.917 8.76H209.385C209.465 8.76 209.529 8.788 209.577 8.844C209.633 8.892 209.661 8.956 209.661 9.036V9.528C209.661 9.608 209.633 9.672 209.577 9.72C209.529 9.768 209.465 9.792 209.385 9.792H208.665C208.233 9.792 207.893 9.92 207.645 10.176C207.397 10.424 207.273 10.764 207.273 11.196V14.724C207.273 14.804 207.245 14.872 207.189 14.928C207.133 14.976 207.065 15 206.985 15H206.397ZM213.706 17.64C213.05 17.64 212.522 17.528 212.122 17.304C211.722 17.088 211.438 16.84 211.27 16.56C211.102 16.28 211.01 16.028 210.994 15.804C210.986 15.724 211.01 15.656 211.066 15.6C211.13 15.544 211.198 15.516 211.27 15.516H211.846C211.918 15.516 211.978 15.532 212.026 15.564C212.074 15.604 212.114 15.672 212.146 15.768C212.242 16.024 212.398 16.244 212.614 16.428C212.838 16.62 213.182 16.716 213.646 16.716C214.238 16.716 214.674 16.588 214.954 16.332C215.234 16.084 215.374 15.64 215.374 15V14.184C215.166 14.448 214.902 14.66 214.582 14.82C214.262 14.972 213.882 15.048 213.442 15.048C212.594 15.048 211.958 14.78 211.534 14.244C211.118 13.7 210.898 13.012 210.874 12.18L210.862 11.844L210.874 11.52C210.898 10.696 211.122 10.012 211.546 9.468C211.97 8.916 212.602 8.64 213.442 8.64C214.282 8.64 214.938 8.948 215.41 9.564V9.048C215.41 8.968 215.434 8.9 215.482 8.844C215.538 8.788 215.606 8.76 215.686 8.76H216.238C216.318 8.76 216.386 8.788 216.442 8.844C216.498 8.9 216.526 8.968 216.526 9.048V14.868C216.526 16.716 215.586 17.64 213.706 17.64ZM213.682 14.088C214.226 14.088 214.638 13.908 214.918 13.548C215.198 13.188 215.35 12.76 215.374 12.264C215.382 12.192 215.386 12.052 215.386 11.844C215.386 11.644 215.382 11.508 215.374 11.436C215.35 10.94 215.198 10.512 214.918 10.152C214.646 9.792 214.234 9.612 213.682 9.612C213.114 9.612 212.702 9.788 212.446 10.14C212.19 10.492 212.05 10.956 212.026 11.532L212.014 11.844L212.026 12.168C212.05 12.736 212.19 13.2 212.446 13.56C212.702 13.912 213.114 14.088 213.682 14.088ZM221.347 15C220.083 15 219.451 14.296 219.451 12.888V9.72H218.515C218.435 9.72 218.367 9.696 218.311 9.648C218.263 9.592 218.239 9.524 218.239 9.444V9.036C218.239 8.956 218.263 8.892 218.311 8.844C218.367 8.788 218.435 8.76 218.515 8.76H219.451V6.756C219.451 6.676 219.475 6.612 219.523 6.564C219.579 6.508 219.647 6.48 219.727 6.48H220.291C220.371 6.48 220.435 6.508 220.483 6.564C220.539 6.612 220.567 6.676 220.567 6.756V8.76H222.055C222.135 8.76 222.199 8.788 222.247 8.844C222.303 8.892 222.331 8.956 222.331 9.036V9.444C222.331 9.524 222.303 9.592 222.247 9.648C222.199 9.696 222.135 9.72 222.055 9.72H220.567V12.804C220.567 13.204 220.635 13.508 220.771 13.716C220.907 13.916 221.131 14.016 221.443 14.016H222.175C222.255 14.016 222.319 14.044 222.367 14.1C222.423 14.148 222.451 14.212 222.451 14.292V14.724C222.451 14.804 222.423 14.872 222.367 14.928C222.319 14.976 222.255 15 222.175 15H221.347Z" fill="#333333"/>
<rect y="8" width="7" height="7" fill="#034E7B"/>
<path d="M13.4066 15.12C12.6466 15.12 12.0586 14.876 11.6426 14.388C11.2266 13.892 11.0186 13.236 11.0186 12.42V9.036C11.0186 8.956 11.0426 8.892 11.0906 8.844C11.1466 8.788 11.2146 8.76 11.2946 8.76H11.8946C11.9746 8.76 12.0386 8.788 12.0866 8.844C12.1426 8.892 12.1706 8.956 12.1706 9.036V12.36C12.1706 13.552 12.6906 14.148 13.7306 14.148C14.2346 14.148 14.6346 13.992 14.9306 13.68C15.2266 13.36 15.3746 12.92 15.3746 12.36V9.036C15.3746 8.956 15.3986 8.892 15.4466 8.844C15.5026 8.788 15.5706 8.76 15.6506 8.76H16.2506C16.3306 8.76 16.3946 8.788 16.4426 8.844C16.4906 8.892 16.5146 8.956 16.5146 9.036V14.724C16.5146 14.804 16.4906 14.872 16.4426 14.928C16.3946 14.976 16.3306 15 16.2506 15H15.6866C15.6066 15 15.5386 14.976 15.4826 14.928C15.4346 14.872 15.4106 14.804 15.4106 14.724V14.196C15.1866 14.5 14.9146 14.732 14.5946 14.892C14.2746 15.044 13.8786 15.12 13.4066 15.12ZM12.4226 7.548C12.3426 7.548 12.2786 7.524 12.2306 7.476C12.1826 7.428 12.1586 7.364 12.1586 7.284V6.636C12.1586 6.556 12.1826 6.492 12.2306 6.444C12.2786 6.388 12.3426 6.36 12.4226 6.36H13.0826C13.1626 6.36 13.2266 6.388 13.2746 6.444C13.3306 6.492 13.3586 6.556 13.3586 6.636V7.284C13.3586 7.364 13.3306 7.428 13.2746 7.476C13.2266 7.524 13.1626 7.548 13.0826 7.548H12.4226ZM14.4626 7.548C14.3826 7.548 14.3146 7.524 14.2586 7.476C14.2106 7.428 14.1866 7.364 14.1866 7.284V6.636C14.1866 6.556 14.2106 6.492 14.2586 6.444C14.3146 6.388 14.3826 6.36 14.4626 6.36H15.1106C15.1906 6.36 15.2546 6.388 15.3026 6.444C15.3586 6.492 15.3866 6.556 15.3866 6.636V7.284C15.3866 7.364 15.3586 7.428 15.3026 7.476C15.2546 7.524 15.1906 7.548 15.1106 7.548H14.4626ZM21.9814 15.12C21.1174 15.12 20.4614 14.82 20.0134 14.22V14.724C20.0134 14.804 19.9854 14.872 19.9294 14.928C19.8814 14.976 19.8174 15 19.7374 15H19.1854C19.1054 15 19.0374 14.976 18.9814 14.928C18.9334 14.872 18.9094 14.804 18.9094 14.724V6.756C18.9094 6.676 18.9334 6.612 18.9814 6.564C19.0374 6.508 19.1054 6.48 19.1854 6.48H19.7734C19.8534 6.48 19.9174 6.508 19.9654 6.564C20.0134 6.612 20.0374 6.676 20.0374 6.756V9.516C20.5094 8.932 21.1574 8.64 21.9814 8.64C22.8134 8.64 23.4414 8.916 23.8654 9.468C24.2894 10.012 24.5174 10.696 24.5494 11.52C24.5574 11.608 24.5614 11.728 24.5614 11.88C24.5614 12.032 24.5574 12.152 24.5494 12.24C24.5174 13.072 24.2894 13.76 23.8654 14.304C23.4414 14.848 22.8134 15.12 21.9814 15.12ZM21.7294 14.148C22.2974 14.148 22.7094 13.972 22.9654 13.62C23.2294 13.268 23.3734 12.804 23.3974 12.228C23.4054 12.148 23.4094 12.032 23.4094 11.88C23.4094 10.368 22.8494 9.612 21.7294 9.612C21.1934 9.612 20.7814 9.788 20.4934 10.14C20.2054 10.492 20.0534 10.904 20.0374 11.376L20.0254 11.844L20.0374 12.3C20.0614 12.804 20.2094 13.24 20.4814 13.608C20.7614 13.968 21.1774 14.148 21.7294 14.148ZM29.1301 15.12C28.3061 15.12 27.6461 14.868 27.1501 14.364C26.6621 13.852 26.3941 13.156 26.3461 12.276L26.3341 11.868L26.3461 11.472C26.4021 10.608 26.6741 9.92 27.1621 9.408C27.6581 8.896 28.3101 8.64 29.1181 8.64C30.0061 8.64 30.6941 8.924 31.1821 9.492C31.6701 10.052 31.9141 10.812 31.9141 11.772V11.976C31.9141 12.056 31.8861 12.124 31.8301 12.18C31.7821 12.228 31.7181 12.252 31.6381 12.252H27.4861V12.36C27.5101 12.88 27.6661 13.324 27.9541 13.692C28.2501 14.052 28.6381 14.232 29.1181 14.232C29.4861 14.232 29.7861 14.16 30.0181 14.016C30.2581 13.864 30.4341 13.708 30.5461 13.548C30.6181 13.452 30.6701 13.396 30.7021 13.38C30.7421 13.356 30.8101 13.344 30.9061 13.344H31.4941C31.5661 13.344 31.6261 13.364 31.6741 13.404C31.7221 13.444 31.7461 13.5 31.7461 13.572C31.7461 13.748 31.6341 13.96 31.4101 14.208C31.1941 14.456 30.8861 14.672 30.4861 14.856C30.0941 15.032 29.6421 15.12 29.1301 15.12ZM30.7741 11.424V11.388C30.7741 10.836 30.6221 10.388 30.3181 10.044C30.0221 9.692 29.6221 9.516 29.1181 9.516C28.6141 9.516 28.2141 9.692 27.9181 10.044C27.6301 10.388 27.4861 10.836 27.4861 11.388V11.424H30.7741ZM34.2249 15C34.1449 15 34.0769 14.976 34.0209 14.928C33.9729 14.872 33.9489 14.804 33.9489 14.724V9.048C33.9489 8.968 33.9729 8.9 34.0209 8.844C34.0769 8.788 34.1449 8.76 34.2249 8.76H34.7769C34.8569 8.76 34.9249 8.788 34.9809 8.844C35.0369 8.9 35.0649 8.968 35.0649 9.048V9.576C35.3929 9.032 35.9529 8.76 36.7449 8.76H37.2129C37.2929 8.76 37.3569 8.788 37.4049 8.844C37.4609 8.892 37.4889 8.956 37.4889 9.036V9.528C37.4889 9.608 37.4609 9.672 37.4049 9.72C37.3569 9.768 37.2929 9.792 37.2129 9.792H36.4929C36.0609 9.792 35.7209 9.92 35.4729 10.176C35.2249 10.424 35.1009 10.764 35.1009 11.196V14.724C35.1009 14.804 35.0729 14.872 35.0169 14.928C34.9609 14.976 34.8929 15 34.8129 15H34.2249ZM41.2795 15C41.0715 15 40.9235 14.9 40.8355 14.7L38.6155 9.132L38.5915 9.012C38.5915 8.94 38.6155 8.88 38.6635 8.832C38.7115 8.784 38.7715 8.76 38.8435 8.76H39.4195C39.5555 8.76 39.6555 8.828 39.7195 8.964L41.5435 13.692L43.3675 8.964C43.4395 8.828 43.5355 8.76 43.6555 8.76H44.2435C44.3075 8.76 44.3635 8.784 44.4115 8.832C44.4675 8.88 44.4955 8.94 44.4955 9.012L44.4715 9.132L42.2395 14.7C42.1515 14.9 42.0035 15 41.7955 15H41.2795ZM48.6254 15.12C47.8014 15.12 47.1414 14.868 46.6454 14.364C46.1574 13.852 45.8894 13.156 45.8414 12.276L45.8294 11.868L45.8414 11.472C45.8974 10.608 46.1694 9.92 46.6574 9.408C47.1534 8.896 47.8054 8.64 48.6134 8.64C49.5014 8.64 50.1894 8.924 50.6774 9.492C51.1654 10.052 51.4094 10.812 51.4094 11.772V11.976C51.4094 12.056 51.3814 12.124 51.3254 12.18C51.2774 12.228 51.2134 12.252 51.1334 12.252H46.9814V12.36C47.0054 12.88 47.1614 13.324 47.4494 13.692C47.7454 14.052 48.1334 14.232 48.6134 14.232C48.9814 14.232 49.2814 14.16 49.5134 14.016C49.7534 13.864 49.9294 13.708 50.0414 13.548C50.1134 13.452 50.1654 13.396 50.1974 13.38C50.2374 13.356 50.3054 13.344 50.4014 13.344H50.9894C51.0614 13.344 51.1214 13.364 51.1694 13.404C51.2174 13.444 51.2414 13.5 51.2414 13.572C51.2414 13.748 51.1294 13.96 50.9054 14.208C50.6894 14.456 50.3814 14.672 49.9814 14.856C49.5894 15.032 49.1374 15.12 48.6254 15.12ZM50.2694 11.424V11.388C50.2694 10.836 50.1174 10.388 49.8134 10.044C49.5174 9.692 49.1174 9.516 48.6134 9.516C48.1094 9.516 47.7094 9.692 47.4134 10.044C47.1254 10.388 46.9814 10.836 46.9814 11.388V11.424H50.2694ZM53.7203 15C53.6403 15 53.5723 14.976 53.5163 14.928C53.4683 14.872 53.4443 14.804 53.4443 14.724V9.048C53.4443 8.968 53.4683 8.9 53.5163 8.844C53.5723 8.788 53.6403 8.76 53.7203 8.76H54.2723C54.3523 8.76 54.4203 8.788 54.4763 8.844C54.5323 8.9 54.5603 8.968 54.5603 9.048V9.576C54.8883 9.032 55.4483 8.76 56.2403 8.76H56.7083C56.7883 8.76 56.8523 8.788 56.9003 8.844C56.9563 8.892 56.9843 8.956 56.9843 9.036V9.528C56.9843 9.608 56.9563 9.672 56.9003 9.72C56.8523 9.768 56.7883 9.792 56.7083 9.792H55.9883C55.5563 9.792 55.2163 9.92 54.9683 10.176C54.7203 10.424 54.5963 10.764 54.5963 11.196V14.724C54.5963 14.804 54.5683 14.872 54.5123 14.928C54.4563 14.976 54.3883 15 54.3083 15H53.7203ZM60.7628 15.12C60.2028 15.12 59.7308 15.032 59.3468 14.856C58.9708 14.672 58.6868 14.464 58.4948 14.232C58.3108 14 58.2188 13.808 58.2188 13.656C58.2188 13.576 58.2468 13.516 58.3028 13.476C58.3668 13.428 58.4308 13.404 58.4948 13.404H59.0348C59.1148 13.404 59.1868 13.444 59.2508 13.524C59.4428 13.748 59.6508 13.924 59.8748 14.052C60.0988 14.18 60.3988 14.244 60.7748 14.244C61.1908 14.244 61.5268 14.164 61.7828 14.004C62.0468 13.836 62.1788 13.608 62.1788 13.32C62.1788 13.128 62.1228 12.972 62.0108 12.852C61.9068 12.724 61.7228 12.616 61.4588 12.528C61.2028 12.432 60.8188 12.328 60.3068 12.216C59.6108 12.064 59.1148 11.844 58.8188 11.556C58.5308 11.268 58.3868 10.896 58.3868 10.44C58.3868 10.136 58.4748 9.848 58.6508 9.576C58.8348 9.296 59.0988 9.072 59.4428 8.904C59.7948 8.728 60.2148 8.64 60.7028 8.64C61.2148 8.64 61.6508 8.724 62.0108 8.892C62.3708 9.06 62.6388 9.26 62.8148 9.492C62.9988 9.716 63.0908 9.904 63.0908 10.056C63.0908 10.128 63.0628 10.188 63.0068 10.236C62.9588 10.284 62.8988 10.308 62.8268 10.308H62.3228C62.2268 10.308 62.1468 10.268 62.0828 10.188C61.9548 10.036 61.8428 9.92 61.7468 9.84C61.6588 9.752 61.5268 9.676 61.3508 9.612C61.1828 9.548 60.9668 9.516 60.7028 9.516C60.3188 9.516 60.0228 9.6 59.8148 9.768C59.6068 9.928 59.5028 10.14 59.5028 10.404C59.5028 10.572 59.5468 10.716 59.6348 10.836C59.7228 10.948 59.8908 11.052 60.1388 11.148C60.3948 11.244 60.7628 11.344 61.2428 11.448C62.0028 11.608 62.5388 11.84 62.8508 12.144C63.1708 12.44 63.3308 12.82 63.3308 13.284C63.3308 13.628 63.2308 13.94 63.0308 14.22C62.8308 14.5 62.5348 14.72 62.1428 14.88C61.7588 15.04 61.2988 15.12 60.7628 15.12ZM67.876 15.12C66.996 15.12 66.312 14.872 65.824 14.376C65.344 13.88 65.088 13.22 65.056 12.396L65.044 11.88L65.056 11.364C65.088 10.548 65.348 9.892 65.836 9.396C66.324 8.892 67.004 8.64 67.876 8.64C68.748 8.64 69.428 8.892 69.916 9.396C70.404 9.892 70.664 10.548 70.696 11.364C70.704 11.452 70.708 11.624 70.708 11.88C70.708 12.136 70.704 12.308 70.696 12.396C70.664 13.22 70.404 13.88 69.916 14.376C69.436 14.872 68.756 15.12 67.876 15.12ZM67.876 14.196C68.38 14.196 68.776 14.036 69.064 13.716C69.36 13.396 69.52 12.936 69.544 12.336C69.552 12.256 69.556 12.104 69.556 11.88C69.556 11.656 69.552 11.504 69.544 11.424C69.52 10.824 69.36 10.364 69.064 10.044C68.776 9.724 68.38 9.564 67.876 9.564C67.372 9.564 66.972 9.724 66.676 10.044C66.38 10.364 66.224 10.824 66.208 11.424L66.196 11.88L66.208 12.336C66.224 12.936 66.38 13.396 66.676 13.716C66.972 14.036 67.372 14.196 67.876 14.196ZM73.0867 15C73.0067 15 72.9387 14.976 72.8827 14.928C72.8347 14.872 72.8107 14.804 72.8107 14.724V9.048C72.8107 8.968 72.8347 8.9 72.8827 8.844C72.9387 8.788 73.0067 8.76 73.0867 8.76H73.6387C73.7187 8.76 73.7867 8.788 73.8427 8.844C73.8987 8.9 73.9267 8.968 73.9267 9.048V9.576C74.2547 9.032 74.8147 8.76 75.6067 8.76H76.0747C76.1547 8.76 76.2187 8.788 76.2667 8.844C76.3227 8.892 76.3507 8.956 76.3507 9.036V9.528C76.3507 9.608 76.3227 9.672 76.2667 9.72C76.2187 9.768 76.1547 9.792 76.0747 9.792H75.3547C74.9227 9.792 74.5827 9.92 74.3347 10.176C74.0867 10.424 73.9627 10.764 73.9627 11.196V14.724C73.9627 14.804 73.9347 14.872 73.8787 14.928C73.8227 14.976 73.7547 15 73.6747 15H73.0867ZM80.3963 17.64C79.7403 17.64 79.2123 17.528 78.8123 17.304C78.4123 17.088 78.1283 16.84 77.9603 16.56C77.7923 16.28 77.7003 16.028 77.6843 15.804C77.6763 15.724 77.7003 15.656 77.7563 15.6C77.8203 15.544 77.8883 15.516 77.9603 15.516H78.5363C78.6083 15.516 78.6683 15.532 78.7163 15.564C78.7643 15.604 78.8043 15.672 78.8363 15.768C78.9323 16.024 79.0883 16.244 79.3043 16.428C79.5283 16.62 79.8723 16.716 80.3363 16.716C80.9283 16.716 81.3643 16.588 81.6443 16.332C81.9243 16.084 82.0643 15.64 82.0643 15V14.184C81.8563 14.448 81.5923 14.66 81.2723 14.82C80.9523 14.972 80.5723 15.048 80.1323 15.048C79.2843 15.048 78.6483 14.78 78.2243 14.244C77.8083 13.7 77.5883 13.012 77.5643 12.18L77.5523 11.844L77.5643 11.52C77.5883 10.696 77.8123 10.012 78.2363 9.468C78.6603 8.916 79.2923 8.64 80.1323 8.64C80.9723 8.64 81.6283 8.948 82.1003 9.564V9.048C82.1003 8.968 82.1243 8.9 82.1723 8.844C82.2283 8.788 82.2963 8.76 82.3763 8.76H82.9283C83.0083 8.76 83.0763 8.788 83.1323 8.844C83.1883 8.9 83.2163 8.968 83.2163 9.048V14.868C83.2163 16.716 82.2763 17.64 80.3963 17.64ZM80.3723 14.088C80.9163 14.088 81.3283 13.908 81.6083 13.548C81.8883 13.188 82.0403 12.76 82.0643 12.264C82.0723 12.192 82.0763 12.052 82.0763 11.844C82.0763 11.644 82.0723 11.508 82.0643 11.436C82.0403 10.94 81.8883 10.512 81.6083 10.152C81.3363 9.792 80.9243 9.612 80.3723 9.612C79.8043 9.612 79.3923 9.788 79.1363 10.14C78.8803 10.492 78.7403 10.956 78.7163 11.532L78.7043 11.844L78.7163 12.168C78.7403 12.736 78.8803 13.2 79.1363 13.56C79.3923 13.912 79.8043 14.088 80.3723 14.088ZM88.0365 15C86.7725 15 86.1405 14.296 86.1405 12.888V9.72H85.2045C85.1245 9.72 85.0565 9.696 85.0005 9.648C84.9525 9.592 84.9285 9.524 84.9285 9.444V9.036C84.9285 8.956 84.9525 8.892 85.0005 8.844C85.0565 8.788 85.1245 8.76 85.2045 8.76H86.1405V6.756C86.1405 6.676 86.1645 6.612 86.2125 6.564C86.2685 6.508 86.3365 6.48 86.4165 6.48H86.9805C87.0605 6.48 87.1245 6.508 87.1725 6.564C87.2285 6.612 87.2565 6.676 87.2565 6.756V8.76H88.7445C88.8245 8.76 88.8885 8.788 88.9365 8.844C88.9925 8.892 89.0205 8.956 89.0205 9.036V9.444C89.0205 9.524 88.9925 9.592 88.9365 9.648C88.8885 9.696 88.8245 9.72 88.7445 9.72H87.2565V12.804C87.2565 13.204 87.3245 13.508 87.4605 13.716C87.5965 13.916 87.8205 14.016 88.1325 14.016H88.8645C88.9445 14.016 89.0085 14.044 89.0565 14.1C89.1125 14.148 89.1405 14.212 89.1405 14.292V14.724C89.1405 14.804 89.1125 14.872 89.0565 14.928C89.0085 14.976 88.9445 15 88.8645 15H88.0365Z" fill="#333333"/>
<rect x="119" y="30" width="7" height="7" fill="#E0E0E0"/>
<path d="M130.685 37C130.605 37 130.537 36.976 130.481 36.928C130.433 36.872 130.409 36.804 130.409 36.724V28.756C130.409 28.676 130.433 28.612 130.481 28.564C130.537 28.508 130.605 28.48 130.685 28.48H131.249C131.329 28.48 131.393 28.508 131.441 28.564C131.497 28.612 131.525 28.676 131.525 28.756V32.932L133.889 30.964C133.913 30.948 133.953 30.916 134.009 30.868C134.065 30.828 134.117 30.8 134.165 30.784C134.221 30.768 134.289 30.76 134.369 30.76H135.005C135.077 30.76 135.137 30.784 135.185 30.832C135.233 30.88 135.257 30.94 135.257 31.012C135.257 31.1 135.209 31.176 135.113 31.24L132.341 33.544L135.413 36.532C135.509 36.612 135.557 36.684 135.557 36.748C135.557 36.82 135.533 36.88 135.485 36.928C135.437 36.976 135.377 37 135.305 37H134.681C134.561 37 134.473 36.988 134.417 36.964C134.369 36.94 134.297 36.884 134.201 36.796L131.525 34.24V36.724C131.525 36.804 131.497 36.872 131.441 36.928C131.393 36.976 131.329 37 131.249 37H130.685ZM139.388 37.12C138.564 37.12 137.904 36.868 137.408 36.364C136.92 35.852 136.652 35.156 136.604 34.276L136.592 33.868L136.604 33.472C136.66 32.608 136.932 31.92 137.42 31.408C137.916 30.896 138.568 30.64 139.376 30.64C140.264 30.64 140.952 30.924 141.44 31.492C141.928 32.052 142.172 32.812 142.172 33.772V33.976C142.172 34.056 142.144 34.124 142.088 34.18C142.04 34.228 141.976 34.252 141.896 34.252H137.744V34.36C137.768 34.88 137.924 35.324 138.212 35.692C138.508 36.052 138.896 36.232 139.376 36.232C139.744 36.232 140.044 36.16 140.276 36.016C140.516 35.864 140.692 35.708 140.804 35.548C140.876 35.452 140.928 35.396 140.96 35.38C141 35.356 141.068 35.344 141.164 35.344H141.752C141.824 35.344 141.884 35.364 141.932 35.404C141.98 35.444 142.004 35.5 142.004 35.572C142.004 35.748 141.892 35.96 141.668 36.208C141.452 36.456 141.144 36.672 140.744 36.856C140.352 37.032 139.9 37.12 139.388 37.12ZM141.032 33.424V33.388C141.032 32.836 140.88 32.388 140.576 32.044C140.28 31.692 139.88 31.516 139.376 31.516C138.872 31.516 138.472 31.692 138.176 32.044C137.888 32.388 137.744 32.836 137.744 33.388V33.424H141.032ZM144.387 29.596C144.307 29.596 144.239 29.572 144.183 29.524C144.135 29.468 144.111 29.4 144.111 29.32V28.672C144.111 28.592 144.135 28.524 144.183 28.468C144.239 28.412 144.307 28.384 144.387 28.384H145.143C145.223 28.384 145.291 28.412 145.347 28.468C145.403 28.524 145.431 28.592 145.431 28.672V29.32C145.431 29.4 145.403 29.468 145.347 29.524C145.291 29.572 145.223 29.596 145.143 29.596H144.387ZM144.483 37C144.403 37 144.335 36.976 144.279 36.928C144.231 36.872 144.207 36.804 144.207 36.724V31.036C144.207 30.956 144.231 30.892 144.279 30.844C144.335 30.788 144.403 30.76 144.483 30.76H145.059C145.139 30.76 145.203 30.788 145.251 30.844C145.307 30.892 145.335 30.956 145.335 31.036V36.724C145.335 36.804 145.307 36.872 145.251 36.928C145.203 36.976 145.139 37 145.059 37H144.483ZM147.989 37C147.909 37 147.841 36.976 147.785 36.928C147.737 36.872 147.713 36.804 147.713 36.724V31.036C147.713 30.956 147.737 30.892 147.785 30.844C147.841 30.788 147.909 30.76 147.989 30.76H148.553C148.633 30.76 148.697 30.788 148.745 30.844C148.801 30.892 148.829 30.956 148.829 31.036V31.564C149.061 31.268 149.333 31.04 149.645 30.88C149.965 30.72 150.361 30.64 150.833 30.64C151.601 30.64 152.197 30.888 152.621 31.384C153.053 31.872 153.269 32.524 153.269 33.34V36.724C153.269 36.804 153.241 36.872 153.185 36.928C153.137 36.976 153.073 37 152.993 37H152.393C152.313 37 152.245 36.976 152.189 36.928C152.141 36.872 152.117 36.804 152.117 36.724V33.4C152.117 32.832 151.977 32.392 151.697 32.08C151.425 31.768 151.029 31.612 150.509 31.612C150.005 31.612 149.605 31.772 149.309 32.092C149.013 32.404 148.865 32.84 148.865 33.4V36.724C148.865 36.804 148.837 36.872 148.781 36.928C148.733 36.976 148.669 37 148.589 37H147.989ZM158.086 37.12C157.262 37.12 156.602 36.868 156.106 36.364C155.618 35.852 155.35 35.156 155.302 34.276L155.29 33.868L155.302 33.472C155.358 32.608 155.63 31.92 156.118 31.408C156.614 30.896 157.266 30.64 158.074 30.64C158.962 30.64 159.65 30.924 160.138 31.492C160.626 32.052 160.87 32.812 160.87 33.772V33.976C160.87 34.056 160.842 34.124 160.786 34.18C160.738 34.228 160.674 34.252 160.594 34.252H156.442V34.36C156.466 34.88 156.622 35.324 156.91 35.692C157.206 36.052 157.594 36.232 158.074 36.232C158.442 36.232 158.742 36.16 158.974 36.016C159.214 35.864 159.39 35.708 159.502 35.548C159.574 35.452 159.626 35.396 159.658 35.38C159.698 35.356 159.766 35.344 159.862 35.344H160.45C160.522 35.344 160.582 35.364 160.63 35.404C160.678 35.444 160.702 35.5 160.702 35.572C160.702 35.748 160.59 35.96 160.366 36.208C160.15 36.456 159.842 36.672 159.442 36.856C159.05 37.032 158.598 37.12 158.086 37.12ZM159.73 33.424V33.388C159.73 32.836 159.578 32.388 159.274 32.044C158.978 31.692 158.578 31.516 158.074 31.516C157.57 31.516 157.17 31.692 156.874 32.044C156.586 32.388 156.442 32.836 156.442 33.388V33.424H159.73ZM168.77 37C168.554 37 168.406 36.896 168.326 36.688L165.65 28.972L165.626 28.84C165.626 28.776 165.65 28.72 165.698 28.672C165.746 28.624 165.802 28.6 165.866 28.6H166.49C166.642 28.6 166.75 28.672 166.814 28.816L169.154 35.62L171.506 28.816C171.522 28.768 171.558 28.72 171.614 28.672C171.67 28.624 171.738 28.6 171.818 28.6H172.442C172.506 28.6 172.562 28.624 172.61 28.672C172.666 28.72 172.694 28.776 172.694 28.84L172.67 28.972L169.982 36.688C169.902 36.896 169.758 37 169.55 37H168.77ZM176.457 37.12C175.633 37.12 174.973 36.868 174.477 36.364C173.989 35.852 173.721 35.156 173.673 34.276L173.661 33.868L173.673 33.472C173.729 32.608 174.001 31.92 174.489 31.408C174.985 30.896 175.637 30.64 176.445 30.64C177.333 30.64 178.021 30.924 178.509 31.492C178.997 32.052 179.241 32.812 179.241 33.772V33.976C179.241 34.056 179.213 34.124 179.157 34.18C179.109 34.228 179.045 34.252 178.965 34.252H174.813V34.36C174.837 34.88 174.993 35.324 175.281 35.692C175.577 36.052 175.965 36.232 176.445 36.232C176.813 36.232 177.113 36.16 177.345 36.016C177.585 35.864 177.761 35.708 177.873 35.548C177.945 35.452 177.997 35.396 178.029 35.38C178.069 35.356 178.137 35.344 178.233 35.344H178.821C178.893 35.344 178.953 35.364 179.001 35.404C179.049 35.444 179.073 35.5 179.073 35.572C179.073 35.748 178.961 35.96 178.737 36.208C178.521 36.456 178.213 36.672 177.813 36.856C177.421 37.032 176.969 37.12 176.457 37.12ZM178.101 33.424V33.388C178.101 32.836 177.949 32.388 177.645 32.044C177.349 31.692 176.949 31.516 176.445 31.516C175.941 31.516 175.541 31.692 175.245 32.044C174.957 32.388 174.813 32.836 174.813 33.388V33.424H178.101ZM181.552 37C181.472 37 181.404 36.976 181.348 36.928C181.3 36.872 181.276 36.804 181.276 36.724V31.048C181.276 30.968 181.3 30.9 181.348 30.844C181.404 30.788 181.472 30.76 181.552 30.76H182.104C182.184 30.76 182.252 30.788 182.308 30.844C182.364 30.9 182.392 30.968 182.392 31.048V31.576C182.72 31.032 183.28 30.76 184.072 30.76H184.54C184.62 30.76 184.684 30.788 184.732 30.844C184.788 30.892 184.816 30.956 184.816 31.036V31.528C184.816 31.608 184.788 31.672 184.732 31.72C184.684 31.768 184.62 31.792 184.54 31.792H183.82C183.388 31.792 183.048 31.92 182.8 32.176C182.552 32.424 182.428 32.764 182.428 33.196V36.724C182.428 36.804 182.4 36.872 182.344 36.928C182.288 36.976 182.22 37 182.14 37H181.552ZM188.594 37.12C188.034 37.12 187.562 37.032 187.178 36.856C186.802 36.672 186.518 36.464 186.326 36.232C186.142 36 186.05 35.808 186.05 35.656C186.05 35.576 186.078 35.516 186.134 35.476C186.198 35.428 186.262 35.404 186.326 35.404H186.866C186.946 35.404 187.018 35.444 187.082 35.524C187.274 35.748 187.482 35.924 187.706 36.052C187.93 36.18 188.23 36.244 188.606 36.244C189.022 36.244 189.358 36.164 189.614 36.004C189.878 35.836 190.01 35.608 190.01 35.32C190.01 35.128 189.954 34.972 189.842 34.852C189.738 34.724 189.554 34.616 189.29 34.528C189.034 34.432 188.65 34.328 188.138 34.216C187.442 34.064 186.946 33.844 186.65 33.556C186.362 33.268 186.218 32.896 186.218 32.44C186.218 32.136 186.306 31.848 186.482 31.576C186.666 31.296 186.93 31.072 187.274 30.904C187.626 30.728 188.046 30.64 188.534 30.64C189.046 30.64 189.482 30.724 189.842 30.892C190.202 31.06 190.47 31.26 190.646 31.492C190.83 31.716 190.922 31.904 190.922 32.056C190.922 32.128 190.894 32.188 190.838 32.236C190.79 32.284 190.73 32.308 190.658 32.308H190.154C190.058 32.308 189.978 32.268 189.914 32.188C189.786 32.036 189.674 31.92 189.578 31.84C189.49 31.752 189.358 31.676 189.182 31.612C189.014 31.548 188.798 31.516 188.534 31.516C188.15 31.516 187.854 31.6 187.646 31.768C187.438 31.928 187.334 32.14 187.334 32.404C187.334 32.572 187.378 32.716 187.466 32.836C187.554 32.948 187.722 33.052 187.97 33.148C188.226 33.244 188.594 33.344 189.074 33.448C189.834 33.608 190.37 33.84 190.682 34.144C191.002 34.44 191.162 34.82 191.162 35.284C191.162 35.628 191.062 35.94 190.862 36.22C190.662 36.5 190.366 36.72 189.974 36.88C189.59 37.04 189.13 37.12 188.594 37.12ZM195.707 37.12C194.827 37.12 194.143 36.872 193.655 36.376C193.175 35.88 192.919 35.22 192.887 34.396L192.875 33.88L192.887 33.364C192.919 32.548 193.179 31.892 193.667 31.396C194.155 30.892 194.835 30.64 195.707 30.64C196.579 30.64 197.259 30.892 197.747 31.396C198.235 31.892 198.495 32.548 198.527 33.364C198.535 33.452 198.539 33.624 198.539 33.88C198.539 34.136 198.535 34.308 198.527 34.396C198.495 35.22 198.235 35.88 197.747 36.376C197.267 36.872 196.587 37.12 195.707 37.12ZM195.707 36.196C196.211 36.196 196.607 36.036 196.895 35.716C197.191 35.396 197.351 34.936 197.375 34.336C197.383 34.256 197.387 34.104 197.387 33.88C197.387 33.656 197.383 33.504 197.375 33.424C197.351 32.824 197.191 32.364 196.895 32.044C196.607 31.724 196.211 31.564 195.707 31.564C195.203 31.564 194.803 31.724 194.507 32.044C194.211 32.364 194.055 32.824 194.039 33.424L194.027 33.88L194.039 34.336C194.055 34.936 194.211 35.396 194.507 35.716C194.803 36.036 195.203 36.196 195.707 36.196ZM200.918 37C200.838 37 200.77 36.976 200.714 36.928C200.666 36.872 200.642 36.804 200.642 36.724V31.048C200.642 30.968 200.666 30.9 200.714 30.844C200.77 30.788 200.838 30.76 200.918 30.76H201.47C201.55 30.76 201.618 30.788 201.674 30.844C201.73 30.9 201.758 30.968 201.758 31.048V31.576C202.086 31.032 202.646 30.76 203.438 30.76H203.906C203.986 30.76 204.05 30.788 204.098 30.844C204.154 30.892 204.182 30.956 204.182 31.036V31.528C204.182 31.608 204.154 31.672 204.098 31.72C204.05 31.768 203.986 31.792 203.906 31.792H203.186C202.754 31.792 202.414 31.92 202.166 32.176C201.918 32.424 201.794 32.764 201.794 33.196V36.724C201.794 36.804 201.766 36.872 201.71 36.928C201.654 36.976 201.586 37 201.506 37H200.918ZM208.228 39.64C207.572 39.64 207.044 39.528 206.644 39.304C206.244 39.088 205.96 38.84 205.792 38.56C205.624 38.28 205.532 38.028 205.516 37.804C205.508 37.724 205.532 37.656 205.588 37.6C205.652 37.544 205.72 37.516 205.792 37.516H206.368C206.44 37.516 206.5 37.532 206.548 37.564C206.596 37.604 206.636 37.672 206.668 37.768C206.764 38.024 206.92 38.244 207.136 38.428C207.36 38.62 207.704 38.716 208.168 38.716C208.76 38.716 209.196 38.588 209.476 38.332C209.756 38.084 209.896 37.64 209.896 37V36.184C209.688 36.448 209.424 36.66 209.104 36.82C208.784 36.972 208.404 37.048 207.964 37.048C207.116 37.048 206.48 36.78 206.056 36.244C205.64 35.7 205.42 35.012 205.396 34.18L205.384 33.844L205.396 33.52C205.42 32.696 205.644 32.012 206.068 31.468C206.492 30.916 207.124 30.64 207.964 30.64C208.804 30.64 209.46 30.948 209.932 31.564V31.048C209.932 30.968 209.956 30.9 210.004 30.844C210.06 30.788 210.128 30.76 210.208 30.76H210.76C210.84 30.76 210.908 30.788 210.964 30.844C211.02 30.9 211.048 30.968 211.048 31.048V36.868C211.048 38.716 210.108 39.64 208.228 39.64ZM208.204 36.088C208.748 36.088 209.16 35.908 209.44 35.548C209.72 35.188 209.872 34.76 209.896 34.264C209.904 34.192 209.908 34.052 209.908 33.844C209.908 33.644 209.904 33.508 209.896 33.436C209.872 32.94 209.72 32.512 209.44 32.152C209.168 31.792 208.756 31.612 208.204 31.612C207.636 31.612 207.224 31.788 206.968 32.14C206.712 32.492 206.572 32.956 206.548 33.532L206.536 33.844L206.548 34.168C206.572 34.736 206.712 35.2 206.968 35.56C207.224 35.912 207.636 36.088 208.204 36.088ZM215.76 37.12C215 37.12 214.412 36.876 213.996 36.388C213.58 35.892 213.372 35.236 213.372 34.42V31.036C213.372 30.956 213.396 30.892 213.444 30.844C213.5 30.788 213.568 30.76 213.648 30.76H214.248C214.328 30.76 214.392 30.788 214.44 30.844C214.496 30.892 214.524 30.956 214.524 31.036V34.36C214.524 35.552 215.044 36.148 216.084 36.148C216.588 36.148 216.988 35.992 217.284 35.68C217.58 35.36 217.728 34.92 217.728 34.36V31.036C217.728 30.956 217.752 30.892 217.8 30.844C217.856 30.788 217.924 30.76 218.004 30.76H218.604C218.684 30.76 218.748 30.788 218.796 30.844C218.844 30.892 218.868 30.956 218.868 31.036V36.724C218.868 36.804 218.844 36.872 218.796 36.928C218.748 36.976 218.684 37 218.604 37H218.04C217.96 37 217.892 36.976 217.836 36.928C217.788 36.872 217.764 36.804 217.764 36.724V36.196C217.54 36.5 217.268 36.732 216.948 36.892C216.628 37.044 216.232 37.12 215.76 37.12ZM221.527 37C221.447 37 221.379 36.976 221.323 36.928C221.275 36.872 221.251 36.804 221.251 36.724V31.036C221.251 30.956 221.275 30.892 221.323 30.844C221.379 30.788 221.447 30.76 221.527 30.76H222.091C222.171 30.76 222.235 30.788 222.283 30.844C222.339 30.892 222.367 30.956 222.367 31.036V31.564C222.599 31.268 222.871 31.04 223.183 30.88C223.503 30.72 223.899 30.64 224.371 30.64C225.139 30.64 225.735 30.888 226.159 31.384C226.591 31.872 226.807 32.524 226.807 33.34V36.724C226.807 36.804 226.779 36.872 226.723 36.928C226.675 36.976 226.611 37 226.531 37H225.931C225.851 37 225.783 36.976 225.727 36.928C225.679 36.872 225.655 36.804 225.655 36.724V33.4C225.655 32.832 225.515 32.392 225.235 32.08C224.963 31.768 224.567 31.612 224.047 31.612C223.543 31.612 223.143 31.772 222.847 32.092C222.551 32.404 222.403 32.84 222.403 33.4V36.724C222.403 36.804 222.375 36.872 222.319 36.928C222.271 36.976 222.207 37 222.127 37H221.527ZM231.684 39.64C231.028 39.64 230.5 39.528 230.1 39.304C229.7 39.088 229.416 38.84 229.248 38.56C229.08 38.28 228.988 38.028 228.972 37.804C228.964 37.724 228.988 37.656 229.044 37.6C229.108 37.544 229.176 37.516 229.248 37.516H229.824C229.896 37.516 229.956 37.532 230.004 37.564C230.052 37.604 230.092 37.672 230.124 37.768C230.22 38.024 230.376 38.244 230.592 38.428C230.816 38.62 231.16 38.716 231.624 38.716C232.216 38.716 232.652 38.588 232.932 38.332C233.212 38.084 233.352 37.64 233.352 37V36.184C233.144 36.448 232.88 36.66 232.56 36.82C232.24 36.972 231.86 37.048 231.42 37.048C230.572 37.048 229.936 36.78 229.512 36.244C229.096 35.7 228.876 35.012 228.852 34.18L228.84 33.844L228.852 33.52C228.876 32.696 229.1 32.012 229.524 31.468C229.948 30.916 230.58 30.64 231.42 30.64C232.26 30.64 232.916 30.948 233.388 31.564V31.048C233.388 30.968 233.412 30.9 233.46 30.844C233.516 30.788 233.584 30.76 233.664 30.76H234.216C234.296 30.76 234.364 30.788 234.42 30.844C234.476 30.9 234.504 30.968 234.504 31.048V36.868C234.504 38.716 233.564 39.64 231.684 39.64ZM231.66 36.088C232.204 36.088 232.616 35.908 232.896 35.548C233.176 35.188 233.328 34.76 233.352 34.264C233.36 34.192 233.364 34.052 233.364 33.844C233.364 33.644 233.36 33.508 233.352 33.436C233.328 32.94 233.176 32.512 232.896 32.152C232.624 31.792 232.212 31.612 231.66 31.612C231.092 31.612 230.68 31.788 230.424 32.14C230.168 32.492 230.028 32.956 230.004 33.532L229.992 33.844L230.004 34.168C230.028 34.736 230.168 35.2 230.424 35.56C230.68 35.912 231.092 36.088 231.66 36.088Z" fill="#333333"/>
</svg>
