<svg width="408" height="107" viewBox="0 0 408 107" fill="none" xmlns="http://www.w3.org/2000/svg">
<path d="M3.852 11.12C3.14 11.12 2.528 11.012 2.016 10.796C1.504 10.58 1.116 10.296 0.852 9.944C0.588 9.592 0.448 9.212 0.432 8.804C0.432 8.732 0.456 8.672 0.504 8.624C0.552 8.576 0.612 8.552 0.684 8.552H1.752C1.848 8.552 1.92 8.572 1.968 8.612C2.024 8.644 2.076 8.7 2.124 8.78C2.204 9.052 2.388 9.28 2.676 9.464C2.964 9.648 3.356 9.74 3.852 9.74C4.42 9.74 4.848 9.648 5.136 9.464C5.424 9.272 5.568 9.008 5.568 8.672C5.568 8.448 5.492 8.264 5.34 8.12C5.196 7.976 4.976 7.852 4.68 7.748C4.392 7.644 3.96 7.516 3.384 7.364C2.44 7.14 1.748 6.844 1.308 6.476C0.876 6.1 0.66 5.568 0.66 4.88C0.66 4.416 0.784 4.004 1.032 3.644C1.288 3.284 1.652 3 2.124 2.792C2.604 2.584 3.16 2.48 3.792 2.48C4.448 2.48 5.016 2.596 5.496 2.828C5.976 3.06 6.34 3.352 6.588 3.704C6.844 4.048 6.98 4.392 6.996 4.736C6.996 4.808 6.972 4.868 6.924 4.916C6.876 4.964 6.816 4.988 6.744 4.988H5.628C5.46 4.988 5.344 4.912 5.28 4.76C5.232 4.504 5.072 4.292 4.8 4.124C4.528 3.948 4.192 3.86 3.792 3.86C3.344 3.86 2.992 3.944 2.736 4.112C2.48 4.28 2.352 4.524 2.352 4.844C2.352 5.068 2.416 5.252 2.544 5.396C2.672 5.54 2.872 5.668 3.144 5.78C3.424 5.892 3.824 6.016 4.344 6.152C5.048 6.312 5.608 6.492 6.024 6.692C6.448 6.892 6.76 7.144 6.96 7.448C7.16 7.752 7.26 8.14 7.26 8.612C7.26 9.124 7.116 9.572 6.828 9.956C6.548 10.332 6.148 10.62 5.628 10.82C5.116 11.02 4.524 11.12 3.852 11.12ZM11.9112 11C11.1832 11 10.6352 10.812 10.2672 10.436C9.90722 10.052 9.72722 9.492 9.72722 8.756V6.032H8.77922C8.69922 6.032 8.63122 6.004 8.57522 5.948C8.51922 5.884 8.49122 5.812 8.49122 5.732V5.048C8.49122 4.968 8.51922 4.9 8.57522 4.844C8.63122 4.788 8.69922 4.76 8.77922 4.76H9.72722V2.768C9.72722 2.68 9.75522 2.612 9.81122 2.564C9.86722 2.508 9.93522 2.48 10.0152 2.48H10.9872C11.0752 2.48 11.1432 2.508 11.1912 2.564C11.2472 2.612 11.2752 2.68 11.2752 2.768V4.76H12.7752C12.8632 4.76 12.9312 4.788 12.9792 4.844C13.0352 4.892 13.0632 4.96 13.0632 5.048V5.732C13.0632 5.82 13.0352 5.892 12.9792 5.948C12.9232 6.004 12.8552 6.032 12.7752 6.032H11.2752V8.636C11.2752 8.98 11.3352 9.24 11.4552 9.416C11.5752 9.592 11.7752 9.68 12.0552 9.68H12.8832C12.9632 9.68 13.0312 9.708 13.0872 9.764C13.1432 9.82 13.1712 9.888 13.1712 9.968V10.712C13.1712 10.792 13.1432 10.86 13.0872 10.916C13.0392 10.972 12.9712 11 12.8832 11H11.9112ZM16.6478 11.12C16.2398 11.12 15.8638 11.04 15.5198 10.88C15.1838 10.712 14.9158 10.488 14.7158 10.208C14.5238 9.928 14.4278 9.62 14.4278 9.284C14.4278 8.74 14.6478 8.3 15.0878 7.964C15.5278 7.628 16.1318 7.4 16.8998 7.28L18.5438 7.04V6.788C18.5438 6.436 18.4558 6.172 18.2798 5.996C18.1038 5.82 17.8198 5.732 17.4278 5.732C17.1638 5.732 16.9478 5.784 16.7798 5.888C16.6198 5.984 16.4918 6.08 16.3958 6.176C16.2998 6.28 16.2358 6.348 16.2038 6.38C16.1718 6.476 16.1118 6.524 16.0238 6.524H15.0998C15.0278 6.524 14.9638 6.5 14.9078 6.452C14.8598 6.404 14.8358 6.34 14.8358 6.26C14.8438 6.06 14.9398 5.832 15.1238 5.576C15.3158 5.32 15.6078 5.1 15.9998 4.916C16.3918 4.732 16.8718 4.64 17.4398 4.64C18.3838 4.64 19.0718 4.852 19.5038 5.276C19.9358 5.7 20.1518 6.256 20.1518 6.944V10.712C20.1518 10.792 20.1238 10.86 20.0678 10.916C20.0198 10.972 19.9518 11 19.8638 11H18.8918C18.8118 11 18.7438 10.972 18.6878 10.916C18.6318 10.86 18.6038 10.792 18.6038 10.712V10.244C18.4278 10.5 18.1758 10.712 17.8478 10.88C17.5278 11.04 17.1278 11.12 16.6478 11.12ZM17.0558 9.98C17.4958 9.98 17.8558 9.836 18.1358 9.548C18.4158 9.26 18.5558 8.84 18.5558 8.288V8.036L17.3558 8.228C16.8918 8.3 16.5398 8.416 16.2998 8.576C16.0678 8.736 15.9518 8.932 15.9518 9.164C15.9518 9.42 16.0598 9.62 16.2758 9.764C16.4918 9.908 16.7518 9.98 17.0558 9.98ZM24.6072 11.12C23.7992 11.12 23.1792 10.86 22.7472 10.34C22.3152 9.82 22.0832 9.128 22.0512 8.264L22.0392 7.868L22.0512 7.484C22.0752 6.644 22.3032 5.96 22.7352 5.432C23.1752 4.904 23.7992 4.64 24.6072 4.64C25.3832 4.64 25.9992 4.904 26.4552 5.432V2.768C26.4552 2.68 26.4832 2.612 26.5392 2.564C26.5952 2.508 26.6632 2.48 26.7432 2.48H27.7632C27.8512 2.48 27.9192 2.508 27.9672 2.564C28.0232 2.612 28.0512 2.68 28.0512 2.768V10.712C28.0512 10.792 28.0232 10.86 27.9672 10.916C27.9192 10.972 27.8512 11 27.7632 11H26.8152C26.7352 11 26.6672 10.972 26.6112 10.916C26.5552 10.86 26.5272 10.792 26.5272 10.712V10.268C26.0712 10.836 25.4312 11.12 24.6072 11.12ZM25.0512 9.836C25.5152 9.836 25.8592 9.688 26.0832 9.392C26.3072 9.096 26.4312 8.732 26.4552 8.3C26.4632 8.204 26.4672 8.048 26.4672 7.832C26.4672 7.624 26.4632 7.472 26.4552 7.376C26.4392 6.976 26.3112 6.636 26.0712 6.356C25.8392 6.068 25.4992 5.924 25.0512 5.924C24.1872 5.924 23.7272 6.456 23.6712 7.52L23.6592 7.88L23.6712 8.24C23.7272 9.304 24.1872 9.836 25.0512 9.836ZM33.0706 11C32.3426 11 31.7946 10.812 31.4266 10.436C31.0666 10.052 30.8866 9.492 30.8866 8.756V6.032H29.9386C29.8586 6.032 29.7906 6.004 29.7346 5.948C29.6786 5.884 29.6506 5.812 29.6506 5.732V5.048C29.6506 4.968 29.6786 4.9 29.7346 4.844C29.7906 4.788 29.8586 4.76 29.9386 4.76H30.8866V2.768C30.8866 2.68 30.9146 2.612 30.9706 2.564C31.0266 2.508 31.0946 2.48 31.1746 2.48H32.1466C32.2346 2.48 32.3026 2.508 32.3506 2.564C32.4066 2.612 32.4346 2.68 32.4346 2.768V4.76H33.9346C34.0226 4.76 34.0906 4.788 34.1386 4.844C34.1946 4.892 34.2226 4.96 34.2226 5.048V5.732C34.2226 5.82 34.1946 5.892 34.1386 5.948C34.0826 6.004 34.0146 6.032 33.9346 6.032H32.4346V8.636C32.4346 8.98 32.4946 9.24 32.6146 9.416C32.7346 9.592 32.9346 9.68 33.2146 9.68H34.0426C34.1226 9.68 34.1906 9.708 34.2466 9.764C34.3026 9.82 34.3306 9.888 34.3306 9.968V10.712C34.3306 10.792 34.3026 10.86 34.2466 10.916C34.1986 10.972 34.1306 11 34.0426 11H33.0706ZM38.8151 11C38.0871 11 37.5391 10.812 37.1711 10.436C36.8111 10.052 36.6311 9.492 36.6311 8.756V6.032H35.6831C35.6031 6.032 35.5351 6.004 35.4791 5.948C35.4231 5.884 35.3951 5.812 35.3951 5.732V5.048C35.3951 4.968 35.4231 4.9 35.4791 4.844C35.5351 4.788 35.6031 4.76 35.6831 4.76H36.6311V2.768C36.6311 2.68 36.6591 2.612 36.7151 2.564C36.7711 2.508 36.8391 2.48 36.9191 2.48H37.8911C37.9791 2.48 38.0471 2.508 38.0951 2.564C38.1511 2.612 38.1791 2.68 38.1791 2.768V4.76H39.6791C39.7671 4.76 39.8351 4.788 39.8831 4.844C39.9391 4.892 39.9671 4.96 39.9671 5.048V5.732C39.9671 5.82 39.9391 5.892 39.8831 5.948C39.8271 6.004 39.7591 6.032 39.6791 6.032H38.1791V8.636C38.1791 8.98 38.2391 9.24 38.3591 9.416C38.4791 9.592 38.6791 9.68 38.9591 9.68H39.7871C39.8671 9.68 39.9351 9.708 39.9911 9.764C40.0471 9.82 40.0751 9.888 40.0751 9.968V10.712C40.0751 10.792 40.0471 10.86 39.9911 10.916C39.9431 10.972 39.8751 11 39.7871 11H38.8151ZM44.4277 11.12C43.5397 11.12 42.8317 10.864 42.3037 10.352C41.7837 9.832 41.5077 9.104 41.4757 8.168L41.4637 7.868L41.4757 7.568C41.5157 6.656 41.7957 5.94 42.3157 5.42C42.8437 4.9 43.5477 4.64 44.4277 4.64C45.3717 4.64 46.0997 4.928 46.6117 5.504C47.1317 6.08 47.3917 6.848 47.3917 7.808V8.06C47.3917 8.14 47.3637 8.208 47.3077 8.264C47.2517 8.32 47.1797 8.348 47.0917 8.348H43.1077V8.444C43.1237 8.884 43.2437 9.256 43.4677 9.56C43.6997 9.856 44.0157 10.004 44.4157 10.004C44.8877 10.004 45.2677 9.82 45.5557 9.452C45.6277 9.364 45.6837 9.308 45.7237 9.284C45.7717 9.26 45.8397 9.248 45.9277 9.248H46.9597C47.0317 9.248 47.0917 9.272 47.1397 9.32C47.1957 9.36 47.2237 9.412 47.2237 9.476C47.2237 9.668 47.1077 9.896 46.8757 10.16C46.6517 10.416 46.3277 10.64 45.9037 10.832C45.4797 11.024 44.9877 11.12 44.4277 11.12ZM45.7597 7.34V7.304C45.7597 6.832 45.6397 6.452 45.3997 6.164C45.1677 5.876 44.8437 5.732 44.4277 5.732C44.0117 5.732 43.6877 5.876 43.4557 6.164C43.2237 6.452 43.1077 6.832 43.1077 7.304V7.34H45.7597ZM49.5054 3.728C49.4254 3.728 49.3574 3.7 49.3014 3.644C49.2454 3.588 49.2174 3.52 49.2174 3.44V2.576C49.2174 2.496 49.2454 2.428 49.3014 2.372C49.3574 2.316 49.4254 2.288 49.5054 2.288H50.5974C50.6774 2.288 50.7454 2.316 50.8014 2.372C50.8654 2.428 50.8974 2.496 50.8974 2.576V3.44C50.8974 3.52 50.8694 3.588 50.8134 3.644C50.7574 3.7 50.6854 3.728 50.5974 3.728H49.5054ZM49.5534 11C49.4734 11 49.4054 10.972 49.3494 10.916C49.2934 10.86 49.2654 10.792 49.2654 10.712V5.048C49.2654 4.968 49.2934 4.9 49.3494 4.844C49.4054 4.788 49.4734 4.76 49.5534 4.76H50.5494C50.6374 4.76 50.7054 4.788 50.7534 4.844C50.8094 4.892 50.8374 4.96 50.8374 5.048V10.712C50.8374 10.792 50.8094 10.86 50.7534 10.916C50.7054 10.972 50.6374 11 50.5494 11H49.5534ZM53.3295 11C53.2495 11 53.1815 10.972 53.1255 10.916C53.0695 10.86 53.0415 10.792 53.0415 10.712V2.768C53.0415 2.68 53.0695 2.612 53.1255 2.564C53.1815 2.508 53.2495 2.48 53.3295 2.48H54.3255C54.4135 2.48 54.4815 2.508 54.5295 2.564C54.5855 2.612 54.6135 2.68 54.6135 2.768V10.712C54.6135 10.792 54.5855 10.86 54.5295 10.916C54.4815 10.972 54.4135 11 54.3255 11H53.3295ZM59.4933 11.12C58.6053 11.12 57.8973 10.864 57.3693 10.352C56.8493 9.832 56.5733 9.104 56.5413 8.168L56.5293 7.868L56.5413 7.568C56.5813 6.656 56.8613 5.94 57.3813 5.42C57.9093 4.9 58.6133 4.64 59.4933 4.64C60.4373 4.64 61.1653 4.928 61.6773 5.504C62.1973 6.08 62.4573 6.848 62.4573 7.808V8.06C62.4573 8.14 62.4293 8.208 62.3733 8.264C62.3173 8.32 62.2453 8.348 62.1573 8.348H58.1733V8.444C58.1893 8.884 58.3093 9.256 58.5333 9.56C58.7653 9.856 59.0813 10.004 59.4813 10.004C59.9533 10.004 60.3333 9.82 60.6213 9.452C60.6933 9.364 60.7493 9.308 60.7893 9.284C60.8373 9.26 60.9053 9.248 60.9933 9.248H62.0253C62.0973 9.248 62.1573 9.272 62.2053 9.32C62.2613 9.36 62.2893 9.412 62.2893 9.476C62.2893 9.668 62.1733 9.896 61.9413 10.16C61.7173 10.416 61.3933 10.64 60.9693 10.832C60.5453 11.024 60.0533 11.12 59.4933 11.12ZM60.8253 7.34V7.304C60.8253 6.832 60.7053 6.452 60.4653 6.164C60.2333 5.876 59.9093 5.732 59.4933 5.732C59.0773 5.732 58.7533 5.876 58.5213 6.164C58.2893 6.452 58.1733 6.832 58.1733 7.304V7.34H60.8253ZM67.9612 11C67.8812 11 67.8132 10.972 67.7572 10.916C67.7012 10.86 67.6732 10.792 67.6732 10.712V5.048C67.6732 4.968 67.7012 4.9 67.7572 4.844C67.8132 4.788 67.8812 4.76 67.9612 4.76H68.8972C68.9772 4.76 69.0452 4.788 69.1012 4.844C69.1572 4.9 69.1852 4.968 69.1852 5.048V5.456C69.6012 4.912 70.1812 4.64 70.9252 4.64C71.8132 4.64 72.4332 4.996 72.7852 5.708C72.9772 5.388 73.2492 5.132 73.6012 4.94C73.9532 4.74 74.3332 4.64 74.7412 4.64C75.3972 4.64 75.9332 4.864 76.3492 5.312C76.7652 5.76 76.9732 6.412 76.9732 7.268V10.712C76.9732 10.792 76.9452 10.86 76.8892 10.916C76.8412 10.972 76.7732 11 76.6852 11H75.7012C75.6212 11 75.5532 10.972 75.4972 10.916C75.4412 10.86 75.4132 10.792 75.4132 10.712V7.364C75.4132 6.86 75.3052 6.496 75.0892 6.272C74.8812 6.04 74.6012 5.924 74.2492 5.924C73.9372 5.924 73.6692 6.04 73.4452 6.272C73.2292 6.504 73.1212 6.868 73.1212 7.364V10.712C73.1212 10.792 73.0932 10.86 73.0372 10.916C72.9812 10.972 72.9132 11 72.8332 11H71.8492C71.7692 11 71.7012 10.972 71.6452 10.916C71.5892 10.86 71.5612 10.792 71.5612 10.712V7.364C71.5612 6.86 71.4492 6.496 71.2252 6.272C71.0092 6.04 70.7332 5.924 70.3972 5.924C70.0772 5.924 69.8052 6.04 69.5812 6.272C69.3652 6.504 69.2572 6.868 69.2572 7.364V10.712C69.2572 10.792 69.2292 10.86 69.1732 10.916C69.1172 10.972 69.0492 11 68.9692 11H67.9612ZM79.3414 3.728C79.2614 3.728 79.1934 3.7 79.1374 3.644C79.0814 3.588 79.0534 3.52 79.0534 3.44V2.576C79.0534 2.496 79.0814 2.428 79.1374 2.372C79.1934 2.316 79.2614 2.288 79.3414 2.288H80.4334C80.5134 2.288 80.5814 2.316 80.6374 2.372C80.7014 2.428 80.7334 2.496 80.7334 2.576V3.44C80.7334 3.52 80.7054 3.588 80.6494 3.644C80.5934 3.7 80.5214 3.728 80.4334 3.728H79.3414ZM79.3894 11C79.3094 11 79.2414 10.972 79.1854 10.916C79.1294 10.86 79.1014 10.792 79.1014 10.712V5.048C79.1014 4.968 79.1294 4.9 79.1854 4.844C79.2414 4.788 79.3094 4.76 79.3894 4.76H80.3854C80.4734 4.76 80.5414 4.788 80.5894 4.844C80.6454 4.892 80.6734 4.96 80.6734 5.048V10.712C80.6734 10.792 80.6454 10.86 80.5894 10.916C80.5414 10.972 80.4734 11 80.3854 11H79.3894ZM85.6854 11C84.9574 11 84.4094 10.812 84.0414 10.436C83.6814 10.052 83.5014 9.492 83.5014 8.756V6.032H82.5534C82.4734 6.032 82.4054 6.004 82.3494 5.948C82.2934 5.884 82.2654 5.812 82.2654 5.732V5.048C82.2654 4.968 82.2934 4.9 82.3494 4.844C82.4054 4.788 82.4734 4.76 82.5534 4.76H83.5014V2.768C83.5014 2.68 83.5294 2.612 83.5854 2.564C83.6414 2.508 83.7094 2.48 83.7894 2.48H84.7614C84.8494 2.48 84.9174 2.508 84.9654 2.564C85.0214 2.612 85.0494 2.68 85.0494 2.768V4.76H86.5494C86.6374 4.76 86.7054 4.788 86.7534 4.844C86.8094 4.892 86.8374 4.96 86.8374 5.048V5.732C86.8374 5.82 86.8094 5.892 86.7534 5.948C86.6974 6.004 86.6294 6.032 86.5494 6.032H85.0494V8.636C85.0494 8.98 85.1094 9.24 85.2294 9.416C85.3494 9.592 85.5494 9.68 85.8294 9.68H86.6574C86.7374 9.68 86.8054 9.708 86.8614 9.764C86.9174 9.82 86.9454 9.888 86.9454 9.968V10.712C86.9454 10.792 86.9174 10.86 86.8614 10.916C86.8134 10.972 86.7454 11 86.6574 11H85.6854ZM1.08 27C1 27 0.932 26.972 0.876 26.916C0.82 26.86 0.792 26.792 0.792 26.712V21.048C0.792 20.968 0.82 20.9 0.876 20.844C0.932 20.788 1 20.76 1.08 20.76H2.016C2.096 20.76 2.164 20.788 2.22 20.844C2.276 20.9 2.304 20.968 2.304 21.048V21.456C2.72 20.912 3.3 20.64 4.044 20.64C4.932 20.64 5.552 20.996 5.904 21.708C6.096 21.388 6.368 21.132 6.72 20.94C7.072 20.74 7.452 20.64 7.86 20.64C8.516 20.64 9.052 20.864 9.468 21.312C9.884 21.76 10.092 22.412 10.092 23.268V26.712C10.092 26.792 10.064 26.86 10.008 26.916C9.96 26.972 9.892 27 9.804 27H8.82C8.74 27 8.672 26.972 8.616 26.916C8.56 26.86 8.532 26.792 8.532 26.712V23.364C8.532 22.86 8.424 22.496 8.208 22.272C8 22.04 7.72 21.924 7.368 21.924C7.056 21.924 6.788 22.04 6.564 22.272C6.348 22.504 6.24 22.868 6.24 23.364V26.712C6.24 26.792 6.212 26.86 6.156 26.916C6.1 26.972 6.032 27 5.952 27H4.968C4.888 27 4.82 26.972 4.764 26.916C4.708 26.86 4.68 26.792 4.68 26.712V23.364C4.68 22.86 4.568 22.496 4.344 22.272C4.128 22.04 3.852 21.924 3.516 21.924C3.196 21.924 2.924 22.04 2.7 22.272C2.484 22.504 2.376 22.868 2.376 23.364V26.712C2.376 26.792 2.348 26.86 2.292 26.916C2.236 26.972 2.168 27 2.088 27H1.08ZM12.4601 19.728C12.3801 19.728 12.3121 19.7 12.2561 19.644C12.2001 19.588 12.1721 19.52 12.1721 19.44V18.576C12.1721 18.496 12.2001 18.428 12.2561 18.372C12.3121 18.316 12.3801 18.288 12.4601 18.288H13.5521C13.6321 18.288 13.7001 18.316 13.7561 18.372C13.8201 18.428 13.8521 18.496 13.8521 18.576V19.44C13.8521 19.52 13.8241 19.588 13.7681 19.644C13.7121 19.7 13.6401 19.728 13.5521 19.728H12.4601ZM12.5081 27C12.4281 27 12.3601 26.972 12.3041 26.916C12.2481 26.86 12.2201 26.792 12.2201 26.712V21.048C12.2201 20.968 12.2481 20.9 12.3041 20.844C12.3601 20.788 12.4281 20.76 12.5081 20.76H13.5041C13.5921 20.76 13.6601 20.788 13.7081 20.844C13.7641 20.892 13.7921 20.96 13.7921 21.048V26.712C13.7921 26.792 13.7641 26.86 13.7081 26.916C13.6601 26.972 13.5921 27 13.5041 27H12.5081ZM18.8042 27C18.0762 27 17.5282 26.812 17.1602 26.436C16.8002 26.052 16.6202 25.492 16.6202 24.756V22.032H15.6722C15.5922 22.032 15.5242 22.004 15.4682 21.948C15.4122 21.884 15.3842 21.812 15.3842 21.732V21.048C15.3842 20.968 15.4122 20.9 15.4682 20.844C15.5242 20.788 15.5922 20.76 15.6722 20.76H16.6202V18.768C16.6202 18.68 16.6482 18.612 16.7042 18.564C16.7602 18.508 16.8282 18.48 16.9082 18.48H17.8802C17.9682 18.48 18.0362 18.508 18.0842 18.564C18.1402 18.612 18.1682 18.68 18.1682 18.768V20.76H19.6682C19.7562 20.76 19.8242 20.788 19.8722 20.844C19.9282 20.892 19.9562 20.96 19.9562 21.048V21.732C19.9562 21.82 19.9282 21.892 19.8722 21.948C19.8162 22.004 19.7482 22.032 19.6682 22.032H18.1682V24.636C18.1682 24.98 18.2282 25.24 18.3482 25.416C18.4682 25.592 18.6682 25.68 18.9482 25.68H19.7762C19.8562 25.68 19.9242 25.708 19.9802 25.764C20.0362 25.82 20.0642 25.888 20.0642 25.968V26.712C20.0642 26.792 20.0362 26.86 19.9802 26.916C19.9322 26.972 19.8642 27 19.7762 27H18.8042ZM24.5487 27C23.8207 27 23.2727 26.812 22.9047 26.436C22.5447 26.052 22.3647 25.492 22.3647 24.756V22.032H21.4167C21.3367 22.032 21.2687 22.004 21.2127 21.948C21.1567 21.884 21.1287 21.812 21.1287 21.732V21.048C21.1287 20.968 21.1567 20.9 21.2127 20.844C21.2687 20.788 21.3367 20.76 21.4167 20.76H22.3647V18.768C22.3647 18.68 22.3927 18.612 22.4487 18.564C22.5047 18.508 22.5727 18.48 22.6527 18.48H23.6247C23.7127 18.48 23.7807 18.508 23.8287 18.564C23.8847 18.612 23.9127 18.68 23.9127 18.768V20.76H25.4127C25.5007 20.76 25.5687 20.788 25.6167 20.844C25.6727 20.892 25.7007 20.96 25.7007 21.048V21.732C25.7007 21.82 25.6727 21.892 25.6167 21.948C25.5607 22.004 25.4927 22.032 25.4127 22.032H23.9127V24.636C23.9127 24.98 23.9727 25.24 24.0927 25.416C24.2127 25.592 24.4127 25.68 24.6927 25.68H25.5207C25.6007 25.68 25.6687 25.708 25.7247 25.764C25.7807 25.82 25.8087 25.888 25.8087 25.968V26.712C25.8087 26.792 25.7807 26.86 25.7247 26.916C25.6767 26.972 25.6087 27 25.5207 27H24.5487ZM27.7732 27C27.6932 27 27.6252 26.972 27.5692 26.916C27.5132 26.86 27.4852 26.792 27.4852 26.712V18.768C27.4852 18.68 27.5132 18.612 27.5692 18.564C27.6252 18.508 27.6932 18.48 27.7732 18.48H28.7692C28.8572 18.48 28.9252 18.508 28.9732 18.564C29.0292 18.612 29.0572 18.68 29.0572 18.768V26.712C29.0572 26.792 29.0292 26.86 28.9732 26.916C28.9252 26.972 28.8572 27 28.7692 27H27.7732ZM33.937 27.12C33.049 27.12 32.341 26.864 31.813 26.352C31.293 25.832 31.017 25.104 30.985 24.168L30.973 23.868L30.985 23.568C31.025 22.656 31.305 21.94 31.825 21.42C32.353 20.9 33.057 20.64 33.937 20.64C34.881 20.64 35.609 20.928 36.121 21.504C36.641 22.08 36.901 22.848 36.901 23.808V24.06C36.901 24.14 36.873 24.208 36.817 24.264C36.761 24.32 36.689 24.348 36.601 24.348H32.617V24.444C32.633 24.884 32.753 25.256 32.977 25.56C33.209 25.856 33.525 26.004 33.925 26.004C34.397 26.004 34.777 25.82 35.065 25.452C35.137 25.364 35.193 25.308 35.233 25.284C35.281 25.26 35.349 25.248 35.437 25.248H36.469C36.541 25.248 36.601 25.272 36.649 25.32C36.705 25.36 36.733 25.412 36.733 25.476C36.733 25.668 36.617 25.896 36.385 26.16C36.161 26.416 35.837 26.64 35.413 26.832C34.989 27.024 34.497 27.12 33.937 27.12ZM35.269 23.34V23.304C35.269 22.832 35.149 22.452 34.909 22.164C34.677 21.876 34.353 21.732 33.937 21.732C33.521 21.732 33.197 21.876 32.965 22.164C32.733 22.452 32.617 22.832 32.617 23.304V23.34H35.269ZM39.0628 27C38.9828 27 38.9148 26.972 38.8588 26.916C38.8028 26.86 38.7748 26.792 38.7748 26.712V21.06C38.7748 20.98 38.8028 20.912 38.8588 20.856C38.9148 20.792 38.9828 20.76 39.0628 20.76H40.0348C40.1228 20.76 40.1948 20.788 40.2508 20.844C40.3068 20.9 40.3348 20.972 40.3348 21.06V21.552C40.5268 21.296 40.7668 21.1 41.0548 20.964C41.3508 20.828 41.6868 20.76 42.0628 20.76H42.5548C42.6428 20.76 42.7108 20.788 42.7588 20.844C42.8148 20.892 42.8428 20.96 42.8428 21.048V21.912C42.8428 21.992 42.8148 22.06 42.7588 22.116C42.7108 22.172 42.6428 22.2 42.5548 22.2H41.6188C41.2428 22.2 40.9468 22.308 40.7308 22.524C40.5148 22.74 40.4068 23.036 40.4068 23.412V26.712C40.4068 26.792 40.3788 26.86 40.3228 26.916C40.2668 26.972 40.1948 27 40.1068 27H39.0628ZM46.9847 27.12C46.0967 27.12 45.3887 26.864 44.8607 26.352C44.3407 25.832 44.0647 25.104 44.0327 24.168L44.0207 23.868L44.0327 23.568C44.0727 22.656 44.3527 21.94 44.8727 21.42C45.4007 20.9 46.1047 20.64 46.9847 20.64C47.9287 20.64 48.6567 20.928 49.1687 21.504C49.6887 22.08 49.9487 22.848 49.9487 23.808V24.06C49.9487 24.14 49.9207 24.208 49.8647 24.264C49.8087 24.32 49.7367 24.348 49.6487 24.348H45.6647V24.444C45.6807 24.884 45.8007 25.256 46.0247 25.56C46.2567 25.856 46.5727 26.004 46.9727 26.004C47.4447 26.004 47.8247 25.82 48.1127 25.452C48.1847 25.364 48.2407 25.308 48.2807 25.284C48.3287 25.26 48.3967 25.248 48.4847 25.248H49.5167C49.5887 25.248 49.6487 25.272 49.6967 25.32C49.7527 25.36 49.7807 25.412 49.7807 25.476C49.7807 25.668 49.6647 25.896 49.4327 26.16C49.2087 26.416 48.8847 26.64 48.4607 26.832C48.0367 27.024 47.5447 27.12 46.9847 27.12ZM48.3167 23.34V23.304C48.3167 22.832 48.1967 22.452 47.9567 22.164C47.7247 21.876 47.4007 21.732 46.9847 21.732C46.5687 21.732 46.2447 21.876 46.0127 22.164C45.7807 22.452 45.6647 22.832 45.6647 23.304V23.34H48.3167ZM52.1105 27C52.0305 27 51.9625 26.972 51.9065 26.916C51.8505 26.86 51.8225 26.792 51.8225 26.712V21.048C51.8225 20.968 51.8505 20.9 51.9065 20.844C51.9625 20.788 52.0305 20.76 52.1105 20.76H53.0465C53.1265 20.76 53.1945 20.788 53.2505 20.844C53.3065 20.9 53.3345 20.968 53.3345 21.048V21.456C53.7505 20.912 54.3305 20.64 55.0745 20.64C55.9625 20.64 56.5825 20.996 56.9345 21.708C57.1265 21.388 57.3985 21.132 57.7505 20.94C58.1025 20.74 58.4825 20.64 58.8905 20.64C59.5465 20.64 60.0825 20.864 60.4985 21.312C60.9145 21.76 61.1225 22.412 61.1225 23.268V26.712C61.1225 26.792 61.0945 26.86 61.0385 26.916C60.9905 26.972 60.9225 27 60.8345 27H59.8505C59.7705 27 59.7025 26.972 59.6465 26.916C59.5905 26.86 59.5625 26.792 59.5625 26.712V23.364C59.5625 22.86 59.4545 22.496 59.2385 22.272C59.0305 22.04 58.7505 21.924 58.3985 21.924C58.0865 21.924 57.8185 22.04 57.5945 22.272C57.3785 22.504 57.2705 22.868 57.2705 23.364V26.712C57.2705 26.792 57.2425 26.86 57.1865 26.916C57.1305 26.972 57.0625 27 56.9825 27H55.9985C55.9185 27 55.8505 26.972 55.7945 26.916C55.7385 26.86 55.7105 26.792 55.7105 26.712V23.364C55.7105 22.86 55.5985 22.496 55.3745 22.272C55.1585 22.04 54.8825 21.924 54.5465 21.924C54.2265 21.924 53.9545 22.04 53.7305 22.272C53.5145 22.504 53.4065 22.868 53.4065 23.364V26.712C53.4065 26.792 53.3785 26.86 53.3225 26.916C53.2665 26.972 53.1985 27 53.1185 27H52.1105ZM67.0248 27C66.9448 27 66.8768 26.972 66.8208 26.916C66.7648 26.86 66.7368 26.792 66.7368 26.712V18.9C66.7368 18.812 66.7608 18.74 66.8088 18.684C66.8648 18.628 66.9368 18.6 67.0248 18.6H72.3048C72.3928 18.6 72.4648 18.628 72.5208 18.684C72.5768 18.74 72.6048 18.812 72.6048 18.9V19.692C72.6048 19.78 72.5768 19.852 72.5208 19.908C72.4648 19.956 72.3928 19.98 72.3048 19.98H68.3568V22.104H72.0408C72.1288 22.104 72.2008 22.132 72.2568 22.188C72.3128 22.236 72.3408 22.304 72.3408 22.392V23.136C72.3408 23.224 72.3128 23.296 72.2568 23.352C72.2008 23.4 72.1288 23.424 72.0408 23.424H68.3568V25.62H72.4008C72.4888 25.62 72.5608 25.648 72.6168 25.704C72.6728 25.76 72.7008 25.832 72.7008 25.92V26.712C72.7008 26.8 72.6728 26.872 72.6168 26.928C72.5608 26.976 72.4888 27 72.4008 27H67.0248ZM74.8976 19.728C74.8176 19.728 74.7496 19.7 74.6936 19.644C74.6376 19.588 74.6096 19.52 74.6096 19.44V18.576C74.6096 18.496 74.6376 18.428 74.6936 18.372C74.7496 18.316 74.8176 18.288 74.8976 18.288H75.9896C76.0696 18.288 76.1376 18.316 76.1936 18.372C76.2576 18.428 76.2896 18.496 76.2896 18.576V19.44C76.2896 19.52 76.2616 19.588 76.2056 19.644C76.1496 19.7 76.0776 19.728 75.9896 19.728H74.8976ZM74.9456 27C74.8656 27 74.7976 26.972 74.7416 26.916C74.6856 26.86 74.6576 26.792 74.6576 26.712V21.048C74.6576 20.968 74.6856 20.9 74.7416 20.844C74.7976 20.788 74.8656 20.76 74.9456 20.76H75.9416C76.0296 20.76 76.0976 20.788 76.1456 20.844C76.2016 20.892 76.2296 20.96 76.2296 21.048V26.712C76.2296 26.792 76.2016 26.86 76.1456 26.916C76.0976 26.972 76.0296 27 75.9416 27H74.9456ZM78.7097 27C78.6297 27 78.5617 26.972 78.5057 26.916C78.4497 26.86 78.4217 26.792 78.4217 26.712V21.048C78.4217 20.968 78.4497 20.9 78.5057 20.844C78.5617 20.788 78.6297 20.76 78.7097 20.76H79.6937C79.7737 20.76 79.8417 20.788 79.8977 20.844C79.9537 20.9 79.9817 20.968 79.9817 21.048V21.54C80.4537 20.94 81.1217 20.64 81.9857 20.64C82.7217 20.64 83.3057 20.884 83.7377 21.372C84.1697 21.852 84.3857 22.508 84.3857 23.34V26.712C84.3857 26.792 84.3577 26.86 84.3017 26.916C84.2537 26.972 84.1857 27 84.0977 27H83.0417C82.9617 27 82.8937 26.972 82.8377 26.916C82.7817 26.86 82.7537 26.792 82.7537 26.712V23.412C82.7537 22.94 82.6377 22.576 82.4057 22.32C82.1817 22.056 81.8537 21.924 81.4217 21.924C80.9977 21.924 80.6617 22.056 80.4137 22.32C80.1737 22.584 80.0537 22.948 80.0537 23.412V26.712C80.0537 26.792 80.0257 26.86 79.9697 26.916C79.9217 26.972 79.8537 27 79.7657 27H78.7097ZM86.81 27C86.73 27 86.662 26.972 86.606 26.916C86.55 26.86 86.522 26.792 86.522 26.712V18.768C86.522 18.68 86.55 18.612 86.606 18.564C86.662 18.508 86.73 18.48 86.81 18.48H87.782C87.87 18.48 87.938 18.508 87.986 18.564C88.042 18.612 88.07 18.68 88.07 18.768V22.872L90.086 20.964C90.11 20.948 90.15 20.916 90.206 20.868C90.254 20.828 90.302 20.8 90.35 20.784C90.398 20.768 90.458 20.76 90.53 20.76H91.646C91.726 20.76 91.79 20.784 91.838 20.832C91.886 20.88 91.91 20.944 91.91 21.024C91.91 21.096 91.87 21.168 91.79 21.24L89.318 23.556L92.09 26.532C92.17 26.612 92.21 26.68 92.21 26.736C92.21 26.816 92.182 26.88 92.126 26.928C92.078 26.976 92.018 27 91.946 27H90.806C90.694 27 90.61 26.988 90.554 26.964C90.506 26.932 90.442 26.876 90.362 26.796L88.07 24.384V26.712C88.07 26.792 88.042 26.86 87.986 26.916C87.938 26.972 87.87 27 87.782 27H86.81ZM96.1747 27.12C95.2387 27.12 94.5147 26.88 94.0027 26.4C93.4907 25.912 93.2147 25.248 93.1747 24.408L93.1627 23.88L93.1747 23.352C93.2147 22.52 93.4947 21.86 94.0147 21.372C94.5347 20.884 95.2547 20.64 96.1747 20.64C97.0947 20.64 97.8147 20.884 98.3347 21.372C98.8547 21.86 99.1347 22.52 99.1747 23.352C99.1827 23.448 99.1867 23.624 99.1867 23.88C99.1867 24.136 99.1827 24.312 99.1747 24.408C99.1347 25.248 98.8587 25.912 98.3467 26.4C97.8347 26.88 97.1107 27.12 96.1747 27.12ZM96.1747 25.932C96.5987 25.932 96.9267 25.8 97.1587 25.536C97.3907 25.264 97.5187 24.868 97.5427 24.348C97.5507 24.268 97.5547 24.112 97.5547 23.88C97.5547 23.648 97.5507 23.492 97.5427 23.412C97.5187 22.892 97.3907 22.5 97.1587 22.236C96.9267 21.964 96.5987 21.828 96.1747 21.828C95.7507 21.828 95.4227 21.964 95.1907 22.236C94.9587 22.5 94.8307 22.892 94.8067 23.412L94.7947 23.88L94.8067 24.348C94.8307 24.868 94.9587 25.264 95.1907 25.536C95.4227 25.8 95.7507 25.932 96.1747 25.932ZM101.404 27C101.324 27 101.256 26.972 101.2 26.916C101.144 26.86 101.116 26.792 101.116 26.712V21.048C101.116 20.968 101.144 20.9 101.2 20.844C101.256 20.788 101.324 20.76 101.404 20.76H102.34C102.42 20.76 102.488 20.788 102.544 20.844C102.6 20.9 102.628 20.968 102.628 21.048V21.456C103.044 20.912 103.624 20.64 104.368 20.64C105.256 20.64 105.876 20.996 106.228 21.708C106.42 21.388 106.692 21.132 107.044 20.94C107.396 20.74 107.776 20.64 108.184 20.64C108.84 20.64 109.376 20.864 109.792 21.312C110.208 21.76 110.416 22.412 110.416 23.268V26.712C110.416 26.792 110.388 26.86 110.332 26.916C110.284 26.972 110.216 27 110.128 27H109.144C109.064 27 108.996 26.972 108.94 26.916C108.884 26.86 108.856 26.792 108.856 26.712V23.364C108.856 22.86 108.748 22.496 108.532 22.272C108.324 22.04 108.044 21.924 107.692 21.924C107.38 21.924 107.112 22.04 106.888 22.272C106.672 22.504 106.564 22.868 106.564 23.364V26.712C106.564 26.792 106.536 26.86 106.48 26.916C106.424 26.972 106.356 27 106.276 27H105.292C105.212 27 105.144 26.972 105.088 26.916C105.032 26.86 105.004 26.792 105.004 26.712V23.364C105.004 22.86 104.892 22.496 104.668 22.272C104.452 22.04 104.176 21.924 103.84 21.924C103.52 21.924 103.248 22.04 103.024 22.272C102.808 22.504 102.7 22.868 102.7 23.364V26.712C102.7 26.792 102.672 26.86 102.616 26.916C102.56 26.972 102.492 27 102.412 27H101.404ZM112.832 27C112.752 27 112.684 26.972 112.628 26.916C112.572 26.86 112.544 26.792 112.544 26.712V21.048C112.544 20.968 112.572 20.9 112.628 20.844C112.684 20.788 112.752 20.76 112.832 20.76H113.768C113.848 20.76 113.916 20.788 113.972 20.844C114.028 20.9 114.056 20.968 114.056 21.048V21.456C114.472 20.912 115.052 20.64 115.796 20.64C116.684 20.64 117.304 20.996 117.656 21.708C117.848 21.388 118.12 21.132 118.472 20.94C118.824 20.74 119.204 20.64 119.612 20.64C120.268 20.64 120.804 20.864 121.22 21.312C121.636 21.76 121.844 22.412 121.844 23.268V26.712C121.844 26.792 121.816 26.86 121.76 26.916C121.712 26.972 121.644 27 121.556 27H120.572C120.492 27 120.424 26.972 120.368 26.916C120.312 26.86 120.284 26.792 120.284 26.712V23.364C120.284 22.86 120.176 22.496 119.96 22.272C119.752 22.04 119.472 21.924 119.12 21.924C118.808 21.924 118.54 22.04 118.316 22.272C118.1 22.504 117.992 22.868 117.992 23.364V26.712C117.992 26.792 117.964 26.86 117.908 26.916C117.852 26.972 117.784 27 117.704 27H116.72C116.64 27 116.572 26.972 116.516 26.916C116.46 26.86 116.432 26.792 116.432 26.712V23.364C116.432 22.86 116.32 22.496 116.096 22.272C115.88 22.04 115.604 21.924 115.268 21.924C114.948 21.924 114.676 22.04 114.452 22.272C114.236 22.504 114.128 22.868 114.128 23.364V26.712C114.128 26.792 114.1 26.86 114.044 26.916C113.988 26.972 113.92 27 113.84 27H112.832ZM126.66 27.12C125.772 27.12 125.064 26.864 124.536 26.352C124.016 25.832 123.74 25.104 123.708 24.168L123.696 23.868L123.708 23.568C123.748 22.656 124.028 21.94 124.548 21.42C125.076 20.9 125.78 20.64 126.66 20.64C127.604 20.64 128.332 20.928 128.844 21.504C129.364 22.08 129.624 22.848 129.624 23.808V24.06C129.624 24.14 129.596 24.208 129.54 24.264C129.484 24.32 129.412 24.348 129.324 24.348H125.34V24.444C125.356 24.884 125.476 25.256 125.7 25.56C125.932 25.856 126.248 26.004 126.648 26.004C127.12 26.004 127.5 25.82 127.788 25.452C127.86 25.364 127.916 25.308 127.956 25.284C128.004 25.26 128.072 25.248 128.16 25.248H129.192C129.264 25.248 129.324 25.272 129.372 25.32C129.428 25.36 129.456 25.412 129.456 25.476C129.456 25.668 129.34 25.896 129.108 26.16C128.884 26.416 128.56 26.64 128.136 26.832C127.712 27.024 127.22 27.12 126.66 27.12ZM127.992 23.34V23.304C127.992 22.832 127.872 22.452 127.632 22.164C127.4 21.876 127.076 21.732 126.66 21.732C126.244 21.732 125.92 21.876 125.688 22.164C125.456 22.452 125.34 22.832 125.34 23.304V23.34H127.992ZM131.786 27C131.706 27 131.638 26.972 131.582 26.916C131.526 26.86 131.498 26.792 131.498 26.712V21.048C131.498 20.968 131.526 20.9 131.582 20.844C131.638 20.788 131.706 20.76 131.786 20.76H132.77C132.85 20.76 132.918 20.788 132.974 20.844C133.03 20.9 133.058 20.968 133.058 21.048V21.54C133.53 20.94 134.198 20.64 135.062 20.64C135.798 20.64 136.382 20.884 136.814 21.372C137.246 21.852 137.462 22.508 137.462 23.34V26.712C137.462 26.792 137.434 26.86 137.378 26.916C137.33 26.972 137.262 27 137.174 27H136.118C136.038 27 135.97 26.972 135.914 26.916C135.858 26.86 135.83 26.792 135.83 26.712V23.412C135.83 22.94 135.714 22.576 135.482 22.32C135.258 22.056 134.93 21.924 134.498 21.924C134.074 21.924 133.738 22.056 133.49 22.32C133.25 22.584 133.13 22.948 133.13 23.412V26.712C133.13 26.792 133.102 26.86 133.046 26.916C132.998 26.972 132.93 27 132.842 27H131.786Z" fill="#333333"/>
<path d="M402.5 39.7998H356V79.7998H402.5V39.7998Z" fill="#F1EEF6"/>
<mask id="mask0" mask-type="alpha" maskUnits="userSpaceOnUse" x="312" y="38" width="131" height="44">
<line x1="354.707" y1="38.7071" x2="312.707" y2="80.7071" stroke="white" stroke-width="2"/>
<line x1="362.707" y1="38.7071" x2="320.707" y2="80.7071" stroke="white" stroke-width="2"/>
<line x1="433.707" y1="38.7071" x2="391.707" y2="80.7071" stroke="white" stroke-width="2"/>
<line x1="441.707" y1="38.7071" x2="399.707" y2="80.7071" stroke="white" stroke-width="2"/>
<line x1="370.707" y1="38.7071" x2="328.707" y2="80.7071" stroke="white" stroke-width="2"/>
<line x1="378.707" y1="38.7071" x2="336.707" y2="80.7071" stroke="white" stroke-width="2"/>
<line x1="386.707" y1="38.7071" x2="344.707" y2="80.7071" stroke="white" stroke-width="2"/>
<line x1="393.707" y1="38.7071" x2="351.707" y2="80.7071" stroke="white" stroke-width="2"/>
<line x1="401.707" y1="38.7071" x2="359.707" y2="80.7071" stroke="white" stroke-width="2"/>
<line x1="409.707" y1="38.7071" x2="367.707" y2="80.7071" stroke="white" stroke-width="2"/>
<line x1="417.707" y1="38.7071" x2="375.707" y2="80.7071" stroke="white" stroke-width="2"/>
<line x1="425.707" y1="38.7071" x2="383.707" y2="80.7071" stroke="white" stroke-width="2"/>
</mask>
<g mask="url(#mask0)">
<path d="M402.5 39.7998H356V79.7998H402.5V39.7998Z" fill="#E0E0E0"/>
</g>
<path d="M351 39.7998H331.6V79.7998H351V39.7998Z" fill="#034E7B"/>
<mask id="mask1" mask-type="alpha" maskUnits="userSpaceOnUse" x="163" y="38" width="284" height="44">
<line x1="205.707" y1="38.7071" x2="163.707" y2="80.7071" stroke="#C2DBFF" stroke-width="2"/>
<line x1="213.707" y1="38.7071" x2="171.707" y2="80.7071" stroke="#C2DBFF" stroke-width="2"/>
<line x1="221.707" y1="38.7071" x2="179.707" y2="80.7071" stroke="#C2DBFF" stroke-width="2"/>
<line x1="229.707" y1="38.7071" x2="187.707" y2="80.7071" stroke="#C2DBFF" stroke-width="2"/>
<line x1="237.707" y1="38.7071" x2="195.707" y2="80.7071" stroke="#C2DBFF" stroke-width="2"/>
<line x1="245.707" y1="38.7071" x2="203.707" y2="80.7071" stroke="#C2DBFF" stroke-width="2"/>
<line x1="253.707" y1="38.7071" x2="211.707" y2="80.7071" stroke="#C2DBFF" stroke-width="2"/>
<line x1="261.707" y1="38.7071" x2="219.707" y2="80.7071" stroke="#C2DBFF" stroke-width="2"/>
<line x1="269.707" y1="38.7071" x2="227.707" y2="80.7071" stroke="#C2DBFF" stroke-width="2"/>
<line x1="277.707" y1="38.7071" x2="235.707" y2="80.7071" stroke="#C2DBFF" stroke-width="2"/>
<line x1="285.707" y1="38.7071" x2="243.707" y2="80.7071" stroke="#C2DBFF" stroke-width="2"/>
<line x1="293.707" y1="38.7071" x2="251.707" y2="80.7071" stroke="#C2DBFF" stroke-width="2"/>
<line x1="301.707" y1="38.7071" x2="259.707" y2="80.7071" stroke="#C2DBFF" stroke-width="2"/>
<line x1="309.707" y1="38.7071" x2="267.707" y2="80.7071" stroke="#C2DBFF" stroke-width="2"/>
<line x1="317.707" y1="38.7071" x2="275.707" y2="80.7071" stroke="#C2DBFF" stroke-width="2"/>
<line x1="325.707" y1="38.7071" x2="283.707" y2="80.7071" stroke="#C2DBFF" stroke-width="2"/>
<line x1="333.707" y1="38.7071" x2="291.707" y2="80.7071" stroke="#C2DBFF" stroke-width="2"/>
<line x1="341.707" y1="38.7071" x2="299.707" y2="80.7071" stroke="#C2DBFF" stroke-width="2"/>
<line x1="349.707" y1="38.7071" x2="307.707" y2="80.7071" stroke="#C2DBFF" stroke-width="2"/>
<line x1="357.707" y1="38.7071" x2="315.707" y2="80.7071" stroke="#C2DBFF" stroke-width="2"/>
<line x1="365.707" y1="38.7071" x2="323.707" y2="80.7071" stroke="#C2DBFF" stroke-width="2"/>
<line x1="373.707" y1="38.7071" x2="331.707" y2="80.7071" stroke="#C2DBFF" stroke-width="2"/>
<line x1="381.707" y1="38.7071" x2="339.707" y2="80.7071" stroke="#C2DBFF" stroke-width="2"/>
<line x1="389.707" y1="38.7071" x2="347.707" y2="80.7071" stroke="#C2DBFF" stroke-width="2"/>
<line x1="397.707" y1="38.7071" x2="355.707" y2="80.7071" stroke="#C2DBFF" stroke-width="2"/>
<line x1="405.707" y1="38.7071" x2="363.707" y2="80.7071" stroke="#C2DBFF" stroke-width="2"/>
<line x1="413.707" y1="38.7071" x2="371.707" y2="80.7071" stroke="#C2DBFF" stroke-width="2"/>
<line x1="421.707" y1="38.7071" x2="379.707" y2="80.7071" stroke="#C2DBFF" stroke-width="2"/>
<line x1="429.707" y1="38.7071" x2="387.707" y2="80.7071" stroke="#C2DBFF" stroke-width="2"/>
<line x1="437.707" y1="38.7071" x2="395.707" y2="80.7071" stroke="#C2DBFF" stroke-width="2"/>
<line x1="445.707" y1="38.7071" x2="403.707" y2="80.7071" stroke="#C2DBFF" stroke-width="2"/>
</mask>
<g mask="url(#mask1)">
<path d="M351 39.7998H331.6V79.7998H351V39.7998Z" fill="#046AA7"/>
</g>
<path d="M326.6 39.7998H249.1V79.7998H326.6V39.7998Z" fill="#0570B0"/>
<mask id="mask2" mask-type="alpha" maskUnits="userSpaceOnUse" x="83" y="38" width="284" height="44">
<line x1="125.707" y1="38.7071" x2="83.7071" y2="80.7071" stroke="#A55F8A" stroke-width="2"/>
<line x1="133.707" y1="38.7071" x2="91.7071" y2="80.7071" stroke="#A55F8A" stroke-width="2"/>
<line x1="141.707" y1="38.7071" x2="99.7071" y2="80.7071" stroke="#A55F8A" stroke-width="2"/>
<line x1="149.707" y1="38.7071" x2="107.707" y2="80.7071" stroke="#A55F8A" stroke-width="2"/>
<line x1="157.707" y1="38.7071" x2="115.707" y2="80.7071" stroke="#A55F8A" stroke-width="2"/>
<line x1="165.707" y1="38.7071" x2="123.707" y2="80.7071" stroke="#A55F8A" stroke-width="2"/>
<line x1="173.707" y1="38.7071" x2="131.707" y2="80.7071" stroke="#A55F8A" stroke-width="2"/>
<line x1="181.707" y1="38.7071" x2="139.707" y2="80.7071" stroke="#A55F8A" stroke-width="2"/>
<line x1="189.707" y1="38.7071" x2="147.707" y2="80.7071" stroke="#A55F8A" stroke-width="2"/>
<line x1="197.707" y1="38.7071" x2="155.707" y2="80.7071" stroke="#A55F8A" stroke-width="2"/>
<line x1="205.707" y1="38.7071" x2="163.707" y2="80.7071" stroke="#A55F8A" stroke-width="2"/>
<line x1="213.707" y1="38.7071" x2="171.707" y2="80.7071" stroke="#A55F8A" stroke-width="2"/>
<line x1="221.707" y1="38.7071" x2="179.707" y2="80.7071" stroke="#A55F8A" stroke-width="2"/>
<line x1="229.707" y1="38.7071" x2="187.707" y2="80.7071" stroke="#A55F8A" stroke-width="2"/>
<line x1="237.707" y1="38.7071" x2="195.707" y2="80.7071" stroke="#A55F8A" stroke-width="2"/>
<line x1="245.707" y1="38.7071" x2="203.707" y2="80.7071" stroke="#A55F8A" stroke-width="2"/>
<line x1="253.707" y1="38.7071" x2="211.707" y2="80.7071" stroke="#A55F8A" stroke-width="2"/>
<line x1="261.707" y1="38.7071" x2="219.707" y2="80.7071" stroke="#A55F8A" stroke-width="2"/>
<line x1="269.707" y1="38.7071" x2="227.707" y2="80.7071" stroke="#A55F8A" stroke-width="2"/>
<line x1="277.707" y1="38.7071" x2="235.707" y2="80.7071" stroke="#A55F8A" stroke-width="2"/>
<line x1="285.707" y1="38.7071" x2="243.707" y2="80.7071" stroke="#A55F8A" stroke-width="2"/>
<line x1="293.707" y1="38.7071" x2="251.707" y2="80.7071" stroke="#A55F8A" stroke-width="2"/>
<line x1="301.707" y1="38.7071" x2="259.707" y2="80.7071" stroke="#A55F8A" stroke-width="2"/>
<line x1="309.707" y1="38.7071" x2="267.707" y2="80.7071" stroke="#A55F8A" stroke-width="2"/>
<line x1="317.707" y1="38.7071" x2="275.707" y2="80.7071" stroke="#A55F8A" stroke-width="2"/>
<line x1="325.707" y1="38.7071" x2="283.707" y2="80.7071" stroke="#A55F8A" stroke-width="2"/>
<line x1="333.707" y1="38.7071" x2="291.707" y2="80.7071" stroke="#A55F8A" stroke-width="2"/>
<line x1="341.707" y1="38.7071" x2="299.707" y2="80.7071" stroke="#A55F8A" stroke-width="2"/>
<line x1="349.707" y1="38.7071" x2="307.707" y2="80.7071" stroke="#A55F8A" stroke-width="2"/>
<line x1="357.707" y1="38.7071" x2="315.707" y2="80.7071" stroke="#A55F8A" stroke-width="2"/>
<line x1="365.707" y1="38.7071" x2="323.707" y2="80.7071" stroke="#A55F8A" stroke-width="2"/>
</mask>
<g mask="url(#mask2)">
<path d="M326.6 39.7998H249.1V79.7998H326.6V39.7998Z" fill="#0991E2"/>
</g>
<path d="M244.1 39.7998H0V79.7998H244.1V39.7998Z" fill="#A6BDDD"/>
<mask id="mask3" mask-type="alpha" maskUnits="userSpaceOnUse" x="-45" y="38" width="404" height="44">
<line x1="5.70711" y1="38.7071" x2="-36.2929" y2="80.7071" stroke="#6B6B6B" stroke-width="2"/>
<line x1="13.7071" y1="38.7071" x2="-28.2929" y2="80.7071" stroke="#6B6B6B" stroke-width="2"/>
<line x1="21.7071" y1="38.7071" x2="-20.2929" y2="80.7071" stroke="#6B6B6B" stroke-width="2"/>
<line x1="29.7071" y1="38.7071" x2="-12.2929" y2="80.7071" stroke="#6B6B6B" stroke-width="2"/>
<line x1="37.7071" y1="38.7071" x2="-4.29289" y2="80.7071" stroke="#6B6B6B" stroke-width="2"/>
<line x1="45.7071" y1="38.7071" x2="3.70711" y2="80.7071" stroke="#6B6B6B" stroke-width="2"/>
<line x1="53.7071" y1="38.7071" x2="11.7071" y2="80.7071" stroke="#6B6B6B" stroke-width="2"/>
<line x1="61.7071" y1="38.7071" x2="19.7071" y2="80.7071" stroke="#6B6B6B" stroke-width="2"/>
<line x1="69.7071" y1="38.7071" x2="27.7071" y2="80.7071" stroke="#6B6B6B" stroke-width="2"/>
<line x1="77.7071" y1="38.7071" x2="35.7071" y2="80.7071" stroke="#6B6B6B" stroke-width="2"/>
<line x1="85.7071" y1="38.7071" x2="43.7071" y2="80.7071" stroke="#6B6B6B" stroke-width="2"/>
<line x1="93.7071" y1="38.7071" x2="51.7071" y2="80.7071" stroke="#6B6B6B" stroke-width="2"/>
<line x1="101.707" y1="38.7071" x2="59.7071" y2="80.7071" stroke="#6B6B6B" stroke-width="2"/>
<line x1="109.707" y1="38.7071" x2="67.7071" y2="80.7071" stroke="#6B6B6B" stroke-width="2"/>
<line x1="117.707" y1="38.7071" x2="75.7071" y2="80.7071" stroke="#6B6B6B" stroke-width="2"/>
<line x1="125.707" y1="38.7071" x2="83.7071" y2="80.7071" stroke="#6B6B6B" stroke-width="2"/>
<line x1="133.707" y1="38.7071" x2="91.7071" y2="80.7071" stroke="#6B6B6B" stroke-width="2"/>
<line x1="141.707" y1="38.7071" x2="99.7071" y2="80.7071" stroke="#6B6B6B" stroke-width="2"/>
<line x1="149.707" y1="38.7071" x2="107.707" y2="80.7071" stroke="#6B6B6B" stroke-width="2"/>
<line x1="157.707" y1="38.7071" x2="115.707" y2="80.7071" stroke="#6B6B6B" stroke-width="2"/>
<line x1="165.707" y1="38.7071" x2="123.707" y2="80.7071" stroke="#6B6B6B" stroke-width="2"/>
<line x1="173.707" y1="38.7071" x2="131.707" y2="80.7071" stroke="#6B6B6B" stroke-width="2"/>
<line x1="181.707" y1="38.7071" x2="139.707" y2="80.7071" stroke="#6B6B6B" stroke-width="2"/>
<line x1="189.707" y1="38.7071" x2="147.707" y2="80.7071" stroke="#6B6B6B" stroke-width="2"/>
<line x1="197.707" y1="38.7071" x2="155.707" y2="80.7071" stroke="#6B6B6B" stroke-width="2"/>
<line x1="205.707" y1="38.7071" x2="163.707" y2="80.7071" stroke="#6B6B6B" stroke-width="2"/>
<line x1="213.707" y1="38.7071" x2="171.707" y2="80.7071" stroke="#6B6B6B" stroke-width="2"/>
<line x1="221.707" y1="38.7071" x2="179.707" y2="80.7071" stroke="#6B6B6B" stroke-width="2"/>
<line x1="229.707" y1="38.7071" x2="187.707" y2="80.7071" stroke="#6B6B6B" stroke-width="2"/>
<line x1="237.707" y1="38.7071" x2="195.707" y2="80.7071" stroke="#6B6B6B" stroke-width="2"/>
<line x1="245.707" y1="38.7071" x2="203.707" y2="80.7071" stroke="#6B6B6B" stroke-width="2"/>
<line x1="253.707" y1="38.7071" x2="211.707" y2="80.7071" stroke="#6B6B6B" stroke-width="2"/>
<line x1="261.707" y1="38.7071" x2="219.707" y2="80.7071" stroke="#6B6B6B" stroke-width="2"/>
<line x1="269.707" y1="38.7071" x2="227.707" y2="80.7071" stroke="#6B6B6B" stroke-width="2"/>
<line x1="277.707" y1="38.7071" x2="235.707" y2="80.7071" stroke="#6B6B6B" stroke-width="2"/>
<line x1="285.707" y1="38.7071" x2="243.707" y2="80.7071" stroke="#6B6B6B" stroke-width="2"/>
<line x1="293.707" y1="38.7071" x2="251.707" y2="80.7071" stroke="#6B6B6B" stroke-width="2"/>
<line x1="301.707" y1="38.7071" x2="259.707" y2="80.7071" stroke="#6B6B6B" stroke-width="2"/>
<line x1="309.707" y1="38.7071" x2="267.707" y2="80.7071" stroke="#6B6B6B" stroke-width="2"/>
<line x1="317.707" y1="38.7071" x2="275.707" y2="80.7071" stroke="#6B6B6B" stroke-width="2"/>
<line x1="325.707" y1="38.7071" x2="283.707" y2="80.7071" stroke="#6B6B6B" stroke-width="2"/>
<line x1="333.707" y1="38.7071" x2="291.707" y2="80.7071" stroke="#6B6B6B" stroke-width="2"/>
<line x1="341.707" y1="38.7071" x2="299.707" y2="80.7071" stroke="#6B6B6B" stroke-width="2"/>
<line x1="349.707" y1="38.7071" x2="307.707" y2="80.7071" stroke="#6B6B6B" stroke-width="2"/>
<line x1="357.707" y1="38.7071" x2="315.707" y2="80.7071" stroke="#6B6B6B" stroke-width="2"/>
</mask>
<g mask="url(#mask3)">
<path d="M244.1 39.7998H0V79.7998H244.1V39.7998Z" fill="#C2DBFF"/>
</g>
<path d="M217.911 102.12C217.207 102.12 216.583 101.996 216.039 101.748C215.503 101.492 215.083 101.136 214.779 100.68C214.483 100.224 214.335 99.704 214.335 99.12C214.335 98.408 214.671 97.596 215.343 96.684L217.455 93.84C217.519 93.768 217.579 93.712 217.635 93.672C217.699 93.624 217.783 93.6 217.887 93.6H219.483C219.555 93.6 219.615 93.628 219.663 93.684C219.711 93.732 219.735 93.792 219.735 93.864C219.735 93.92 219.719 93.972 219.687 94.02L218.067 96.228C218.163 96.204 218.283 96.192 218.427 96.192C218.915 96.216 219.387 96.352 219.843 96.6C220.307 96.84 220.683 97.176 220.971 97.608C221.259 98.04 221.403 98.528 221.403 99.072C221.403 99.632 221.259 100.144 220.971 100.608C220.683 101.072 220.271 101.44 219.735 101.712C219.207 101.984 218.599 102.12 217.911 102.12ZM217.887 100.392C218.255 100.392 218.567 100.28 218.823 100.056C219.079 99.824 219.207 99.508 219.207 99.108C219.207 98.708 219.079 98.396 218.823 98.172C218.575 97.948 218.263 97.836 217.887 97.836C217.511 97.836 217.195 97.948 216.939 98.172C216.683 98.396 216.555 98.708 216.555 99.108C216.555 99.508 216.683 99.824 216.939 100.056C217.195 100.28 217.511 100.392 217.887 100.392ZM226.255 102.12C225.479 102.12 224.827 102 224.299 101.76C223.779 101.52 223.391 101.224 223.135 100.872C222.887 100.512 222.755 100.152 222.739 99.792C222.739 99.72 222.763 99.66 222.811 99.612C222.867 99.564 222.931 99.54 223.003 99.54H224.575C224.663 99.54 224.735 99.556 224.791 99.588C224.847 99.62 224.899 99.68 224.947 99.768C225.107 100.184 225.543 100.392 226.255 100.392C226.663 100.392 226.979 100.3 227.203 100.116C227.435 99.924 227.551 99.664 227.551 99.336C227.551 98.696 227.135 98.376 226.303 98.376H224.971C224.891 98.376 224.819 98.348 224.755 98.292C224.699 98.228 224.671 98.156 224.671 98.076V97.404C224.671 97.228 224.735 97.092 224.863 96.996L226.831 95.328H223.495C223.415 95.328 223.343 95.3 223.279 95.244C223.223 95.18 223.195 95.108 223.195 95.028V93.9C223.195 93.812 223.223 93.74 223.279 93.684C223.343 93.628 223.415 93.6 223.495 93.6H229.015C229.103 93.6 229.175 93.628 229.231 93.684C229.295 93.74 229.327 93.812 229.327 93.9V94.92C229.327 95.072 229.263 95.204 229.135 95.316L227.311 97.008L227.395 97.032C228.131 97.128 228.711 97.376 229.135 97.776C229.567 98.168 229.783 98.732 229.783 99.468C229.783 100.004 229.631 100.472 229.327 100.872C229.023 101.272 228.603 101.58 228.067 101.796C227.531 102.012 226.927 102.12 226.255 102.12ZM236.324 97.836C235.78 97.836 235.344 97.696 235.016 97.416C234.688 97.128 234.508 96.744 234.476 96.264C234.46 96.024 234.452 95.856 234.452 95.76C234.452 95.664 234.46 95.456 234.476 95.136C234.5 94.648 234.672 94.26 234.992 93.972C235.312 93.684 235.756 93.54 236.324 93.54C236.884 93.54 237.324 93.684 237.644 93.972C237.964 94.26 238.136 94.648 238.16 95.136C238.176 95.456 238.184 95.664 238.184 95.76C238.184 95.856 238.176 96.024 238.16 96.264C238.128 96.744 237.948 97.128 237.62 97.416C237.292 97.696 236.86 97.836 236.324 97.836ZM235.364 102C235.284 102 235.216 101.98 235.16 101.94C235.112 101.892 235.088 101.832 235.088 101.76C235.088 101.712 235.104 101.668 235.136 101.628L241.064 93.828C241.128 93.748 241.188 93.692 241.244 93.66C241.3 93.62 241.38 93.6 241.484 93.6H242.336C242.416 93.6 242.48 93.624 242.528 93.672C242.584 93.712 242.612 93.768 242.612 93.84C242.612 93.888 242.596 93.932 242.564 93.972L236.636 101.772C236.572 101.852 236.512 101.912 236.456 101.952C236.4 101.984 236.32 102 236.216 102H235.364ZM236.324 96.792C236.66 96.792 236.844 96.596 236.876 96.204C236.892 95.948 236.9 95.78 236.9 95.7C236.9 95.596 236.892 95.432 236.876 95.208C236.868 95.032 236.816 94.888 236.72 94.776C236.632 94.664 236.5 94.608 236.324 94.608C236.14 94.608 236.004 94.664 235.916 94.776C235.828 94.888 235.776 95.032 235.76 95.208C235.752 95.32 235.748 95.484 235.748 95.7C235.748 95.908 235.752 96.076 235.76 96.204C235.792 96.596 235.98 96.792 236.324 96.792ZM241.4 102.06C240.856 102.06 240.42 101.92 240.092 101.64C239.772 101.352 239.592 100.964 239.552 100.476C239.544 100.34 239.54 100.156 239.54 99.924C239.54 99.684 239.544 99.492 239.552 99.348C239.584 98.852 239.756 98.46 240.068 98.172C240.388 97.884 240.832 97.74 241.4 97.74C241.968 97.74 242.408 97.884 242.72 98.172C243.04 98.46 243.216 98.852 243.248 99.348C243.264 99.668 243.272 99.876 243.272 99.972C243.272 100.068 243.264 100.236 243.248 100.476C243.216 100.956 243.036 101.34 242.708 101.628C242.38 101.916 241.944 102.06 241.4 102.06ZM241.4 101.004C241.584 101.004 241.72 100.948 241.808 100.836C241.896 100.716 241.948 100.572 241.964 100.404C241.98 100.164 241.988 99.996 241.988 99.9C241.988 99.796 241.98 99.632 241.964 99.408C241.948 99.24 241.896 99.1 241.808 98.988C241.72 98.868 241.584 98.808 241.4 98.808C241.216 98.808 241.08 98.868 240.992 98.988C240.904 99.1 240.856 99.24 240.848 99.408C240.84 99.52 240.836 99.684 240.836 99.9C240.836 100.116 240.84 100.284 240.848 100.404C240.864 100.58 240.912 100.724 240.992 100.836C241.08 100.948 241.216 101.004 241.4 101.004Z" fill="#333333"/>
<path d="M379.22 102C379.14 102 379.068 101.972 379.004 101.916C378.948 101.852 378.92 101.78 378.92 101.7V95.988L377.276 97.248C377.22 97.296 377.16 97.32 377.096 97.32C377.008 97.32 376.928 97.272 376.856 97.176L376.148 96.252C376.108 96.188 376.088 96.128 376.088 96.072C376.088 95.96 376.136 95.876 376.232 95.82L378.992 93.684C379.08 93.628 379.176 93.6 379.28 93.6H380.78C380.868 93.6 380.94 93.628 380.996 93.684C381.052 93.74 381.08 93.812 381.08 93.9V101.7C381.08 101.78 381.052 101.852 380.996 101.916C380.94 101.972 380.868 102 380.78 102H379.22ZM383.265 102C383.177 102 383.101 101.972 383.037 101.916C382.981 101.86 382.953 101.788 382.953 101.7V100.848C382.953 100.608 383.053 100.412 383.253 100.26L384.501 99.036C385.229 98.476 385.781 98.04 386.157 97.728C386.533 97.416 386.817 97.132 387.009 96.876C387.201 96.62 387.297 96.376 387.297 96.144C387.297 95.512 386.985 95.196 386.361 95.196C386.033 95.196 385.781 95.296 385.605 95.496C385.429 95.688 385.313 95.932 385.257 96.228C385.209 96.412 385.073 96.504 384.849 96.504H383.349C383.277 96.504 383.217 96.48 383.169 96.432C383.121 96.384 383.097 96.324 383.097 96.252C383.113 95.74 383.253 95.272 383.517 94.848C383.789 94.416 384.169 94.076 384.657 93.828C385.153 93.572 385.721 93.444 386.361 93.444C387.033 93.444 387.609 93.552 388.089 93.768C388.569 93.984 388.933 94.288 389.181 94.68C389.429 95.072 389.553 95.528 389.553 96.048C389.553 96.608 389.377 97.12 389.025 97.584C388.681 98.04 388.153 98.536 387.441 99.072L386.337 100.188H389.421C389.509 100.188 389.581 100.216 389.637 100.272C389.701 100.328 389.733 100.4 389.733 100.488V101.7C389.733 101.788 389.701 101.86 389.637 101.916C389.581 101.972 389.509 102 389.421 102H383.265ZM396.324 97.836C395.78 97.836 395.344 97.696 395.016 97.416C394.688 97.128 394.508 96.744 394.476 96.264C394.46 96.024 394.452 95.856 394.452 95.76C394.452 95.664 394.46 95.456 394.476 95.136C394.5 94.648 394.672 94.26 394.992 93.972C395.312 93.684 395.756 93.54 396.324 93.54C396.884 93.54 397.324 93.684 397.644 93.972C397.964 94.26 398.136 94.648 398.16 95.136C398.176 95.456 398.184 95.664 398.184 95.76C398.184 95.856 398.176 96.024 398.16 96.264C398.128 96.744 397.948 97.128 397.62 97.416C397.292 97.696 396.86 97.836 396.324 97.836ZM395.364 102C395.284 102 395.216 101.98 395.16 101.94C395.112 101.892 395.088 101.832 395.088 101.76C395.088 101.712 395.104 101.668 395.136 101.628L401.064 93.828C401.128 93.748 401.188 93.692 401.244 93.66C401.3 93.62 401.38 93.6 401.484 93.6H402.336C402.416 93.6 402.48 93.624 402.528 93.672C402.584 93.712 402.612 93.768 402.612 93.84C402.612 93.888 402.596 93.932 402.564 93.972L396.636 101.772C396.572 101.852 396.512 101.912 396.456 101.952C396.4 101.984 396.32 102 396.216 102H395.364ZM396.324 96.792C396.66 96.792 396.844 96.596 396.876 96.204C396.892 95.948 396.9 95.78 396.9 95.7C396.9 95.596 396.892 95.432 396.876 95.208C396.868 95.032 396.816 94.888 396.72 94.776C396.632 94.664 396.5 94.608 396.324 94.608C396.14 94.608 396.004 94.664 395.916 94.776C395.828 94.888 395.776 95.032 395.76 95.208C395.752 95.32 395.748 95.484 395.748 95.7C395.748 95.908 395.752 96.076 395.76 96.204C395.792 96.596 395.98 96.792 396.324 96.792ZM401.4 102.06C400.856 102.06 400.42 101.92 400.092 101.64C399.772 101.352 399.592 100.964 399.552 100.476C399.544 100.34 399.54 100.156 399.54 99.924C399.54 99.684 399.544 99.492 399.552 99.348C399.584 98.852 399.756 98.46 400.068 98.172C400.388 97.884 400.832 97.74 401.4 97.74C401.968 97.74 402.408 97.884 402.72 98.172C403.04 98.46 403.216 98.852 403.248 99.348C403.264 99.668 403.272 99.876 403.272 99.972C403.272 100.068 403.264 100.236 403.248 100.476C403.216 100.956 403.036 101.34 402.708 101.628C402.38 101.916 401.944 102.06 401.4 102.06ZM401.4 101.004C401.584 101.004 401.72 100.948 401.808 100.836C401.896 100.716 401.948 100.572 401.964 100.404C401.98 100.164 401.988 99.996 401.988 99.9C401.988 99.796 401.98 99.632 401.964 99.408C401.948 99.24 401.896 99.1 401.808 98.988C401.72 98.868 401.584 98.808 401.4 98.808C401.216 98.808 401.08 98.868 400.992 98.988C400.904 99.1 400.856 99.24 400.848 99.408C400.84 99.52 400.836 99.684 400.836 99.9C400.836 100.116 400.84 100.284 400.848 100.404C400.864 100.58 400.912 100.724 400.992 100.836C401.08 100.948 401.216 101.004 401.4 101.004Z" fill="#333333"/>
<circle cx="243.8" cy="79.6108" r="2.5" fill="#333333"/>
<rect x="243.521" y="76" width="0.555556" height="16.52" fill="#333333"/>
<mask id="mask4" mask-type="alpha" maskUnits="userSpaceOnUse" x="241" y="77" width="6" height="6">
<circle cx="243.8" cy="79.6108" r="2.5" fill="#333333"/>
</mask>
<g mask="url(#mask4)">
<rect x="243.521" y="76" width="0.555556" height="7.77778" fill="white"/>
</g>
<circle cx="326.55" cy="79.6108" r="2.5" fill="#333333"/>
<rect x="326.271" y="76" width="0.555556" height="16.52" fill="#333333"/>
<mask id="mask5" mask-type="alpha" maskUnits="userSpaceOnUse" x="324" y="77" width="6" height="6">
<circle cx="326.55" cy="79.6108" r="2.5" fill="#333333"/>
</mask>
<g mask="url(#mask5)">
<rect x="326.271" y="76" width="0.555556" height="7.77778" fill="white"/>
</g>
<circle cx="350.95" cy="79.6108" r="2.5" fill="#333333"/>
<rect x="350.672" y="76" width="0.555556" height="16.52" fill="#333333"/>
<mask id="mask6" mask-type="alpha" maskUnits="userSpaceOnUse" x="348" y="77" width="6" height="6">
<circle cx="350.95" cy="79.6108" r="2.5" fill="#333333"/>
</mask>
<g mask="url(#mask6)">
<rect x="350.672" y="76" width="0.555556" height="7.77778" fill="white"/>
</g>
<path d="M298.508 102C298.42 102 298.344 101.972 298.28 101.916C298.224 101.86 298.196 101.788 298.196 101.7V100.848C298.196 100.608 298.296 100.412 298.496 100.26L299.744 99.036C300.472 98.476 301.024 98.04 301.4 97.728C301.776 97.416 302.06 97.132 302.252 96.876C302.444 96.62 302.54 96.376 302.54 96.144C302.54 95.512 302.228 95.196 301.604 95.196C301.276 95.196 301.024 95.296 300.848 95.496C300.672 95.688 300.556 95.932 300.5 96.228C300.452 96.412 300.316 96.504 300.092 96.504H298.592C298.52 96.504 298.46 96.48 298.412 96.432C298.364 96.384 298.34 96.324 298.34 96.252C298.356 95.74 298.496 95.272 298.76 94.848C299.032 94.416 299.412 94.076 299.9 93.828C300.396 93.572 300.964 93.444 301.604 93.444C302.276 93.444 302.852 93.552 303.332 93.768C303.812 93.984 304.176 94.288 304.424 94.68C304.672 95.072 304.796 95.528 304.796 96.048C304.796 96.608 304.62 97.12 304.268 97.584C303.924 98.04 303.396 98.536 302.684 99.072L301.58 100.188H304.664C304.752 100.188 304.824 100.216 304.88 100.272C304.944 100.328 304.976 100.4 304.976 100.488V101.7C304.976 101.788 304.944 101.86 304.88 101.916C304.824 101.972 304.752 102 304.664 102H298.508ZM310.177 102.12C309.073 102.112 308.237 101.82 307.669 101.244C307.101 100.66 306.793 99.896 306.745 98.952C306.729 98.52 306.721 98.136 306.721 97.8C306.721 97.456 306.729 97.06 306.745 96.612C306.777 96.012 306.921 95.48 307.177 95.016C307.441 94.544 307.825 94.172 308.329 93.9C308.833 93.62 309.449 93.48 310.177 93.48C311.257 93.488 312.089 93.78 312.673 94.356C313.257 94.932 313.573 95.684 313.621 96.612C313.637 97.06 313.645 97.456 313.645 97.8C313.645 98.136 313.637 98.52 313.621 98.952C313.565 99.896 313.253 100.66 312.685 101.244C312.117 101.82 311.281 102.112 310.177 102.12ZM310.177 100.38C310.569 100.38 310.861 100.252 311.053 99.996C311.253 99.732 311.361 99.364 311.377 98.892C311.393 98.66 311.401 98.288 311.401 97.776C311.401 97.264 311.393 96.9 311.377 96.684C311.361 96.228 311.257 95.868 311.065 95.604C310.873 95.34 310.577 95.204 310.177 95.196C309.785 95.204 309.489 95.34 309.289 95.604C309.097 95.868 308.993 96.228 308.977 96.684C308.969 96.9 308.965 97.264 308.965 97.776C308.965 98.288 308.969 98.66 308.977 98.892C309.017 99.884 309.417 100.38 310.177 100.38ZM320.324 97.836C319.78 97.836 319.344 97.696 319.016 97.416C318.688 97.128 318.508 96.744 318.476 96.264C318.46 96.024 318.452 95.856 318.452 95.76C318.452 95.664 318.46 95.456 318.476 95.136C318.5 94.648 318.672 94.26 318.992 93.972C319.312 93.684 319.756 93.54 320.324 93.54C320.884 93.54 321.324 93.684 321.644 93.972C321.964 94.26 322.136 94.648 322.16 95.136C322.176 95.456 322.184 95.664 322.184 95.76C322.184 95.856 322.176 96.024 322.16 96.264C322.128 96.744 321.948 97.128 321.62 97.416C321.292 97.696 320.86 97.836 320.324 97.836ZM319.364 102C319.284 102 319.216 101.98 319.16 101.94C319.112 101.892 319.088 101.832 319.088 101.76C319.088 101.712 319.104 101.668 319.136 101.628L325.064 93.828C325.128 93.748 325.188 93.692 325.244 93.66C325.3 93.62 325.38 93.6 325.484 93.6H326.336C326.416 93.6 326.48 93.624 326.528 93.672C326.584 93.712 326.612 93.768 326.612 93.84C326.612 93.888 326.596 93.932 326.564 93.972L320.636 101.772C320.572 101.852 320.512 101.912 320.456 101.952C320.4 101.984 320.32 102 320.216 102H319.364ZM320.324 96.792C320.66 96.792 320.844 96.596 320.876 96.204C320.892 95.948 320.9 95.78 320.9 95.7C320.9 95.596 320.892 95.432 320.876 95.208C320.868 95.032 320.816 94.888 320.72 94.776C320.632 94.664 320.5 94.608 320.324 94.608C320.14 94.608 320.004 94.664 319.916 94.776C319.828 94.888 319.776 95.032 319.76 95.208C319.752 95.32 319.748 95.484 319.748 95.7C319.748 95.908 319.752 96.076 319.76 96.204C319.792 96.596 319.98 96.792 320.324 96.792ZM325.4 102.06C324.856 102.06 324.42 101.92 324.092 101.64C323.772 101.352 323.592 100.964 323.552 100.476C323.544 100.34 323.54 100.156 323.54 99.924C323.54 99.684 323.544 99.492 323.552 99.348C323.584 98.852 323.756 98.46 324.068 98.172C324.388 97.884 324.832 97.74 325.4 97.74C325.968 97.74 326.408 97.884 326.72 98.172C327.04 98.46 327.216 98.852 327.248 99.348C327.264 99.668 327.272 99.876 327.272 99.972C327.272 100.068 327.264 100.236 327.248 100.476C327.216 100.956 327.036 101.34 326.708 101.628C326.38 101.916 325.944 102.06 325.4 102.06ZM325.4 101.004C325.584 101.004 325.72 100.948 325.808 100.836C325.896 100.716 325.948 100.572 325.964 100.404C325.98 100.164 325.988 99.996 325.988 99.9C325.988 99.796 325.98 99.632 325.964 99.408C325.948 99.24 325.896 99.1 325.808 98.988C325.72 98.868 325.584 98.808 325.4 98.808C325.216 98.808 325.08 98.868 324.992 98.988C324.904 99.1 324.856 99.24 324.848 99.408C324.84 99.52 324.836 99.684 324.836 99.9C324.836 100.116 324.84 100.284 324.848 100.404C324.864 100.58 324.912 100.724 324.992 100.836C325.08 100.948 325.216 101.004 325.4 101.004Z" fill="#333333"/>
<path d="M333.348 102.132C332.628 102.132 332.012 102.02 331.5 101.796C330.988 101.564 330.596 101.256 330.324 100.872C330.06 100.488 329.92 100.072 329.904 99.624C329.904 99.552 329.928 99.492 329.976 99.444C330.024 99.396 330.084 99.372 330.156 99.372H331.764C331.948 99.372 332.076 99.448 332.148 99.6C332.364 100.136 332.768 100.404 333.36 100.404C333.712 100.404 334.008 100.296 334.248 100.08C334.496 99.856 334.62 99.548 334.62 99.156C334.62 98.804 334.5 98.516 334.26 98.292C334.028 98.068 333.728 97.956 333.36 97.956C333.152 97.956 332.984 97.984 332.856 98.04C332.736 98.088 332.612 98.16 332.484 98.256C332.348 98.36 332.24 98.412 332.16 98.412H330.588C330.516 98.412 330.452 98.388 330.396 98.34C330.348 98.284 330.324 98.22 330.324 98.148L330.756 93.96C330.764 93.848 330.804 93.76 330.876 93.696C330.956 93.632 331.048 93.6 331.152 93.6H335.964C336.052 93.6 336.124 93.628 336.18 93.684C336.244 93.74 336.276 93.812 336.276 93.9V95.028C336.276 95.116 336.244 95.188 336.18 95.244C336.124 95.3 336.052 95.328 335.964 95.328H332.484L332.328 96.876C332.528 96.74 332.748 96.64 332.988 96.576C333.228 96.504 333.54 96.468 333.924 96.468C334.428 96.468 334.904 96.584 335.352 96.816C335.8 97.04 336.156 97.36 336.42 97.776C336.692 98.192 336.828 98.668 336.828 99.204C336.828 99.772 336.688 100.28 336.408 100.728C336.128 101.168 335.724 101.512 335.196 101.76C334.676 102.008 334.06 102.132 333.348 102.132ZM343.324 97.836C342.78 97.836 342.344 97.696 342.016 97.416C341.688 97.128 341.508 96.744 341.476 96.264C341.46 96.024 341.452 95.856 341.452 95.76C341.452 95.664 341.46 95.456 341.476 95.136C341.5 94.648 341.672 94.26 341.992 93.972C342.312 93.684 342.756 93.54 343.324 93.54C343.884 93.54 344.324 93.684 344.644 93.972C344.964 94.26 345.136 94.648 345.16 95.136C345.176 95.456 345.184 95.664 345.184 95.76C345.184 95.856 345.176 96.024 345.16 96.264C345.128 96.744 344.948 97.128 344.62 97.416C344.292 97.696 343.86 97.836 343.324 97.836ZM342.364 102C342.284 102 342.216 101.98 342.16 101.94C342.112 101.892 342.088 101.832 342.088 101.76C342.088 101.712 342.104 101.668 342.136 101.628L348.064 93.828C348.128 93.748 348.188 93.692 348.244 93.66C348.3 93.62 348.38 93.6 348.484 93.6H349.336C349.416 93.6 349.48 93.624 349.528 93.672C349.584 93.712 349.612 93.768 349.612 93.84C349.612 93.888 349.596 93.932 349.564 93.972L343.636 101.772C343.572 101.852 343.512 101.912 343.456 101.952C343.4 101.984 343.32 102 343.216 102H342.364ZM343.324 96.792C343.66 96.792 343.844 96.596 343.876 96.204C343.892 95.948 343.9 95.78 343.9 95.7C343.9 95.596 343.892 95.432 343.876 95.208C343.868 95.032 343.816 94.888 343.72 94.776C343.632 94.664 343.5 94.608 343.324 94.608C343.14 94.608 343.004 94.664 342.916 94.776C342.828 94.888 342.776 95.032 342.76 95.208C342.752 95.32 342.748 95.484 342.748 95.7C342.748 95.908 342.752 96.076 342.76 96.204C342.792 96.596 342.98 96.792 343.324 96.792ZM348.4 102.06C347.856 102.06 347.42 101.92 347.092 101.64C346.772 101.352 346.592 100.964 346.552 100.476C346.544 100.34 346.54 100.156 346.54 99.924C346.54 99.684 346.544 99.492 346.552 99.348C346.584 98.852 346.756 98.46 347.068 98.172C347.388 97.884 347.832 97.74 348.4 97.74C348.968 97.74 349.408 97.884 349.72 98.172C350.04 98.46 350.216 98.852 350.248 99.348C350.264 99.668 350.272 99.876 350.272 99.972C350.272 100.068 350.264 100.236 350.248 100.476C350.216 100.956 350.036 101.34 349.708 101.628C349.38 101.916 348.944 102.06 348.4 102.06ZM348.4 101.004C348.584 101.004 348.72 100.948 348.808 100.836C348.896 100.716 348.948 100.572 348.964 100.404C348.98 100.164 348.988 99.996 348.988 99.9C348.988 99.796 348.98 99.632 348.964 99.408C348.948 99.24 348.896 99.1 348.808 98.988C348.72 98.868 348.584 98.808 348.4 98.808C348.216 98.808 348.08 98.868 347.992 98.988C347.904 99.1 347.856 99.24 347.848 99.408C347.84 99.52 347.836 99.684 347.836 99.9C347.836 100.116 347.84 100.284 347.848 100.404C347.864 100.58 347.912 100.724 347.992 100.836C348.08 100.948 348.216 101.004 348.4 101.004Z" fill="#333333"/>
<circle cx="402.149" cy="79.6108" r="2.5" fill="#333333"/>
<rect x="401.871" y="76" width="0.555556" height="16.52" fill="#333333"/>
<mask id="mask7" mask-type="alpha" maskUnits="userSpaceOnUse" x="399" y="77" width="6" height="6">
<circle cx="402.149" cy="79.6108" r="2.5" fill="#333333"/>
</mask>
<g mask="url(#mask7)">
<rect x="401.871" y="76" width="0.555556" height="7.77778" fill="white"/>
</g>
</svg>
