<svg width="408" height="107" viewBox="0 0 408 107" fill="none" xmlns="http://www.w3.org/2000/svg">
<path d="M15.852 11.12C15.14 11.12 14.528 11.012 14.016 10.796C13.504 10.58 13.116 10.296 12.852 9.944C12.588 9.592 12.448 9.212 12.432 8.804C12.432 8.732 12.456 8.672 12.504 8.624C12.552 8.576 12.612 8.552 12.684 8.552H13.752C13.848 8.552 13.92 8.572 13.968 8.612C14.024 8.644 14.076 8.7 14.124 8.78C14.204 9.052 14.388 9.28 14.676 9.464C14.964 9.648 15.356 9.74 15.852 9.74C16.42 9.74 16.848 9.648 17.136 9.464C17.424 9.272 17.568 9.008 17.568 8.672C17.568 8.448 17.492 8.264 17.34 8.12C17.196 7.976 16.976 7.852 16.68 7.748C16.392 7.644 15.96 7.516 15.384 7.364C14.44 7.14 13.748 6.844 13.308 6.476C12.876 6.1 12.66 5.568 12.66 4.88C12.66 4.416 12.784 4.004 13.032 3.644C13.288 3.284 13.652 3 14.124 2.792C14.604 2.584 15.16 2.48 15.792 2.48C16.448 2.48 17.016 2.596 17.496 2.828C17.976 3.06 18.34 3.352 18.588 3.704C18.844 4.048 18.98 4.392 18.996 4.736C18.996 4.808 18.972 4.868 18.924 4.916C18.876 4.964 18.816 4.988 18.744 4.988H17.628C17.46 4.988 17.344 4.912 17.28 4.76C17.232 4.504 17.072 4.292 16.8 4.124C16.528 3.948 16.192 3.86 15.792 3.86C15.344 3.86 14.992 3.944 14.736 4.112C14.48 4.28 14.352 4.524 14.352 4.844C14.352 5.068 14.416 5.252 14.544 5.396C14.672 5.54 14.872 5.668 15.144 5.78C15.424 5.892 15.824 6.016 16.344 6.152C17.048 6.312 17.608 6.492 18.024 6.692C18.448 6.892 18.76 7.144 18.96 7.448C19.16 7.752 19.26 8.14 19.26 8.612C19.26 9.124 19.116 9.572 18.828 9.956C18.548 10.332 18.148 10.62 17.628 10.82C17.116 11.02 16.524 11.12 15.852 11.12ZM23.9112 11C23.1832 11 22.6352 10.812 22.2672 10.436C21.9072 10.052 21.7272 9.492 21.7272 8.756V6.032H20.7792C20.6992 6.032 20.6312 6.004 20.5752 5.948C20.5192 5.884 20.4912 5.812 20.4912 5.732V5.048C20.4912 4.968 20.5192 4.9 20.5752 4.844C20.6312 4.788 20.6992 4.76 20.7792 4.76H21.7272V2.768C21.7272 2.68 21.7552 2.612 21.8112 2.564C21.8672 2.508 21.9352 2.48 22.0152 2.48H22.9872C23.0752 2.48 23.1432 2.508 23.1912 2.564C23.2472 2.612 23.2752 2.68 23.2752 2.768V4.76H24.7752C24.8632 4.76 24.9312 4.788 24.9792 4.844C25.0352 4.892 25.0632 4.96 25.0632 5.048V5.732C25.0632 5.82 25.0352 5.892 24.9792 5.948C24.9232 6.004 24.8552 6.032 24.7752 6.032H23.2752V8.636C23.2752 8.98 23.3352 9.24 23.4552 9.416C23.5752 9.592 23.7752 9.68 24.0552 9.68H24.8832C24.9632 9.68 25.0312 9.708 25.0872 9.764C25.1432 9.82 25.1712 9.888 25.1712 9.968V10.712C25.1712 10.792 25.1432 10.86 25.0872 10.916C25.0392 10.972 24.9712 11 24.8832 11H23.9112ZM28.6478 11.12C28.2398 11.12 27.8638 11.04 27.5198 10.88C27.1838 10.712 26.9158 10.488 26.7158 10.208C26.5238 9.928 26.4278 9.62 26.4278 9.284C26.4278 8.74 26.6478 8.3 27.0878 7.964C27.5278 7.628 28.1318 7.4 28.8998 7.28L30.5438 7.04V6.788C30.5438 6.436 30.4558 6.172 30.2798 5.996C30.1038 5.82 29.8198 5.732 29.4278 5.732C29.1638 5.732 28.9478 5.784 28.7798 5.888C28.6198 5.984 28.4918 6.08 28.3958 6.176C28.2998 6.28 28.2358 6.348 28.2038 6.38C28.1718 6.476 28.1118 6.524 28.0238 6.524H27.0998C27.0278 6.524 26.9638 6.5 26.9078 6.452C26.8598 6.404 26.8358 6.34 26.8358 6.26C26.8438 6.06 26.9398 5.832 27.1238 5.576C27.3158 5.32 27.6078 5.1 27.9998 4.916C28.3918 4.732 28.8718 4.64 29.4398 4.64C30.3838 4.64 31.0718 4.852 31.5038 5.276C31.9358 5.7 32.1518 6.256 32.1518 6.944V10.712C32.1518 10.792 32.1238 10.86 32.0678 10.916C32.0198 10.972 31.9518 11 31.8638 11H30.8918C30.8118 11 30.7438 10.972 30.6878 10.916C30.6318 10.86 30.6038 10.792 30.6038 10.712V10.244C30.4278 10.5 30.1758 10.712 29.8478 10.88C29.5278 11.04 29.1278 11.12 28.6478 11.12ZM29.0558 9.98C29.4958 9.98 29.8558 9.836 30.1358 9.548C30.4158 9.26 30.5558 8.84 30.5558 8.288V8.036L29.3558 8.228C28.8918 8.3 28.5398 8.416 28.2998 8.576C28.0678 8.736 27.9518 8.932 27.9518 9.164C27.9518 9.42 28.0598 9.62 28.2758 9.764C28.4918 9.908 28.7518 9.98 29.0558 9.98ZM36.6072 11.12C35.7992 11.12 35.1792 10.86 34.7472 10.34C34.3152 9.82 34.0832 9.128 34.0512 8.264L34.0392 7.868L34.0512 7.484C34.0752 6.644 34.3032 5.96 34.7352 5.432C35.1752 4.904 35.7992 4.64 36.6072 4.64C37.3832 4.64 37.9992 4.904 38.4552 5.432V2.768C38.4552 2.68 38.4832 2.612 38.5392 2.564C38.5952 2.508 38.6632 2.48 38.7432 2.48H39.7632C39.8512 2.48 39.9192 2.508 39.9672 2.564C40.0232 2.612 40.0512 2.68 40.0512 2.768V10.712C40.0512 10.792 40.0232 10.86 39.9672 10.916C39.9192 10.972 39.8512 11 39.7632 11H38.8152C38.7352 11 38.6672 10.972 38.6112 10.916C38.5552 10.86 38.5272 10.792 38.5272 10.712V10.268C38.0712 10.836 37.4312 11.12 36.6072 11.12ZM37.0512 9.836C37.5152 9.836 37.8592 9.688 38.0832 9.392C38.3072 9.096 38.4312 8.732 38.4552 8.3C38.4632 8.204 38.4672 8.048 38.4672 7.832C38.4672 7.624 38.4632 7.472 38.4552 7.376C38.4392 6.976 38.3112 6.636 38.0712 6.356C37.8392 6.068 37.4992 5.924 37.0512 5.924C36.1872 5.924 35.7272 6.456 35.6712 7.52L35.6592 7.88L35.6712 8.24C35.7272 9.304 36.1872 9.836 37.0512 9.836ZM45.0706 11C44.3426 11 43.7946 10.812 43.4266 10.436C43.0666 10.052 42.8866 9.492 42.8866 8.756V6.032H41.9386C41.8586 6.032 41.7906 6.004 41.7346 5.948C41.6786 5.884 41.6506 5.812 41.6506 5.732V5.048C41.6506 4.968 41.6786 4.9 41.7346 4.844C41.7906 4.788 41.8586 4.76 41.9386 4.76H42.8866V2.768C42.8866 2.68 42.9146 2.612 42.9706 2.564C43.0266 2.508 43.0946 2.48 43.1746 2.48H44.1466C44.2346 2.48 44.3026 2.508 44.3506 2.564C44.4066 2.612 44.4346 2.68 44.4346 2.768V4.76H45.9346C46.0226 4.76 46.0906 4.788 46.1386 4.844C46.1946 4.892 46.2226 4.96 46.2226 5.048V5.732C46.2226 5.82 46.1946 5.892 46.1386 5.948C46.0826 6.004 46.0146 6.032 45.9346 6.032H44.4346V8.636C44.4346 8.98 44.4946 9.24 44.6146 9.416C44.7346 9.592 44.9346 9.68 45.2146 9.68H46.0426C46.1226 9.68 46.1906 9.708 46.2466 9.764C46.3026 9.82 46.3306 9.888 46.3306 9.968V10.712C46.3306 10.792 46.3026 10.86 46.2466 10.916C46.1986 10.972 46.1306 11 46.0426 11H45.0706ZM50.8151 11C50.0871 11 49.5391 10.812 49.1711 10.436C48.8111 10.052 48.6311 9.492 48.6311 8.756V6.032H47.6831C47.6031 6.032 47.5351 6.004 47.4791 5.948C47.4231 5.884 47.3951 5.812 47.3951 5.732V5.048C47.3951 4.968 47.4231 4.9 47.4791 4.844C47.5351 4.788 47.6031 4.76 47.6831 4.76H48.6311V2.768C48.6311 2.68 48.6591 2.612 48.7151 2.564C48.7711 2.508 48.8391 2.48 48.9191 2.48H49.8911C49.9791 2.48 50.0471 2.508 50.0951 2.564C50.1511 2.612 50.1791 2.68 50.1791 2.768V4.76H51.6791C51.7671 4.76 51.8351 4.788 51.8831 4.844C51.9391 4.892 51.9671 4.96 51.9671 5.048V5.732C51.9671 5.82 51.9391 5.892 51.8831 5.948C51.8271 6.004 51.7591 6.032 51.6791 6.032H50.1791V8.636C50.1791 8.98 50.2391 9.24 50.3591 9.416C50.4791 9.592 50.6791 9.68 50.9591 9.68H51.7871C51.8671 9.68 51.9351 9.708 51.9911 9.764C52.0471 9.82 52.0751 9.888 52.0751 9.968V10.712C52.0751 10.792 52.0471 10.86 51.9911 10.916C51.9431 10.972 51.8751 11 51.7871 11H50.8151ZM56.4277 11.12C55.5397 11.12 54.8317 10.864 54.3037 10.352C53.7837 9.832 53.5077 9.104 53.4757 8.168L53.4637 7.868L53.4757 7.568C53.5157 6.656 53.7957 5.94 54.3157 5.42C54.8437 4.9 55.5477 4.64 56.4277 4.64C57.3717 4.64 58.0997 4.928 58.6117 5.504C59.1317 6.08 59.3917 6.848 59.3917 7.808V8.06C59.3917 8.14 59.3637 8.208 59.3077 8.264C59.2517 8.32 59.1797 8.348 59.0917 8.348H55.1077V8.444C55.1237 8.884 55.2437 9.256 55.4677 9.56C55.6997 9.856 56.0157 10.004 56.4157 10.004C56.8877 10.004 57.2677 9.82 57.5557 9.452C57.6277 9.364 57.6837 9.308 57.7237 9.284C57.7717 9.26 57.8397 9.248 57.9277 9.248H58.9597C59.0317 9.248 59.0917 9.272 59.1397 9.32C59.1957 9.36 59.2237 9.412 59.2237 9.476C59.2237 9.668 59.1077 9.896 58.8757 10.16C58.6517 10.416 58.3277 10.64 57.9037 10.832C57.4797 11.024 56.9877 11.12 56.4277 11.12ZM57.7597 7.34V7.304C57.7597 6.832 57.6397 6.452 57.3997 6.164C57.1677 5.876 56.8437 5.732 56.4277 5.732C56.0117 5.732 55.6877 5.876 55.4557 6.164C55.2237 6.452 55.1077 6.832 55.1077 7.304V7.34H57.7597ZM61.5054 3.728C61.4254 3.728 61.3574 3.7 61.3014 3.644C61.2454 3.588 61.2174 3.52 61.2174 3.44V2.576C61.2174 2.496 61.2454 2.428 61.3014 2.372C61.3574 2.316 61.4254 2.288 61.5054 2.288H62.5974C62.6774 2.288 62.7454 2.316 62.8014 2.372C62.8654 2.428 62.8974 2.496 62.8974 2.576V3.44C62.8974 3.52 62.8694 3.588 62.8134 3.644C62.7574 3.7 62.6854 3.728 62.5974 3.728H61.5054ZM61.5534 11C61.4734 11 61.4054 10.972 61.3494 10.916C61.2934 10.86 61.2654 10.792 61.2654 10.712V5.048C61.2654 4.968 61.2934 4.9 61.3494 4.844C61.4054 4.788 61.4734 4.76 61.5534 4.76H62.5494C62.6374 4.76 62.7054 4.788 62.7534 4.844C62.8094 4.892 62.8374 4.96 62.8374 5.048V10.712C62.8374 10.792 62.8094 10.86 62.7534 10.916C62.7054 10.972 62.6374 11 62.5494 11H61.5534ZM65.3295 11C65.2495 11 65.1815 10.972 65.1255 10.916C65.0695 10.86 65.0415 10.792 65.0415 10.712V2.768C65.0415 2.68 65.0695 2.612 65.1255 2.564C65.1815 2.508 65.2495 2.48 65.3295 2.48H66.3255C66.4135 2.48 66.4815 2.508 66.5295 2.564C66.5855 2.612 66.6135 2.68 66.6135 2.768V10.712C66.6135 10.792 66.5855 10.86 66.5295 10.916C66.4815 10.972 66.4135 11 66.3255 11H65.3295ZM71.4933 11.12C70.6053 11.12 69.8973 10.864 69.3693 10.352C68.8493 9.832 68.5733 9.104 68.5413 8.168L68.5293 7.868L68.5413 7.568C68.5813 6.656 68.8613 5.94 69.3813 5.42C69.9093 4.9 70.6133 4.64 71.4933 4.64C72.4373 4.64 73.1653 4.928 73.6773 5.504C74.1973 6.08 74.4573 6.848 74.4573 7.808V8.06C74.4573 8.14 74.4293 8.208 74.3733 8.264C74.3173 8.32 74.2453 8.348 74.1573 8.348H70.1733V8.444C70.1893 8.884 70.3093 9.256 70.5333 9.56C70.7653 9.856 71.0813 10.004 71.4813 10.004C71.9533 10.004 72.3333 9.82 72.6213 9.452C72.6933 9.364 72.7493 9.308 72.7893 9.284C72.8373 9.26 72.9053 9.248 72.9933 9.248H74.0253C74.0973 9.248 74.1573 9.272 74.2053 9.32C74.2613 9.36 74.2893 9.412 74.2893 9.476C74.2893 9.668 74.1733 9.896 73.9413 10.16C73.7173 10.416 73.3933 10.64 72.9693 10.832C72.5453 11.024 72.0533 11.12 71.4933 11.12ZM72.8253 7.34V7.304C72.8253 6.832 72.7053 6.452 72.4653 6.164C72.2333 5.876 71.9093 5.732 71.4933 5.732C71.0773 5.732 70.7533 5.876 70.5213 6.164C70.2893 6.452 70.1733 6.832 70.1733 7.304V7.34H72.8253ZM79.9612 11C79.8812 11 79.8132 10.972 79.7572 10.916C79.7012 10.86 79.6732 10.792 79.6732 10.712V5.048C79.6732 4.968 79.7012 4.9 79.7572 4.844C79.8132 4.788 79.8812 4.76 79.9612 4.76H80.8972C80.9772 4.76 81.0452 4.788 81.1012 4.844C81.1572 4.9 81.1852 4.968 81.1852 5.048V5.456C81.6012 4.912 82.1812 4.64 82.9252 4.64C83.8132 4.64 84.4332 4.996 84.7852 5.708C84.9772 5.388 85.2492 5.132 85.6012 4.94C85.9532 4.74 86.3332 4.64 86.7412 4.64C87.3972 4.64 87.9332 4.864 88.3492 5.312C88.7652 5.76 88.9732 6.412 88.9732 7.268V10.712C88.9732 10.792 88.9452 10.86 88.8892 10.916C88.8412 10.972 88.7732 11 88.6852 11H87.7012C87.6212 11 87.5532 10.972 87.4972 10.916C87.4412 10.86 87.4132 10.792 87.4132 10.712V7.364C87.4132 6.86 87.3052 6.496 87.0892 6.272C86.8812 6.04 86.6012 5.924 86.2492 5.924C85.9372 5.924 85.6692 6.04 85.4452 6.272C85.2292 6.504 85.1212 6.868 85.1212 7.364V10.712C85.1212 10.792 85.0932 10.86 85.0372 10.916C84.9812 10.972 84.9132 11 84.8332 11H83.8492C83.7692 11 83.7012 10.972 83.6452 10.916C83.5892 10.86 83.5612 10.792 83.5612 10.712V7.364C83.5612 6.86 83.4492 6.496 83.2252 6.272C83.0092 6.04 82.7332 5.924 82.3972 5.924C82.0772 5.924 81.8052 6.04 81.5812 6.272C81.3652 6.504 81.2572 6.868 81.2572 7.364V10.712C81.2572 10.792 81.2292 10.86 81.1732 10.916C81.1172 10.972 81.0492 11 80.9692 11H79.9612ZM91.3414 3.728C91.2614 3.728 91.1934 3.7 91.1374 3.644C91.0814 3.588 91.0534 3.52 91.0534 3.44V2.576C91.0534 2.496 91.0814 2.428 91.1374 2.372C91.1934 2.316 91.2614 2.288 91.3414 2.288H92.4334C92.5134 2.288 92.5814 2.316 92.6374 2.372C92.7014 2.428 92.7334 2.496 92.7334 2.576V3.44C92.7334 3.52 92.7054 3.588 92.6494 3.644C92.5934 3.7 92.5214 3.728 92.4334 3.728H91.3414ZM91.3894 11C91.3094 11 91.2414 10.972 91.1854 10.916C91.1294 10.86 91.1014 10.792 91.1014 10.712V5.048C91.1014 4.968 91.1294 4.9 91.1854 4.844C91.2414 4.788 91.3094 4.76 91.3894 4.76H92.3854C92.4734 4.76 92.5414 4.788 92.5894 4.844C92.6454 4.892 92.6734 4.96 92.6734 5.048V10.712C92.6734 10.792 92.6454 10.86 92.5894 10.916C92.5414 10.972 92.4734 11 92.3854 11H91.3894ZM97.6854 11C96.9574 11 96.4094 10.812 96.0414 10.436C95.6814 10.052 95.5014 9.492 95.5014 8.756V6.032H94.5534C94.4734 6.032 94.4054 6.004 94.3494 5.948C94.2934 5.884 94.2654 5.812 94.2654 5.732V5.048C94.2654 4.968 94.2934 4.9 94.3494 4.844C94.4054 4.788 94.4734 4.76 94.5534 4.76H95.5014V2.768C95.5014 2.68 95.5294 2.612 95.5854 2.564C95.6414 2.508 95.7094 2.48 95.7894 2.48H96.7614C96.8494 2.48 96.9174 2.508 96.9654 2.564C97.0214 2.612 97.0494 2.68 97.0494 2.768V4.76H98.5494C98.6374 4.76 98.7054 4.788 98.7534 4.844C98.8094 4.892 98.8374 4.96 98.8374 5.048V5.732C98.8374 5.82 98.8094 5.892 98.7534 5.948C98.6974 6.004 98.6294 6.032 98.5494 6.032H97.0494V8.636C97.0494 8.98 97.1094 9.24 97.2294 9.416C97.3494 9.592 97.5494 9.68 97.8294 9.68H98.6574C98.7374 9.68 98.8054 9.708 98.8614 9.764C98.9174 9.82 98.9454 9.888 98.9454 9.968V10.712C98.9454 10.792 98.9174 10.86 98.8614 10.916C98.8134 10.972 98.7454 11 98.6574 11H97.6854ZM13.08 27C13 27 12.932 26.972 12.876 26.916C12.82 26.86 12.792 26.792 12.792 26.712V21.048C12.792 20.968 12.82 20.9 12.876 20.844C12.932 20.788 13 20.76 13.08 20.76H14.016C14.096 20.76 14.164 20.788 14.22 20.844C14.276 20.9 14.304 20.968 14.304 21.048V21.456C14.72 20.912 15.3 20.64 16.044 20.64C16.932 20.64 17.552 20.996 17.904 21.708C18.096 21.388 18.368 21.132 18.72 20.94C19.072 20.74 19.452 20.64 19.86 20.64C20.516 20.64 21.052 20.864 21.468 21.312C21.884 21.76 22.092 22.412 22.092 23.268V26.712C22.092 26.792 22.064 26.86 22.008 26.916C21.96 26.972 21.892 27 21.804 27H20.82C20.74 27 20.672 26.972 20.616 26.916C20.56 26.86 20.532 26.792 20.532 26.712V23.364C20.532 22.86 20.424 22.496 20.208 22.272C20 22.04 19.72 21.924 19.368 21.924C19.056 21.924 18.788 22.04 18.564 22.272C18.348 22.504 18.24 22.868 18.24 23.364V26.712C18.24 26.792 18.212 26.86 18.156 26.916C18.1 26.972 18.032 27 17.952 27H16.968C16.888 27 16.82 26.972 16.764 26.916C16.708 26.86 16.68 26.792 16.68 26.712V23.364C16.68 22.86 16.568 22.496 16.344 22.272C16.128 22.04 15.852 21.924 15.516 21.924C15.196 21.924 14.924 22.04 14.7 22.272C14.484 22.504 14.376 22.868 14.376 23.364V26.712C14.376 26.792 14.348 26.86 14.292 26.916C14.236 26.972 14.168 27 14.088 27H13.08ZM24.4601 19.728C24.3801 19.728 24.3121 19.7 24.2561 19.644C24.2001 19.588 24.1721 19.52 24.1721 19.44V18.576C24.1721 18.496 24.2001 18.428 24.2561 18.372C24.3121 18.316 24.3801 18.288 24.4601 18.288H25.5521C25.6321 18.288 25.7001 18.316 25.7561 18.372C25.8201 18.428 25.8521 18.496 25.8521 18.576V19.44C25.8521 19.52 25.8241 19.588 25.7681 19.644C25.7121 19.7 25.6401 19.728 25.5521 19.728H24.4601ZM24.5081 27C24.4281 27 24.3601 26.972 24.3041 26.916C24.2481 26.86 24.2201 26.792 24.2201 26.712V21.048C24.2201 20.968 24.2481 20.9 24.3041 20.844C24.3601 20.788 24.4281 20.76 24.5081 20.76H25.5041C25.5921 20.76 25.6601 20.788 25.7081 20.844C25.7641 20.892 25.7921 20.96 25.7921 21.048V26.712C25.7921 26.792 25.7641 26.86 25.7081 26.916C25.6601 26.972 25.5921 27 25.5041 27H24.5081ZM30.8042 27C30.0762 27 29.5282 26.812 29.1602 26.436C28.8002 26.052 28.6202 25.492 28.6202 24.756V22.032H27.6722C27.5922 22.032 27.5242 22.004 27.4682 21.948C27.4122 21.884 27.3842 21.812 27.3842 21.732V21.048C27.3842 20.968 27.4122 20.9 27.4682 20.844C27.5242 20.788 27.5922 20.76 27.6722 20.76H28.6202V18.768C28.6202 18.68 28.6482 18.612 28.7042 18.564C28.7602 18.508 28.8282 18.48 28.9082 18.48H29.8802C29.9682 18.48 30.0362 18.508 30.0842 18.564C30.1402 18.612 30.1682 18.68 30.1682 18.768V20.76H31.6682C31.7562 20.76 31.8242 20.788 31.8722 20.844C31.9282 20.892 31.9562 20.96 31.9562 21.048V21.732C31.9562 21.82 31.9282 21.892 31.8722 21.948C31.8162 22.004 31.7482 22.032 31.6682 22.032H30.1682V24.636C30.1682 24.98 30.2282 25.24 30.3482 25.416C30.4682 25.592 30.6682 25.68 30.9482 25.68H31.7762C31.8562 25.68 31.9242 25.708 31.9802 25.764C32.0362 25.82 32.0642 25.888 32.0642 25.968V26.712C32.0642 26.792 32.0362 26.86 31.9802 26.916C31.9322 26.972 31.8642 27 31.7762 27H30.8042ZM36.5487 27C35.8207 27 35.2727 26.812 34.9047 26.436C34.5447 26.052 34.3647 25.492 34.3647 24.756V22.032H33.4167C33.3367 22.032 33.2687 22.004 33.2127 21.948C33.1567 21.884 33.1287 21.812 33.1287 21.732V21.048C33.1287 20.968 33.1567 20.9 33.2127 20.844C33.2687 20.788 33.3367 20.76 33.4167 20.76H34.3647V18.768C34.3647 18.68 34.3927 18.612 34.4487 18.564C34.5047 18.508 34.5727 18.48 34.6527 18.48H35.6247C35.7127 18.48 35.7807 18.508 35.8287 18.564C35.8847 18.612 35.9127 18.68 35.9127 18.768V20.76H37.4127C37.5007 20.76 37.5687 20.788 37.6167 20.844C37.6727 20.892 37.7007 20.96 37.7007 21.048V21.732C37.7007 21.82 37.6727 21.892 37.6167 21.948C37.5607 22.004 37.4927 22.032 37.4127 22.032H35.9127V24.636C35.9127 24.98 35.9727 25.24 36.0927 25.416C36.2127 25.592 36.4127 25.68 36.6927 25.68H37.5207C37.6007 25.68 37.6687 25.708 37.7247 25.764C37.7807 25.82 37.8087 25.888 37.8087 25.968V26.712C37.8087 26.792 37.7807 26.86 37.7247 26.916C37.6767 26.972 37.6087 27 37.5207 27H36.5487ZM39.7732 27C39.6932 27 39.6252 26.972 39.5692 26.916C39.5132 26.86 39.4852 26.792 39.4852 26.712V18.768C39.4852 18.68 39.5132 18.612 39.5692 18.564C39.6252 18.508 39.6932 18.48 39.7732 18.48H40.7692C40.8572 18.48 40.9252 18.508 40.9732 18.564C41.0292 18.612 41.0572 18.68 41.0572 18.768V26.712C41.0572 26.792 41.0292 26.86 40.9732 26.916C40.9252 26.972 40.8572 27 40.7692 27H39.7732ZM45.937 27.12C45.049 27.12 44.341 26.864 43.813 26.352C43.293 25.832 43.017 25.104 42.985 24.168L42.973 23.868L42.985 23.568C43.025 22.656 43.305 21.94 43.825 21.42C44.353 20.9 45.057 20.64 45.937 20.64C46.881 20.64 47.609 20.928 48.121 21.504C48.641 22.08 48.901 22.848 48.901 23.808V24.06C48.901 24.14 48.873 24.208 48.817 24.264C48.761 24.32 48.689 24.348 48.601 24.348H44.617V24.444C44.633 24.884 44.753 25.256 44.977 25.56C45.209 25.856 45.525 26.004 45.925 26.004C46.397 26.004 46.777 25.82 47.065 25.452C47.137 25.364 47.193 25.308 47.233 25.284C47.281 25.26 47.349 25.248 47.437 25.248H48.469C48.541 25.248 48.601 25.272 48.649 25.32C48.705 25.36 48.733 25.412 48.733 25.476C48.733 25.668 48.617 25.896 48.385 26.16C48.161 26.416 47.837 26.64 47.413 26.832C46.989 27.024 46.497 27.12 45.937 27.12ZM47.269 23.34V23.304C47.269 22.832 47.149 22.452 46.909 22.164C46.677 21.876 46.353 21.732 45.937 21.732C45.521 21.732 45.197 21.876 44.965 22.164C44.733 22.452 44.617 22.832 44.617 23.304V23.34H47.269ZM51.0628 27C50.9828 27 50.9148 26.972 50.8588 26.916C50.8028 26.86 50.7748 26.792 50.7748 26.712V21.06C50.7748 20.98 50.8028 20.912 50.8588 20.856C50.9148 20.792 50.9828 20.76 51.0628 20.76H52.0348C52.1228 20.76 52.1948 20.788 52.2508 20.844C52.3068 20.9 52.3348 20.972 52.3348 21.06V21.552C52.5268 21.296 52.7668 21.1 53.0548 20.964C53.3508 20.828 53.6868 20.76 54.0628 20.76H54.5548C54.6428 20.76 54.7108 20.788 54.7588 20.844C54.8148 20.892 54.8428 20.96 54.8428 21.048V21.912C54.8428 21.992 54.8148 22.06 54.7588 22.116C54.7108 22.172 54.6428 22.2 54.5548 22.2H53.6188C53.2428 22.2 52.9468 22.308 52.7308 22.524C52.5148 22.74 52.4068 23.036 52.4068 23.412V26.712C52.4068 26.792 52.3788 26.86 52.3228 26.916C52.2668 26.972 52.1948 27 52.1068 27H51.0628ZM58.9847 27.12C58.0967 27.12 57.3887 26.864 56.8607 26.352C56.3407 25.832 56.0647 25.104 56.0327 24.168L56.0207 23.868L56.0327 23.568C56.0727 22.656 56.3527 21.94 56.8727 21.42C57.4007 20.9 58.1047 20.64 58.9847 20.64C59.9287 20.64 60.6567 20.928 61.1687 21.504C61.6887 22.08 61.9487 22.848 61.9487 23.808V24.06C61.9487 24.14 61.9207 24.208 61.8647 24.264C61.8087 24.32 61.7367 24.348 61.6487 24.348H57.6647V24.444C57.6807 24.884 57.8007 25.256 58.0247 25.56C58.2567 25.856 58.5727 26.004 58.9727 26.004C59.4447 26.004 59.8247 25.82 60.1127 25.452C60.1847 25.364 60.2407 25.308 60.2807 25.284C60.3287 25.26 60.3967 25.248 60.4847 25.248H61.5167C61.5887 25.248 61.6487 25.272 61.6967 25.32C61.7527 25.36 61.7807 25.412 61.7807 25.476C61.7807 25.668 61.6647 25.896 61.4327 26.16C61.2087 26.416 60.8847 26.64 60.4607 26.832C60.0367 27.024 59.5447 27.12 58.9847 27.12ZM60.3167 23.34V23.304C60.3167 22.832 60.1967 22.452 59.9567 22.164C59.7247 21.876 59.4007 21.732 58.9847 21.732C58.5687 21.732 58.2447 21.876 58.0127 22.164C57.7807 22.452 57.6647 22.832 57.6647 23.304V23.34H60.3167ZM64.1105 27C64.0305 27 63.9625 26.972 63.9065 26.916C63.8505 26.86 63.8225 26.792 63.8225 26.712V21.048C63.8225 20.968 63.8505 20.9 63.9065 20.844C63.9625 20.788 64.0305 20.76 64.1105 20.76H65.0465C65.1265 20.76 65.1945 20.788 65.2505 20.844C65.3065 20.9 65.3345 20.968 65.3345 21.048V21.456C65.7505 20.912 66.3305 20.64 67.0745 20.64C67.9625 20.64 68.5825 20.996 68.9345 21.708C69.1265 21.388 69.3985 21.132 69.7505 20.94C70.1025 20.74 70.4825 20.64 70.8905 20.64C71.5465 20.64 72.0825 20.864 72.4985 21.312C72.9145 21.76 73.1225 22.412 73.1225 23.268V26.712C73.1225 26.792 73.0945 26.86 73.0385 26.916C72.9905 26.972 72.9225 27 72.8345 27H71.8505C71.7705 27 71.7025 26.972 71.6465 26.916C71.5905 26.86 71.5625 26.792 71.5625 26.712V23.364C71.5625 22.86 71.4545 22.496 71.2385 22.272C71.0305 22.04 70.7505 21.924 70.3985 21.924C70.0865 21.924 69.8185 22.04 69.5945 22.272C69.3785 22.504 69.2705 22.868 69.2705 23.364V26.712C69.2705 26.792 69.2425 26.86 69.1865 26.916C69.1305 26.972 69.0625 27 68.9825 27H67.9985C67.9185 27 67.8505 26.972 67.7945 26.916C67.7385 26.86 67.7105 26.792 67.7105 26.712V23.364C67.7105 22.86 67.5985 22.496 67.3745 22.272C67.1585 22.04 66.8825 21.924 66.5465 21.924C66.2265 21.924 65.9545 22.04 65.7305 22.272C65.5145 22.504 65.4065 22.868 65.4065 23.364V26.712C65.4065 26.792 65.3785 26.86 65.3225 26.916C65.2665 26.972 65.1985 27 65.1185 27H64.1105ZM79.0248 27C78.9448 27 78.8768 26.972 78.8208 26.916C78.7648 26.86 78.7368 26.792 78.7368 26.712V18.9C78.7368 18.812 78.7608 18.74 78.8088 18.684C78.8648 18.628 78.9368 18.6 79.0248 18.6H84.3048C84.3928 18.6 84.4648 18.628 84.5208 18.684C84.5768 18.74 84.6048 18.812 84.6048 18.9V19.692C84.6048 19.78 84.5768 19.852 84.5208 19.908C84.4648 19.956 84.3928 19.98 84.3048 19.98H80.3568V22.104H84.0408C84.1288 22.104 84.2008 22.132 84.2568 22.188C84.3128 22.236 84.3408 22.304 84.3408 22.392V23.136C84.3408 23.224 84.3128 23.296 84.2568 23.352C84.2008 23.4 84.1288 23.424 84.0408 23.424H80.3568V25.62H84.4008C84.4888 25.62 84.5608 25.648 84.6168 25.704C84.6728 25.76 84.7008 25.832 84.7008 25.92V26.712C84.7008 26.8 84.6728 26.872 84.6168 26.928C84.5608 26.976 84.4888 27 84.4008 27H79.0248ZM86.8976 19.728C86.8176 19.728 86.7496 19.7 86.6936 19.644C86.6376 19.588 86.6096 19.52 86.6096 19.44V18.576C86.6096 18.496 86.6376 18.428 86.6936 18.372C86.7496 18.316 86.8176 18.288 86.8976 18.288H87.9896C88.0696 18.288 88.1376 18.316 88.1936 18.372C88.2576 18.428 88.2896 18.496 88.2896 18.576V19.44C88.2896 19.52 88.2616 19.588 88.2056 19.644C88.1496 19.7 88.0776 19.728 87.9896 19.728H86.8976ZM86.9456 27C86.8656 27 86.7976 26.972 86.7416 26.916C86.6856 26.86 86.6576 26.792 86.6576 26.712V21.048C86.6576 20.968 86.6856 20.9 86.7416 20.844C86.7976 20.788 86.8656 20.76 86.9456 20.76H87.9416C88.0296 20.76 88.0976 20.788 88.1456 20.844C88.2016 20.892 88.2296 20.96 88.2296 21.048V26.712C88.2296 26.792 88.2016 26.86 88.1456 26.916C88.0976 26.972 88.0296 27 87.9416 27H86.9456ZM90.7097 27C90.6297 27 90.5617 26.972 90.5057 26.916C90.4497 26.86 90.4217 26.792 90.4217 26.712V21.048C90.4217 20.968 90.4497 20.9 90.5057 20.844C90.5617 20.788 90.6297 20.76 90.7097 20.76H91.6937C91.7737 20.76 91.8417 20.788 91.8977 20.844C91.9537 20.9 91.9817 20.968 91.9817 21.048V21.54C92.4537 20.94 93.1217 20.64 93.9857 20.64C94.7217 20.64 95.3057 20.884 95.7377 21.372C96.1697 21.852 96.3857 22.508 96.3857 23.34V26.712C96.3857 26.792 96.3577 26.86 96.3017 26.916C96.2537 26.972 96.1857 27 96.0977 27H95.0417C94.9617 27 94.8937 26.972 94.8377 26.916C94.7817 26.86 94.7537 26.792 94.7537 26.712V23.412C94.7537 22.94 94.6377 22.576 94.4057 22.32C94.1817 22.056 93.8537 21.924 93.4217 21.924C92.9977 21.924 92.6617 22.056 92.4137 22.32C92.1737 22.584 92.0537 22.948 92.0537 23.412V26.712C92.0537 26.792 92.0257 26.86 91.9697 26.916C91.9217 26.972 91.8537 27 91.7657 27H90.7097ZM98.81 27C98.73 27 98.662 26.972 98.606 26.916C98.55 26.86 98.522 26.792 98.522 26.712V18.768C98.522 18.68 98.55 18.612 98.606 18.564C98.662 18.508 98.73 18.48 98.81 18.48H99.782C99.87 18.48 99.938 18.508 99.986 18.564C100.042 18.612 100.07 18.68 100.07 18.768V22.872L102.086 20.964C102.11 20.948 102.15 20.916 102.206 20.868C102.254 20.828 102.302 20.8 102.35 20.784C102.398 20.768 102.458 20.76 102.53 20.76H103.646C103.726 20.76 103.79 20.784 103.838 20.832C103.886 20.88 103.91 20.944 103.91 21.024C103.91 21.096 103.87 21.168 103.79 21.24L101.318 23.556L104.09 26.532C104.17 26.612 104.21 26.68 104.21 26.736C104.21 26.816 104.182 26.88 104.126 26.928C104.078 26.976 104.018 27 103.946 27H102.806C102.694 27 102.61 26.988 102.554 26.964C102.506 26.932 102.442 26.876 102.362 26.796L100.07 24.384V26.712C100.07 26.792 100.042 26.86 99.986 26.916C99.938 26.972 99.87 27 99.782 27H98.81ZM108.175 27.12C107.239 27.12 106.515 26.88 106.003 26.4C105.491 25.912 105.215 25.248 105.175 24.408L105.163 23.88L105.175 23.352C105.215 22.52 105.495 21.86 106.015 21.372C106.535 20.884 107.255 20.64 108.175 20.64C109.095 20.64 109.815 20.884 110.335 21.372C110.855 21.86 111.135 22.52 111.175 23.352C111.183 23.448 111.187 23.624 111.187 23.88C111.187 24.136 111.183 24.312 111.175 24.408C111.135 25.248 110.859 25.912 110.347 26.4C109.835 26.88 109.111 27.12 108.175 27.12ZM108.175 25.932C108.599 25.932 108.927 25.8 109.159 25.536C109.391 25.264 109.519 24.868 109.543 24.348C109.551 24.268 109.555 24.112 109.555 23.88C109.555 23.648 109.551 23.492 109.543 23.412C109.519 22.892 109.391 22.5 109.159 22.236C108.927 21.964 108.599 21.828 108.175 21.828C107.751 21.828 107.423 21.964 107.191 22.236C106.959 22.5 106.831 22.892 106.807 23.412L106.795 23.88L106.807 24.348C106.831 24.868 106.959 25.264 107.191 25.536C107.423 25.8 107.751 25.932 108.175 25.932ZM113.404 27C113.324 27 113.256 26.972 113.2 26.916C113.144 26.86 113.116 26.792 113.116 26.712V21.048C113.116 20.968 113.144 20.9 113.2 20.844C113.256 20.788 113.324 20.76 113.404 20.76H114.34C114.42 20.76 114.488 20.788 114.544 20.844C114.6 20.9 114.628 20.968 114.628 21.048V21.456C115.044 20.912 115.624 20.64 116.368 20.64C117.256 20.64 117.876 20.996 118.228 21.708C118.42 21.388 118.692 21.132 119.044 20.94C119.396 20.74 119.776 20.64 120.184 20.64C120.84 20.64 121.376 20.864 121.792 21.312C122.208 21.76 122.416 22.412 122.416 23.268V26.712C122.416 26.792 122.388 26.86 122.332 26.916C122.284 26.972 122.216 27 122.128 27H121.144C121.064 27 120.996 26.972 120.94 26.916C120.884 26.86 120.856 26.792 120.856 26.712V23.364C120.856 22.86 120.748 22.496 120.532 22.272C120.324 22.04 120.044 21.924 119.692 21.924C119.38 21.924 119.112 22.04 118.888 22.272C118.672 22.504 118.564 22.868 118.564 23.364V26.712C118.564 26.792 118.536 26.86 118.48 26.916C118.424 26.972 118.356 27 118.276 27H117.292C117.212 27 117.144 26.972 117.088 26.916C117.032 26.86 117.004 26.792 117.004 26.712V23.364C117.004 22.86 116.892 22.496 116.668 22.272C116.452 22.04 116.176 21.924 115.84 21.924C115.52 21.924 115.248 22.04 115.024 22.272C114.808 22.504 114.7 22.868 114.7 23.364V26.712C114.7 26.792 114.672 26.86 114.616 26.916C114.56 26.972 114.492 27 114.412 27H113.404ZM124.832 27C124.752 27 124.684 26.972 124.628 26.916C124.572 26.86 124.544 26.792 124.544 26.712V21.048C124.544 20.968 124.572 20.9 124.628 20.844C124.684 20.788 124.752 20.76 124.832 20.76H125.768C125.848 20.76 125.916 20.788 125.972 20.844C126.028 20.9 126.056 20.968 126.056 21.048V21.456C126.472 20.912 127.052 20.64 127.796 20.64C128.684 20.64 129.304 20.996 129.656 21.708C129.848 21.388 130.12 21.132 130.472 20.94C130.824 20.74 131.204 20.64 131.612 20.64C132.268 20.64 132.804 20.864 133.22 21.312C133.636 21.76 133.844 22.412 133.844 23.268V26.712C133.844 26.792 133.816 26.86 133.76 26.916C133.712 26.972 133.644 27 133.556 27H132.572C132.492 27 132.424 26.972 132.368 26.916C132.312 26.86 132.284 26.792 132.284 26.712V23.364C132.284 22.86 132.176 22.496 131.96 22.272C131.752 22.04 131.472 21.924 131.12 21.924C130.808 21.924 130.54 22.04 130.316 22.272C130.1 22.504 129.992 22.868 129.992 23.364V26.712C129.992 26.792 129.964 26.86 129.908 26.916C129.852 26.972 129.784 27 129.704 27H128.72C128.64 27 128.572 26.972 128.516 26.916C128.46 26.86 128.432 26.792 128.432 26.712V23.364C128.432 22.86 128.32 22.496 128.096 22.272C127.88 22.04 127.604 21.924 127.268 21.924C126.948 21.924 126.676 22.04 126.452 22.272C126.236 22.504 126.128 22.868 126.128 23.364V26.712C126.128 26.792 126.1 26.86 126.044 26.916C125.988 26.972 125.92 27 125.84 27H124.832ZM138.66 27.12C137.772 27.12 137.064 26.864 136.536 26.352C136.016 25.832 135.74 25.104 135.708 24.168L135.696 23.868L135.708 23.568C135.748 22.656 136.028 21.94 136.548 21.42C137.076 20.9 137.78 20.64 138.66 20.64C139.604 20.64 140.332 20.928 140.844 21.504C141.364 22.08 141.624 22.848 141.624 23.808V24.06C141.624 24.14 141.596 24.208 141.54 24.264C141.484 24.32 141.412 24.348 141.324 24.348H137.34V24.444C137.356 24.884 137.476 25.256 137.7 25.56C137.932 25.856 138.248 26.004 138.648 26.004C139.12 26.004 139.5 25.82 139.788 25.452C139.86 25.364 139.916 25.308 139.956 25.284C140.004 25.26 140.072 25.248 140.16 25.248H141.192C141.264 25.248 141.324 25.272 141.372 25.32C141.428 25.36 141.456 25.412 141.456 25.476C141.456 25.668 141.34 25.896 141.108 26.16C140.884 26.416 140.56 26.64 140.136 26.832C139.712 27.024 139.22 27.12 138.66 27.12ZM139.992 23.34V23.304C139.992 22.832 139.872 22.452 139.632 22.164C139.4 21.876 139.076 21.732 138.66 21.732C138.244 21.732 137.92 21.876 137.688 22.164C137.456 22.452 137.34 22.832 137.34 23.304V23.34H139.992ZM143.786 27C143.706 27 143.638 26.972 143.582 26.916C143.526 26.86 143.498 26.792 143.498 26.712V21.048C143.498 20.968 143.526 20.9 143.582 20.844C143.638 20.788 143.706 20.76 143.786 20.76H144.77C144.85 20.76 144.918 20.788 144.974 20.844C145.03 20.9 145.058 20.968 145.058 21.048V21.54C145.53 20.94 146.198 20.64 147.062 20.64C147.798 20.64 148.382 20.884 148.814 21.372C149.246 21.852 149.462 22.508 149.462 23.34V26.712C149.462 26.792 149.434 26.86 149.378 26.916C149.33 26.972 149.262 27 149.174 27H148.118C148.038 27 147.97 26.972 147.914 26.916C147.858 26.86 147.83 26.792 147.83 26.712V23.412C147.83 22.94 147.714 22.576 147.482 22.32C147.258 22.056 146.93 21.924 146.498 21.924C146.074 21.924 145.738 22.056 145.49 22.32C145.25 22.584 145.13 22.948 145.13 23.412V26.712C145.13 26.792 145.102 26.86 145.046 26.916C144.998 26.972 144.93 27 144.842 27H143.786Z" fill="#333333"/>
<path d="M402.5 39.7998H356V79.7998H402.5V39.7998Z" fill="#F1EEF6"/>
<mask id="mask0" mask-type="alpha" maskUnits="userSpaceOnUse" x="312" y="38" width="131" height="44">
<line x1="354.707" y1="38.7071" x2="312.707" y2="80.7071" stroke="white" stroke-width="2"/>
<line x1="362.707" y1="38.7071" x2="320.707" y2="80.7071" stroke="white" stroke-width="2"/>
<line x1="433.707" y1="38.7071" x2="391.707" y2="80.7071" stroke="white" stroke-width="2"/>
<line x1="441.707" y1="38.7071" x2="399.707" y2="80.7071" stroke="white" stroke-width="2"/>
<line x1="370.707" y1="38.7071" x2="328.707" y2="80.7071" stroke="white" stroke-width="2"/>
<line x1="378.707" y1="38.7071" x2="336.707" y2="80.7071" stroke="white" stroke-width="2"/>
<line x1="386.707" y1="38.7071" x2="344.707" y2="80.7071" stroke="white" stroke-width="2"/>
<line x1="393.707" y1="38.7071" x2="351.707" y2="80.7071" stroke="white" stroke-width="2"/>
<line x1="401.707" y1="38.7071" x2="359.707" y2="80.7071" stroke="white" stroke-width="2"/>
<line x1="409.707" y1="38.7071" x2="367.707" y2="80.7071" stroke="white" stroke-width="2"/>
<line x1="417.707" y1="38.7071" x2="375.707" y2="80.7071" stroke="white" stroke-width="2"/>
<line x1="425.707" y1="38.7071" x2="383.707" y2="80.7071" stroke="white" stroke-width="2"/>
</mask>
<g mask="url(#mask0)">
<path d="M403.5 39.7998H357V79.7998H403.5V39.7998Z" fill="#E0E0E0"/>
</g>
<path d="M351 39.7998H331.6V79.7998H351V39.7998Z" fill="#034E7B"/>
<mask id="mask1" mask-type="alpha" maskUnits="userSpaceOnUse" x="163" y="38" width="284" height="44">
<line x1="205.707" y1="38.7071" x2="163.707" y2="80.7071" stroke="#C2DBFF" stroke-width="2"/>
<line x1="213.707" y1="38.7071" x2="171.707" y2="80.7071" stroke="#C2DBFF" stroke-width="2"/>
<line x1="221.707" y1="38.7071" x2="179.707" y2="80.7071" stroke="#C2DBFF" stroke-width="2"/>
<line x1="229.707" y1="38.7071" x2="187.707" y2="80.7071" stroke="#C2DBFF" stroke-width="2"/>
<line x1="237.707" y1="38.7071" x2="195.707" y2="80.7071" stroke="#C2DBFF" stroke-width="2"/>
<line x1="245.707" y1="38.7071" x2="203.707" y2="80.7071" stroke="#C2DBFF" stroke-width="2"/>
<line x1="253.707" y1="38.7071" x2="211.707" y2="80.7071" stroke="#C2DBFF" stroke-width="2"/>
<line x1="261.707" y1="38.7071" x2="219.707" y2="80.7071" stroke="#C2DBFF" stroke-width="2"/>
<line x1="269.707" y1="38.7071" x2="227.707" y2="80.7071" stroke="#C2DBFF" stroke-width="2"/>
<line x1="277.707" y1="38.7071" x2="235.707" y2="80.7071" stroke="#C2DBFF" stroke-width="2"/>
<line x1="285.707" y1="38.7071" x2="243.707" y2="80.7071" stroke="#C2DBFF" stroke-width="2"/>
<line x1="293.707" y1="38.7071" x2="251.707" y2="80.7071" stroke="#C2DBFF" stroke-width="2"/>
<line x1="301.707" y1="38.7071" x2="259.707" y2="80.7071" stroke="#C2DBFF" stroke-width="2"/>
<line x1="309.707" y1="38.7071" x2="267.707" y2="80.7071" stroke="#C2DBFF" stroke-width="2"/>
<line x1="317.707" y1="38.7071" x2="275.707" y2="80.7071" stroke="#C2DBFF" stroke-width="2"/>
<line x1="325.707" y1="38.7071" x2="283.707" y2="80.7071" stroke="#C2DBFF" stroke-width="2"/>
<line x1="333.707" y1="38.7071" x2="291.707" y2="80.7071" stroke="#C2DBFF" stroke-width="2"/>
<line x1="341.707" y1="38.7071" x2="299.707" y2="80.7071" stroke="#C2DBFF" stroke-width="2"/>
<line x1="349.707" y1="38.7071" x2="307.707" y2="80.7071" stroke="#C2DBFF" stroke-width="2"/>
<line x1="357.707" y1="38.7071" x2="315.707" y2="80.7071" stroke="#C2DBFF" stroke-width="2"/>
<line x1="365.707" y1="38.7071" x2="323.707" y2="80.7071" stroke="#C2DBFF" stroke-width="2"/>
<line x1="373.707" y1="38.7071" x2="331.707" y2="80.7071" stroke="#C2DBFF" stroke-width="2"/>
<line x1="381.707" y1="38.7071" x2="339.707" y2="80.7071" stroke="#C2DBFF" stroke-width="2"/>
<line x1="389.707" y1="38.7071" x2="347.707" y2="80.7071" stroke="#C2DBFF" stroke-width="2"/>
<line x1="397.707" y1="38.7071" x2="355.707" y2="80.7071" stroke="#C2DBFF" stroke-width="2"/>
<line x1="405.707" y1="38.7071" x2="363.707" y2="80.7071" stroke="#C2DBFF" stroke-width="2"/>
<line x1="413.707" y1="38.7071" x2="371.707" y2="80.7071" stroke="#C2DBFF" stroke-width="2"/>
<line x1="421.707" y1="38.7071" x2="379.707" y2="80.7071" stroke="#C2DBFF" stroke-width="2"/>
<line x1="429.707" y1="38.7071" x2="387.707" y2="80.7071" stroke="#C2DBFF" stroke-width="2"/>
<line x1="437.707" y1="38.7071" x2="395.707" y2="80.7071" stroke="#C2DBFF" stroke-width="2"/>
<line x1="445.707" y1="38.7071" x2="403.707" y2="80.7071" stroke="#C2DBFF" stroke-width="2"/>
</mask>
<g mask="url(#mask1)">
<path d="M351.4 39.7998H332V79.7998H351.4V39.7998Z" fill="#046AA7"/>
</g>
<path d="M326.6 39.7998H249.1V79.7998H326.6V39.7998Z" fill="#0570B0"/>
<mask id="mask2" mask-type="alpha" maskUnits="userSpaceOnUse" x="83" y="38" width="284" height="44">
<line x1="125.707" y1="38.7071" x2="83.7071" y2="80.7071" stroke="#A55F8A" stroke-width="2"/>
<line x1="133.707" y1="38.7071" x2="91.7071" y2="80.7071" stroke="#A55F8A" stroke-width="2"/>
<line x1="141.707" y1="38.7071" x2="99.7071" y2="80.7071" stroke="#A55F8A" stroke-width="2"/>
<line x1="149.707" y1="38.7071" x2="107.707" y2="80.7071" stroke="#A55F8A" stroke-width="2"/>
<line x1="157.707" y1="38.7071" x2="115.707" y2="80.7071" stroke="#A55F8A" stroke-width="2"/>
<line x1="165.707" y1="38.7071" x2="123.707" y2="80.7071" stroke="#A55F8A" stroke-width="2"/>
<line x1="173.707" y1="38.7071" x2="131.707" y2="80.7071" stroke="#A55F8A" stroke-width="2"/>
<line x1="181.707" y1="38.7071" x2="139.707" y2="80.7071" stroke="#A55F8A" stroke-width="2"/>
<line x1="189.707" y1="38.7071" x2="147.707" y2="80.7071" stroke="#A55F8A" stroke-width="2"/>
<line x1="197.707" y1="38.7071" x2="155.707" y2="80.7071" stroke="#A55F8A" stroke-width="2"/>
<line x1="205.707" y1="38.7071" x2="163.707" y2="80.7071" stroke="#A55F8A" stroke-width="2"/>
<line x1="213.707" y1="38.7071" x2="171.707" y2="80.7071" stroke="#A55F8A" stroke-width="2"/>
<line x1="221.707" y1="38.7071" x2="179.707" y2="80.7071" stroke="#A55F8A" stroke-width="2"/>
<line x1="229.707" y1="38.7071" x2="187.707" y2="80.7071" stroke="#A55F8A" stroke-width="2"/>
<line x1="237.707" y1="38.7071" x2="195.707" y2="80.7071" stroke="#A55F8A" stroke-width="2"/>
<line x1="245.707" y1="38.7071" x2="203.707" y2="80.7071" stroke="#A55F8A" stroke-width="2"/>
<line x1="253.707" y1="38.7071" x2="211.707" y2="80.7071" stroke="#A55F8A" stroke-width="2"/>
<line x1="261.707" y1="38.7071" x2="219.707" y2="80.7071" stroke="#A55F8A" stroke-width="2"/>
<line x1="269.707" y1="38.7071" x2="227.707" y2="80.7071" stroke="#A55F8A" stroke-width="2"/>
<line x1="277.707" y1="38.7071" x2="235.707" y2="80.7071" stroke="#A55F8A" stroke-width="2"/>
<line x1="285.707" y1="38.7071" x2="243.707" y2="80.7071" stroke="#A55F8A" stroke-width="2"/>
<line x1="293.707" y1="38.7071" x2="251.707" y2="80.7071" stroke="#A55F8A" stroke-width="2"/>
<line x1="301.707" y1="38.7071" x2="259.707" y2="80.7071" stroke="#A55F8A" stroke-width="2"/>
<line x1="309.707" y1="38.7071" x2="267.707" y2="80.7071" stroke="#A55F8A" stroke-width="2"/>
<line x1="317.707" y1="38.7071" x2="275.707" y2="80.7071" stroke="#A55F8A" stroke-width="2"/>
<line x1="325.707" y1="38.7071" x2="283.707" y2="80.7071" stroke="#A55F8A" stroke-width="2"/>
<line x1="333.707" y1="38.7071" x2="291.707" y2="80.7071" stroke="#A55F8A" stroke-width="2"/>
<line x1="341.707" y1="38.7071" x2="299.707" y2="80.7071" stroke="#A55F8A" stroke-width="2"/>
<line x1="349.707" y1="38.7071" x2="307.707" y2="80.7071" stroke="#A55F8A" stroke-width="2"/>
<line x1="357.707" y1="38.7071" x2="315.707" y2="80.7071" stroke="#A55F8A" stroke-width="2"/>
<line x1="365.707" y1="38.7071" x2="323.707" y2="80.7071" stroke="#A55F8A" stroke-width="2"/>
</mask>
<g mask="url(#mask2)">
<path d="M327.5 39.7998H250V79.7998H327.5V39.7998Z" fill="#0991E2"/>
</g>
<path d="M244.1 39.7998H0V79.7998H244.1V39.7998Z" fill="#A6BDDD"/>
<mask id="mask3" mask-type="alpha" maskUnits="userSpaceOnUse" x="-45" y="38" width="404" height="44">
<line x1="5.70711" y1="38.7071" x2="-36.2929" y2="80.7071" stroke="#6B6B6B" stroke-width="2"/>
<line x1="13.7071" y1="38.7071" x2="-28.2929" y2="80.7071" stroke="#6B6B6B" stroke-width="2"/>
<line x1="21.7071" y1="38.7071" x2="-20.2929" y2="80.7071" stroke="#6B6B6B" stroke-width="2"/>
<line x1="29.7071" y1="38.7071" x2="-12.2929" y2="80.7071" stroke="#6B6B6B" stroke-width="2"/>
<line x1="37.7071" y1="38.7071" x2="-4.29289" y2="80.7071" stroke="#6B6B6B" stroke-width="2"/>
<line x1="45.7071" y1="38.7071" x2="3.70711" y2="80.7071" stroke="#6B6B6B" stroke-width="2"/>
<line x1="53.7071" y1="38.7071" x2="11.7071" y2="80.7071" stroke="#6B6B6B" stroke-width="2"/>
<line x1="61.7071" y1="38.7071" x2="19.7071" y2="80.7071" stroke="#6B6B6B" stroke-width="2"/>
<line x1="69.7071" y1="38.7071" x2="27.7071" y2="80.7071" stroke="#6B6B6B" stroke-width="2"/>
<line x1="77.7071" y1="38.7071" x2="35.7071" y2="80.7071" stroke="#6B6B6B" stroke-width="2"/>
<line x1="85.7071" y1="38.7071" x2="43.7071" y2="80.7071" stroke="#6B6B6B" stroke-width="2"/>
<line x1="93.7071" y1="38.7071" x2="51.7071" y2="80.7071" stroke="#6B6B6B" stroke-width="2"/>
<line x1="101.707" y1="38.7071" x2="59.7071" y2="80.7071" stroke="#6B6B6B" stroke-width="2"/>
<line x1="109.707" y1="38.7071" x2="67.7071" y2="80.7071" stroke="#6B6B6B" stroke-width="2"/>
<line x1="117.707" y1="38.7071" x2="75.7071" y2="80.7071" stroke="#6B6B6B" stroke-width="2"/>
<line x1="125.707" y1="38.7071" x2="83.7071" y2="80.7071" stroke="#6B6B6B" stroke-width="2"/>
<line x1="133.707" y1="38.7071" x2="91.7071" y2="80.7071" stroke="#6B6B6B" stroke-width="2"/>
<line x1="141.707" y1="38.7071" x2="99.7071" y2="80.7071" stroke="#6B6B6B" stroke-width="2"/>
<line x1="149.707" y1="38.7071" x2="107.707" y2="80.7071" stroke="#6B6B6B" stroke-width="2"/>
<line x1="157.707" y1="38.7071" x2="115.707" y2="80.7071" stroke="#6B6B6B" stroke-width="2"/>
<line x1="165.707" y1="38.7071" x2="123.707" y2="80.7071" stroke="#6B6B6B" stroke-width="2"/>
<line x1="173.707" y1="38.7071" x2="131.707" y2="80.7071" stroke="#6B6B6B" stroke-width="2"/>
<line x1="181.707" y1="38.7071" x2="139.707" y2="80.7071" stroke="#6B6B6B" stroke-width="2"/>
<line x1="189.707" y1="38.7071" x2="147.707" y2="80.7071" stroke="#6B6B6B" stroke-width="2"/>
<line x1="197.707" y1="38.7071" x2="155.707" y2="80.7071" stroke="#6B6B6B" stroke-width="2"/>
<line x1="205.707" y1="38.7071" x2="163.707" y2="80.7071" stroke="#6B6B6B" stroke-width="2"/>
<line x1="213.707" y1="38.7071" x2="171.707" y2="80.7071" stroke="#6B6B6B" stroke-width="2"/>
<line x1="221.707" y1="38.7071" x2="179.707" y2="80.7071" stroke="#6B6B6B" stroke-width="2"/>
<line x1="229.707" y1="38.7071" x2="187.707" y2="80.7071" stroke="#6B6B6B" stroke-width="2"/>
<line x1="237.707" y1="38.7071" x2="195.707" y2="80.7071" stroke="#6B6B6B" stroke-width="2"/>
<line x1="245.707" y1="38.7071" x2="203.707" y2="80.7071" stroke="#6B6B6B" stroke-width="2"/>
<line x1="253.707" y1="38.7071" x2="211.707" y2="80.7071" stroke="#6B6B6B" stroke-width="2"/>
<line x1="261.707" y1="38.7071" x2="219.707" y2="80.7071" stroke="#6B6B6B" stroke-width="2"/>
<line x1="269.707" y1="38.7071" x2="227.707" y2="80.7071" stroke="#6B6B6B" stroke-width="2"/>
<line x1="277.707" y1="38.7071" x2="235.707" y2="80.7071" stroke="#6B6B6B" stroke-width="2"/>
<line x1="285.707" y1="38.7071" x2="243.707" y2="80.7071" stroke="#6B6B6B" stroke-width="2"/>
<line x1="293.707" y1="38.7071" x2="251.707" y2="80.7071" stroke="#6B6B6B" stroke-width="2"/>
<line x1="301.707" y1="38.7071" x2="259.707" y2="80.7071" stroke="#6B6B6B" stroke-width="2"/>
<line x1="309.707" y1="38.7071" x2="267.707" y2="80.7071" stroke="#6B6B6B" stroke-width="2"/>
<line x1="317.707" y1="38.7071" x2="275.707" y2="80.7071" stroke="#6B6B6B" stroke-width="2"/>
<line x1="325.707" y1="38.7071" x2="283.707" y2="80.7071" stroke="#6B6B6B" stroke-width="2"/>
<line x1="333.707" y1="38.7071" x2="291.707" y2="80.7071" stroke="#6B6B6B" stroke-width="2"/>
<line x1="341.707" y1="38.7071" x2="299.707" y2="80.7071" stroke="#6B6B6B" stroke-width="2"/>
<line x1="349.707" y1="38.7071" x2="307.707" y2="80.7071" stroke="#6B6B6B" stroke-width="2"/>
<line x1="357.707" y1="38.7071" x2="315.707" y2="80.7071" stroke="#6B6B6B" stroke-width="2"/>
</mask>
<g mask="url(#mask3)">
<path d="M244.1 39.7998H0V79.7998H244.1V39.7998Z" fill="#C2DBFF"/>
</g>
<path d="M112.766 97.12C112.062 97.12 111.438 96.996 110.894 96.748C110.358 96.492 109.938 96.136 109.634 95.68C109.338 95.224 109.19 94.704 109.19 94.12C109.19 93.408 109.526 92.596 110.198 91.684L112.31 88.84C112.374 88.768 112.434 88.712 112.49 88.672C112.554 88.624 112.638 88.6 112.742 88.6H114.338C114.41 88.6 114.47 88.628 114.518 88.684C114.566 88.732 114.59 88.792 114.59 88.864C114.59 88.92 114.574 88.972 114.542 89.02L112.922 91.228C113.018 91.204 113.138 91.192 113.282 91.192C113.77 91.216 114.242 91.352 114.698 91.6C115.162 91.84 115.538 92.176 115.826 92.608C116.114 93.04 116.258 93.528 116.258 94.072C116.258 94.632 116.114 95.144 115.826 95.608C115.538 96.072 115.126 96.44 114.59 96.712C114.062 96.984 113.454 97.12 112.766 97.12ZM112.742 95.392C113.11 95.392 113.422 95.28 113.678 95.056C113.934 94.824 114.062 94.508 114.062 94.108C114.062 93.708 113.934 93.396 113.678 93.172C113.43 92.948 113.118 92.836 112.742 92.836C112.366 92.836 112.05 92.948 111.794 93.172C111.538 93.396 111.41 93.708 111.41 94.108C111.41 94.508 111.538 94.824 111.794 95.056C112.05 95.28 112.366 95.392 112.742 95.392ZM121.11 97.12C120.334 97.12 119.682 97 119.154 96.76C118.634 96.52 118.246 96.224 117.99 95.872C117.742 95.512 117.61 95.152 117.594 94.792C117.594 94.72 117.618 94.66 117.666 94.612C117.722 94.564 117.786 94.54 117.858 94.54H119.43C119.518 94.54 119.59 94.556 119.646 94.588C119.702 94.62 119.754 94.68 119.802 94.768C119.962 95.184 120.398 95.392 121.11 95.392C121.518 95.392 121.834 95.3 122.058 95.116C122.29 94.924 122.406 94.664 122.406 94.336C122.406 93.696 121.99 93.376 121.158 93.376H119.826C119.746 93.376 119.674 93.348 119.61 93.292C119.554 93.228 119.526 93.156 119.526 93.076V92.404C119.526 92.228 119.59 92.092 119.718 91.996L121.686 90.328H118.35C118.27 90.328 118.198 90.3 118.134 90.244C118.078 90.18 118.05 90.108 118.05 90.028V88.9C118.05 88.812 118.078 88.74 118.134 88.684C118.198 88.628 118.27 88.6 118.35 88.6H123.87C123.958 88.6 124.03 88.628 124.086 88.684C124.15 88.74 124.182 88.812 124.182 88.9V89.92C124.182 90.072 124.118 90.204 123.99 90.316L122.166 92.008L122.25 92.032C122.986 92.128 123.566 92.376 123.99 92.776C124.422 93.168 124.638 93.732 124.638 94.468C124.638 95.004 124.486 95.472 124.182 95.872C123.878 96.272 123.458 96.58 122.922 96.796C122.386 97.012 121.782 97.12 121.11 97.12ZM128.024 92.836C127.48 92.836 127.044 92.696 126.716 92.416C126.388 92.128 126.208 91.744 126.176 91.264C126.16 91.024 126.152 90.856 126.152 90.76C126.152 90.664 126.16 90.456 126.176 90.136C126.2 89.648 126.372 89.26 126.692 88.972C127.012 88.684 127.456 88.54 128.024 88.54C128.584 88.54 129.024 88.684 129.344 88.972C129.664 89.26 129.836 89.648 129.86 90.136C129.876 90.456 129.884 90.664 129.884 90.76C129.884 90.856 129.876 91.024 129.86 91.264C129.828 91.744 129.648 92.128 129.32 92.416C128.992 92.696 128.56 92.836 128.024 92.836ZM127.064 97C126.984 97 126.916 96.98 126.86 96.94C126.812 96.892 126.788 96.832 126.788 96.76C126.788 96.712 126.804 96.668 126.836 96.628L132.764 88.828C132.828 88.748 132.888 88.692 132.944 88.66C133 88.62 133.08 88.6 133.184 88.6H134.036C134.116 88.6 134.18 88.624 134.228 88.672C134.284 88.712 134.312 88.768 134.312 88.84C134.312 88.888 134.296 88.932 134.264 88.972L128.336 96.772C128.272 96.852 128.212 96.912 128.156 96.952C128.1 96.984 128.02 97 127.916 97H127.064ZM128.024 91.792C128.36 91.792 128.544 91.596 128.576 91.204C128.592 90.948 128.6 90.78 128.6 90.7C128.6 90.596 128.592 90.432 128.576 90.208C128.568 90.032 128.516 89.888 128.42 89.776C128.332 89.664 128.2 89.608 128.024 89.608C127.84 89.608 127.704 89.664 127.616 89.776C127.528 89.888 127.476 90.032 127.46 90.208C127.452 90.32 127.448 90.484 127.448 90.7C127.448 90.908 127.452 91.076 127.46 91.204C127.492 91.596 127.68 91.792 128.024 91.792ZM133.1 97.06C132.556 97.06 132.12 96.92 131.792 96.64C131.472 96.352 131.292 95.964 131.252 95.476C131.244 95.34 131.24 95.156 131.24 94.924C131.24 94.684 131.244 94.492 131.252 94.348C131.284 93.852 131.456 93.46 131.768 93.172C132.088 92.884 132.532 92.74 133.1 92.74C133.668 92.74 134.108 92.884 134.42 93.172C134.74 93.46 134.916 93.852 134.948 94.348C134.964 94.668 134.972 94.876 134.972 94.972C134.972 95.068 134.964 95.236 134.948 95.476C134.916 95.956 134.736 96.34 134.408 96.628C134.08 96.916 133.644 97.06 133.1 97.06ZM133.1 96.004C133.284 96.004 133.42 95.948 133.508 95.836C133.596 95.716 133.648 95.572 133.664 95.404C133.68 95.164 133.688 94.996 133.688 94.9C133.688 94.796 133.68 94.632 133.664 94.408C133.648 94.24 133.596 94.1 133.508 93.988C133.42 93.868 133.284 93.808 133.1 93.808C132.916 93.808 132.78 93.868 132.692 93.988C132.604 94.1 132.556 94.24 132.548 94.408C132.54 94.52 132.536 94.684 132.536 94.9C132.536 95.116 132.54 95.284 132.548 95.404C132.564 95.58 132.612 95.724 132.692 95.836C132.78 95.948 132.916 96.004 133.1 96.004Z" fill="#333333"/>
<path d="M371.075 97C370.995 97 370.923 96.972 370.859 96.916C370.803 96.852 370.775 96.78 370.775 96.7V90.988L369.131 92.248C369.075 92.296 369.015 92.32 368.951 92.32C368.863 92.32 368.783 92.272 368.711 92.176L368.003 91.252C367.963 91.188 367.943 91.128 367.943 91.072C367.943 90.96 367.991 90.876 368.087 90.82L370.847 88.684C370.935 88.628 371.031 88.6 371.135 88.6H372.635C372.723 88.6 372.795 88.628 372.851 88.684C372.907 88.74 372.935 88.812 372.935 88.9V96.7C372.935 96.78 372.907 96.852 372.851 96.916C372.795 96.972 372.723 97 372.635 97H371.075ZM375.12 97C375.032 97 374.956 96.972 374.892 96.916C374.836 96.86 374.808 96.788 374.808 96.7V95.848C374.808 95.608 374.908 95.412 375.108 95.26L376.356 94.036C377.084 93.476 377.636 93.04 378.012 92.728C378.388 92.416 378.672 92.132 378.864 91.876C379.056 91.62 379.152 91.376 379.152 91.144C379.152 90.512 378.84 90.196 378.216 90.196C377.888 90.196 377.636 90.296 377.46 90.496C377.284 90.688 377.168 90.932 377.112 91.228C377.064 91.412 376.928 91.504 376.704 91.504H375.204C375.132 91.504 375.072 91.48 375.024 91.432C374.976 91.384 374.952 91.324 374.952 91.252C374.968 90.74 375.108 90.272 375.372 89.848C375.644 89.416 376.024 89.076 376.512 88.828C377.008 88.572 377.576 88.444 378.216 88.444C378.888 88.444 379.464 88.552 379.944 88.768C380.424 88.984 380.788 89.288 381.036 89.68C381.284 90.072 381.408 90.528 381.408 91.048C381.408 91.608 381.232 92.12 380.88 92.584C380.536 93.04 380.008 93.536 379.296 94.072L378.192 95.188H381.276C381.364 95.188 381.436 95.216 381.492 95.272C381.556 95.328 381.588 95.4 381.588 95.488V96.7C381.588 96.788 381.556 96.86 381.492 96.916C381.436 96.972 381.364 97 381.276 97H375.12ZM385.024 92.836C384.48 92.836 384.044 92.696 383.716 92.416C383.388 92.128 383.208 91.744 383.176 91.264C383.16 91.024 383.152 90.856 383.152 90.76C383.152 90.664 383.16 90.456 383.176 90.136C383.2 89.648 383.372 89.26 383.692 88.972C384.012 88.684 384.456 88.54 385.024 88.54C385.584 88.54 386.024 88.684 386.344 88.972C386.664 89.26 386.836 89.648 386.86 90.136C386.876 90.456 386.884 90.664 386.884 90.76C386.884 90.856 386.876 91.024 386.86 91.264C386.828 91.744 386.648 92.128 386.32 92.416C385.992 92.696 385.56 92.836 385.024 92.836ZM384.064 97C383.984 97 383.916 96.98 383.86 96.94C383.812 96.892 383.788 96.832 383.788 96.76C383.788 96.712 383.804 96.668 383.836 96.628L389.764 88.828C389.828 88.748 389.888 88.692 389.944 88.66C390 88.62 390.08 88.6 390.184 88.6H391.036C391.116 88.6 391.18 88.624 391.228 88.672C391.284 88.712 391.312 88.768 391.312 88.84C391.312 88.888 391.296 88.932 391.264 88.972L385.336 96.772C385.272 96.852 385.212 96.912 385.156 96.952C385.1 96.984 385.02 97 384.916 97H384.064ZM385.024 91.792C385.36 91.792 385.544 91.596 385.576 91.204C385.592 90.948 385.6 90.78 385.6 90.7C385.6 90.596 385.592 90.432 385.576 90.208C385.568 90.032 385.516 89.888 385.42 89.776C385.332 89.664 385.2 89.608 385.024 89.608C384.84 89.608 384.704 89.664 384.616 89.776C384.528 89.888 384.476 90.032 384.46 90.208C384.452 90.32 384.448 90.484 384.448 90.7C384.448 90.908 384.452 91.076 384.46 91.204C384.492 91.596 384.68 91.792 385.024 91.792ZM390.1 97.06C389.556 97.06 389.12 96.92 388.792 96.64C388.472 96.352 388.292 95.964 388.252 95.476C388.244 95.34 388.24 95.156 388.24 94.924C388.24 94.684 388.244 94.492 388.252 94.348C388.284 93.852 388.456 93.46 388.768 93.172C389.088 92.884 389.532 92.74 390.1 92.74C390.668 92.74 391.108 92.884 391.42 93.172C391.74 93.46 391.916 93.852 391.948 94.348C391.964 94.668 391.972 94.876 391.972 94.972C391.972 95.068 391.964 95.236 391.948 95.476C391.916 95.956 391.736 96.34 391.408 96.628C391.08 96.916 390.644 97.06 390.1 97.06ZM390.1 96.004C390.284 96.004 390.42 95.948 390.508 95.836C390.596 95.716 390.648 95.572 390.664 95.404C390.68 95.164 390.688 94.996 390.688 94.9C390.688 94.796 390.68 94.632 390.664 94.408C390.648 94.24 390.596 94.1 390.508 93.988C390.42 93.868 390.284 93.808 390.1 93.808C389.916 93.808 389.78 93.868 389.692 93.988C389.604 94.1 389.556 94.24 389.548 94.408C389.54 94.52 389.536 94.684 389.536 94.9C389.536 95.116 389.54 95.284 389.548 95.404C389.564 95.58 389.612 95.724 389.692 95.836C389.78 95.948 389.916 96.004 390.1 96.004Z" fill="#333333"/>
<path d="M276.363 97C276.275 97 276.199 96.972 276.135 96.916C276.079 96.86 276.051 96.788 276.051 96.7V95.848C276.051 95.608 276.151 95.412 276.351 95.26L277.599 94.036C278.327 93.476 278.879 93.04 279.255 92.728C279.631 92.416 279.915 92.132 280.107 91.876C280.299 91.62 280.395 91.376 280.395 91.144C280.395 90.512 280.083 90.196 279.459 90.196C279.131 90.196 278.879 90.296 278.703 90.496C278.527 90.688 278.411 90.932 278.355 91.228C278.307 91.412 278.171 91.504 277.947 91.504H276.447C276.375 91.504 276.315 91.48 276.267 91.432C276.219 91.384 276.195 91.324 276.195 91.252C276.211 90.74 276.351 90.272 276.615 89.848C276.887 89.416 277.267 89.076 277.755 88.828C278.251 88.572 278.819 88.444 279.459 88.444C280.131 88.444 280.707 88.552 281.187 88.768C281.667 88.984 282.031 89.288 282.279 89.68C282.527 90.072 282.651 90.528 282.651 91.048C282.651 91.608 282.475 92.12 282.123 92.584C281.779 93.04 281.251 93.536 280.539 94.072L279.435 95.188H282.519C282.607 95.188 282.679 95.216 282.735 95.272C282.799 95.328 282.831 95.4 282.831 95.488V96.7C282.831 96.788 282.799 96.86 282.735 96.916C282.679 96.972 282.607 97 282.519 97H276.363ZM288.032 97.12C286.928 97.112 286.092 96.82 285.524 96.244C284.956 95.66 284.648 94.896 284.6 93.952C284.584 93.52 284.576 93.136 284.576 92.8C284.576 92.456 284.584 92.06 284.6 91.612C284.632 91.012 284.776 90.48 285.032 90.016C285.296 89.544 285.68 89.172 286.184 88.9C286.688 88.62 287.304 88.48 288.032 88.48C289.112 88.488 289.944 88.78 290.528 89.356C291.112 89.932 291.428 90.684 291.476 91.612C291.492 92.06 291.5 92.456 291.5 92.8C291.5 93.136 291.492 93.52 291.476 93.952C291.42 94.896 291.108 95.66 290.54 96.244C289.972 96.82 289.136 97.112 288.032 97.12ZM288.032 95.38C288.424 95.38 288.716 95.252 288.908 94.996C289.108 94.732 289.216 94.364 289.232 93.892C289.248 93.66 289.256 93.288 289.256 92.776C289.256 92.264 289.248 91.9 289.232 91.684C289.216 91.228 289.112 90.868 288.92 90.604C288.728 90.34 288.432 90.204 288.032 90.196C287.64 90.204 287.344 90.34 287.144 90.604C286.952 90.868 286.848 91.228 286.832 91.684C286.824 91.9 286.82 92.264 286.82 92.776C286.82 93.288 286.824 93.66 286.832 93.892C286.872 94.884 287.272 95.38 288.032 95.38ZM295.024 92.836C294.48 92.836 294.044 92.696 293.716 92.416C293.388 92.128 293.208 91.744 293.176 91.264C293.16 91.024 293.152 90.856 293.152 90.76C293.152 90.664 293.16 90.456 293.176 90.136C293.2 89.648 293.372 89.26 293.692 88.972C294.012 88.684 294.456 88.54 295.024 88.54C295.584 88.54 296.024 88.684 296.344 88.972C296.664 89.26 296.836 89.648 296.86 90.136C296.876 90.456 296.884 90.664 296.884 90.76C296.884 90.856 296.876 91.024 296.86 91.264C296.828 91.744 296.648 92.128 296.32 92.416C295.992 92.696 295.56 92.836 295.024 92.836ZM294.064 97C293.984 97 293.916 96.98 293.86 96.94C293.812 96.892 293.788 96.832 293.788 96.76C293.788 96.712 293.804 96.668 293.836 96.628L299.764 88.828C299.828 88.748 299.888 88.692 299.944 88.66C300 88.62 300.08 88.6 300.184 88.6H301.036C301.116 88.6 301.18 88.624 301.228 88.672C301.284 88.712 301.312 88.768 301.312 88.84C301.312 88.888 301.296 88.932 301.264 88.972L295.336 96.772C295.272 96.852 295.212 96.912 295.156 96.952C295.1 96.984 295.02 97 294.916 97H294.064ZM295.024 91.792C295.36 91.792 295.544 91.596 295.576 91.204C295.592 90.948 295.6 90.78 295.6 90.7C295.6 90.596 295.592 90.432 295.576 90.208C295.568 90.032 295.516 89.888 295.42 89.776C295.332 89.664 295.2 89.608 295.024 89.608C294.84 89.608 294.704 89.664 294.616 89.776C294.528 89.888 294.476 90.032 294.46 90.208C294.452 90.32 294.448 90.484 294.448 90.7C294.448 90.908 294.452 91.076 294.46 91.204C294.492 91.596 294.68 91.792 295.024 91.792ZM300.1 97.06C299.556 97.06 299.12 96.92 298.792 96.64C298.472 96.352 298.292 95.964 298.252 95.476C298.244 95.34 298.24 95.156 298.24 94.924C298.24 94.684 298.244 94.492 298.252 94.348C298.284 93.852 298.456 93.46 298.768 93.172C299.088 92.884 299.532 92.74 300.1 92.74C300.668 92.74 301.108 92.884 301.42 93.172C301.74 93.46 301.916 93.852 301.948 94.348C301.964 94.668 301.972 94.876 301.972 94.972C301.972 95.068 301.964 95.236 301.948 95.476C301.916 95.956 301.736 96.34 301.408 96.628C301.08 96.916 300.644 97.06 300.1 97.06ZM300.1 96.004C300.284 96.004 300.42 95.948 300.508 95.836C300.596 95.716 300.648 95.572 300.664 95.404C300.68 95.164 300.688 94.996 300.688 94.9C300.688 94.796 300.68 94.632 300.664 94.408C300.648 94.24 300.596 94.1 300.508 93.988C300.42 93.868 300.284 93.808 300.1 93.808C299.916 93.808 299.78 93.868 299.692 93.988C299.604 94.1 299.556 94.24 299.548 94.408C299.54 94.52 299.536 94.684 299.536 94.9C299.536 95.116 299.54 95.284 299.548 95.404C299.564 95.58 299.612 95.724 299.692 95.836C299.78 95.948 299.916 96.004 300.1 96.004Z" fill="#333333"/>
<path d="M336.202 97.132C335.482 97.132 334.866 97.02 334.354 96.796C333.842 96.564 333.45 96.256 333.178 95.872C332.914 95.488 332.774 95.072 332.758 94.624C332.758 94.552 332.782 94.492 332.83 94.444C332.878 94.396 332.938 94.372 333.01 94.372H334.618C334.802 94.372 334.93 94.448 335.002 94.6C335.218 95.136 335.622 95.404 336.214 95.404C336.566 95.404 336.862 95.296 337.102 95.08C337.35 94.856 337.474 94.548 337.474 94.156C337.474 93.804 337.354 93.516 337.114 93.292C336.882 93.068 336.582 92.956 336.214 92.956C336.006 92.956 335.838 92.984 335.71 93.04C335.59 93.088 335.466 93.16 335.338 93.256C335.202 93.36 335.094 93.412 335.014 93.412H333.442C333.37 93.412 333.306 93.388 333.25 93.34C333.202 93.284 333.178 93.22 333.178 93.148L333.61 88.96C333.618 88.848 333.658 88.76 333.73 88.696C333.81 88.632 333.902 88.6 334.006 88.6H338.818C338.906 88.6 338.978 88.628 339.034 88.684C339.098 88.74 339.13 88.812 339.13 88.9V90.028C339.13 90.116 339.098 90.188 339.034 90.244C338.978 90.3 338.906 90.328 338.818 90.328H335.338L335.182 91.876C335.382 91.74 335.602 91.64 335.842 91.576C336.082 91.504 336.394 91.468 336.778 91.468C337.282 91.468 337.758 91.584 338.206 91.816C338.654 92.04 339.01 92.36 339.274 92.776C339.546 93.192 339.682 93.668 339.682 94.204C339.682 94.772 339.542 95.28 339.262 95.728C338.982 96.168 338.578 96.512 338.05 96.76C337.53 97.008 336.914 97.132 336.202 97.132ZM343.024 92.836C342.48 92.836 342.044 92.696 341.716 92.416C341.388 92.128 341.208 91.744 341.176 91.264C341.16 91.024 341.152 90.856 341.152 90.76C341.152 90.664 341.16 90.456 341.176 90.136C341.2 89.648 341.372 89.26 341.692 88.972C342.012 88.684 342.456 88.54 343.024 88.54C343.584 88.54 344.024 88.684 344.344 88.972C344.664 89.26 344.836 89.648 344.86 90.136C344.876 90.456 344.884 90.664 344.884 90.76C344.884 90.856 344.876 91.024 344.86 91.264C344.828 91.744 344.648 92.128 344.32 92.416C343.992 92.696 343.56 92.836 343.024 92.836ZM342.064 97C341.984 97 341.916 96.98 341.86 96.94C341.812 96.892 341.788 96.832 341.788 96.76C341.788 96.712 341.804 96.668 341.836 96.628L347.764 88.828C347.828 88.748 347.888 88.692 347.944 88.66C348 88.62 348.08 88.6 348.184 88.6H349.036C349.116 88.6 349.18 88.624 349.228 88.672C349.284 88.712 349.312 88.768 349.312 88.84C349.312 88.888 349.296 88.932 349.264 88.972L343.336 96.772C343.272 96.852 343.212 96.912 343.156 96.952C343.1 96.984 343.02 97 342.916 97H342.064ZM343.024 91.792C343.36 91.792 343.544 91.596 343.576 91.204C343.592 90.948 343.6 90.78 343.6 90.7C343.6 90.596 343.592 90.432 343.576 90.208C343.568 90.032 343.516 89.888 343.42 89.776C343.332 89.664 343.2 89.608 343.024 89.608C342.84 89.608 342.704 89.664 342.616 89.776C342.528 89.888 342.476 90.032 342.46 90.208C342.452 90.32 342.448 90.484 342.448 90.7C342.448 90.908 342.452 91.076 342.46 91.204C342.492 91.596 342.68 91.792 343.024 91.792ZM348.1 97.06C347.556 97.06 347.12 96.92 346.792 96.64C346.472 96.352 346.292 95.964 346.252 95.476C346.244 95.34 346.24 95.156 346.24 94.924C346.24 94.684 346.244 94.492 346.252 94.348C346.284 93.852 346.456 93.46 346.768 93.172C347.088 92.884 347.532 92.74 348.1 92.74C348.668 92.74 349.108 92.884 349.42 93.172C349.74 93.46 349.916 93.852 349.948 94.348C349.964 94.668 349.972 94.876 349.972 94.972C349.972 95.068 349.964 95.236 349.948 95.476C349.916 95.956 349.736 96.34 349.408 96.628C349.08 96.916 348.644 97.06 348.1 97.06ZM348.1 96.004C348.284 96.004 348.42 95.948 348.508 95.836C348.596 95.716 348.648 95.572 348.664 95.404C348.68 95.164 348.688 94.996 348.688 94.9C348.688 94.796 348.68 94.632 348.664 94.408C348.648 94.24 348.596 94.1 348.508 93.988C348.42 93.868 348.284 93.808 348.1 93.808C347.916 93.808 347.78 93.868 347.692 93.988C347.604 94.1 347.556 94.24 347.548 94.408C347.54 94.52 347.536 94.684 347.536 94.9C347.536 95.116 347.54 95.284 347.548 95.404C347.564 95.58 347.612 95.724 347.692 95.836C347.78 95.948 347.916 96.004 348.1 96.004Z" fill="#333333"/>
<line x1="2" y1="30" x2="2" y2="-8.74228e-08" stroke="#F769A2" stroke-width="4"/>
</svg>
