<svg width="408" height="107" viewBox="0 0 408 107" fill="none" xmlns="http://www.w3.org/2000/svg">
<path d="M15.852 11.12C15.14 11.12 14.528 11.012 14.016 10.796C13.504 10.58 13.116 10.296 12.852 9.944C12.588 9.592 12.448 9.212 12.432 8.804C12.432 8.732 12.456 8.672 12.504 8.624C12.552 8.576 12.612 8.552 12.684 8.552H13.752C13.848 8.552 13.92 8.572 13.968 8.612C14.024 8.644 14.076 8.7 14.124 8.78C14.204 9.052 14.388 9.28 14.676 9.464C14.964 9.648 15.356 9.74 15.852 9.74C16.42 9.74 16.848 9.648 17.136 9.464C17.424 9.272 17.568 9.008 17.568 8.672C17.568 8.448 17.492 8.264 17.34 8.12C17.196 7.976 16.976 7.852 16.68 7.748C16.392 7.644 15.96 7.516 15.384 7.364C14.44 7.14 13.748 6.844 13.308 6.476C12.876 6.1 12.66 5.568 12.66 4.88C12.66 4.416 12.784 4.004 13.032 3.644C13.288 3.284 13.652 3 14.124 2.792C14.604 2.584 15.16 2.48 15.792 2.48C16.448 2.48 17.016 2.596 17.496 2.828C17.976 3.06 18.34 3.352 18.588 3.704C18.844 4.048 18.98 4.392 18.996 4.736C18.996 4.808 18.972 4.868 18.924 4.916C18.876 4.964 18.816 4.988 18.744 4.988H17.628C17.46 4.988 17.344 4.912 17.28 4.76C17.232 4.504 17.072 4.292 16.8 4.124C16.528 3.948 16.192 3.86 15.792 3.86C15.344 3.86 14.992 3.944 14.736 4.112C14.48 4.28 14.352 4.524 14.352 4.844C14.352 5.068 14.416 5.252 14.544 5.396C14.672 5.54 14.872 5.668 15.144 5.78C15.424 5.892 15.824 6.016 16.344 6.152C17.048 6.312 17.608 6.492 18.024 6.692C18.448 6.892 18.76 7.144 18.96 7.448C19.16 7.752 19.26 8.14 19.26 8.612C19.26 9.124 19.116 9.572 18.828 9.956C18.548 10.332 18.148 10.62 17.628 10.82C17.116 11.02 16.524 11.12 15.852 11.12ZM23.9112 11C23.1832 11 22.6352 10.812 22.2672 10.436C21.9072 10.052 21.7272 9.492 21.7272 8.756V6.032H20.7792C20.6992 6.032 20.6312 6.004 20.5752 5.948C20.5192 5.884 20.4912 5.812 20.4912 5.732V5.048C20.4912 4.968 20.5192 4.9 20.5752 4.844C20.6312 4.788 20.6992 4.76 20.7792 4.76H21.7272V2.768C21.7272 2.68 21.7552 2.612 21.8112 2.564C21.8672 2.508 21.9352 2.48 22.0152 2.48H22.9872C23.0752 2.48 23.1432 2.508 23.1912 2.564C23.2472 2.612 23.2752 2.68 23.2752 2.768V4.76H24.7752C24.8632 4.76 24.9312 4.788 24.9792 4.844C25.0352 4.892 25.0632 4.96 25.0632 5.048V5.732C25.0632 5.82 25.0352 5.892 24.9792 5.948C24.9232 6.004 24.8552 6.032 24.7752 6.032H23.2752V8.636C23.2752 8.98 23.3352 9.24 23.4552 9.416C23.5752 9.592 23.7752 9.68 24.0552 9.68H24.8832C24.9632 9.68 25.0312 9.708 25.0872 9.764C25.1432 9.82 25.1712 9.888 25.1712 9.968V10.712C25.1712 10.792 25.1432 10.86 25.0872 10.916C25.0392 10.972 24.9712 11 24.8832 11H23.9112ZM28.6478 11.12C28.2398 11.12 27.8638 11.04 27.5198 10.88C27.1838 10.712 26.9158 10.488 26.7158 10.208C26.5238 9.928 26.4278 9.62 26.4278 9.284C26.4278 8.74 26.6478 8.3 27.0878 7.964C27.5278 7.628 28.1318 7.4 28.8998 7.28L30.5438 7.04V6.788C30.5438 6.436 30.4558 6.172 30.2798 5.996C30.1038 5.82 29.8198 5.732 29.4278 5.732C29.1638 5.732 28.9478 5.784 28.7798 5.888C28.6198 5.984 28.4918 6.08 28.3958 6.176C28.2998 6.28 28.2358 6.348 28.2038 6.38C28.1718 6.476 28.1118 6.524 28.0238 6.524H27.0998C27.0278 6.524 26.9638 6.5 26.9078 6.452C26.8598 6.404 26.8358 6.34 26.8358 6.26C26.8438 6.06 26.9398 5.832 27.1238 5.576C27.3158 5.32 27.6078 5.1 27.9998 4.916C28.3918 4.732 28.8718 4.64 29.4398 4.64C30.3838 4.64 31.0718 4.852 31.5038 5.276C31.9358 5.7 32.1518 6.256 32.1518 6.944V10.712C32.1518 10.792 32.1238 10.86 32.0678 10.916C32.0198 10.972 31.9518 11 31.8638 11H30.8918C30.8118 11 30.7438 10.972 30.6878 10.916C30.6318 10.86 30.6038 10.792 30.6038 10.712V10.244C30.4278 10.5 30.1758 10.712 29.8478 10.88C29.5278 11.04 29.1278 11.12 28.6478 11.12ZM29.0558 9.98C29.4958 9.98 29.8558 9.836 30.1358 9.548C30.4158 9.26 30.5558 8.84 30.5558 8.288V8.036L29.3558 8.228C28.8918 8.3 28.5398 8.416 28.2998 8.576C28.0678 8.736 27.9518 8.932 27.9518 9.164C27.9518 9.42 28.0598 9.62 28.2758 9.764C28.4918 9.908 28.7518 9.98 29.0558 9.98ZM36.6072 11.12C35.7992 11.12 35.1792 10.86 34.7472 10.34C34.3152 9.82 34.0832 9.128 34.0512 8.264L34.0392 7.868L34.0512 7.484C34.0752 6.644 34.3032 5.96 34.7352 5.432C35.1752 4.904 35.7992 4.64 36.6072 4.64C37.3832 4.64 37.9992 4.904 38.4552 5.432V2.768C38.4552 2.68 38.4832 2.612 38.5392 2.564C38.5952 2.508 38.6632 2.48 38.7432 2.48H39.7632C39.8512 2.48 39.9192 2.508 39.9672 2.564C40.0232 2.612 40.0512 2.68 40.0512 2.768V10.712C40.0512 10.792 40.0232 10.86 39.9672 10.916C39.9192 10.972 39.8512 11 39.7632 11H38.8152C38.7352 11 38.6672 10.972 38.6112 10.916C38.5552 10.86 38.5272 10.792 38.5272 10.712V10.268C38.0712 10.836 37.4312 11.12 36.6072 11.12ZM37.0512 9.836C37.5152 9.836 37.8592 9.688 38.0832 9.392C38.3072 9.096 38.4312 8.732 38.4552 8.3C38.4632 8.204 38.4672 8.048 38.4672 7.832C38.4672 7.624 38.4632 7.472 38.4552 7.376C38.4392 6.976 38.3112 6.636 38.0712 6.356C37.8392 6.068 37.4992 5.924 37.0512 5.924C36.1872 5.924 35.7272 6.456 35.6712 7.52L35.6592 7.88L35.6712 8.24C35.7272 9.304 36.1872 9.836 37.0512 9.836ZM45.0706 11C44.3426 11 43.7946 10.812 43.4266 10.436C43.0666 10.052 42.8866 9.492 42.8866 8.756V6.032H41.9386C41.8586 6.032 41.7906 6.004 41.7346 5.948C41.6786 5.884 41.6506 5.812 41.6506 5.732V5.048C41.6506 4.968 41.6786 4.9 41.7346 4.844C41.7906 4.788 41.8586 4.76 41.9386 4.76H42.8866V2.768C42.8866 2.68 42.9146 2.612 42.9706 2.564C43.0266 2.508 43.0946 2.48 43.1746 2.48H44.1466C44.2346 2.48 44.3026 2.508 44.3506 2.564C44.4066 2.612 44.4346 2.68 44.4346 2.768V4.76H45.9346C46.0226 4.76 46.0906 4.788 46.1386 4.844C46.1946 4.892 46.2226 4.96 46.2226 5.048V5.732C46.2226 5.82 46.1946 5.892 46.1386 5.948C46.0826 6.004 46.0146 6.032 45.9346 6.032H44.4346V8.636C44.4346 8.98 44.4946 9.24 44.6146 9.416C44.7346 9.592 44.9346 9.68 45.2146 9.68H46.0426C46.1226 9.68 46.1906 9.708 46.2466 9.764C46.3026 9.82 46.3306 9.888 46.3306 9.968V10.712C46.3306 10.792 46.3026 10.86 46.2466 10.916C46.1986 10.972 46.1306 11 46.0426 11H45.0706ZM50.8151 11C50.0871 11 49.5391 10.812 49.1711 10.436C48.8111 10.052 48.6311 9.492 48.6311 8.756V6.032H47.6831C47.6031 6.032 47.5351 6.004 47.4791 5.948C47.4231 5.884 47.3951 5.812 47.3951 5.732V5.048C47.3951 4.968 47.4231 4.9 47.4791 4.844C47.5351 4.788 47.6031 4.76 47.6831 4.76H48.6311V2.768C48.6311 2.68 48.6591 2.612 48.7151 2.564C48.7711 2.508 48.8391 2.48 48.9191 2.48H49.8911C49.9791 2.48 50.0471 2.508 50.0951 2.564C50.1511 2.612 50.1791 2.68 50.1791 2.768V4.76H51.6791C51.7671 4.76 51.8351 4.788 51.8831 4.844C51.9391 4.892 51.9671 4.96 51.9671 5.048V5.732C51.9671 5.82 51.9391 5.892 51.8831 5.948C51.8271 6.004 51.7591 6.032 51.6791 6.032H50.1791V8.636C50.1791 8.98 50.2391 9.24 50.3591 9.416C50.4791 9.592 50.6791 9.68 50.9591 9.68H51.7871C51.8671 9.68 51.9351 9.708 51.9911 9.764C52.0471 9.82 52.0751 9.888 52.0751 9.968V10.712C52.0751 10.792 52.0471 10.86 51.9911 10.916C51.9431 10.972 51.8751 11 51.7871 11H50.8151ZM56.4277 11.12C55.5397 11.12 54.8317 10.864 54.3037 10.352C53.7837 9.832 53.5077 9.104 53.4757 8.168L53.4637 7.868L53.4757 7.568C53.5157 6.656 53.7957 5.94 54.3157 5.42C54.8437 4.9 55.5477 4.64 56.4277 4.64C57.3717 4.64 58.0997 4.928 58.6117 5.504C59.1317 6.08 59.3917 6.848 59.3917 7.808V8.06C59.3917 8.14 59.3637 8.208 59.3077 8.264C59.2517 8.32 59.1797 8.348 59.0917 8.348H55.1077V8.444C55.1237 8.884 55.2437 9.256 55.4677 9.56C55.6997 9.856 56.0157 10.004 56.4157 10.004C56.8877 10.004 57.2677 9.82 57.5557 9.452C57.6277 9.364 57.6837 9.308 57.7237 9.284C57.7717 9.26 57.8397 9.248 57.9277 9.248H58.9597C59.0317 9.248 59.0917 9.272 59.1397 9.32C59.1957 9.36 59.2237 9.412 59.2237 9.476C59.2237 9.668 59.1077 9.896 58.8757 10.16C58.6517 10.416 58.3277 10.64 57.9037 10.832C57.4797 11.024 56.9877 11.12 56.4277 11.12ZM57.7597 7.34V7.304C57.7597 6.832 57.6397 6.452 57.3997 6.164C57.1677 5.876 56.8437 5.732 56.4277 5.732C56.0117 5.732 55.6877 5.876 55.4557 6.164C55.2237 6.452 55.1077 6.832 55.1077 7.304V7.34H57.7597ZM61.5054 3.728C61.4254 3.728 61.3574 3.7 61.3014 3.644C61.2454 3.588 61.2174 3.52 61.2174 3.44V2.576C61.2174 2.496 61.2454 2.428 61.3014 2.372C61.3574 2.316 61.4254 2.288 61.5054 2.288H62.5974C62.6774 2.288 62.7454 2.316 62.8014 2.372C62.8654 2.428 62.8974 2.496 62.8974 2.576V3.44C62.8974 3.52 62.8694 3.588 62.8134 3.644C62.7574 3.7 62.6854 3.728 62.5974 3.728H61.5054ZM61.5534 11C61.4734 11 61.4054 10.972 61.3494 10.916C61.2934 10.86 61.2654 10.792 61.2654 10.712V5.048C61.2654 4.968 61.2934 4.9 61.3494 4.844C61.4054 4.788 61.4734 4.76 61.5534 4.76H62.5494C62.6374 4.76 62.7054 4.788 62.7534 4.844C62.8094 4.892 62.8374 4.96 62.8374 5.048V10.712C62.8374 10.792 62.8094 10.86 62.7534 10.916C62.7054 10.972 62.6374 11 62.5494 11H61.5534ZM65.3295 11C65.2495 11 65.1815 10.972 65.1255 10.916C65.0695 10.86 65.0415 10.792 65.0415 10.712V2.768C65.0415 2.68 65.0695 2.612 65.1255 2.564C65.1815 2.508 65.2495 2.48 65.3295 2.48H66.3255C66.4135 2.48 66.4815 2.508 66.5295 2.564C66.5855 2.612 66.6135 2.68 66.6135 2.768V10.712C66.6135 10.792 66.5855 10.86 66.5295 10.916C66.4815 10.972 66.4135 11 66.3255 11H65.3295ZM71.4933 11.12C70.6053 11.12 69.8973 10.864 69.3693 10.352C68.8493 9.832 68.5733 9.104 68.5413 8.168L68.5293 7.868L68.5413 7.568C68.5813 6.656 68.8613 5.94 69.3813 5.42C69.9093 4.9 70.6133 4.64 71.4933 4.64C72.4373 4.64 73.1653 4.928 73.6773 5.504C74.1973 6.08 74.4573 6.848 74.4573 7.808V8.06C74.4573 8.14 74.4293 8.208 74.3733 8.264C74.3173 8.32 74.2453 8.348 74.1573 8.348H70.1733V8.444C70.1893 8.884 70.3093 9.256 70.5333 9.56C70.7653 9.856 71.0813 10.004 71.4813 10.004C71.9533 10.004 72.3333 9.82 72.6213 9.452C72.6933 9.364 72.7493 9.308 72.7893 9.284C72.8373 9.26 72.9053 9.248 72.9933 9.248H74.0253C74.0973 9.248 74.1573 9.272 74.2053 9.32C74.2613 9.36 74.2893 9.412 74.2893 9.476C74.2893 9.668 74.1733 9.896 73.9413 10.16C73.7173 10.416 73.3933 10.64 72.9693 10.832C72.5453 11.024 72.0533 11.12 71.4933 11.12ZM72.8253 7.34V7.304C72.8253 6.832 72.7053 6.452 72.4653 6.164C72.2333 5.876 71.9093 5.732 71.4933 5.732C71.0773 5.732 70.7533 5.876 70.5213 6.164C70.2893 6.452 70.1733 6.832 70.1733 7.304V7.34H72.8253ZM79.9612 11C79.8812 11 79.8132 10.972 79.7572 10.916C79.7012 10.86 79.6732 10.792 79.6732 10.712V5.048C79.6732 4.968 79.7012 4.9 79.7572 4.844C79.8132 4.788 79.8812 4.76 79.9612 4.76H80.8972C80.9772 4.76 81.0452 4.788 81.1012 4.844C81.1572 4.9 81.1852 4.968 81.1852 5.048V5.456C81.6012 4.912 82.1812 4.64 82.9252 4.64C83.8132 4.64 84.4332 4.996 84.7852 5.708C84.9772 5.388 85.2492 5.132 85.6012 4.94C85.9532 4.74 86.3332 4.64 86.7412 4.64C87.3972 4.64 87.9332 4.864 88.3492 5.312C88.7652 5.76 88.9732 6.412 88.9732 7.268V10.712C88.9732 10.792 88.9452 10.86 88.8892 10.916C88.8412 10.972 88.7732 11 88.6852 11H87.7012C87.6212 11 87.5532 10.972 87.4972 10.916C87.4412 10.86 87.4132 10.792 87.4132 10.712V7.364C87.4132 6.86 87.3052 6.496 87.0892 6.272C86.8812 6.04 86.6012 5.924 86.2492 5.924C85.9372 5.924 85.6692 6.04 85.4452 6.272C85.2292 6.504 85.1212 6.868 85.1212 7.364V10.712C85.1212 10.792 85.0932 10.86 85.0372 10.916C84.9812 10.972 84.9132 11 84.8332 11H83.8492C83.7692 11 83.7012 10.972 83.6452 10.916C83.5892 10.86 83.5612 10.792 83.5612 10.712V7.364C83.5612 6.86 83.4492 6.496 83.2252 6.272C83.0092 6.04 82.7332 5.924 82.3972 5.924C82.0772 5.924 81.8052 6.04 81.5812 6.272C81.3652 6.504 81.2572 6.868 81.2572 7.364V10.712C81.2572 10.792 81.2292 10.86 81.1732 10.916C81.1172 10.972 81.0492 11 80.9692 11H79.9612ZM91.3414 3.728C91.2614 3.728 91.1934 3.7 91.1374 3.644C91.0814 3.588 91.0534 3.52 91.0534 3.44V2.576C91.0534 2.496 91.0814 2.428 91.1374 2.372C91.1934 2.316 91.2614 2.288 91.3414 2.288H92.4334C92.5134 2.288 92.5814 2.316 92.6374 2.372C92.7014 2.428 92.7334 2.496 92.7334 2.576V3.44C92.7334 3.52 92.7054 3.588 92.6494 3.644C92.5934 3.7 92.5214 3.728 92.4334 3.728H91.3414ZM91.3894 11C91.3094 11 91.2414 10.972 91.1854 10.916C91.1294 10.86 91.1014 10.792 91.1014 10.712V5.048C91.1014 4.968 91.1294 4.9 91.1854 4.844C91.2414 4.788 91.3094 4.76 91.3894 4.76H92.3854C92.4734 4.76 92.5414 4.788 92.5894 4.844C92.6454 4.892 92.6734 4.96 92.6734 5.048V10.712C92.6734 10.792 92.6454 10.86 92.5894 10.916C92.5414 10.972 92.4734 11 92.3854 11H91.3894ZM97.6854 11C96.9574 11 96.4094 10.812 96.0414 10.436C95.6814 10.052 95.5014 9.492 95.5014 8.756V6.032H94.5534C94.4734 6.032 94.4054 6.004 94.3494 5.948C94.2934 5.884 94.2654 5.812 94.2654 5.732V5.048C94.2654 4.968 94.2934 4.9 94.3494 4.844C94.4054 4.788 94.4734 4.76 94.5534 4.76H95.5014V2.768C95.5014 2.68 95.5294 2.612 95.5854 2.564C95.6414 2.508 95.7094 2.48 95.7894 2.48H96.7614C96.8494 2.48 96.9174 2.508 96.9654 2.564C97.0214 2.612 97.0494 2.68 97.0494 2.768V4.76H98.5494C98.6374 4.76 98.7054 4.788 98.7534 4.844C98.8094 4.892 98.8374 4.96 98.8374 5.048V5.732C98.8374 5.82 98.8094 5.892 98.7534 5.948C98.6974 6.004 98.6294 6.032 98.5494 6.032H97.0494V8.636C97.0494 8.98 97.1094 9.24 97.2294 9.416C97.3494 9.592 97.5494 9.68 97.8294 9.68H98.6574C98.7374 9.68 98.8054 9.708 98.8614 9.764C98.9174 9.82 98.9454 9.888 98.9454 9.968V10.712C98.9454 10.792 98.9174 10.86 98.8614 10.916C98.8134 10.972 98.7454 11 98.6574 11H97.6854ZM13.08 27C13 27 12.932 26.972 12.876 26.916C12.82 26.86 12.792 26.792 12.792 26.712V21.048C12.792 20.968 12.82 20.9 12.876 20.844C12.932 20.788 13 20.76 13.08 20.76H14.064C14.144 20.76 14.212 20.788 14.268 20.844C14.324 20.9 14.352 20.968 14.352 21.048V21.54C14.824 20.94 15.492 20.64 16.356 20.64C17.092 20.64 17.676 20.884 18.108 21.372C18.54 21.852 18.756 22.508 18.756 23.34V26.712C18.756 26.792 18.728 26.86 18.672 26.916C18.624 26.972 18.556 27 18.468 27H17.412C17.332 27 17.264 26.972 17.208 26.916C17.152 26.86 17.124 26.792 17.124 26.712V23.412C17.124 22.94 17.008 22.576 16.776 22.32C16.552 22.056 16.224 21.924 15.792 21.924C15.368 21.924 15.032 22.056 14.784 22.32C14.544 22.584 14.424 22.948 14.424 23.412V26.712C14.424 26.792 14.396 26.86 14.34 26.916C14.292 26.972 14.224 27 14.136 27H13.08ZM21.1203 19.728C21.0403 19.728 20.9723 19.7 20.9163 19.644C20.8603 19.588 20.8323 19.52 20.8323 19.44V18.576C20.8323 18.496 20.8603 18.428 20.9163 18.372C20.9723 18.316 21.0403 18.288 21.1203 18.288H22.2123C22.2923 18.288 22.3603 18.316 22.4163 18.372C22.4803 18.428 22.5123 18.496 22.5123 18.576V19.44C22.5123 19.52 22.4843 19.588 22.4283 19.644C22.3723 19.7 22.3003 19.728 22.2123 19.728H21.1203ZM21.1683 27C21.0883 27 21.0203 26.972 20.9643 26.916C20.9083 26.86 20.8803 26.792 20.8803 26.712V21.048C20.8803 20.968 20.9083 20.9 20.9643 20.844C21.0203 20.788 21.0883 20.76 21.1683 20.76H22.1643C22.2523 20.76 22.3203 20.788 22.3683 20.844C22.4243 20.892 22.4523 20.96 22.4523 21.048V26.712C22.4523 26.792 22.4243 26.86 22.3683 26.916C22.3203 26.972 22.2523 27 22.1643 27H21.1683ZM27.3323 27.12C26.4443 27.12 25.7363 26.864 25.2083 26.352C24.6883 25.832 24.4123 25.104 24.3803 24.168L24.3683 23.868L24.3803 23.568C24.4203 22.656 24.7003 21.94 25.2203 21.42C25.7483 20.9 26.4523 20.64 27.3323 20.64C28.2763 20.64 29.0043 20.928 29.5163 21.504C30.0363 22.08 30.2963 22.848 30.2963 23.808V24.06C30.2963 24.14 30.2683 24.208 30.2123 24.264C30.1563 24.32 30.0843 24.348 29.9963 24.348H26.0123V24.444C26.0283 24.884 26.1483 25.256 26.3723 25.56C26.6043 25.856 26.9203 26.004 27.3203 26.004C27.7923 26.004 28.1723 25.82 28.4603 25.452C28.5323 25.364 28.5883 25.308 28.6283 25.284C28.6763 25.26 28.7443 25.248 28.8323 25.248H29.8643C29.9363 25.248 29.9963 25.272 30.0443 25.32C30.1003 25.36 30.1283 25.412 30.1283 25.476C30.1283 25.668 30.0123 25.896 29.7803 26.16C29.5563 26.416 29.2323 26.64 28.8083 26.832C28.3843 27.024 27.8923 27.12 27.3323 27.12ZM28.6643 23.34V23.304C28.6643 22.832 28.5443 22.452 28.3043 22.164C28.0723 21.876 27.7483 21.732 27.3323 21.732C26.9163 21.732 26.5923 21.876 26.3603 22.164C26.1283 22.452 26.0123 22.832 26.0123 23.304V23.34H28.6643ZM34.4861 27.12C33.6781 27.12 33.0581 26.86 32.6261 26.34C32.1941 25.82 31.9621 25.128 31.9301 24.264L31.9181 23.868L31.9301 23.484C31.9541 22.644 32.1821 21.96 32.6141 21.432C33.0541 20.904 33.6781 20.64 34.4861 20.64C35.2621 20.64 35.8781 20.904 36.3341 21.432V18.768C36.3341 18.68 36.3621 18.612 36.4181 18.564C36.4741 18.508 36.5421 18.48 36.6221 18.48H37.6421C37.7301 18.48 37.7981 18.508 37.8461 18.564C37.9021 18.612 37.9301 18.68 37.9301 18.768V26.712C37.9301 26.792 37.9021 26.86 37.8461 26.916C37.7981 26.972 37.7301 27 37.6421 27H36.6941C36.6141 27 36.5461 26.972 36.4901 26.916C36.4341 26.86 36.4061 26.792 36.4061 26.712V26.268C35.9501 26.836 35.3101 27.12 34.4861 27.12ZM34.9301 25.836C35.3941 25.836 35.7381 25.688 35.9621 25.392C36.1861 25.096 36.3101 24.732 36.3341 24.3C36.3421 24.204 36.3461 24.048 36.3461 23.832C36.3461 23.624 36.3421 23.472 36.3341 23.376C36.3181 22.976 36.1901 22.636 35.9501 22.356C35.7181 22.068 35.3781 21.924 34.9301 21.924C34.0661 21.924 33.6061 22.456 33.5501 23.52L33.5381 23.88L33.5501 24.24C33.6061 25.304 34.0661 25.836 34.9301 25.836ZM40.4175 27C40.3375 27 40.2695 26.972 40.2135 26.916C40.1575 26.86 40.1295 26.792 40.1295 26.712V21.06C40.1295 20.98 40.1575 20.912 40.2135 20.856C40.2695 20.792 40.3375 20.76 40.4175 20.76H41.3895C41.4775 20.76 41.5495 20.788 41.6055 20.844C41.6615 20.9 41.6895 20.972 41.6895 21.06V21.552C41.8815 21.296 42.1215 21.1 42.4095 20.964C42.7055 20.828 43.0415 20.76 43.4175 20.76H43.9095C43.9975 20.76 44.0655 20.788 44.1135 20.844C44.1695 20.892 44.1975 20.96 44.1975 21.048V21.912C44.1975 21.992 44.1695 22.06 44.1135 22.116C44.0655 22.172 43.9975 22.2 43.9095 22.2H42.9735C42.5975 22.2 42.3015 22.308 42.0855 22.524C41.8695 22.74 41.7615 23.036 41.7615 23.412V26.712C41.7615 26.792 41.7335 26.86 41.6775 26.916C41.6215 26.972 41.5495 27 41.4615 27H40.4175ZM45.9734 19.728C45.8934 19.728 45.8254 19.7 45.7694 19.644C45.7134 19.588 45.6854 19.52 45.6854 19.44V18.576C45.6854 18.496 45.7134 18.428 45.7694 18.372C45.8254 18.316 45.8934 18.288 45.9734 18.288H47.0654C47.1454 18.288 47.2134 18.316 47.2694 18.372C47.3334 18.428 47.3654 18.496 47.3654 18.576V19.44C47.3654 19.52 47.3374 19.588 47.2814 19.644C47.2254 19.7 47.1534 19.728 47.0654 19.728H45.9734ZM46.0214 27C45.9414 27 45.8734 26.972 45.8174 26.916C45.7614 26.86 45.7334 26.792 45.7334 26.712V21.048C45.7334 20.968 45.7614 20.9 45.8174 20.844C45.8734 20.788 45.9414 20.76 46.0214 20.76H47.0174C47.1054 20.76 47.1734 20.788 47.2214 20.844C47.2774 20.892 47.3054 20.96 47.3054 21.048V26.712C47.3054 26.792 47.2774 26.86 47.2214 26.916C47.1734 26.972 47.1054 27 47.0174 27H46.0214ZM52.3175 29.64C51.6055 29.64 51.0295 29.52 50.5895 29.28C50.1495 29.048 49.8375 28.78 49.6535 28.476C49.4695 28.172 49.3775 27.912 49.3775 27.696C49.3775 27.624 49.4055 27.56 49.4615 27.504C49.5255 27.448 49.5935 27.42 49.6655 27.42H50.7095C50.7815 27.42 50.8415 27.436 50.8895 27.468C50.9455 27.508 50.9895 27.576 51.0215 27.672C51.1015 27.888 51.2295 28.068 51.4055 28.212C51.5895 28.364 51.8735 28.44 52.2575 28.44C52.7375 28.44 53.0895 28.332 53.3135 28.116C53.5455 27.9 53.6615 27.528 53.6615 27V26.184C53.2215 26.704 52.6055 26.964 51.8135 26.964C50.9815 26.964 50.3535 26.708 49.9295 26.196C49.5135 25.684 49.2895 24.996 49.2575 24.132L49.2455 23.808L49.2575 23.484C49.2895 22.636 49.5175 21.952 49.9415 21.432C50.3655 20.904 50.9895 20.64 51.8135 20.64C52.2375 20.64 52.6095 20.72 52.9295 20.88C53.2495 21.04 53.5175 21.26 53.7335 21.54V21.06C53.7335 20.972 53.7615 20.9 53.8175 20.844C53.8735 20.788 53.9415 20.76 54.0215 20.76H54.9935C55.0735 20.76 55.1415 20.792 55.1975 20.856C55.2535 20.912 55.2815 20.98 55.2815 21.06L55.2935 26.844C55.2935 27.732 55.0455 28.42 54.5495 28.908C54.0535 29.396 53.3095 29.64 52.3175 29.64ZM52.2575 25.692C52.7135 25.692 53.0535 25.548 53.2775 25.26C53.5095 24.972 53.6375 24.62 53.6615 24.204C53.6695 24.14 53.6735 24.008 53.6735 23.808C53.6735 23.616 53.6695 23.488 53.6615 23.424C53.6375 23 53.5095 22.644 53.2775 22.356C53.0535 22.068 52.7135 21.924 52.2575 21.924C51.3935 21.924 50.9375 22.456 50.8895 23.52L50.8775 23.808C50.8775 24.376 50.9775 24.832 51.1775 25.176C51.3855 25.52 51.7455 25.692 52.2575 25.692ZM60.18 27.12C59.292 27.12 58.584 26.864 58.056 26.352C57.536 25.832 57.26 25.104 57.228 24.168L57.216 23.868L57.228 23.568C57.268 22.656 57.548 21.94 58.068 21.42C58.596 20.9 59.3 20.64 60.18 20.64C61.124 20.64 61.852 20.928 62.364 21.504C62.884 22.08 63.144 22.848 63.144 23.808V24.06C63.144 24.14 63.116 24.208 63.06 24.264C63.004 24.32 62.932 24.348 62.844 24.348H58.86V24.444C58.876 24.884 58.996 25.256 59.22 25.56C59.452 25.856 59.768 26.004 60.168 26.004C60.64 26.004 61.02 25.82 61.308 25.452C61.38 25.364 61.436 25.308 61.476 25.284C61.524 25.26 61.592 25.248 61.68 25.248H62.712C62.784 25.248 62.844 25.272 62.892 25.32C62.948 25.36 62.976 25.412 62.976 25.476C62.976 25.668 62.86 25.896 62.628 26.16C62.404 26.416 62.08 26.64 61.656 26.832C61.232 27.024 60.74 27.12 60.18 27.12ZM61.512 23.34V23.304C61.512 22.832 61.392 22.452 61.152 22.164C60.92 21.876 60.596 21.732 60.18 21.732C59.764 21.732 59.44 21.876 59.208 22.164C58.976 22.452 58.86 22.832 58.86 23.304V23.34H61.512ZM65.3058 27C65.2258 27 65.1578 26.972 65.1018 26.916C65.0458 26.86 65.0178 26.792 65.0178 26.712V21.048C65.0178 20.968 65.0458 20.9 65.1018 20.844C65.1578 20.788 65.2258 20.76 65.3058 20.76H66.2418C66.3218 20.76 66.3898 20.788 66.4458 20.844C66.5018 20.9 66.5298 20.968 66.5298 21.048V21.456C66.9458 20.912 67.5258 20.64 68.2698 20.64C69.1578 20.64 69.7778 20.996 70.1298 21.708C70.3218 21.388 70.5938 21.132 70.9458 20.94C71.2978 20.74 71.6778 20.64 72.0858 20.64C72.7418 20.64 73.2778 20.864 73.6938 21.312C74.1098 21.76 74.3178 22.412 74.3178 23.268V26.712C74.3178 26.792 74.2898 26.86 74.2338 26.916C74.1858 26.972 74.1178 27 74.0298 27H73.0458C72.9658 27 72.8978 26.972 72.8418 26.916C72.7858 26.86 72.7578 26.792 72.7578 26.712V23.364C72.7578 22.86 72.6498 22.496 72.4338 22.272C72.2258 22.04 71.9458 21.924 71.5938 21.924C71.2818 21.924 71.0138 22.04 70.7898 22.272C70.5738 22.504 70.4658 22.868 70.4658 23.364V26.712C70.4658 26.792 70.4378 26.86 70.3818 26.916C70.3258 26.972 70.2578 27 70.1778 27H69.1938C69.1138 27 69.0458 26.972 68.9898 26.916C68.9338 26.86 68.9058 26.792 68.9058 26.712V23.364C68.9058 22.86 68.7938 22.496 68.5698 22.272C68.3538 22.04 68.0778 21.924 67.7418 21.924C67.4218 21.924 67.1498 22.04 66.9258 22.272C66.7098 22.504 66.6018 22.868 66.6018 23.364V26.712C66.6018 26.792 66.5738 26.86 66.5178 26.916C66.4618 26.972 66.3938 27 66.3138 27H65.3058ZM80.2201 27C80.1401 27 80.0721 26.972 80.0161 26.916C79.9601 26.86 79.9321 26.792 79.9321 26.712V18.9C79.9321 18.812 79.9561 18.74 80.0041 18.684C80.0601 18.628 80.1321 18.6 80.2201 18.6H85.5001C85.5881 18.6 85.6601 18.628 85.7161 18.684C85.7721 18.74 85.8001 18.812 85.8001 18.9V19.692C85.8001 19.78 85.7721 19.852 85.7161 19.908C85.6601 19.956 85.5881 19.98 85.5001 19.98H81.5521V22.104H85.2361C85.3241 22.104 85.3961 22.132 85.4521 22.188C85.5081 22.236 85.5361 22.304 85.5361 22.392V23.136C85.5361 23.224 85.5081 23.296 85.4521 23.352C85.3961 23.4 85.3241 23.424 85.2361 23.424H81.5521V25.62H85.5961C85.6841 25.62 85.7561 25.648 85.8121 25.704C85.8681 25.76 85.8961 25.832 85.8961 25.92V26.712C85.8961 26.8 85.8681 26.872 85.8121 26.928C85.7561 26.976 85.6841 27 85.5961 27H80.2201ZM88.0929 19.728C88.0129 19.728 87.9449 19.7 87.8889 19.644C87.8329 19.588 87.8049 19.52 87.8049 19.44V18.576C87.8049 18.496 87.8329 18.428 87.8889 18.372C87.9449 18.316 88.0129 18.288 88.0929 18.288H89.1849C89.2649 18.288 89.3329 18.316 89.3889 18.372C89.4529 18.428 89.4849 18.496 89.4849 18.576V19.44C89.4849 19.52 89.4569 19.588 89.4009 19.644C89.3449 19.7 89.2729 19.728 89.1849 19.728H88.0929ZM88.1409 27C88.0609 27 87.9929 26.972 87.9369 26.916C87.8809 26.86 87.8529 26.792 87.8529 26.712V21.048C87.8529 20.968 87.8809 20.9 87.9369 20.844C87.9929 20.788 88.0609 20.76 88.1409 20.76H89.1369C89.2249 20.76 89.2929 20.788 89.3409 20.844C89.3969 20.892 89.4249 20.96 89.4249 21.048V26.712C89.4249 26.792 89.3969 26.86 89.3409 26.916C89.2929 26.972 89.2249 27 89.1369 27H88.1409ZM91.905 27C91.825 27 91.757 26.972 91.701 26.916C91.645 26.86 91.617 26.792 91.617 26.712V21.048C91.617 20.968 91.645 20.9 91.701 20.844C91.757 20.788 91.825 20.76 91.905 20.76H92.889C92.969 20.76 93.037 20.788 93.093 20.844C93.149 20.9 93.177 20.968 93.177 21.048V21.54C93.649 20.94 94.317 20.64 95.181 20.64C95.917 20.64 96.501 20.884 96.933 21.372C97.365 21.852 97.581 22.508 97.581 23.34V26.712C97.581 26.792 97.553 26.86 97.497 26.916C97.449 26.972 97.381 27 97.293 27H96.237C96.157 27 96.089 26.972 96.033 26.916C95.977 26.86 95.949 26.792 95.949 26.712V23.412C95.949 22.94 95.833 22.576 95.601 22.32C95.377 22.056 95.049 21.924 94.617 21.924C94.193 21.924 93.857 22.056 93.609 22.32C93.369 22.584 93.249 22.948 93.249 23.412V26.712C93.249 26.792 93.221 26.86 93.165 26.916C93.117 26.972 93.049 27 92.961 27H91.905ZM100.005 27C99.9253 27 99.8573 26.972 99.8013 26.916C99.7453 26.86 99.7173 26.792 99.7173 26.712V18.768C99.7173 18.68 99.7453 18.612 99.8013 18.564C99.8573 18.508 99.9253 18.48 100.005 18.48H100.977C101.065 18.48 101.133 18.508 101.181 18.564C101.237 18.612 101.265 18.68 101.265 18.768V22.872L103.281 20.964C103.305 20.948 103.345 20.916 103.401 20.868C103.449 20.828 103.497 20.8 103.545 20.784C103.593 20.768 103.653 20.76 103.725 20.76H104.841C104.921 20.76 104.985 20.784 105.033 20.832C105.081 20.88 105.105 20.944 105.105 21.024C105.105 21.096 105.065 21.168 104.985 21.24L102.513 23.556L105.285 26.532C105.365 26.612 105.405 26.68 105.405 26.736C105.405 26.816 105.377 26.88 105.321 26.928C105.273 26.976 105.213 27 105.141 27H104.001C103.889 27 103.805 26.988 103.749 26.964C103.701 26.932 103.637 26.876 103.557 26.796L101.265 24.384V26.712C101.265 26.792 101.237 26.86 101.181 26.916C101.133 26.972 101.065 27 100.977 27H100.005ZM109.37 27.12C108.434 27.12 107.71 26.88 107.198 26.4C106.686 25.912 106.41 25.248 106.37 24.408L106.358 23.88L106.37 23.352C106.41 22.52 106.69 21.86 107.21 21.372C107.73 20.884 108.45 20.64 109.37 20.64C110.29 20.64 111.01 20.884 111.53 21.372C112.05 21.86 112.33 22.52 112.37 23.352C112.378 23.448 112.382 23.624 112.382 23.88C112.382 24.136 112.378 24.312 112.37 24.408C112.33 25.248 112.054 25.912 111.542 26.4C111.03 26.88 110.306 27.12 109.37 27.12ZM109.37 25.932C109.794 25.932 110.122 25.8 110.354 25.536C110.586 25.264 110.714 24.868 110.738 24.348C110.746 24.268 110.75 24.112 110.75 23.88C110.75 23.648 110.746 23.492 110.738 23.412C110.714 22.892 110.586 22.5 110.354 22.236C110.122 21.964 109.794 21.828 109.37 21.828C108.946 21.828 108.618 21.964 108.386 22.236C108.154 22.5 108.026 22.892 108.002 23.412L107.99 23.88L108.002 24.348C108.026 24.868 108.154 25.264 108.386 25.536C108.618 25.8 108.946 25.932 109.37 25.932ZM114.6 27C114.52 27 114.452 26.972 114.396 26.916C114.34 26.86 114.312 26.792 114.312 26.712V21.048C114.312 20.968 114.34 20.9 114.396 20.844C114.452 20.788 114.52 20.76 114.6 20.76H115.536C115.616 20.76 115.684 20.788 115.74 20.844C115.796 20.9 115.824 20.968 115.824 21.048V21.456C116.24 20.912 116.82 20.64 117.564 20.64C118.452 20.64 119.072 20.996 119.424 21.708C119.616 21.388 119.888 21.132 120.24 20.94C120.592 20.74 120.972 20.64 121.38 20.64C122.036 20.64 122.572 20.864 122.988 21.312C123.404 21.76 123.612 22.412 123.612 23.268V26.712C123.612 26.792 123.584 26.86 123.528 26.916C123.48 26.972 123.412 27 123.324 27H122.34C122.26 27 122.192 26.972 122.136 26.916C122.08 26.86 122.052 26.792 122.052 26.712V23.364C122.052 22.86 121.944 22.496 121.728 22.272C121.52 22.04 121.24 21.924 120.888 21.924C120.576 21.924 120.308 22.04 120.084 22.272C119.868 22.504 119.76 22.868 119.76 23.364V26.712C119.76 26.792 119.732 26.86 119.676 26.916C119.62 26.972 119.552 27 119.472 27H118.488C118.408 27 118.34 26.972 118.284 26.916C118.228 26.86 118.2 26.792 118.2 26.712V23.364C118.2 22.86 118.088 22.496 117.864 22.272C117.648 22.04 117.372 21.924 117.036 21.924C116.716 21.924 116.444 22.04 116.22 22.272C116.004 22.504 115.896 22.868 115.896 23.364V26.712C115.896 26.792 115.868 26.86 115.812 26.916C115.756 26.972 115.688 27 115.608 27H114.6ZM126.028 27C125.948 27 125.88 26.972 125.824 26.916C125.768 26.86 125.74 26.792 125.74 26.712V21.048C125.74 20.968 125.768 20.9 125.824 20.844C125.88 20.788 125.948 20.76 126.028 20.76H126.964C127.044 20.76 127.112 20.788 127.168 20.844C127.224 20.9 127.252 20.968 127.252 21.048V21.456C127.668 20.912 128.248 20.64 128.992 20.64C129.88 20.64 130.5 20.996 130.852 21.708C131.044 21.388 131.316 21.132 131.668 20.94C132.02 20.74 132.4 20.64 132.808 20.64C133.464 20.64 134 20.864 134.416 21.312C134.832 21.76 135.04 22.412 135.04 23.268V26.712C135.04 26.792 135.012 26.86 134.956 26.916C134.908 26.972 134.84 27 134.752 27H133.768C133.688 27 133.62 26.972 133.564 26.916C133.508 26.86 133.48 26.792 133.48 26.712V23.364C133.48 22.86 133.372 22.496 133.156 22.272C132.948 22.04 132.668 21.924 132.316 21.924C132.004 21.924 131.736 22.04 131.512 22.272C131.296 22.504 131.188 22.868 131.188 23.364V26.712C131.188 26.792 131.16 26.86 131.104 26.916C131.048 26.972 130.98 27 130.9 27H129.916C129.836 27 129.768 26.972 129.712 26.916C129.656 26.86 129.628 26.792 129.628 26.712V23.364C129.628 22.86 129.516 22.496 129.292 22.272C129.076 22.04 128.8 21.924 128.464 21.924C128.144 21.924 127.872 22.04 127.648 22.272C127.432 22.504 127.324 22.868 127.324 23.364V26.712C127.324 26.792 127.296 26.86 127.24 26.916C127.184 26.972 127.116 27 127.036 27H126.028ZM139.856 27.12C138.968 27.12 138.26 26.864 137.732 26.352C137.212 25.832 136.936 25.104 136.904 24.168L136.892 23.868L136.904 23.568C136.944 22.656 137.224 21.94 137.744 21.42C138.272 20.9 138.976 20.64 139.856 20.64C140.8 20.64 141.528 20.928 142.04 21.504C142.56 22.08 142.82 22.848 142.82 23.808V24.06C142.82 24.14 142.792 24.208 142.736 24.264C142.68 24.32 142.608 24.348 142.52 24.348H138.536V24.444C138.552 24.884 138.672 25.256 138.896 25.56C139.128 25.856 139.444 26.004 139.844 26.004C140.316 26.004 140.696 25.82 140.984 25.452C141.056 25.364 141.112 25.308 141.152 25.284C141.2 25.26 141.268 25.248 141.356 25.248H142.388C142.46 25.248 142.52 25.272 142.568 25.32C142.624 25.36 142.652 25.412 142.652 25.476C142.652 25.668 142.536 25.896 142.304 26.16C142.08 26.416 141.756 26.64 141.332 26.832C140.908 27.024 140.416 27.12 139.856 27.12ZM141.188 23.34V23.304C141.188 22.832 141.068 22.452 140.828 22.164C140.596 21.876 140.272 21.732 139.856 21.732C139.44 21.732 139.116 21.876 138.884 22.164C138.652 22.452 138.536 22.832 138.536 23.304V23.34H141.188ZM144.982 27C144.902 27 144.834 26.972 144.778 26.916C144.722 26.86 144.694 26.792 144.694 26.712V21.048C144.694 20.968 144.722 20.9 144.778 20.844C144.834 20.788 144.902 20.76 144.982 20.76H145.966C146.046 20.76 146.114 20.788 146.17 20.844C146.226 20.9 146.254 20.968 146.254 21.048V21.54C146.726 20.94 147.394 20.64 148.258 20.64C148.994 20.64 149.578 20.884 150.01 21.372C150.442 21.852 150.658 22.508 150.658 23.34V26.712C150.658 26.792 150.63 26.86 150.574 26.916C150.526 26.972 150.458 27 150.37 27H149.314C149.234 27 149.166 26.972 149.11 26.916C149.054 26.86 149.026 26.792 149.026 26.712V23.412C149.026 22.94 148.91 22.576 148.678 22.32C148.454 22.056 148.126 21.924 147.694 21.924C147.27 21.924 146.934 22.056 146.686 22.32C146.446 22.584 146.326 22.948 146.326 23.412V26.712C146.326 26.792 146.298 26.86 146.242 26.916C146.194 26.972 146.126 27 146.038 27H144.982Z" fill="#333333"/>
<path d="M402.4 39.6997H379.2V79.6992H402.4V39.6997Z" fill="#F8F8F8"/>
<mask id="mask0" mask-type="alpha" maskUnits="userSpaceOnUse" x="263" y="38" width="284" height="44">
<line x1="305.707" y1="38.7071" x2="263.707" y2="80.7071" stroke="#470184" stroke-width="2"/>
<line x1="313.707" y1="38.7071" x2="271.707" y2="80.7071" stroke="#470184" stroke-width="2"/>
<line x1="321.707" y1="38.7071" x2="279.707" y2="80.7071" stroke="#470184" stroke-width="2"/>
<line x1="329.707" y1="38.7071" x2="287.707" y2="80.7071" stroke="#470184" stroke-width="2"/>
<line x1="337.707" y1="38.7071" x2="295.707" y2="80.7071" stroke="#470184" stroke-width="2"/>
<line x1="345.707" y1="38.7071" x2="303.707" y2="80.7071" stroke="#470184" stroke-width="2"/>
<line x1="353.707" y1="38.7071" x2="311.707" y2="80.7071" stroke="#470184" stroke-width="2"/>
<line x1="361.707" y1="38.7071" x2="319.707" y2="80.7071" stroke="#470184" stroke-width="2"/>
<line x1="369.707" y1="38.7071" x2="327.707" y2="80.7071" stroke="#470184" stroke-width="2"/>
<line x1="377.707" y1="38.7071" x2="335.707" y2="80.7071" stroke="#470184" stroke-width="2"/>
<line x1="385.707" y1="38.7071" x2="343.707" y2="80.7071" stroke="#470184" stroke-width="2"/>
<line x1="393.707" y1="38.7071" x2="351.707" y2="80.7071" stroke="#470184" stroke-width="2"/>
<line x1="401.707" y1="38.7071" x2="359.707" y2="80.7071" stroke="#470184" stroke-width="2"/>
<line x1="409.707" y1="38.7071" x2="367.707" y2="80.7071" stroke="#470184" stroke-width="2"/>
<line x1="417.707" y1="38.7071" x2="375.707" y2="80.7071" stroke="#470184" stroke-width="2"/>
<line x1="425.707" y1="38.7071" x2="383.707" y2="80.7071" stroke="#470184" stroke-width="2"/>
<line x1="433.707" y1="38.7071" x2="391.707" y2="80.7071" stroke="#470184" stroke-width="2"/>
<line x1="441.707" y1="38.7071" x2="399.707" y2="80.7071" stroke="#470184" stroke-width="2"/>
<line x1="449.707" y1="38.7071" x2="407.707" y2="80.7071" stroke="#470184" stroke-width="2"/>
</mask>
<g mask="url(#mask0)">
<path d="M403.2 39.6997H380V79.6992H403.2V39.6997Z" fill="#E0E0E0"/>
</g>
<path d="M374.201 39.7002H339.301V79.6996H374.201V39.7002Z" fill="#034E7B"/>
<mask id="mask1" mask-type="alpha" maskUnits="userSpaceOnUse" x="163" y="38" width="284" height="44">
<line x1="205.707" y1="38.7071" x2="163.707" y2="80.7071" stroke="#C2DBFF" stroke-width="2"/>
<line x1="213.707" y1="38.7071" x2="171.707" y2="80.7071" stroke="#C2DBFF" stroke-width="2"/>
<line x1="221.707" y1="38.7071" x2="179.707" y2="80.7071" stroke="#C2DBFF" stroke-width="2"/>
<line x1="229.707" y1="38.7071" x2="187.707" y2="80.7071" stroke="#C2DBFF" stroke-width="2"/>
<line x1="237.707" y1="38.7071" x2="195.707" y2="80.7071" stroke="#C2DBFF" stroke-width="2"/>
<line x1="245.707" y1="38.7071" x2="203.707" y2="80.7071" stroke="#C2DBFF" stroke-width="2"/>
<line x1="253.707" y1="38.7071" x2="211.707" y2="80.7071" stroke="#C2DBFF" stroke-width="2"/>
<line x1="261.707" y1="38.7071" x2="219.707" y2="80.7071" stroke="#C2DBFF" stroke-width="2"/>
<line x1="269.707" y1="38.7071" x2="227.707" y2="80.7071" stroke="#C2DBFF" stroke-width="2"/>
<line x1="277.707" y1="38.7071" x2="235.707" y2="80.7071" stroke="#C2DBFF" stroke-width="2"/>
<line x1="285.707" y1="38.7071" x2="243.707" y2="80.7071" stroke="#C2DBFF" stroke-width="2"/>
<line x1="293.707" y1="38.7071" x2="251.707" y2="80.7071" stroke="#C2DBFF" stroke-width="2"/>
<line x1="301.707" y1="38.7071" x2="259.707" y2="80.7071" stroke="#C2DBFF" stroke-width="2"/>
<line x1="309.707" y1="38.7071" x2="267.707" y2="80.7071" stroke="#C2DBFF" stroke-width="2"/>
<line x1="317.707" y1="38.7071" x2="275.707" y2="80.7071" stroke="#C2DBFF" stroke-width="2"/>
<line x1="325.707" y1="38.7071" x2="283.707" y2="80.7071" stroke="#C2DBFF" stroke-width="2"/>
<line x1="333.707" y1="38.7071" x2="291.707" y2="80.7071" stroke="#C2DBFF" stroke-width="2"/>
<line x1="341.707" y1="38.7071" x2="299.707" y2="80.7071" stroke="#C2DBFF" stroke-width="2"/>
<line x1="349.707" y1="38.7071" x2="307.707" y2="80.7071" stroke="#C2DBFF" stroke-width="2"/>
<line x1="357.707" y1="38.7071" x2="315.707" y2="80.7071" stroke="#C2DBFF" stroke-width="2"/>
<line x1="365.707" y1="38.7071" x2="323.707" y2="80.7071" stroke="#C2DBFF" stroke-width="2"/>
<line x1="373.707" y1="38.7071" x2="331.707" y2="80.7071" stroke="#C2DBFF" stroke-width="2"/>
<line x1="381.707" y1="38.7071" x2="339.707" y2="80.7071" stroke="#C2DBFF" stroke-width="2"/>
<line x1="389.707" y1="38.7071" x2="347.707" y2="80.7071" stroke="#C2DBFF" stroke-width="2"/>
<line x1="397.707" y1="38.7071" x2="355.707" y2="80.7071" stroke="#C2DBFF" stroke-width="2"/>
<line x1="405.707" y1="38.7071" x2="363.707" y2="80.7071" stroke="#C2DBFF" stroke-width="2"/>
<line x1="413.707" y1="38.7071" x2="371.707" y2="80.7071" stroke="#C2DBFF" stroke-width="2"/>
<line x1="421.707" y1="38.7071" x2="379.707" y2="80.7071" stroke="#C2DBFF" stroke-width="2"/>
<line x1="429.707" y1="38.7071" x2="387.707" y2="80.7071" stroke="#C2DBFF" stroke-width="2"/>
<line x1="437.707" y1="38.7071" x2="395.707" y2="80.7071" stroke="#C2DBFF" stroke-width="2"/>
<line x1="445.707" y1="38.7071" x2="403.707" y2="80.7071" stroke="#C2DBFF" stroke-width="2"/>
</mask>
<g mask="url(#mask1)">
<path d="M373.9 39.7002H339V79.6996H373.9V39.7002Z" fill="#046AA7"/>
</g>
<path d="M334.301 39.7002H303.301V79.6996H334.301V39.7002Z" fill="#0570B0"/>
<mask id="mask2" mask-type="alpha" maskUnits="userSpaceOnUse" x="92" y="38" width="284" height="44">
<line x1="134.707" y1="38.7071" x2="92.7071" y2="80.7071" stroke="#A55F8A" stroke-width="2"/>
<line x1="142.707" y1="38.7071" x2="100.707" y2="80.7071" stroke="#A55F8A" stroke-width="2"/>
<line x1="150.707" y1="38.7071" x2="108.707" y2="80.7071" stroke="#A55F8A" stroke-width="2"/>
<line x1="158.707" y1="38.7071" x2="116.707" y2="80.7071" stroke="#A55F8A" stroke-width="2"/>
<line x1="166.707" y1="38.7071" x2="124.707" y2="80.7071" stroke="#A55F8A" stroke-width="2"/>
<line x1="174.707" y1="38.7071" x2="132.707" y2="80.7071" stroke="#A55F8A" stroke-width="2"/>
<line x1="182.707" y1="38.7071" x2="140.707" y2="80.7071" stroke="#A55F8A" stroke-width="2"/>
<line x1="190.707" y1="38.7071" x2="148.707" y2="80.7071" stroke="#A55F8A" stroke-width="2"/>
<line x1="198.707" y1="38.7071" x2="156.707" y2="80.7071" stroke="#A55F8A" stroke-width="2"/>
<line x1="206.707" y1="38.7071" x2="164.707" y2="80.7071" stroke="#A55F8A" stroke-width="2"/>
<line x1="214.707" y1="38.7071" x2="172.707" y2="80.7071" stroke="#A55F8A" stroke-width="2"/>
<line x1="222.707" y1="38.7071" x2="180.707" y2="80.7071" stroke="#A55F8A" stroke-width="2"/>
<line x1="230.707" y1="38.7071" x2="188.707" y2="80.7071" stroke="#A55F8A" stroke-width="2"/>
<line x1="238.707" y1="38.7071" x2="196.707" y2="80.7071" stroke="#A55F8A" stroke-width="2"/>
<line x1="246.707" y1="38.7071" x2="204.707" y2="80.7071" stroke="#A55F8A" stroke-width="2"/>
<line x1="254.707" y1="38.7071" x2="212.707" y2="80.7071" stroke="#A55F8A" stroke-width="2"/>
<line x1="262.707" y1="38.7071" x2="220.707" y2="80.7071" stroke="#A55F8A" stroke-width="2"/>
<line x1="270.707" y1="38.7071" x2="228.707" y2="80.7071" stroke="#A55F8A" stroke-width="2"/>
<line x1="278.707" y1="38.7071" x2="236.707" y2="80.7071" stroke="#A55F8A" stroke-width="2"/>
<line x1="286.707" y1="38.7071" x2="244.707" y2="80.7071" stroke="#A55F8A" stroke-width="2"/>
<line x1="294.707" y1="38.7071" x2="252.707" y2="80.7071" stroke="#A55F8A" stroke-width="2"/>
<line x1="302.707" y1="38.7071" x2="260.707" y2="80.7071" stroke="#A55F8A" stroke-width="2"/>
<line x1="310.707" y1="38.7071" x2="268.707" y2="80.7071" stroke="#A55F8A" stroke-width="2"/>
<line x1="318.707" y1="38.7071" x2="276.707" y2="80.7071" stroke="#A55F8A" stroke-width="2"/>
<line x1="326.707" y1="38.7071" x2="284.707" y2="80.7071" stroke="#A55F8A" stroke-width="2"/>
<line x1="334.707" y1="38.7071" x2="292.707" y2="80.7071" stroke="#A55F8A" stroke-width="2"/>
<line x1="342.707" y1="38.7071" x2="300.707" y2="80.7071" stroke="#A55F8A" stroke-width="2"/>
<line x1="350.707" y1="38.7071" x2="308.707" y2="80.7071" stroke="#A55F8A" stroke-width="2"/>
<line x1="358.707" y1="38.7071" x2="316.707" y2="80.7071" stroke="#A55F8A" stroke-width="2"/>
<line x1="366.707" y1="38.7071" x2="324.707" y2="80.7071" stroke="#A55F8A" stroke-width="2"/>
<line x1="374.707" y1="38.7071" x2="332.707" y2="80.7071" stroke="#A55F8A" stroke-width="2"/>
</mask>
<g mask="url(#mask2)">
<path d="M334 39.7002H303V79.7002H334V39.7002Z" fill="#0991E2"/>
</g>
<path d="M298.4 39.7002H0V79.6996H298.4V39.7002Z" fill="#A6BDDD"/>
<mask id="mask3" mask-type="alpha" maskUnits="userSpaceOnUse" x="-45" y="38" width="404" height="44">
<line x1="5.70711" y1="38.7071" x2="-36.2929" y2="80.7071" stroke="#6B6B6B" stroke-width="2"/>
<line x1="13.7071" y1="38.7071" x2="-28.2929" y2="80.7071" stroke="#6B6B6B" stroke-width="2"/>
<line x1="21.7071" y1="38.7071" x2="-20.2929" y2="80.7071" stroke="#6B6B6B" stroke-width="2"/>
<line x1="29.7071" y1="38.7071" x2="-12.2929" y2="80.7071" stroke="#6B6B6B" stroke-width="2"/>
<line x1="37.7071" y1="38.7071" x2="-4.29289" y2="80.7071" stroke="#6B6B6B" stroke-width="2"/>
<line x1="45.7071" y1="38.7071" x2="3.70711" y2="80.7071" stroke="#6B6B6B" stroke-width="2"/>
<line x1="53.7071" y1="38.7071" x2="11.7071" y2="80.7071" stroke="#6B6B6B" stroke-width="2"/>
<line x1="61.7071" y1="38.7071" x2="19.7071" y2="80.7071" stroke="#6B6B6B" stroke-width="2"/>
<line x1="69.7071" y1="38.7071" x2="27.7071" y2="80.7071" stroke="#6B6B6B" stroke-width="2"/>
<line x1="77.7071" y1="38.7071" x2="35.7071" y2="80.7071" stroke="#6B6B6B" stroke-width="2"/>
<line x1="85.7071" y1="38.7071" x2="43.7071" y2="80.7071" stroke="#6B6B6B" stroke-width="2"/>
<line x1="93.7071" y1="38.7071" x2="51.7071" y2="80.7071" stroke="#6B6B6B" stroke-width="2"/>
<line x1="101.707" y1="38.7071" x2="59.7071" y2="80.7071" stroke="#6B6B6B" stroke-width="2"/>
<line x1="109.707" y1="38.7071" x2="67.7071" y2="80.7071" stroke="#6B6B6B" stroke-width="2"/>
<line x1="117.707" y1="38.7071" x2="75.7071" y2="80.7071" stroke="#6B6B6B" stroke-width="2"/>
<line x1="125.707" y1="38.7071" x2="83.7071" y2="80.7071" stroke="#6B6B6B" stroke-width="2"/>
<line x1="133.707" y1="38.7071" x2="91.7071" y2="80.7071" stroke="#6B6B6B" stroke-width="2"/>
<line x1="141.707" y1="38.7071" x2="99.7071" y2="80.7071" stroke="#6B6B6B" stroke-width="2"/>
<line x1="149.707" y1="38.7071" x2="107.707" y2="80.7071" stroke="#6B6B6B" stroke-width="2"/>
<line x1="157.707" y1="38.7071" x2="115.707" y2="80.7071" stroke="#6B6B6B" stroke-width="2"/>
<line x1="165.707" y1="38.7071" x2="123.707" y2="80.7071" stroke="#6B6B6B" stroke-width="2"/>
<line x1="173.707" y1="38.7071" x2="131.707" y2="80.7071" stroke="#6B6B6B" stroke-width="2"/>
<line x1="181.707" y1="38.7071" x2="139.707" y2="80.7071" stroke="#6B6B6B" stroke-width="2"/>
<line x1="189.707" y1="38.7071" x2="147.707" y2="80.7071" stroke="#6B6B6B" stroke-width="2"/>
<line x1="197.707" y1="38.7071" x2="155.707" y2="80.7071" stroke="#6B6B6B" stroke-width="2"/>
<line x1="205.707" y1="38.7071" x2="163.707" y2="80.7071" stroke="#6B6B6B" stroke-width="2"/>
<line x1="213.707" y1="38.7071" x2="171.707" y2="80.7071" stroke="#6B6B6B" stroke-width="2"/>
<line x1="221.707" y1="38.7071" x2="179.707" y2="80.7071" stroke="#6B6B6B" stroke-width="2"/>
<line x1="229.707" y1="38.7071" x2="187.707" y2="80.7071" stroke="#6B6B6B" stroke-width="2"/>
<line x1="237.707" y1="38.7071" x2="195.707" y2="80.7071" stroke="#6B6B6B" stroke-width="2"/>
<line x1="245.707" y1="38.7071" x2="203.707" y2="80.7071" stroke="#6B6B6B" stroke-width="2"/>
<line x1="253.707" y1="38.7071" x2="211.707" y2="80.7071" stroke="#6B6B6B" stroke-width="2"/>
<line x1="261.707" y1="38.7071" x2="219.707" y2="80.7071" stroke="#6B6B6B" stroke-width="2"/>
<line x1="269.707" y1="38.7071" x2="227.707" y2="80.7071" stroke="#6B6B6B" stroke-width="2"/>
<line x1="277.707" y1="38.7071" x2="235.707" y2="80.7071" stroke="#6B6B6B" stroke-width="2"/>
<line x1="285.707" y1="38.7071" x2="243.707" y2="80.7071" stroke="#6B6B6B" stroke-width="2"/>
<line x1="293.707" y1="38.7071" x2="251.707" y2="80.7071" stroke="#6B6B6B" stroke-width="2"/>
<line x1="301.707" y1="38.7071" x2="259.707" y2="80.7071" stroke="#6B6B6B" stroke-width="2"/>
<line x1="309.707" y1="38.7071" x2="267.707" y2="80.7071" stroke="#6B6B6B" stroke-width="2"/>
<line x1="317.707" y1="38.7071" x2="275.707" y2="80.7071" stroke="#6B6B6B" stroke-width="2"/>
<line x1="325.707" y1="38.7071" x2="283.707" y2="80.7071" stroke="#6B6B6B" stroke-width="2"/>
<line x1="333.707" y1="38.7071" x2="291.707" y2="80.7071" stroke="#6B6B6B" stroke-width="2"/>
<line x1="341.707" y1="38.7071" x2="299.707" y2="80.7071" stroke="#6B6B6B" stroke-width="2"/>
<line x1="349.707" y1="38.7071" x2="307.707" y2="80.7071" stroke="#6B6B6B" stroke-width="2"/>
<line x1="357.707" y1="38.7071" x2="315.707" y2="80.7071" stroke="#6B6B6B" stroke-width="2"/>
</mask>
<g mask="url(#mask3)">
<path d="M298.4 39.7002H0V79.6996H298.4V39.7002Z" fill="#C2DBFF"/>
</g>
<path d="M139.455 97C139.383 97 139.323 96.976 139.275 96.928C139.227 96.872 139.203 96.808 139.203 96.736C139.203 96.696 139.211 96.66 139.227 96.628L141.999 90.412H138.411C138.323 90.412 138.247 90.384 138.183 90.328C138.127 90.264 138.099 90.188 138.099 90.1V88.9C138.099 88.812 138.127 88.74 138.183 88.684C138.247 88.628 138.323 88.6 138.411 88.6H144.015C144.111 88.6 144.187 88.628 144.243 88.684C144.299 88.74 144.327 88.812 144.327 88.9V89.968C144.327 90.136 144.283 90.316 144.195 90.508L141.423 96.712C141.335 96.904 141.195 97 141.003 97H139.455ZM146.933 97C146.861 97 146.801 96.976 146.753 96.928C146.705 96.872 146.681 96.808 146.681 96.736C146.681 96.696 146.689 96.66 146.705 96.628L149.477 90.412H145.889C145.801 90.412 145.725 90.384 145.661 90.328C145.605 90.264 145.577 90.188 145.577 90.1V88.9C145.577 88.812 145.605 88.74 145.661 88.684C145.725 88.628 145.801 88.6 145.889 88.6H151.493C151.589 88.6 151.665 88.628 151.721 88.684C151.777 88.74 151.805 88.812 151.805 88.9V89.968C151.805 90.136 151.761 90.316 151.673 90.508L148.901 96.712C148.813 96.904 148.673 97 148.481 97H146.933ZM155.024 92.836C154.48 92.836 154.044 92.696 153.716 92.416C153.388 92.128 153.208 91.744 153.176 91.264C153.16 91.024 153.152 90.856 153.152 90.76C153.152 90.664 153.16 90.456 153.176 90.136C153.2 89.648 153.372 89.26 153.692 88.972C154.012 88.684 154.456 88.54 155.024 88.54C155.584 88.54 156.024 88.684 156.344 88.972C156.664 89.26 156.836 89.648 156.86 90.136C156.876 90.456 156.884 90.664 156.884 90.76C156.884 90.856 156.876 91.024 156.86 91.264C156.828 91.744 156.648 92.128 156.32 92.416C155.992 92.696 155.56 92.836 155.024 92.836ZM154.064 97C153.984 97 153.916 96.98 153.86 96.94C153.812 96.892 153.788 96.832 153.788 96.76C153.788 96.712 153.804 96.668 153.836 96.628L159.764 88.828C159.828 88.748 159.888 88.692 159.944 88.66C160 88.62 160.08 88.6 160.184 88.6H161.036C161.116 88.6 161.18 88.624 161.228 88.672C161.284 88.712 161.312 88.768 161.312 88.84C161.312 88.888 161.296 88.932 161.264 88.972L155.336 96.772C155.272 96.852 155.212 96.912 155.156 96.952C155.1 96.984 155.02 97 154.916 97H154.064ZM155.024 91.792C155.36 91.792 155.544 91.596 155.576 91.204C155.592 90.948 155.6 90.78 155.6 90.7C155.6 90.596 155.592 90.432 155.576 90.208C155.568 90.032 155.516 89.888 155.42 89.776C155.332 89.664 155.2 89.608 155.024 89.608C154.84 89.608 154.704 89.664 154.616 89.776C154.528 89.888 154.476 90.032 154.46 90.208C154.452 90.32 154.448 90.484 154.448 90.7C154.448 90.908 154.452 91.076 154.46 91.204C154.492 91.596 154.68 91.792 155.024 91.792ZM160.1 97.06C159.556 97.06 159.12 96.92 158.792 96.64C158.472 96.352 158.292 95.964 158.252 95.476C158.244 95.34 158.24 95.156 158.24 94.924C158.24 94.684 158.244 94.492 158.252 94.348C158.284 93.852 158.456 93.46 158.768 93.172C159.088 92.884 159.532 92.74 160.1 92.74C160.668 92.74 161.108 92.884 161.42 93.172C161.74 93.46 161.916 93.852 161.948 94.348C161.964 94.668 161.972 94.876 161.972 94.972C161.972 95.068 161.964 95.236 161.948 95.476C161.916 95.956 161.736 96.34 161.408 96.628C161.08 96.916 160.644 97.06 160.1 97.06ZM160.1 96.004C160.284 96.004 160.42 95.948 160.508 95.836C160.596 95.716 160.648 95.572 160.664 95.404C160.68 95.164 160.688 94.996 160.688 94.9C160.688 94.796 160.68 94.632 160.664 94.408C160.648 94.24 160.596 94.1 160.508 93.988C160.42 93.868 160.284 93.808 160.1 93.808C159.916 93.808 159.78 93.868 159.692 93.988C159.604 94.1 159.556 94.24 159.548 94.408C159.54 94.52 159.536 94.684 159.536 94.9C159.536 95.116 159.54 95.284 159.548 95.404C159.564 95.58 159.612 95.724 159.692 95.836C159.78 95.948 159.916 96.004 160.1 96.004Z" fill="#333333"/>
<path d="M314.055 97.12C313.287 97.12 312.639 97.004 312.111 96.772C311.583 96.54 311.187 96.224 310.923 95.824C310.667 95.424 310.539 94.976 310.539 94.48C310.539 94.056 310.643 93.676 310.851 93.34C311.067 92.996 311.351 92.728 311.703 92.536C311.423 92.352 311.207 92.12 311.055 91.84C310.911 91.56 310.839 91.24 310.839 90.88C310.839 90.424 310.955 90.016 311.187 89.656C311.427 89.288 311.787 89 312.267 88.792C312.747 88.584 313.343 88.48 314.055 88.48C315.103 88.48 315.895 88.7 316.431 89.14C316.975 89.58 317.247 90.156 317.247 90.868C317.247 91.596 316.967 92.152 316.407 92.536C316.767 92.712 317.051 92.972 317.259 93.316C317.475 93.66 317.583 94.052 317.583 94.492C317.583 94.988 317.451 95.436 317.187 95.836C316.923 96.228 316.523 96.54 315.987 96.772C315.459 97.004 314.815 97.12 314.055 97.12ZM314.055 91.936C314.407 91.928 314.695 91.836 314.919 91.66C315.143 91.484 315.255 91.256 315.255 90.976C315.255 90.688 315.143 90.456 314.919 90.28C314.695 90.104 314.407 90.016 314.055 90.016C313.703 90.016 313.415 90.104 313.191 90.28C312.967 90.456 312.855 90.688 312.855 90.976C312.855 91.264 312.967 91.496 313.191 91.672C313.415 91.848 313.703 91.936 314.055 91.936ZM314.055 95.584C314.447 95.584 314.771 95.484 315.027 95.284C315.283 95.084 315.411 94.816 315.411 94.48C315.411 94.144 315.283 93.88 315.027 93.688C314.771 93.488 314.447 93.388 314.055 93.388C313.663 93.388 313.335 93.488 313.071 93.688C312.815 93.88 312.687 94.144 312.687 94.48C312.687 94.816 312.815 95.084 313.071 95.284C313.335 95.484 313.663 95.584 314.055 95.584ZM321.024 92.836C320.48 92.836 320.044 92.696 319.716 92.416C319.388 92.128 319.208 91.744 319.176 91.264C319.16 91.024 319.152 90.856 319.152 90.76C319.152 90.664 319.16 90.456 319.176 90.136C319.2 89.648 319.372 89.26 319.692 88.972C320.012 88.684 320.456 88.54 321.024 88.54C321.584 88.54 322.024 88.684 322.344 88.972C322.664 89.26 322.836 89.648 322.86 90.136C322.876 90.456 322.884 90.664 322.884 90.76C322.884 90.856 322.876 91.024 322.86 91.264C322.828 91.744 322.648 92.128 322.32 92.416C321.992 92.696 321.56 92.836 321.024 92.836ZM320.064 97C319.984 97 319.916 96.98 319.86 96.94C319.812 96.892 319.788 96.832 319.788 96.76C319.788 96.712 319.804 96.668 319.836 96.628L325.764 88.828C325.828 88.748 325.888 88.692 325.944 88.66C326 88.62 326.08 88.6 326.184 88.6H327.036C327.116 88.6 327.18 88.624 327.228 88.672C327.284 88.712 327.312 88.768 327.312 88.84C327.312 88.888 327.296 88.932 327.264 88.972L321.336 96.772C321.272 96.852 321.212 96.912 321.156 96.952C321.1 96.984 321.02 97 320.916 97H320.064ZM321.024 91.792C321.36 91.792 321.544 91.596 321.576 91.204C321.592 90.948 321.6 90.78 321.6 90.7C321.6 90.596 321.592 90.432 321.576 90.208C321.568 90.032 321.516 89.888 321.42 89.776C321.332 89.664 321.2 89.608 321.024 89.608C320.84 89.608 320.704 89.664 320.616 89.776C320.528 89.888 320.476 90.032 320.46 90.208C320.452 90.32 320.448 90.484 320.448 90.7C320.448 90.908 320.452 91.076 320.46 91.204C320.492 91.596 320.68 91.792 321.024 91.792ZM326.1 97.06C325.556 97.06 325.12 96.92 324.792 96.64C324.472 96.352 324.292 95.964 324.252 95.476C324.244 95.34 324.24 95.156 324.24 94.924C324.24 94.684 324.244 94.492 324.252 94.348C324.284 93.852 324.456 93.46 324.768 93.172C325.088 92.884 325.532 92.74 326.1 92.74C326.668 92.74 327.108 92.884 327.42 93.172C327.74 93.46 327.916 93.852 327.948 94.348C327.964 94.668 327.972 94.876 327.972 94.972C327.972 95.068 327.964 95.236 327.948 95.476C327.916 95.956 327.736 96.34 327.408 96.628C327.08 96.916 326.644 97.06 326.1 97.06ZM326.1 96.004C326.284 96.004 326.42 95.948 326.508 95.836C326.596 95.716 326.648 95.572 326.664 95.404C326.68 95.164 326.688 94.996 326.688 94.9C326.688 94.796 326.68 94.632 326.664 94.408C326.648 94.24 326.596 94.1 326.508 93.988C326.42 93.868 326.284 93.808 326.1 93.808C325.916 93.808 325.78 93.868 325.692 93.988C325.604 94.1 325.556 94.24 325.548 94.408C325.54 94.52 325.536 94.684 325.536 94.9C325.536 95.116 325.54 95.284 325.548 95.404C325.564 95.58 325.612 95.724 325.692 95.836C325.78 95.948 325.916 96.004 326.1 96.004Z" fill="#333333"/>
<path d="M386.276 97.12C385.572 97.12 384.948 96.996 384.404 96.748C383.868 96.492 383.448 96.136 383.144 95.68C382.848 95.224 382.7 94.704 382.7 94.12C382.7 93.408 383.036 92.596 383.708 91.684L385.82 88.84C385.884 88.768 385.944 88.712 386 88.672C386.064 88.624 386.148 88.6 386.252 88.6H387.848C387.92 88.6 387.98 88.628 388.028 88.684C388.076 88.732 388.1 88.792 388.1 88.864C388.1 88.92 388.084 88.972 388.052 89.02L386.432 91.228C386.528 91.204 386.648 91.192 386.792 91.192C387.28 91.216 387.752 91.352 388.208 91.6C388.672 91.84 389.048 92.176 389.336 92.608C389.624 93.04 389.768 93.528 389.768 94.072C389.768 94.632 389.624 95.144 389.336 95.608C389.048 96.072 388.636 96.44 388.1 96.712C387.572 96.984 386.964 97.12 386.276 97.12ZM386.252 95.392C386.62 95.392 386.932 95.28 387.188 95.056C387.444 94.824 387.572 94.508 387.572 94.108C387.572 93.708 387.444 93.396 387.188 93.172C386.94 92.948 386.628 92.836 386.252 92.836C385.876 92.836 385.56 92.948 385.304 93.172C385.048 93.396 384.92 93.708 384.92 94.108C384.92 94.508 385.048 94.824 385.304 95.056C385.56 95.28 385.876 95.392 386.252 95.392ZM393.024 92.836C392.48 92.836 392.044 92.696 391.716 92.416C391.388 92.128 391.208 91.744 391.176 91.264C391.16 91.024 391.152 90.856 391.152 90.76C391.152 90.664 391.16 90.456 391.176 90.136C391.2 89.648 391.372 89.26 391.692 88.972C392.012 88.684 392.456 88.54 393.024 88.54C393.584 88.54 394.024 88.684 394.344 88.972C394.664 89.26 394.836 89.648 394.86 90.136C394.876 90.456 394.884 90.664 394.884 90.76C394.884 90.856 394.876 91.024 394.86 91.264C394.828 91.744 394.648 92.128 394.32 92.416C393.992 92.696 393.56 92.836 393.024 92.836ZM392.064 97C391.984 97 391.916 96.98 391.86 96.94C391.812 96.892 391.788 96.832 391.788 96.76C391.788 96.712 391.804 96.668 391.836 96.628L397.764 88.828C397.828 88.748 397.888 88.692 397.944 88.66C398 88.62 398.08 88.6 398.184 88.6H399.036C399.116 88.6 399.18 88.624 399.228 88.672C399.284 88.712 399.312 88.768 399.312 88.84C399.312 88.888 399.296 88.932 399.264 88.972L393.336 96.772C393.272 96.852 393.212 96.912 393.156 96.952C393.1 96.984 393.02 97 392.916 97H392.064ZM393.024 91.792C393.36 91.792 393.544 91.596 393.576 91.204C393.592 90.948 393.6 90.78 393.6 90.7C393.6 90.596 393.592 90.432 393.576 90.208C393.568 90.032 393.516 89.888 393.42 89.776C393.332 89.664 393.2 89.608 393.024 89.608C392.84 89.608 392.704 89.664 392.616 89.776C392.528 89.888 392.476 90.032 392.46 90.208C392.452 90.32 392.448 90.484 392.448 90.7C392.448 90.908 392.452 91.076 392.46 91.204C392.492 91.596 392.68 91.792 393.024 91.792ZM398.1 97.06C397.556 97.06 397.12 96.92 396.792 96.64C396.472 96.352 396.292 95.964 396.252 95.476C396.244 95.34 396.24 95.156 396.24 94.924C396.24 94.684 396.244 94.492 396.252 94.348C396.284 93.852 396.456 93.46 396.768 93.172C397.088 92.884 397.532 92.74 398.1 92.74C398.668 92.74 399.108 92.884 399.42 93.172C399.74 93.46 399.916 93.852 399.948 94.348C399.964 94.668 399.972 94.876 399.972 94.972C399.972 95.068 399.964 95.236 399.948 95.476C399.916 95.956 399.736 96.34 399.408 96.628C399.08 96.916 398.644 97.06 398.1 97.06ZM398.1 96.004C398.284 96.004 398.42 95.948 398.508 95.836C398.596 95.716 398.648 95.572 398.664 95.404C398.68 95.164 398.688 94.996 398.688 94.9C398.688 94.796 398.68 94.632 398.664 94.408C398.648 94.24 398.596 94.1 398.508 93.988C398.42 93.868 398.284 93.808 398.1 93.808C397.916 93.808 397.78 93.868 397.692 93.988C397.604 94.1 397.556 94.24 397.548 94.408C397.54 94.52 397.536 94.684 397.536 94.9C397.536 95.116 397.54 95.284 397.548 95.404C397.564 95.58 397.612 95.724 397.692 95.836C397.78 95.948 397.916 96.004 398.1 96.004Z" fill="#333333"/>
<path d="M349.521 97C349.449 97 349.389 96.976 349.341 96.928C349.293 96.872 349.269 96.808 349.269 96.736C349.269 96.68 349.285 96.628 349.317 96.58L351.009 94.264C350.905 94.288 350.789 94.3 350.661 94.3C350.165 94.268 349.697 94.132 349.257 93.892C348.817 93.652 348.461 93.324 348.189 92.908C347.917 92.492 347.781 92.016 347.781 91.48C347.781 90.952 347.913 90.46 348.177 90.004C348.441 89.548 348.829 89.18 349.341 88.9C349.861 88.62 350.485 88.48 351.213 88.48C351.949 88.48 352.581 88.608 353.109 88.864C353.645 89.12 354.049 89.472 354.321 89.92C354.593 90.36 354.729 90.852 354.729 91.396C354.729 91.836 354.637 92.236 354.453 92.596C354.277 92.956 354.013 93.38 353.661 93.868C353.645 93.884 353.581 93.972 353.469 94.132L351.549 96.76C351.437 96.92 351.293 97 351.117 97H349.521ZM351.237 92.716C351.605 92.716 351.909 92.604 352.149 92.38C352.389 92.156 352.509 91.852 352.509 91.468C352.509 91.084 352.389 90.78 352.149 90.556C351.909 90.324 351.605 90.208 351.237 90.208C350.869 90.208 350.565 90.324 350.325 90.556C350.093 90.78 349.977 91.084 349.977 91.468C349.977 91.852 350.097 92.156 350.337 92.38C350.577 92.604 350.877 92.716 351.237 92.716ZM358.024 92.836C357.48 92.836 357.044 92.696 356.716 92.416C356.388 92.128 356.208 91.744 356.176 91.264C356.16 91.024 356.152 90.856 356.152 90.76C356.152 90.664 356.16 90.456 356.176 90.136C356.2 89.648 356.372 89.26 356.692 88.972C357.012 88.684 357.456 88.54 358.024 88.54C358.584 88.54 359.024 88.684 359.344 88.972C359.664 89.26 359.836 89.648 359.86 90.136C359.876 90.456 359.884 90.664 359.884 90.76C359.884 90.856 359.876 91.024 359.86 91.264C359.828 91.744 359.648 92.128 359.32 92.416C358.992 92.696 358.56 92.836 358.024 92.836ZM357.064 97C356.984 97 356.916 96.98 356.86 96.94C356.812 96.892 356.788 96.832 356.788 96.76C356.788 96.712 356.804 96.668 356.836 96.628L362.764 88.828C362.828 88.748 362.888 88.692 362.944 88.66C363 88.62 363.08 88.6 363.184 88.6H364.036C364.116 88.6 364.18 88.624 364.228 88.672C364.284 88.712 364.312 88.768 364.312 88.84C364.312 88.888 364.296 88.932 364.264 88.972L358.336 96.772C358.272 96.852 358.212 96.912 358.156 96.952C358.1 96.984 358.02 97 357.916 97H357.064ZM358.024 91.792C358.36 91.792 358.544 91.596 358.576 91.204C358.592 90.948 358.6 90.78 358.6 90.7C358.6 90.596 358.592 90.432 358.576 90.208C358.568 90.032 358.516 89.888 358.42 89.776C358.332 89.664 358.2 89.608 358.024 89.608C357.84 89.608 357.704 89.664 357.616 89.776C357.528 89.888 357.476 90.032 357.46 90.208C357.452 90.32 357.448 90.484 357.448 90.7C357.448 90.908 357.452 91.076 357.46 91.204C357.492 91.596 357.68 91.792 358.024 91.792ZM363.1 97.06C362.556 97.06 362.12 96.92 361.792 96.64C361.472 96.352 361.292 95.964 361.252 95.476C361.244 95.34 361.24 95.156 361.24 94.924C361.24 94.684 361.244 94.492 361.252 94.348C361.284 93.852 361.456 93.46 361.768 93.172C362.088 92.884 362.532 92.74 363.1 92.74C363.668 92.74 364.108 92.884 364.42 93.172C364.74 93.46 364.916 93.852 364.948 94.348C364.964 94.668 364.972 94.876 364.972 94.972C364.972 95.068 364.964 95.236 364.948 95.476C364.916 95.956 364.736 96.34 364.408 96.628C364.08 96.916 363.644 97.06 363.1 97.06ZM363.1 96.004C363.284 96.004 363.42 95.948 363.508 95.836C363.596 95.716 363.648 95.572 363.664 95.404C363.68 95.164 363.688 94.996 363.688 94.9C363.688 94.796 363.68 94.632 363.664 94.408C363.648 94.24 363.596 94.1 363.508 93.988C363.42 93.868 363.284 93.808 363.1 93.808C362.916 93.808 362.78 93.868 362.692 93.988C362.604 94.1 362.556 94.24 362.548 94.408C362.54 94.52 362.536 94.684 362.536 94.9C362.536 95.116 362.54 95.284 362.548 95.404C362.564 95.58 362.612 95.724 362.692 95.836C362.78 95.948 362.916 96.004 363.1 96.004Z" fill="#333333"/>
<line x1="2" y1="30" x2="2" y2="-8.74228e-08" stroke="#FDE0DD" stroke-width="4"/>
</svg>
