<svg width="300" height="64" viewBox="0 0 300 64" fill="none" xmlns="http://www.w3.org/2000/svg">
<line x1="152" y1="10.75" x2="300" y2="10.75" stroke="#C4C4C4" stroke-width="0.5"/>
<line x1="152" y1="31.75" x2="300" y2="31.75" stroke="#C4C4C4" stroke-width="0.5"/>
<line x1="152" y1="52.75" x2="300" y2="52.75" stroke="#C4C4C4" stroke-width="0.5"/>
<line y1="10.75" x2="148" y2="10.75" stroke="#C4C4C4" stroke-width="0.5"/>
<line y1="31.75" x2="148" y2="31.75" stroke="#C4C4C4" stroke-width="0.5"/>
<line y1="52.75" x2="148" y2="52.75" stroke="#C4C4C4" stroke-width="0.5"/>
<rect y="18" width="7" height="7" fill="#A6BDDD"/>
<path d="M11.164 25C11.084 25 11.016 24.976 10.96 24.928C10.912 24.872 10.888 24.804 10.888 24.724V19.036C10.888 18.956 10.912 18.892 10.96 18.844C11.016 18.788 11.084 18.76 11.164 18.76H11.728C11.808 18.76 11.872 18.788 11.92 18.844C11.976 18.892 12.004 18.956 12.004 19.036V19.564C12.236 19.268 12.508 19.04 12.82 18.88C13.14 18.72 13.536 18.64 14.008 18.64C14.776 18.64 15.372 18.888 15.796 19.384C16.228 19.872 16.444 20.524 16.444 21.34V24.724C16.444 24.804 16.416 24.872 16.36 24.928C16.312 24.976 16.248 25 16.168 25H15.568C15.488 25 15.42 24.976 15.364 24.928C15.316 24.872 15.292 24.804 15.292 24.724V21.4C15.292 20.832 15.152 20.392 14.872 20.08C14.6 19.768 14.204 19.612 13.684 19.612C13.18 19.612 12.78 19.772 12.484 20.092C12.188 20.404 12.04 20.84 12.04 21.4V24.724C12.04 24.804 12.012 24.872 11.956 24.928C11.908 24.976 11.844 25 11.764 25H11.164ZM18.9453 17.596C18.8653 17.596 18.7973 17.572 18.7413 17.524C18.6933 17.468 18.6693 17.4 18.6693 17.32V16.672C18.6693 16.592 18.6933 16.524 18.7413 16.468C18.7973 16.412 18.8653 16.384 18.9453 16.384H19.7013C19.7813 16.384 19.8493 16.412 19.9053 16.468C19.9613 16.524 19.9893 16.592 19.9893 16.672V17.32C19.9893 17.4 19.9613 17.468 19.9053 17.524C19.8493 17.572 19.7813 17.596 19.7013 17.596H18.9453ZM19.0413 25C18.9613 25 18.8933 24.976 18.8373 24.928C18.7893 24.872 18.7653 24.804 18.7653 24.724V19.036C18.7653 18.956 18.7893 18.892 18.8373 18.844C18.8933 18.788 18.9613 18.76 19.0413 18.76H19.6173C19.6973 18.76 19.7613 18.788 19.8093 18.844C19.8653 18.892 19.8933 18.956 19.8933 19.036V24.724C19.8933 24.804 19.8653 24.872 19.8093 24.928C19.7613 24.976 19.6973 25 19.6173 25H19.0413ZM24.7676 25.12C23.9436 25.12 23.2836 24.868 22.7876 24.364C22.2996 23.852 22.0316 23.156 21.9836 22.276L21.9716 21.868L21.9836 21.472C22.0396 20.608 22.3116 19.92 22.7996 19.408C23.2956 18.896 23.9476 18.64 24.7556 18.64C25.6436 18.64 26.3316 18.924 26.8196 19.492C27.3076 20.052 27.5516 20.812 27.5516 21.772V21.976C27.5516 22.056 27.5236 22.124 27.4676 22.18C27.4196 22.228 27.3556 22.252 27.2756 22.252H23.1236V22.36C23.1476 22.88 23.3036 23.324 23.5916 23.692C23.8876 24.052 24.2756 24.232 24.7556 24.232C25.1236 24.232 25.4236 24.16 25.6556 24.016C25.8956 23.864 26.0716 23.708 26.1836 23.548C26.2556 23.452 26.3076 23.396 26.3396 23.38C26.3796 23.356 26.4476 23.344 26.5436 23.344H27.1316C27.2036 23.344 27.2636 23.364 27.3116 23.404C27.3596 23.444 27.3836 23.5 27.3836 23.572C27.3836 23.748 27.2716 23.96 27.0476 24.208C26.8316 24.456 26.5236 24.672 26.1236 24.856C25.7316 25.032 25.2796 25.12 24.7676 25.12ZM26.4116 21.424V21.388C26.4116 20.836 26.2596 20.388 25.9556 20.044C25.6596 19.692 25.2596 19.516 24.7556 19.516C24.2516 19.516 23.8516 19.692 23.5556 20.044C23.2676 20.388 23.1236 20.836 23.1236 21.388V21.424H26.4116ZM31.8664 25.12C31.0344 25.12 30.4064 24.848 29.9824 24.304C29.5584 23.76 29.3344 23.072 29.3104 22.24L29.2984 21.88L29.3104 21.52C29.3344 20.696 29.5584 20.012 29.9824 19.468C30.4064 18.916 31.0344 18.64 31.8664 18.64C32.6904 18.64 33.3384 18.932 33.8104 19.516V16.756C33.8104 16.676 33.8344 16.612 33.8824 16.564C33.9384 16.508 34.0064 16.48 34.0864 16.48H34.6624C34.7424 16.48 34.8064 16.508 34.8544 16.564C34.9104 16.612 34.9384 16.676 34.9384 16.756V24.724C34.9384 24.804 34.9104 24.872 34.8544 24.928C34.8064 24.976 34.7424 25 34.6624 25H34.1224C34.0424 25 33.9744 24.976 33.9184 24.928C33.8704 24.872 33.8464 24.804 33.8464 24.724V24.22C33.3824 24.82 32.7224 25.12 31.8664 25.12ZM32.1184 24.148C32.6704 24.148 33.0824 23.968 33.3544 23.608C33.6344 23.24 33.7864 22.804 33.8104 22.3C33.8184 22.212 33.8224 22.06 33.8224 21.844C33.8224 21.62 33.8184 21.464 33.8104 21.376C33.7944 20.904 33.6424 20.492 33.3544 20.14C33.0664 19.788 32.6544 19.612 32.1184 19.612C31.5504 19.612 31.1344 19.788 30.8704 20.14C30.6144 20.492 30.4744 20.956 30.4504 21.532L30.4384 21.88C30.4384 23.392 30.9984 24.148 32.1184 24.148ZM37.5992 25C37.5192 25 37.4512 24.976 37.3952 24.928C37.3472 24.872 37.3232 24.804 37.3232 24.724V19.048C37.3232 18.968 37.3472 18.9 37.3952 18.844C37.4512 18.788 37.5192 18.76 37.5992 18.76H38.1512C38.2312 18.76 38.2992 18.788 38.3552 18.844C38.4112 18.9 38.4392 18.968 38.4392 19.048V19.576C38.7672 19.032 39.3272 18.76 40.1192 18.76H40.5872C40.6672 18.76 40.7312 18.788 40.7792 18.844C40.8352 18.892 40.8632 18.956 40.8632 19.036V19.528C40.8632 19.608 40.8352 19.672 40.7792 19.72C40.7312 19.768 40.6672 19.792 40.5872 19.792H39.8672C39.4352 19.792 39.0952 19.92 38.8472 20.176C38.5992 20.424 38.4752 20.764 38.4752 21.196V24.724C38.4752 24.804 38.4472 24.872 38.3912 24.928C38.3352 24.976 38.2672 25 38.1872 25H37.5992ZM42.6618 17.596C42.5818 17.596 42.5138 17.572 42.4578 17.524C42.4098 17.468 42.3857 17.4 42.3857 17.32V16.672C42.3857 16.592 42.4098 16.524 42.4578 16.468C42.5138 16.412 42.5818 16.384 42.6618 16.384H43.4178C43.4978 16.384 43.5658 16.412 43.6218 16.468C43.6778 16.524 43.7058 16.592 43.7058 16.672V17.32C43.7058 17.4 43.6778 17.468 43.6218 17.524C43.5658 17.572 43.4978 17.596 43.4178 17.596H42.6618ZM42.7578 25C42.6778 25 42.6098 24.976 42.5538 24.928C42.5058 24.872 42.4818 24.804 42.4818 24.724V19.036C42.4818 18.956 42.5058 18.892 42.5538 18.844C42.6098 18.788 42.6778 18.76 42.7578 18.76H43.3338C43.4138 18.76 43.4778 18.788 43.5258 18.844C43.5818 18.892 43.6098 18.956 43.6098 19.036V24.724C43.6098 24.804 43.5818 24.872 43.5258 24.928C43.4778 24.976 43.4138 25 43.3338 25H42.7578ZM48.544 27.64C47.888 27.64 47.36 27.528 46.96 27.304C46.56 27.088 46.276 26.84 46.108 26.56C45.94 26.28 45.848 26.028 45.832 25.804C45.824 25.724 45.848 25.656 45.904 25.6C45.968 25.544 46.036 25.516 46.108 25.516H46.684C46.756 25.516 46.816 25.532 46.864 25.564C46.912 25.604 46.952 25.672 46.984 25.768C47.08 26.024 47.236 26.244 47.452 26.428C47.676 26.62 48.02 26.716 48.484 26.716C49.076 26.716 49.512 26.588 49.792 26.332C50.072 26.084 50.212 25.64 50.212 25V24.184C50.004 24.448 49.74 24.66 49.42 24.82C49.1 24.972 48.72 25.048 48.28 25.048C47.432 25.048 46.796 24.78 46.372 24.244C45.956 23.7 45.736 23.012 45.712 22.18L45.7 21.844L45.712 21.52C45.736 20.696 45.96 20.012 46.384 19.468C46.808 18.916 47.44 18.64 48.28 18.64C49.12 18.64 49.776 18.948 50.248 19.564V19.048C50.248 18.968 50.272 18.9 50.32 18.844C50.376 18.788 50.444 18.76 50.524 18.76H51.076C51.156 18.76 51.224 18.788 51.28 18.844C51.336 18.9 51.364 18.968 51.364 19.048V24.868C51.364 26.716 50.424 27.64 48.544 27.64ZM48.52 24.088C49.064 24.088 49.476 23.908 49.756 23.548C50.036 23.188 50.188 22.76 50.212 22.264C50.22 22.192 50.224 22.052 50.224 21.844C50.224 21.644 50.22 21.508 50.212 21.436C50.188 20.94 50.036 20.512 49.756 20.152C49.484 19.792 49.072 19.612 48.52 19.612C47.952 19.612 47.54 19.788 47.284 20.14C47.028 20.492 46.888 20.956 46.864 21.532L46.852 21.844L46.864 22.168C46.888 22.736 47.028 23.2 47.284 23.56C47.54 23.912 47.952 24.088 48.52 24.088ZM56.2442 25.12C55.4202 25.12 54.7602 24.868 54.2642 24.364C53.7762 23.852 53.5082 23.156 53.4602 22.276L53.4482 21.868L53.4602 21.472C53.5162 20.608 53.7882 19.92 54.2762 19.408C54.7722 18.896 55.4242 18.64 56.2322 18.64C57.1202 18.64 57.8082 18.924 58.2962 19.492C58.7842 20.052 59.0282 20.812 59.0282 21.772V21.976C59.0282 22.056 59.0002 22.124 58.9442 22.18C58.8962 22.228 58.8322 22.252 58.7522 22.252H54.6002V22.36C54.6242 22.88 54.7802 23.324 55.0682 23.692C55.3642 24.052 55.7522 24.232 56.2322 24.232C56.6002 24.232 56.9002 24.16 57.1322 24.016C57.3722 23.864 57.5482 23.708 57.6602 23.548C57.7322 23.452 57.7842 23.396 57.8162 23.38C57.8562 23.356 57.9242 23.344 58.0202 23.344H58.6082C58.6802 23.344 58.7402 23.364 58.7882 23.404C58.8362 23.444 58.8602 23.5 58.8602 23.572C58.8602 23.748 58.7482 23.96 58.5242 24.208C58.3082 24.456 58.0002 24.672 57.6002 24.856C57.2082 25.032 56.7562 25.12 56.2442 25.12ZM57.8882 21.424V21.388C57.8882 20.836 57.7362 20.388 57.4322 20.044C57.1362 19.692 56.7362 19.516 56.2322 19.516C55.7282 19.516 55.3282 19.692 55.0322 20.044C54.7442 20.388 54.6002 20.836 54.6002 21.388V21.424H57.8882ZM66.9283 25C66.7123 25 66.5643 24.896 66.4843 24.688L63.8083 16.972L63.7843 16.84C63.7843 16.776 63.8083 16.72 63.8563 16.672C63.9043 16.624 63.9603 16.6 64.0243 16.6H64.6483C64.8003 16.6 64.9083 16.672 64.9723 16.816L67.3123 23.62L69.6643 16.816C69.6803 16.768 69.7163 16.72 69.7723 16.672C69.8283 16.624 69.8963 16.6 69.9763 16.6H70.6003C70.6643 16.6 70.7203 16.624 70.7683 16.672C70.8243 16.72 70.8523 16.776 70.8523 16.84L70.8283 16.972L68.1403 24.688C68.0603 24.896 67.9163 25 67.7083 25H66.9283ZM74.6145 25.12C73.7905 25.12 73.1305 24.868 72.6345 24.364C72.1465 23.852 71.8785 23.156 71.8305 22.276L71.8185 21.868L71.8305 21.472C71.8865 20.608 72.1585 19.92 72.6465 19.408C73.1425 18.896 73.7945 18.64 74.6025 18.64C75.4905 18.64 76.1785 18.924 76.6665 19.492C77.1545 20.052 77.3985 20.812 77.3985 21.772V21.976C77.3985 22.056 77.3705 22.124 77.3145 22.18C77.2665 22.228 77.2025 22.252 77.1225 22.252H72.9705V22.36C72.9945 22.88 73.1505 23.324 73.4385 23.692C73.7345 24.052 74.1225 24.232 74.6025 24.232C74.9705 24.232 75.2705 24.16 75.5025 24.016C75.7425 23.864 75.9185 23.708 76.0305 23.548C76.1025 23.452 76.1545 23.396 76.1865 23.38C76.2265 23.356 76.2945 23.344 76.3905 23.344H76.9785C77.0505 23.344 77.1105 23.364 77.1585 23.404C77.2065 23.444 77.2305 23.5 77.2305 23.572C77.2305 23.748 77.1185 23.96 76.8945 24.208C76.6785 24.456 76.3705 24.672 75.9705 24.856C75.5785 25.032 75.1265 25.12 74.6145 25.12ZM76.2585 21.424V21.388C76.2585 20.836 76.1065 20.388 75.8025 20.044C75.5065 19.692 75.1065 19.516 74.6025 19.516C74.0985 19.516 73.6985 19.692 73.4025 20.044C73.1145 20.388 72.9705 20.836 72.9705 21.388V21.424H76.2585ZM79.7093 25C79.6293 25 79.5613 24.976 79.5053 24.928C79.4573 24.872 79.4333 24.804 79.4333 24.724V19.048C79.4333 18.968 79.4573 18.9 79.5053 18.844C79.5613 18.788 79.6293 18.76 79.7093 18.76H80.2613C80.3413 18.76 80.4093 18.788 80.4653 18.844C80.5213 18.9 80.5493 18.968 80.5493 19.048V19.576C80.8773 19.032 81.4373 18.76 82.2293 18.76H82.6973C82.7773 18.76 82.8413 18.788 82.8893 18.844C82.9453 18.892 82.9733 18.956 82.9733 19.036V19.528C82.9733 19.608 82.9453 19.672 82.8893 19.72C82.8413 19.768 82.7773 19.792 82.6973 19.792H81.9773C81.5453 19.792 81.2053 19.92 80.9573 20.176C80.7093 20.424 80.5853 20.764 80.5853 21.196V24.724C80.5853 24.804 80.5573 24.872 80.5013 24.928C80.4453 24.976 80.3773 25 80.2973 25H79.7093ZM86.7519 25.12C86.1919 25.12 85.7199 25.032 85.3359 24.856C84.9599 24.672 84.6759 24.464 84.4839 24.232C84.2999 24 84.2079 23.808 84.2079 23.656C84.2079 23.576 84.2359 23.516 84.2919 23.476C84.3559 23.428 84.4199 23.404 84.4839 23.404H85.0239C85.1039 23.404 85.1759 23.444 85.2399 23.524C85.4319 23.748 85.6399 23.924 85.8639 24.052C86.0879 24.18 86.3879 24.244 86.7639 24.244C87.1799 24.244 87.5159 24.164 87.7719 24.004C88.0359 23.836 88.1679 23.608 88.1679 23.32C88.1679 23.128 88.1119 22.972 87.9999 22.852C87.8959 22.724 87.7119 22.616 87.4479 22.528C87.1919 22.432 86.8079 22.328 86.2959 22.216C85.5999 22.064 85.1039 21.844 84.8079 21.556C84.5199 21.268 84.3759 20.896 84.3759 20.44C84.3759 20.136 84.4639 19.848 84.6399 19.576C84.8239 19.296 85.0879 19.072 85.4319 18.904C85.7839 18.728 86.2039 18.64 86.6919 18.64C87.2039 18.64 87.6399 18.724 87.9999 18.892C88.3599 19.06 88.6279 19.26 88.8039 19.492C88.9879 19.716 89.0799 19.904 89.0799 20.056C89.0799 20.128 89.0519 20.188 88.9959 20.236C88.9479 20.284 88.8879 20.308 88.8159 20.308H88.3119C88.2159 20.308 88.1359 20.268 88.0719 20.188C87.9439 20.036 87.8319 19.92 87.7359 19.84C87.6479 19.752 87.5159 19.676 87.3399 19.612C87.1719 19.548 86.9559 19.516 86.6919 19.516C86.3079 19.516 86.0119 19.6 85.8039 19.768C85.5959 19.928 85.4919 20.14 85.4919 20.404C85.4919 20.572 85.5359 20.716 85.6239 20.836C85.7119 20.948 85.8799 21.052 86.1279 21.148C86.3839 21.244 86.7519 21.344 87.2319 21.448C87.9919 21.608 88.5279 21.84 88.8399 22.144C89.1599 22.44 89.3199 22.82 89.3199 23.284C89.3199 23.628 89.2199 23.94 89.0199 24.22C88.8199 24.5 88.5239 24.72 88.1319 24.88C87.7479 25.04 87.2879 25.12 86.7519 25.12ZM93.8651 25.12C92.9851 25.12 92.3011 24.872 91.8131 24.376C91.3331 23.88 91.0771 23.22 91.0451 22.396L91.0331 21.88L91.0451 21.364C91.0771 20.548 91.3371 19.892 91.8251 19.396C92.3131 18.892 92.9931 18.64 93.8651 18.64C94.7371 18.64 95.4171 18.892 95.9051 19.396C96.3931 19.892 96.6531 20.548 96.6851 21.364C96.6931 21.452 96.6971 21.624 96.6971 21.88C96.6971 22.136 96.6931 22.308 96.6851 22.396C96.6531 23.22 96.3931 23.88 95.9051 24.376C95.4251 24.872 94.7451 25.12 93.8651 25.12ZM93.8651 24.196C94.3691 24.196 94.7651 24.036 95.0531 23.716C95.3491 23.396 95.5091 22.936 95.5331 22.336C95.5411 22.256 95.5451 22.104 95.5451 21.88C95.5451 21.656 95.5411 21.504 95.5331 21.424C95.5091 20.824 95.3491 20.364 95.0531 20.044C94.7651 19.724 94.3691 19.564 93.8651 19.564C93.3611 19.564 92.9611 19.724 92.6651 20.044C92.3691 20.364 92.2131 20.824 92.1971 21.424L92.1851 21.88L92.1971 22.336C92.2131 22.936 92.3691 23.396 92.6651 23.716C92.9611 24.036 93.3611 24.196 93.8651 24.196ZM99.0757 25C98.9957 25 98.9277 24.976 98.8717 24.928C98.8237 24.872 98.7997 24.804 98.7997 24.724V19.048C98.7997 18.968 98.8237 18.9 98.8717 18.844C98.9277 18.788 98.9957 18.76 99.0757 18.76H99.6277C99.7077 18.76 99.7757 18.788 99.8317 18.844C99.8877 18.9 99.9157 18.968 99.9157 19.048V19.576C100.244 19.032 100.804 18.76 101.596 18.76H102.064C102.144 18.76 102.208 18.788 102.256 18.844C102.312 18.892 102.34 18.956 102.34 19.036V19.528C102.34 19.608 102.312 19.672 102.256 19.72C102.208 19.768 102.144 19.792 102.064 19.792H101.344C100.912 19.792 100.572 19.92 100.324 20.176C100.076 20.424 99.9517 20.764 99.9517 21.196V24.724C99.9517 24.804 99.9237 24.872 99.8677 24.928C99.8117 24.976 99.7437 25 99.6637 25H99.0757ZM106.385 27.64C105.729 27.64 105.201 27.528 104.801 27.304C104.401 27.088 104.117 26.84 103.949 26.56C103.781 26.28 103.689 26.028 103.673 25.804C103.665 25.724 103.689 25.656 103.745 25.6C103.809 25.544 103.877 25.516 103.949 25.516H104.525C104.597 25.516 104.657 25.532 104.705 25.564C104.753 25.604 104.793 25.672 104.825 25.768C104.921 26.024 105.077 26.244 105.293 26.428C105.517 26.62 105.861 26.716 106.325 26.716C106.917 26.716 107.353 26.588 107.633 26.332C107.913 26.084 108.053 25.64 108.053 25V24.184C107.845 24.448 107.581 24.66 107.261 24.82C106.941 24.972 106.561 25.048 106.121 25.048C105.273 25.048 104.637 24.78 104.213 24.244C103.797 23.7 103.577 23.012 103.553 22.18L103.541 21.844L103.553 21.52C103.577 20.696 103.801 20.012 104.225 19.468C104.649 18.916 105.281 18.64 106.121 18.64C106.961 18.64 107.617 18.948 108.089 19.564V19.048C108.089 18.968 108.113 18.9 108.161 18.844C108.217 18.788 108.285 18.76 108.365 18.76H108.917C108.997 18.76 109.065 18.788 109.121 18.844C109.177 18.9 109.205 18.968 109.205 19.048V24.868C109.205 26.716 108.265 27.64 106.385 27.64ZM106.361 24.088C106.905 24.088 107.317 23.908 107.597 23.548C107.877 23.188 108.029 22.76 108.053 22.264C108.061 22.192 108.065 22.052 108.065 21.844C108.065 21.644 108.061 21.508 108.053 21.436C108.029 20.94 107.877 20.512 107.597 20.152C107.325 19.792 106.913 19.612 106.361 19.612C105.793 19.612 105.381 19.788 105.125 20.14C104.869 20.492 104.729 20.956 104.705 21.532L104.693 21.844L104.705 22.168C104.729 22.736 104.869 23.2 105.125 23.56C105.381 23.912 105.793 24.088 106.361 24.088ZM113.918 25.12C113.158 25.12 112.57 24.876 112.154 24.388C111.738 23.892 111.53 23.236 111.53 22.42V19.036C111.53 18.956 111.554 18.892 111.602 18.844C111.658 18.788 111.726 18.76 111.806 18.76H112.406C112.486 18.76 112.55 18.788 112.598 18.844C112.654 18.892 112.682 18.956 112.682 19.036V22.36C112.682 23.552 113.202 24.148 114.242 24.148C114.746 24.148 115.146 23.992 115.442 23.68C115.738 23.36 115.886 22.92 115.886 22.36V19.036C115.886 18.956 115.91 18.892 115.958 18.844C116.014 18.788 116.082 18.76 116.162 18.76H116.762C116.842 18.76 116.906 18.788 116.954 18.844C117.002 18.892 117.026 18.956 117.026 19.036V24.724C117.026 24.804 117.002 24.872 116.954 24.928C116.906 24.976 116.842 25 116.762 25H116.198C116.118 25 116.05 24.976 115.994 24.928C115.946 24.872 115.922 24.804 115.922 24.724V24.196C115.698 24.5 115.426 24.732 115.106 24.892C114.786 25.044 114.39 25.12 113.918 25.12ZM119.684 25C119.604 25 119.536 24.976 119.48 24.928C119.432 24.872 119.408 24.804 119.408 24.724V19.036C119.408 18.956 119.432 18.892 119.48 18.844C119.536 18.788 119.604 18.76 119.684 18.76H120.248C120.328 18.76 120.392 18.788 120.44 18.844C120.496 18.892 120.524 18.956 120.524 19.036V19.564C120.756 19.268 121.028 19.04 121.34 18.88C121.66 18.72 122.056 18.64 122.528 18.64C123.296 18.64 123.892 18.888 124.316 19.384C124.748 19.872 124.964 20.524 124.964 21.34V24.724C124.964 24.804 124.936 24.872 124.88 24.928C124.832 24.976 124.768 25 124.688 25H124.088C124.008 25 123.94 24.976 123.884 24.928C123.836 24.872 123.812 24.804 123.812 24.724V21.4C123.812 20.832 123.672 20.392 123.392 20.08C123.12 19.768 122.724 19.612 122.204 19.612C121.7 19.612 121.3 19.772 121.004 20.092C120.708 20.404 120.56 20.84 120.56 21.4V24.724C120.56 24.804 120.532 24.872 120.476 24.928C120.428 24.976 120.364 25 120.284 25H119.684ZM129.842 27.64C129.186 27.64 128.658 27.528 128.258 27.304C127.858 27.088 127.574 26.84 127.406 26.56C127.238 26.28 127.146 26.028 127.13 25.804C127.122 25.724 127.146 25.656 127.202 25.6C127.266 25.544 127.334 25.516 127.406 25.516H127.982C128.054 25.516 128.114 25.532 128.162 25.564C128.21 25.604 128.25 25.672 128.282 25.768C128.378 26.024 128.534 26.244 128.75 26.428C128.974 26.62 129.318 26.716 129.782 26.716C130.374 26.716 130.81 26.588 131.09 26.332C131.37 26.084 131.51 25.64 131.51 25V24.184C131.302 24.448 131.038 24.66 130.718 24.82C130.398 24.972 130.018 25.048 129.578 25.048C128.73 25.048 128.094 24.78 127.67 24.244C127.254 23.7 127.034 23.012 127.01 22.18L126.998 21.844L127.01 21.52C127.034 20.696 127.258 20.012 127.682 19.468C128.106 18.916 128.738 18.64 129.578 18.64C130.418 18.64 131.074 18.948 131.546 19.564V19.048C131.546 18.968 131.57 18.9 131.618 18.844C131.674 18.788 131.742 18.76 131.822 18.76H132.374C132.454 18.76 132.522 18.788 132.578 18.844C132.634 18.9 132.662 18.968 132.662 19.048V24.868C132.662 26.716 131.722 27.64 129.842 27.64ZM129.818 24.088C130.362 24.088 130.774 23.908 131.054 23.548C131.334 23.188 131.486 22.76 131.51 22.264C131.518 22.192 131.522 22.052 131.522 21.844C131.522 21.644 131.518 21.508 131.51 21.436C131.486 20.94 131.334 20.512 131.054 20.152C130.782 19.792 130.37 19.612 129.818 19.612C129.25 19.612 128.838 19.788 128.582 20.14C128.326 20.492 128.186 20.956 128.162 21.532L128.15 21.844L128.162 22.168C128.186 22.736 128.326 23.2 128.582 23.56C128.838 23.912 129.25 24.088 129.818 24.088Z" fill="#333333"/>
<rect y="40" width="7" height="7" fill="#0570B0"/>
<path d="M11.164 47C11.084 47 11.016 46.976 10.96 46.928C10.912 46.872 10.888 46.804 10.888 46.724V41.036C10.888 40.956 10.912 40.892 10.96 40.844C11.016 40.788 11.084 40.76 11.164 40.76H11.728C11.808 40.76 11.872 40.788 11.92 40.844C11.976 40.892 12.004 40.956 12.004 41.036V41.564C12.236 41.268 12.508 41.04 12.82 40.88C13.14 40.72 13.536 40.64 14.008 40.64C14.776 40.64 15.372 40.888 15.796 41.384C16.228 41.872 16.444 42.524 16.444 43.34V46.724C16.444 46.804 16.416 46.872 16.36 46.928C16.312 46.976 16.248 47 16.168 47H15.568C15.488 47 15.42 46.976 15.364 46.928C15.316 46.872 15.292 46.804 15.292 46.724V43.4C15.292 42.832 15.152 42.392 14.872 42.08C14.6 41.768 14.204 41.612 13.684 41.612C13.18 41.612 12.78 41.772 12.484 42.092C12.188 42.404 12.04 42.84 12.04 43.4V46.724C12.04 46.804 12.012 46.872 11.956 46.928C11.908 46.976 11.844 47 11.764 47H11.164ZM21.3213 47.12C20.4413 47.12 19.7573 46.872 19.2693 46.376C18.7893 45.88 18.5333 45.22 18.5013 44.396L18.4893 43.88L18.5013 43.364C18.5333 42.548 18.7933 41.892 19.2813 41.396C19.7693 40.892 20.4493 40.64 21.3213 40.64C22.1933 40.64 22.8733 40.892 23.3613 41.396C23.8493 41.892 24.1093 42.548 24.1413 43.364C24.1493 43.452 24.1533 43.624 24.1533 43.88C24.1533 44.136 24.1493 44.308 24.1413 44.396C24.1093 45.22 23.8493 45.88 23.3613 46.376C22.8813 46.872 22.2013 47.12 21.3213 47.12ZM21.3213 46.196C21.8253 46.196 22.2213 46.036 22.5093 45.716C22.8053 45.396 22.9653 44.936 22.9893 44.336C22.9973 44.256 23.0013 44.104 23.0013 43.88C23.0013 43.656 22.9973 43.504 22.9893 43.424C22.9653 42.824 22.8053 42.364 22.5093 42.044C22.2213 41.724 21.8253 41.564 21.3213 41.564C20.8173 41.564 20.4173 41.724 20.1213 42.044C19.8253 42.364 19.6693 42.824 19.6533 43.424L19.6413 43.88L19.6533 44.336C19.6693 44.936 19.8253 45.396 20.1213 45.716C20.4173 46.036 20.8173 46.196 21.3213 46.196ZM26.532 47C26.452 47 26.384 46.976 26.328 46.928C26.28 46.872 26.256 46.804 26.256 46.724V41.048C26.256 40.968 26.28 40.9 26.328 40.844C26.384 40.788 26.452 40.76 26.532 40.76H27.084C27.164 40.76 27.232 40.788 27.288 40.844C27.344 40.9 27.372 40.968 27.372 41.048V41.576C27.7 41.032 28.26 40.76 29.052 40.76H29.52C29.6 40.76 29.664 40.788 29.712 40.844C29.768 40.892 29.796 40.956 29.796 41.036V41.528C29.796 41.608 29.768 41.672 29.712 41.72C29.664 41.768 29.6 41.792 29.52 41.792H28.8C28.368 41.792 28.028 41.92 27.78 42.176C27.532 42.424 27.408 42.764 27.408 43.196V46.724C27.408 46.804 27.38 46.872 27.324 46.928C27.268 46.976 27.2 47 27.12 47H26.532ZM31.6906 47C31.6106 47 31.5426 46.976 31.4866 46.928C31.4386 46.872 31.4146 46.804 31.4146 46.724V41.036C31.4146 40.956 31.4386 40.892 31.4866 40.844C31.5426 40.788 31.6106 40.76 31.6906 40.76H32.2306C32.3106 40.76 32.3746 40.788 32.4226 40.844C32.4786 40.892 32.5066 40.956 32.5066 41.036V41.456C32.9226 40.912 33.5026 40.64 34.2466 40.64C35.1346 40.64 35.7626 41.008 36.1306 41.744C36.3226 41.408 36.5946 41.14 36.9466 40.94C37.2986 40.74 37.6946 40.64 38.1346 40.64C38.7906 40.64 39.3266 40.864 39.7426 41.312C40.1586 41.76 40.3666 42.408 40.3666 43.256V46.724C40.3666 46.804 40.3386 46.872 40.2826 46.928C40.2346 46.976 40.1706 47 40.0906 47H39.5266C39.4466 47 39.3786 46.976 39.3226 46.928C39.2746 46.872 39.2506 46.804 39.2506 46.724V43.364C39.2506 42.74 39.1186 42.292 38.8546 42.02C38.5986 41.748 38.2586 41.612 37.8346 41.612C37.4586 41.612 37.1346 41.752 36.8626 42.032C36.5906 42.304 36.4546 42.748 36.4546 43.364V46.724C36.4546 46.804 36.4266 46.872 36.3706 46.928C36.3226 46.976 36.2586 47 36.1786 47H35.6146C35.5346 47 35.4666 46.976 35.4106 46.928C35.3626 46.872 35.3386 46.804 35.3386 46.724V43.364C35.3386 42.74 35.2026 42.292 34.9306 42.02C34.6666 41.748 34.3306 41.612 33.9226 41.612C33.5466 41.612 33.2226 41.752 32.9506 42.032C32.6786 42.304 32.5426 42.744 32.5426 43.352V46.724C32.5426 46.804 32.5146 46.872 32.4586 46.928C32.4106 46.976 32.3466 47 32.2666 47H31.6906ZM44.4186 47.12C44.0266 47.12 43.6626 47.04 43.3266 46.88C42.9906 46.72 42.7226 46.504 42.5226 46.232C42.3306 45.952 42.2346 45.644 42.2346 45.308C42.2346 44.78 42.4506 44.348 42.8826 44.012C43.3226 43.668 43.9146 43.444 44.6586 43.34L46.4466 43.088V42.74C46.4466 41.924 45.9786 41.516 45.0426 41.516C44.6906 41.516 44.4026 41.592 44.1786 41.744C43.9546 41.888 43.7866 42.06 43.6746 42.26C43.6506 42.332 43.6186 42.384 43.5786 42.416C43.5466 42.448 43.4986 42.464 43.4346 42.464H42.9186C42.8466 42.464 42.7826 42.44 42.7266 42.392C42.6786 42.336 42.6546 42.272 42.6546 42.2C42.6626 42.008 42.7506 41.792 42.9186 41.552C43.0946 41.304 43.3626 41.092 43.7226 40.916C44.0826 40.732 44.5266 40.64 45.0546 40.64C45.9506 40.64 46.5946 40.852 46.9866 41.276C47.3786 41.692 47.5746 42.212 47.5746 42.836V46.724C47.5746 46.804 47.5466 46.872 47.4906 46.928C47.4426 46.976 47.3786 47 47.2986 47H46.7466C46.6666 47 46.5986 46.976 46.5426 46.928C46.4946 46.872 46.4706 46.804 46.4706 46.724V46.208C46.2946 46.464 46.0386 46.68 45.7026 46.856C45.3666 47.032 44.9386 47.12 44.4186 47.12ZM44.6706 46.22C45.1906 46.22 45.6146 46.052 45.9426 45.716C46.2786 45.372 46.4466 44.88 46.4466 44.24V43.904L45.0546 44.108C44.4866 44.188 44.0586 44.324 43.7706 44.516C43.4826 44.7 43.3386 44.936 43.3386 45.224C43.3386 45.544 43.4706 45.792 43.7346 45.968C43.9986 46.136 44.3106 46.22 44.6706 46.22ZM50.1877 47C50.1077 47 50.0397 46.976 49.9837 46.928C49.9357 46.872 49.9117 46.804 49.9117 46.724V38.756C49.9117 38.676 49.9357 38.612 49.9837 38.564C50.0397 38.508 50.1077 38.48 50.1877 38.48H50.7517C50.8317 38.48 50.8957 38.508 50.9437 38.564C50.9997 38.612 51.0277 38.676 51.0277 38.756V46.724C51.0277 46.804 50.9997 46.872 50.9437 46.928C50.8957 46.976 50.8317 47 50.7517 47H50.1877ZM55.9137 47.12C55.0897 47.12 54.4297 46.868 53.9337 46.364C53.4457 45.852 53.1777 45.156 53.1297 44.276L53.1177 43.868L53.1297 43.472C53.1857 42.608 53.4577 41.92 53.9457 41.408C54.4417 40.896 55.0937 40.64 55.9017 40.64C56.7897 40.64 57.4777 40.924 57.9657 41.492C58.4537 42.052 58.6977 42.812 58.6977 43.772V43.976C58.6977 44.056 58.6697 44.124 58.6137 44.18C58.5657 44.228 58.5017 44.252 58.4217 44.252H54.2697V44.36C54.2937 44.88 54.4497 45.324 54.7377 45.692C55.0337 46.052 55.4217 46.232 55.9017 46.232C56.2697 46.232 56.5697 46.16 56.8017 46.016C57.0417 45.864 57.2177 45.708 57.3297 45.548C57.4017 45.452 57.4537 45.396 57.4857 45.38C57.5257 45.356 57.5937 45.344 57.6897 45.344H58.2777C58.3497 45.344 58.4097 45.364 58.4577 45.404C58.5057 45.444 58.5297 45.5 58.5297 45.572C58.5297 45.748 58.4177 45.96 58.1937 46.208C57.9777 46.456 57.6697 46.672 57.2697 46.856C56.8777 47.032 56.4257 47.12 55.9137 47.12ZM57.5577 43.424V43.388C57.5577 42.836 57.4057 42.388 57.1017 42.044C56.8057 41.692 56.4057 41.516 55.9017 41.516C55.3977 41.516 54.9977 41.692 54.7017 42.044C54.4137 42.388 54.2697 42.836 54.2697 43.388V43.424H57.5577ZM66.5978 47C66.3818 47 66.2338 46.896 66.1538 46.688L63.4778 38.972L63.4538 38.84C63.4538 38.776 63.4778 38.72 63.5258 38.672C63.5738 38.624 63.6298 38.6 63.6938 38.6H64.3178C64.4698 38.6 64.5778 38.672 64.6418 38.816L66.9818 45.62L69.3338 38.816C69.3498 38.768 69.3858 38.72 69.4418 38.672C69.4978 38.624 69.5658 38.6 69.6458 38.6H70.2698C70.3338 38.6 70.3898 38.624 70.4378 38.672C70.4938 38.72 70.5218 38.776 70.5218 38.84L70.4978 38.972L67.8098 46.688C67.7298 46.896 67.5858 47 67.3778 47H66.5978ZM74.284 47.12C73.46 47.12 72.8 46.868 72.304 46.364C71.816 45.852 71.548 45.156 71.5 44.276L71.488 43.868L71.5 43.472C71.556 42.608 71.828 41.92 72.316 41.408C72.812 40.896 73.464 40.64 74.272 40.64C75.16 40.64 75.848 40.924 76.336 41.492C76.824 42.052 77.068 42.812 77.068 43.772V43.976C77.068 44.056 77.04 44.124 76.984 44.18C76.936 44.228 76.872 44.252 76.792 44.252H72.64V44.36C72.664 44.88 72.82 45.324 73.108 45.692C73.404 46.052 73.792 46.232 74.272 46.232C74.64 46.232 74.94 46.16 75.172 46.016C75.412 45.864 75.588 45.708 75.7 45.548C75.772 45.452 75.824 45.396 75.856 45.38C75.896 45.356 75.964 45.344 76.06 45.344H76.648C76.72 45.344 76.78 45.364 76.828 45.404C76.876 45.444 76.9 45.5 76.9 45.572C76.9 45.748 76.788 45.96 76.564 46.208C76.348 46.456 76.04 46.672 75.64 46.856C75.248 47.032 74.796 47.12 74.284 47.12ZM75.928 43.424V43.388C75.928 42.836 75.776 42.388 75.472 42.044C75.176 41.692 74.776 41.516 74.272 41.516C73.768 41.516 73.368 41.692 73.072 42.044C72.784 42.388 72.64 42.836 72.64 43.388V43.424H75.928ZM79.3788 47C79.2988 47 79.2308 46.976 79.1748 46.928C79.1268 46.872 79.1028 46.804 79.1028 46.724V41.048C79.1028 40.968 79.1268 40.9 79.1748 40.844C79.2308 40.788 79.2988 40.76 79.3788 40.76H79.9308C80.0108 40.76 80.0788 40.788 80.1348 40.844C80.1908 40.9 80.2188 40.968 80.2188 41.048V41.576C80.5468 41.032 81.1068 40.76 81.8988 40.76H82.3668C82.4468 40.76 82.5108 40.788 82.5588 40.844C82.6148 40.892 82.6428 40.956 82.6428 41.036V41.528C82.6428 41.608 82.6148 41.672 82.5588 41.72C82.5108 41.768 82.4468 41.792 82.3668 41.792H81.6468C81.2148 41.792 80.8748 41.92 80.6268 42.176C80.3788 42.424 80.2548 42.764 80.2548 43.196V46.724C80.2548 46.804 80.2268 46.872 80.1708 46.928C80.1148 46.976 80.0468 47 79.9668 47H79.3788ZM86.4214 47.12C85.8614 47.12 85.3894 47.032 85.0054 46.856C84.6294 46.672 84.3454 46.464 84.1534 46.232C83.9694 46 83.8774 45.808 83.8774 45.656C83.8774 45.576 83.9054 45.516 83.9614 45.476C84.0254 45.428 84.0894 45.404 84.1534 45.404H84.6934C84.7734 45.404 84.8454 45.444 84.9094 45.524C85.1014 45.748 85.3094 45.924 85.5334 46.052C85.7574 46.18 86.0574 46.244 86.4334 46.244C86.8494 46.244 87.1854 46.164 87.4414 46.004C87.7054 45.836 87.8374 45.608 87.8374 45.32C87.8374 45.128 87.7814 44.972 87.6694 44.852C87.5654 44.724 87.3814 44.616 87.1174 44.528C86.8614 44.432 86.4774 44.328 85.9654 44.216C85.2694 44.064 84.7734 43.844 84.4774 43.556C84.1894 43.268 84.0454 42.896 84.0454 42.44C84.0454 42.136 84.1334 41.848 84.3094 41.576C84.4934 41.296 84.7574 41.072 85.1014 40.904C85.4534 40.728 85.8734 40.64 86.3614 40.64C86.8734 40.64 87.3094 40.724 87.6694 40.892C88.0294 41.06 88.2974 41.26 88.4734 41.492C88.6574 41.716 88.7494 41.904 88.7494 42.056C88.7494 42.128 88.7214 42.188 88.6654 42.236C88.6174 42.284 88.5574 42.308 88.4854 42.308H87.9814C87.8854 42.308 87.8054 42.268 87.7414 42.188C87.6134 42.036 87.5014 41.92 87.4054 41.84C87.3174 41.752 87.1854 41.676 87.0094 41.612C86.8414 41.548 86.6254 41.516 86.3614 41.516C85.9774 41.516 85.6814 41.6 85.4734 41.768C85.2654 41.928 85.1614 42.14 85.1614 42.404C85.1614 42.572 85.2054 42.716 85.2934 42.836C85.3814 42.948 85.5494 43.052 85.7974 43.148C86.0534 43.244 86.4214 43.344 86.9014 43.448C87.6614 43.608 88.1974 43.84 88.5094 44.144C88.8294 44.44 88.9894 44.82 88.9894 45.284C88.9894 45.628 88.8894 45.94 88.6894 46.22C88.4894 46.5 88.1934 46.72 87.8014 46.88C87.4174 47.04 86.9574 47.12 86.4214 47.12ZM93.5346 47.12C92.6546 47.12 91.9706 46.872 91.4826 46.376C91.0026 45.88 90.7466 45.22 90.7146 44.396L90.7026 43.88L90.7146 43.364C90.7466 42.548 91.0066 41.892 91.4946 41.396C91.9826 40.892 92.6626 40.64 93.5346 40.64C94.4066 40.64 95.0866 40.892 95.5746 41.396C96.0626 41.892 96.3226 42.548 96.3546 43.364C96.3626 43.452 96.3666 43.624 96.3666 43.88C96.3666 44.136 96.3626 44.308 96.3546 44.396C96.3226 45.22 96.0626 45.88 95.5746 46.376C95.0946 46.872 94.4146 47.12 93.5346 47.12ZM93.5346 46.196C94.0386 46.196 94.4346 46.036 94.7226 45.716C95.0186 45.396 95.1786 44.936 95.2026 44.336C95.2106 44.256 95.2146 44.104 95.2146 43.88C95.2146 43.656 95.2106 43.504 95.2026 43.424C95.1786 42.824 95.0186 42.364 94.7226 42.044C94.4346 41.724 94.0386 41.564 93.5346 41.564C93.0306 41.564 92.6306 41.724 92.3346 42.044C92.0386 42.364 91.8826 42.824 91.8666 43.424L91.8546 43.88L91.8666 44.336C91.8826 44.936 92.0386 45.396 92.3346 45.716C92.6306 46.036 93.0306 46.196 93.5346 46.196ZM98.7453 47C98.6653 47 98.5973 46.976 98.5413 46.928C98.4933 46.872 98.4693 46.804 98.4693 46.724V41.048C98.4693 40.968 98.4933 40.9 98.5413 40.844C98.5973 40.788 98.6653 40.76 98.7453 40.76H99.2973C99.3773 40.76 99.4453 40.788 99.5013 40.844C99.5573 40.9 99.5853 40.968 99.5853 41.048V41.576C99.9133 41.032 100.473 40.76 101.265 40.76H101.733C101.813 40.76 101.877 40.788 101.925 40.844C101.981 40.892 102.009 40.956 102.009 41.036V41.528C102.009 41.608 101.981 41.672 101.925 41.72C101.877 41.768 101.813 41.792 101.733 41.792H101.013C100.581 41.792 100.241 41.92 99.9933 42.176C99.7453 42.424 99.6213 42.764 99.6213 43.196V46.724C99.6213 46.804 99.5933 46.872 99.5373 46.928C99.4813 46.976 99.4133 47 99.3333 47H98.7453ZM106.055 49.64C105.399 49.64 104.871 49.528 104.471 49.304C104.071 49.088 103.787 48.84 103.619 48.56C103.451 48.28 103.359 48.028 103.343 47.804C103.335 47.724 103.359 47.656 103.415 47.6C103.479 47.544 103.547 47.516 103.619 47.516H104.195C104.267 47.516 104.327 47.532 104.375 47.564C104.423 47.604 104.463 47.672 104.495 47.768C104.591 48.024 104.747 48.244 104.963 48.428C105.187 48.62 105.531 48.716 105.995 48.716C106.587 48.716 107.023 48.588 107.303 48.332C107.583 48.084 107.723 47.64 107.723 47V46.184C107.515 46.448 107.251 46.66 106.931 46.82C106.611 46.972 106.231 47.048 105.791 47.048C104.943 47.048 104.307 46.78 103.883 46.244C103.467 45.7 103.247 45.012 103.223 44.18L103.211 43.844L103.223 43.52C103.247 42.696 103.471 42.012 103.895 41.468C104.319 40.916 104.951 40.64 105.791 40.64C106.631 40.64 107.287 40.948 107.759 41.564V41.048C107.759 40.968 107.783 40.9 107.831 40.844C107.887 40.788 107.955 40.76 108.035 40.76H108.587C108.667 40.76 108.735 40.788 108.791 40.844C108.847 40.9 108.875 40.968 108.875 41.048V46.868C108.875 48.716 107.935 49.64 106.055 49.64ZM106.031 46.088C106.575 46.088 106.987 45.908 107.267 45.548C107.547 45.188 107.699 44.76 107.723 44.264C107.731 44.192 107.735 44.052 107.735 43.844C107.735 43.644 107.731 43.508 107.723 43.436C107.699 42.94 107.547 42.512 107.267 42.152C106.995 41.792 106.583 41.612 106.031 41.612C105.463 41.612 105.051 41.788 104.795 42.14C104.539 42.492 104.399 42.956 104.375 43.532L104.363 43.844L104.375 44.168C104.399 44.736 104.539 45.2 104.795 45.56C105.051 45.912 105.463 46.088 106.031 46.088ZM113.587 47.12C112.827 47.12 112.239 46.876 111.823 46.388C111.407 45.892 111.199 45.236 111.199 44.42V41.036C111.199 40.956 111.223 40.892 111.271 40.844C111.327 40.788 111.395 40.76 111.475 40.76H112.075C112.155 40.76 112.219 40.788 112.267 40.844C112.323 40.892 112.351 40.956 112.351 41.036V44.36C112.351 45.552 112.871 46.148 113.911 46.148C114.415 46.148 114.815 45.992 115.111 45.68C115.407 45.36 115.555 44.92 115.555 44.36V41.036C115.555 40.956 115.579 40.892 115.627 40.844C115.683 40.788 115.751 40.76 115.831 40.76H116.431C116.511 40.76 116.575 40.788 116.623 40.844C116.671 40.892 116.695 40.956 116.695 41.036V46.724C116.695 46.804 116.671 46.872 116.623 46.928C116.575 46.976 116.511 47 116.431 47H115.867C115.787 47 115.719 46.976 115.663 46.928C115.615 46.872 115.591 46.804 115.591 46.724V46.196C115.367 46.5 115.095 46.732 114.775 46.892C114.455 47.044 114.059 47.12 113.587 47.12ZM119.354 47C119.274 47 119.206 46.976 119.15 46.928C119.102 46.872 119.078 46.804 119.078 46.724V41.036C119.078 40.956 119.102 40.892 119.15 40.844C119.206 40.788 119.274 40.76 119.354 40.76H119.918C119.998 40.76 120.062 40.788 120.11 40.844C120.166 40.892 120.194 40.956 120.194 41.036V41.564C120.426 41.268 120.698 41.04 121.01 40.88C121.33 40.72 121.726 40.64 122.198 40.64C122.966 40.64 123.562 40.888 123.986 41.384C124.418 41.872 124.634 42.524 124.634 43.34V46.724C124.634 46.804 124.606 46.872 124.55 46.928C124.502 46.976 124.438 47 124.358 47H123.758C123.678 47 123.61 46.976 123.554 46.928C123.506 46.872 123.482 46.804 123.482 46.724V43.4C123.482 42.832 123.342 42.392 123.062 42.08C122.79 41.768 122.394 41.612 121.874 41.612C121.37 41.612 120.97 41.772 120.674 42.092C120.378 42.404 120.23 42.84 120.23 43.4V46.724C120.23 46.804 120.202 46.872 120.146 46.928C120.098 46.976 120.034 47 119.954 47H119.354ZM129.511 49.64C128.855 49.64 128.327 49.528 127.927 49.304C127.527 49.088 127.243 48.84 127.075 48.56C126.907 48.28 126.815 48.028 126.799 47.804C126.791 47.724 126.815 47.656 126.871 47.6C126.935 47.544 127.003 47.516 127.075 47.516H127.651C127.723 47.516 127.783 47.532 127.831 47.564C127.879 47.604 127.919 47.672 127.951 47.768C128.047 48.024 128.203 48.244 128.419 48.428C128.643 48.62 128.987 48.716 129.451 48.716C130.043 48.716 130.479 48.588 130.759 48.332C131.039 48.084 131.179 47.64 131.179 47V46.184C130.971 46.448 130.707 46.66 130.387 46.82C130.067 46.972 129.687 47.048 129.247 47.048C128.399 47.048 127.763 46.78 127.339 46.244C126.923 45.7 126.703 45.012 126.679 44.18L126.667 43.844L126.679 43.52C126.703 42.696 126.927 42.012 127.351 41.468C127.775 40.916 128.407 40.64 129.247 40.64C130.087 40.64 130.743 40.948 131.215 41.564V41.048C131.215 40.968 131.239 40.9 131.287 40.844C131.343 40.788 131.411 40.76 131.491 40.76H132.043C132.123 40.76 132.191 40.788 132.247 40.844C132.303 40.9 132.331 40.968 132.331 41.048V46.868C132.331 48.716 131.391 49.64 129.511 49.64ZM129.487 46.088C130.031 46.088 130.443 45.908 130.723 45.548C131.003 45.188 131.155 44.76 131.179 44.264C131.187 44.192 131.191 44.052 131.191 43.844C131.191 43.644 131.187 43.508 131.179 43.436C131.155 42.94 131.003 42.512 130.723 42.152C130.451 41.792 130.039 41.612 129.487 41.612C128.919 41.612 128.507 41.788 128.251 42.14C127.995 42.492 127.855 42.956 127.831 43.532L127.819 43.844L127.831 44.168C127.855 44.736 127.995 45.2 128.251 45.56C128.507 45.912 128.919 46.088 129.487 46.088Z" fill="#333333"/>
<rect x="152" y="18" width="7" height="7" fill="#034E7B"/>
<path d="M163.176 25C163.096 25 163.028 24.976 162.972 24.928C162.924 24.872 162.9 24.804 162.9 24.724V16.756C162.9 16.676 162.924 16.612 162.972 16.564C163.028 16.508 163.096 16.48 163.176 16.48H163.776C163.856 16.48 163.92 16.508 163.968 16.564C164.024 16.612 164.052 16.676 164.052 16.756V19.552C164.284 19.256 164.556 19.032 164.868 18.88C165.18 18.72 165.568 18.64 166.032 18.64C166.8 18.64 167.396 18.888 167.82 19.384C168.252 19.872 168.468 20.524 168.468 21.34V24.724C168.468 24.804 168.44 24.872 168.384 24.928C168.336 24.976 168.272 25 168.192 25H167.592C167.512 25 167.444 24.976 167.388 24.928C167.34 24.872 167.316 24.804 167.316 24.724V21.4C167.316 20.832 167.176 20.392 166.896 20.08C166.624 19.768 166.228 19.612 165.708 19.612C165.204 19.612 164.8 19.772 164.496 20.092C164.2 20.404 164.052 20.84 164.052 21.4V24.724C164.052 24.804 164.024 24.872 163.968 24.928C163.92 24.976 163.856 25 163.776 25H163.176ZM173.356 25.12C172.476 25.12 171.792 24.872 171.304 24.376C170.824 23.88 170.568 23.22 170.536 22.396L170.524 21.88L170.536 21.364C170.568 20.548 170.828 19.892 171.316 19.396C171.804 18.892 172.484 18.64 173.356 18.64C174.229 18.64 174.909 18.892 175.397 19.396C175.885 19.892 176.145 20.548 176.177 21.364C176.184 21.452 176.188 21.624 176.188 21.88C176.188 22.136 176.184 22.308 176.177 22.396C176.145 23.22 175.885 23.88 175.397 24.376C174.917 24.872 174.237 25.12 173.356 25.12ZM173.356 24.196C173.861 24.196 174.257 24.036 174.544 23.716C174.84 23.396 175.001 22.936 175.025 22.336C175.033 22.256 175.037 22.104 175.037 21.88C175.037 21.656 175.033 21.504 175.025 21.424C175.001 20.824 174.84 20.364 174.544 20.044C174.257 19.724 173.861 19.564 173.356 19.564C172.852 19.564 172.452 19.724 172.156 20.044C171.86 20.364 171.704 20.824 171.688 21.424L171.676 21.88L171.688 22.336C171.704 22.936 171.86 23.396 172.156 23.716C172.452 24.036 172.852 24.196 173.356 24.196ZM178.579 25C178.499 25 178.431 24.976 178.375 24.928C178.327 24.872 178.303 24.804 178.303 24.724V16.756C178.303 16.676 178.327 16.612 178.375 16.564C178.431 16.508 178.499 16.48 178.579 16.48H179.179C179.259 16.48 179.323 16.508 179.371 16.564C179.427 16.612 179.455 16.676 179.455 16.756V19.552C179.687 19.256 179.959 19.032 180.271 18.88C180.583 18.72 180.971 18.64 181.435 18.64C182.203 18.64 182.799 18.888 183.223 19.384C183.655 19.872 183.871 20.524 183.871 21.34V24.724C183.871 24.804 183.843 24.872 183.787 24.928C183.739 24.976 183.675 25 183.595 25H182.995C182.915 25 182.847 24.976 182.791 24.928C182.743 24.872 182.719 24.804 182.719 24.724V21.4C182.719 20.832 182.579 20.392 182.299 20.08C182.027 19.768 181.631 19.612 181.111 19.612C180.607 19.612 180.203 19.772 179.899 20.092C179.603 20.404 179.455 20.84 179.455 21.4V24.724C179.455 24.804 179.427 24.872 179.371 24.928C179.323 24.976 179.259 25 179.179 25H178.579ZM188.7 25.12C187.876 25.12 187.216 24.868 186.72 24.364C186.232 23.852 185.964 23.156 185.916 22.276L185.904 21.868L185.916 21.472C185.972 20.608 186.244 19.92 186.732 19.408C187.228 18.896 187.88 18.64 188.688 18.64C189.576 18.64 190.264 18.924 190.752 19.492C191.24 20.052 191.484 20.812 191.484 21.772V21.976C191.484 22.056 191.456 22.124 191.4 22.18C191.352 22.228 191.288 22.252 191.208 22.252H187.056V22.36C187.08 22.88 187.236 23.324 187.524 23.692C187.82 24.052 188.208 24.232 188.688 24.232C189.056 24.232 189.356 24.16 189.588 24.016C189.828 23.864 190.004 23.708 190.116 23.548C190.188 23.452 190.24 23.396 190.272 23.38C190.312 23.356 190.38 23.344 190.476 23.344H191.064C191.136 23.344 191.196 23.364 191.244 23.404C191.292 23.444 191.316 23.5 191.316 23.572C191.316 23.748 191.204 23.96 190.98 24.208C190.764 24.456 190.456 24.672 190.056 24.856C189.664 25.032 189.212 25.12 188.7 25.12ZM190.344 21.424V21.388C190.344 20.836 190.192 20.388 189.888 20.044C189.592 19.692 189.192 19.516 188.688 19.516C188.184 19.516 187.784 19.692 187.488 20.044C187.2 20.388 187.056 20.836 187.056 21.388V21.424H190.344ZM199.384 25C199.168 25 199.02 24.896 198.94 24.688L196.264 16.972L196.24 16.84C196.24 16.776 196.264 16.72 196.312 16.672C196.36 16.624 196.416 16.6 196.48 16.6H197.104C197.256 16.6 197.364 16.672 197.428 16.816L199.768 23.62L202.12 16.816C202.136 16.768 202.172 16.72 202.228 16.672C202.284 16.624 202.352 16.6 202.432 16.6H203.056C203.12 16.6 203.176 16.624 203.224 16.672C203.28 16.72 203.308 16.776 203.308 16.84L203.284 16.972L200.596 24.688C200.516 24.896 200.372 25 200.164 25H199.384ZM207.07 25.12C206.246 25.12 205.586 24.868 205.09 24.364C204.602 23.852 204.334 23.156 204.286 22.276L204.274 21.868L204.286 21.472C204.342 20.608 204.614 19.92 205.102 19.408C205.598 18.896 206.25 18.64 207.058 18.64C207.946 18.64 208.634 18.924 209.122 19.492C209.61 20.052 209.854 20.812 209.854 21.772V21.976C209.854 22.056 209.826 22.124 209.77 22.18C209.722 22.228 209.658 22.252 209.578 22.252H205.426V22.36C205.45 22.88 205.606 23.324 205.894 23.692C206.19 24.052 206.578 24.232 207.058 24.232C207.426 24.232 207.726 24.16 207.958 24.016C208.198 23.864 208.374 23.708 208.486 23.548C208.558 23.452 208.61 23.396 208.642 23.38C208.682 23.356 208.75 23.344 208.846 23.344H209.434C209.506 23.344 209.566 23.364 209.614 23.404C209.662 23.444 209.686 23.5 209.686 23.572C209.686 23.748 209.574 23.96 209.35 24.208C209.134 24.456 208.826 24.672 208.426 24.856C208.034 25.032 207.582 25.12 207.07 25.12ZM208.714 21.424V21.388C208.714 20.836 208.562 20.388 208.258 20.044C207.962 19.692 207.562 19.516 207.058 19.516C206.554 19.516 206.154 19.692 205.858 20.044C205.57 20.388 205.426 20.836 205.426 21.388V21.424H208.714ZM212.165 25C212.085 25 212.017 24.976 211.961 24.928C211.913 24.872 211.889 24.804 211.889 24.724V19.048C211.889 18.968 211.913 18.9 211.961 18.844C212.017 18.788 212.085 18.76 212.165 18.76H212.717C212.797 18.76 212.865 18.788 212.921 18.844C212.977 18.9 213.005 18.968 213.005 19.048V19.576C213.333 19.032 213.893 18.76 214.685 18.76H215.153C215.233 18.76 215.297 18.788 215.345 18.844C215.401 18.892 215.429 18.956 215.429 19.036V19.528C215.429 19.608 215.401 19.672 215.345 19.72C215.297 19.768 215.233 19.792 215.153 19.792H214.433C214.001 19.792 213.661 19.92 213.413 20.176C213.165 20.424 213.041 20.764 213.041 21.196V24.724C213.041 24.804 213.013 24.872 212.957 24.928C212.901 24.976 212.833 25 212.753 25H212.165ZM219.207 25.12C218.647 25.12 218.175 25.032 217.791 24.856C217.415 24.672 217.131 24.464 216.939 24.232C216.755 24 216.663 23.808 216.663 23.656C216.663 23.576 216.691 23.516 216.747 23.476C216.811 23.428 216.875 23.404 216.939 23.404H217.479C217.559 23.404 217.631 23.444 217.695 23.524C217.887 23.748 218.095 23.924 218.319 24.052C218.543 24.18 218.843 24.244 219.219 24.244C219.635 24.244 219.971 24.164 220.227 24.004C220.491 23.836 220.623 23.608 220.623 23.32C220.623 23.128 220.567 22.972 220.455 22.852C220.351 22.724 220.167 22.616 219.903 22.528C219.647 22.432 219.263 22.328 218.751 22.216C218.055 22.064 217.559 21.844 217.263 21.556C216.975 21.268 216.831 20.896 216.831 20.44C216.831 20.136 216.919 19.848 217.095 19.576C217.279 19.296 217.543 19.072 217.887 18.904C218.239 18.728 218.659 18.64 219.147 18.64C219.659 18.64 220.095 18.724 220.455 18.892C220.815 19.06 221.083 19.26 221.259 19.492C221.443 19.716 221.535 19.904 221.535 20.056C221.535 20.128 221.507 20.188 221.451 20.236C221.403 20.284 221.343 20.308 221.271 20.308H220.767C220.671 20.308 220.591 20.268 220.527 20.188C220.399 20.036 220.287 19.92 220.191 19.84C220.103 19.752 219.971 19.676 219.795 19.612C219.627 19.548 219.411 19.516 219.147 19.516C218.763 19.516 218.467 19.6 218.259 19.768C218.051 19.928 217.947 20.14 217.947 20.404C217.947 20.572 217.991 20.716 218.079 20.836C218.167 20.948 218.335 21.052 218.583 21.148C218.839 21.244 219.207 21.344 219.687 21.448C220.447 21.608 220.983 21.84 221.295 22.144C221.615 22.44 221.775 22.82 221.775 23.284C221.775 23.628 221.675 23.94 221.475 24.22C221.275 24.5 220.979 24.72 220.587 24.88C220.203 25.04 219.743 25.12 219.207 25.12ZM226.321 25.12C225.441 25.12 224.757 24.872 224.269 24.376C223.789 23.88 223.533 23.22 223.501 22.396L223.489 21.88L223.501 21.364C223.533 20.548 223.793 19.892 224.281 19.396C224.769 18.892 225.449 18.64 226.321 18.64C227.193 18.64 227.873 18.892 228.361 19.396C228.849 19.892 229.109 20.548 229.141 21.364C229.149 21.452 229.153 21.624 229.153 21.88C229.153 22.136 229.149 22.308 229.141 22.396C229.109 23.22 228.849 23.88 228.361 24.376C227.881 24.872 227.201 25.12 226.321 25.12ZM226.321 24.196C226.825 24.196 227.221 24.036 227.509 23.716C227.805 23.396 227.965 22.936 227.989 22.336C227.997 22.256 228.001 22.104 228.001 21.88C228.001 21.656 227.997 21.504 227.989 21.424C227.965 20.824 227.805 20.364 227.509 20.044C227.221 19.724 226.825 19.564 226.321 19.564C225.817 19.564 225.417 19.724 225.121 20.044C224.825 20.364 224.669 20.824 224.653 21.424L224.641 21.88L224.653 22.336C224.669 22.936 224.825 23.396 225.121 23.716C225.417 24.036 225.817 24.196 226.321 24.196ZM231.531 25C231.451 25 231.383 24.976 231.327 24.928C231.279 24.872 231.255 24.804 231.255 24.724V19.048C231.255 18.968 231.279 18.9 231.327 18.844C231.383 18.788 231.451 18.76 231.531 18.76H232.083C232.163 18.76 232.231 18.788 232.287 18.844C232.343 18.9 232.371 18.968 232.371 19.048V19.576C232.699 19.032 233.259 18.76 234.051 18.76H234.519C234.599 18.76 234.663 18.788 234.711 18.844C234.767 18.892 234.795 18.956 234.795 19.036V19.528C234.795 19.608 234.767 19.672 234.711 19.72C234.663 19.768 234.599 19.792 234.519 19.792H233.799C233.367 19.792 233.027 19.92 232.779 20.176C232.531 20.424 232.407 20.764 232.407 21.196V24.724C232.407 24.804 232.379 24.872 232.323 24.928C232.267 24.976 232.199 25 232.119 25H231.531ZM238.841 27.64C238.185 27.64 237.657 27.528 237.257 27.304C236.857 27.088 236.573 26.84 236.405 26.56C236.237 26.28 236.145 26.028 236.129 25.804C236.121 25.724 236.145 25.656 236.201 25.6C236.265 25.544 236.333 25.516 236.405 25.516H236.981C237.053 25.516 237.113 25.532 237.161 25.564C237.209 25.604 237.249 25.672 237.281 25.768C237.377 26.024 237.533 26.244 237.749 26.428C237.973 26.62 238.317 26.716 238.781 26.716C239.373 26.716 239.809 26.588 240.089 26.332C240.369 26.084 240.509 25.64 240.509 25V24.184C240.301 24.448 240.037 24.66 239.717 24.82C239.397 24.972 239.017 25.048 238.577 25.048C237.729 25.048 237.093 24.78 236.669 24.244C236.253 23.7 236.033 23.012 236.009 22.18L235.997 21.844L236.009 21.52C236.033 20.696 236.257 20.012 236.681 19.468C237.105 18.916 237.737 18.64 238.577 18.64C239.417 18.64 240.073 18.948 240.545 19.564V19.048C240.545 18.968 240.569 18.9 240.617 18.844C240.673 18.788 240.741 18.76 240.821 18.76H241.373C241.453 18.76 241.521 18.788 241.577 18.844C241.633 18.9 241.661 18.968 241.661 19.048V24.868C241.661 26.716 240.721 27.64 238.841 27.64ZM238.817 24.088C239.361 24.088 239.773 23.908 240.053 23.548C240.333 23.188 240.485 22.76 240.509 22.264C240.517 22.192 240.521 22.052 240.521 21.844C240.521 21.644 240.517 21.508 240.509 21.436C240.485 20.94 240.333 20.512 240.053 20.152C239.781 19.792 239.369 19.612 238.817 19.612C238.249 19.612 237.837 19.788 237.581 20.14C237.325 20.492 237.185 20.956 237.161 21.532L237.149 21.844L237.161 22.168C237.185 22.736 237.325 23.2 237.581 23.56C237.837 23.912 238.249 24.088 238.817 24.088ZM246.373 25.12C245.613 25.12 245.025 24.876 244.609 24.388C244.193 23.892 243.985 23.236 243.985 22.42V19.036C243.985 18.956 244.009 18.892 244.057 18.844C244.113 18.788 244.181 18.76 244.261 18.76H244.861C244.941 18.76 245.005 18.788 245.053 18.844C245.109 18.892 245.137 18.956 245.137 19.036V22.36C245.137 23.552 245.657 24.148 246.697 24.148C247.201 24.148 247.601 23.992 247.897 23.68C248.193 23.36 248.341 22.92 248.341 22.36V19.036C248.341 18.956 248.365 18.892 248.413 18.844C248.469 18.788 248.537 18.76 248.617 18.76H249.217C249.297 18.76 249.361 18.788 249.409 18.844C249.457 18.892 249.481 18.956 249.481 19.036V24.724C249.481 24.804 249.457 24.872 249.409 24.928C249.361 24.976 249.297 25 249.217 25H248.653C248.573 25 248.505 24.976 248.449 24.928C248.401 24.872 248.377 24.804 248.377 24.724V24.196C248.153 24.5 247.881 24.732 247.561 24.892C247.241 25.044 246.845 25.12 246.373 25.12ZM252.14 25C252.06 25 251.992 24.976 251.936 24.928C251.888 24.872 251.864 24.804 251.864 24.724V19.036C251.864 18.956 251.888 18.892 251.936 18.844C251.992 18.788 252.06 18.76 252.14 18.76H252.704C252.784 18.76 252.848 18.788 252.896 18.844C252.952 18.892 252.98 18.956 252.98 19.036V19.564C253.212 19.268 253.484 19.04 253.796 18.88C254.116 18.72 254.512 18.64 254.984 18.64C255.752 18.64 256.348 18.888 256.772 19.384C257.204 19.872 257.42 20.524 257.42 21.34V24.724C257.42 24.804 257.392 24.872 257.336 24.928C257.288 24.976 257.224 25 257.144 25H256.544C256.464 25 256.396 24.976 256.34 24.928C256.292 24.872 256.268 24.804 256.268 24.724V21.4C256.268 20.832 256.128 20.392 255.848 20.08C255.576 19.768 255.18 19.612 254.66 19.612C254.156 19.612 253.756 19.772 253.46 20.092C253.164 20.404 253.016 20.84 253.016 21.4V24.724C253.016 24.804 252.988 24.872 252.932 24.928C252.884 24.976 252.82 25 252.74 25H252.14ZM262.297 27.64C261.641 27.64 261.113 27.528 260.713 27.304C260.313 27.088 260.029 26.84 259.861 26.56C259.693 26.28 259.601 26.028 259.585 25.804C259.577 25.724 259.601 25.656 259.657 25.6C259.721 25.544 259.789 25.516 259.861 25.516H260.437C260.509 25.516 260.569 25.532 260.617 25.564C260.665 25.604 260.705 25.672 260.737 25.768C260.833 26.024 260.989 26.244 261.205 26.428C261.429 26.62 261.773 26.716 262.237 26.716C262.829 26.716 263.265 26.588 263.545 26.332C263.825 26.084 263.965 25.64 263.965 25V24.184C263.757 24.448 263.493 24.66 263.173 24.82C262.853 24.972 262.473 25.048 262.033 25.048C261.185 25.048 260.549 24.78 260.125 24.244C259.709 23.7 259.489 23.012 259.465 22.18L259.453 21.844L259.465 21.52C259.489 20.696 259.713 20.012 260.137 19.468C260.561 18.916 261.193 18.64 262.033 18.64C262.873 18.64 263.529 18.948 264.001 19.564V19.048C264.001 18.968 264.025 18.9 264.073 18.844C264.129 18.788 264.197 18.76 264.277 18.76H264.829C264.909 18.76 264.977 18.788 265.033 18.844C265.089 18.9 265.117 18.968 265.117 19.048V24.868C265.117 26.716 264.177 27.64 262.297 27.64ZM262.273 24.088C262.817 24.088 263.229 23.908 263.509 23.548C263.789 23.188 263.941 22.76 263.965 22.264C263.973 22.192 263.977 22.052 263.977 21.844C263.977 21.644 263.973 21.508 263.965 21.436C263.941 20.94 263.789 20.512 263.509 20.152C263.237 19.792 262.825 19.612 262.273 19.612C261.705 19.612 261.293 19.788 261.037 20.14C260.781 20.492 260.641 20.956 260.617 21.532L260.605 21.844L260.617 22.168C260.641 22.736 260.781 23.2 261.037 23.56C261.293 23.912 261.705 24.088 262.273 24.088Z" fill="#333333"/>
<rect x="152" y="40" width="7" height="7" fill="#E0E0E0"/>
<path d="M163.176 47C163.096 47 163.028 46.976 162.972 46.928C162.924 46.872 162.9 46.804 162.9 46.724V38.756C162.9 38.676 162.924 38.612 162.972 38.564C163.028 38.508 163.096 38.48 163.176 38.48H163.74C163.82 38.48 163.884 38.508 163.932 38.564C163.988 38.612 164.016 38.676 164.016 38.756V42.932L166.38 40.964C166.404 40.948 166.444 40.916 166.5 40.868C166.556 40.828 166.608 40.8 166.656 40.784C166.712 40.768 166.78 40.76 166.86 40.76H167.496C167.568 40.76 167.628 40.784 167.676 40.832C167.724 40.88 167.748 40.94 167.748 41.012C167.748 41.1 167.7 41.176 167.604 41.24L164.832 43.544L167.904 46.532C168 46.612 168.048 46.684 168.048 46.748C168.048 46.82 168.024 46.88 167.976 46.928C167.928 46.976 167.868 47 167.796 47H167.172C167.052 47 166.964 46.988 166.908 46.964C166.86 46.94 166.788 46.884 166.692 46.796L164.016 44.24V46.724C164.016 46.804 163.988 46.872 163.932 46.928C163.884 46.976 163.82 47 163.74 47H163.176ZM171.879 47.12C171.055 47.12 170.395 46.868 169.899 46.364C169.411 45.852 169.143 45.156 169.095 44.276L169.083 43.868L169.095 43.472C169.151 42.608 169.423 41.92 169.911 41.408C170.407 40.896 171.059 40.64 171.867 40.64C172.755 40.64 173.443 40.924 173.931 41.492C174.419 42.052 174.663 42.812 174.663 43.772V43.976C174.663 44.056 174.635 44.124 174.579 44.18C174.531 44.228 174.467 44.252 174.387 44.252H170.235V44.36C170.259 44.88 170.415 45.324 170.703 45.692C170.999 46.052 171.387 46.232 171.867 46.232C172.235 46.232 172.535 46.16 172.767 46.016C173.007 45.864 173.183 45.708 173.295 45.548C173.367 45.452 173.419 45.396 173.451 45.38C173.491 45.356 173.559 45.344 173.655 45.344H174.243C174.315 45.344 174.375 45.364 174.423 45.404C174.471 45.444 174.495 45.5 174.495 45.572C174.495 45.748 174.383 45.96 174.159 46.208C173.943 46.456 173.635 46.672 173.235 46.856C172.843 47.032 172.391 47.12 171.879 47.12ZM173.523 43.424V43.388C173.523 42.836 173.371 42.388 173.067 42.044C172.771 41.692 172.371 41.516 171.867 41.516C171.363 41.516 170.963 41.692 170.667 42.044C170.379 42.388 170.235 42.836 170.235 43.388V43.424H173.523ZM176.877 39.596C176.797 39.596 176.729 39.572 176.673 39.524C176.625 39.468 176.601 39.4 176.601 39.32V38.672C176.601 38.592 176.625 38.524 176.673 38.468C176.729 38.412 176.797 38.384 176.877 38.384H177.633C177.713 38.384 177.781 38.412 177.837 38.468C177.893 38.524 177.921 38.592 177.921 38.672V39.32C177.921 39.4 177.893 39.468 177.837 39.524C177.781 39.572 177.713 39.596 177.633 39.596H176.877ZM176.973 47C176.893 47 176.825 46.976 176.769 46.928C176.721 46.872 176.697 46.804 176.697 46.724V41.036C176.697 40.956 176.721 40.892 176.769 40.844C176.825 40.788 176.893 40.76 176.973 40.76H177.549C177.629 40.76 177.693 40.788 177.741 40.844C177.797 40.892 177.825 40.956 177.825 41.036V46.724C177.825 46.804 177.797 46.872 177.741 46.928C177.693 46.976 177.629 47 177.549 47H176.973ZM180.48 47C180.4 47 180.332 46.976 180.276 46.928C180.228 46.872 180.204 46.804 180.204 46.724V41.036C180.204 40.956 180.228 40.892 180.276 40.844C180.332 40.788 180.4 40.76 180.48 40.76H181.044C181.124 40.76 181.188 40.788 181.236 40.844C181.292 40.892 181.32 40.956 181.32 41.036V41.564C181.552 41.268 181.824 41.04 182.136 40.88C182.456 40.72 182.852 40.64 183.324 40.64C184.092 40.64 184.688 40.888 185.112 41.384C185.544 41.872 185.76 42.524 185.76 43.34V46.724C185.76 46.804 185.732 46.872 185.676 46.928C185.628 46.976 185.564 47 185.484 47H184.884C184.804 47 184.736 46.976 184.68 46.928C184.632 46.872 184.608 46.804 184.608 46.724V43.4C184.608 42.832 184.468 42.392 184.188 42.08C183.916 41.768 183.52 41.612 183 41.612C182.496 41.612 182.096 41.772 181.8 42.092C181.504 42.404 181.356 42.84 181.356 43.4V46.724C181.356 46.804 181.328 46.872 181.272 46.928C181.224 46.976 181.16 47 181.08 47H180.48ZM190.577 47.12C189.753 47.12 189.093 46.868 188.597 46.364C188.109 45.852 187.841 45.156 187.793 44.276L187.781 43.868L187.793 43.472C187.849 42.608 188.121 41.92 188.609 41.408C189.105 40.896 189.757 40.64 190.565 40.64C191.453 40.64 192.141 40.924 192.629 41.492C193.117 42.052 193.361 42.812 193.361 43.772V43.976C193.361 44.056 193.333 44.124 193.277 44.18C193.229 44.228 193.165 44.252 193.085 44.252H188.933V44.36C188.957 44.88 189.113 45.324 189.401 45.692C189.697 46.052 190.085 46.232 190.565 46.232C190.933 46.232 191.233 46.16 191.465 46.016C191.705 45.864 191.881 45.708 191.993 45.548C192.065 45.452 192.117 45.396 192.149 45.38C192.189 45.356 192.257 45.344 192.353 45.344H192.941C193.013 45.344 193.073 45.364 193.121 45.404C193.169 45.444 193.193 45.5 193.193 45.572C193.193 45.748 193.081 45.96 192.857 46.208C192.641 46.456 192.333 46.672 191.933 46.856C191.541 47.032 191.089 47.12 190.577 47.12ZM192.221 43.424V43.388C192.221 42.836 192.069 42.388 191.765 42.044C191.469 41.692 191.069 41.516 190.565 41.516C190.061 41.516 189.661 41.692 189.365 42.044C189.077 42.388 188.933 42.836 188.933 43.388V43.424H192.221ZM201.261 47C201.045 47 200.897 46.896 200.817 46.688L198.141 38.972L198.117 38.84C198.117 38.776 198.141 38.72 198.189 38.672C198.237 38.624 198.293 38.6 198.357 38.6H198.981C199.133 38.6 199.241 38.672 199.305 38.816L201.645 45.62L203.997 38.816C204.013 38.768 204.049 38.72 204.105 38.672C204.161 38.624 204.229 38.6 204.309 38.6H204.933C204.997 38.6 205.053 38.624 205.101 38.672C205.157 38.72 205.185 38.776 205.185 38.84L205.161 38.972L202.473 46.688C202.393 46.896 202.249 47 202.041 47H201.261ZM208.947 47.12C208.123 47.12 207.463 46.868 206.967 46.364C206.479 45.852 206.211 45.156 206.163 44.276L206.151 43.868L206.163 43.472C206.219 42.608 206.491 41.92 206.979 41.408C207.475 40.896 208.127 40.64 208.935 40.64C209.823 40.64 210.511 40.924 210.999 41.492C211.487 42.052 211.731 42.812 211.731 43.772V43.976C211.731 44.056 211.703 44.124 211.647 44.18C211.599 44.228 211.535 44.252 211.455 44.252H207.303V44.36C207.327 44.88 207.483 45.324 207.771 45.692C208.067 46.052 208.455 46.232 208.935 46.232C209.303 46.232 209.603 46.16 209.835 46.016C210.075 45.864 210.251 45.708 210.363 45.548C210.435 45.452 210.487 45.396 210.519 45.38C210.559 45.356 210.627 45.344 210.723 45.344H211.311C211.383 45.344 211.443 45.364 211.491 45.404C211.539 45.444 211.563 45.5 211.563 45.572C211.563 45.748 211.451 45.96 211.227 46.208C211.011 46.456 210.703 46.672 210.303 46.856C209.911 47.032 209.459 47.12 208.947 47.12ZM210.591 43.424V43.388C210.591 42.836 210.439 42.388 210.135 42.044C209.839 41.692 209.439 41.516 208.935 41.516C208.431 41.516 208.031 41.692 207.735 42.044C207.447 42.388 207.303 42.836 207.303 43.388V43.424H210.591ZM214.042 47C213.962 47 213.894 46.976 213.838 46.928C213.79 46.872 213.766 46.804 213.766 46.724V41.048C213.766 40.968 213.79 40.9 213.838 40.844C213.894 40.788 213.962 40.76 214.042 40.76H214.594C214.674 40.76 214.742 40.788 214.798 40.844C214.854 40.9 214.882 40.968 214.882 41.048V41.576C215.21 41.032 215.77 40.76 216.562 40.76H217.03C217.11 40.76 217.174 40.788 217.222 40.844C217.278 40.892 217.306 40.956 217.306 41.036V41.528C217.306 41.608 217.278 41.672 217.222 41.72C217.174 41.768 217.11 41.792 217.03 41.792H216.31C215.878 41.792 215.538 41.92 215.29 42.176C215.042 42.424 214.918 42.764 214.918 43.196V46.724C214.918 46.804 214.89 46.872 214.834 46.928C214.778 46.976 214.71 47 214.63 47H214.042ZM221.085 47.12C220.525 47.12 220.053 47.032 219.669 46.856C219.293 46.672 219.009 46.464 218.817 46.232C218.633 46 218.541 45.808 218.541 45.656C218.541 45.576 218.569 45.516 218.625 45.476C218.689 45.428 218.753 45.404 218.817 45.404H219.357C219.437 45.404 219.509 45.444 219.573 45.524C219.765 45.748 219.973 45.924 220.197 46.052C220.421 46.18 220.721 46.244 221.097 46.244C221.513 46.244 221.849 46.164 222.105 46.004C222.369 45.836 222.501 45.608 222.501 45.32C222.501 45.128 222.445 44.972 222.333 44.852C222.229 44.724 222.045 44.616 221.781 44.528C221.525 44.432 221.141 44.328 220.629 44.216C219.933 44.064 219.437 43.844 219.141 43.556C218.853 43.268 218.709 42.896 218.709 42.44C218.709 42.136 218.797 41.848 218.973 41.576C219.157 41.296 219.421 41.072 219.765 40.904C220.117 40.728 220.537 40.64 221.025 40.64C221.537 40.64 221.973 40.724 222.333 40.892C222.693 41.06 222.961 41.26 223.137 41.492C223.321 41.716 223.413 41.904 223.413 42.056C223.413 42.128 223.385 42.188 223.329 42.236C223.281 42.284 223.221 42.308 223.149 42.308H222.645C222.549 42.308 222.469 42.268 222.405 42.188C222.277 42.036 222.165 41.92 222.069 41.84C221.981 41.752 221.849 41.676 221.673 41.612C221.505 41.548 221.289 41.516 221.025 41.516C220.641 41.516 220.345 41.6 220.137 41.768C219.929 41.928 219.825 42.14 219.825 42.404C219.825 42.572 219.869 42.716 219.957 42.836C220.045 42.948 220.213 43.052 220.461 43.148C220.717 43.244 221.085 43.344 221.565 43.448C222.325 43.608 222.861 43.84 223.173 44.144C223.493 44.44 223.653 44.82 223.653 45.284C223.653 45.628 223.553 45.94 223.353 46.22C223.153 46.5 222.857 46.72 222.465 46.88C222.081 47.04 221.621 47.12 221.085 47.12ZM228.198 47.12C227.318 47.12 226.634 46.872 226.146 46.376C225.666 45.88 225.41 45.22 225.378 44.396L225.366 43.88L225.378 43.364C225.41 42.548 225.67 41.892 226.158 41.396C226.646 40.892 227.326 40.64 228.198 40.64C229.07 40.64 229.75 40.892 230.238 41.396C230.726 41.892 230.986 42.548 231.018 43.364C231.026 43.452 231.03 43.624 231.03 43.88C231.03 44.136 231.026 44.308 231.018 44.396C230.986 45.22 230.726 45.88 230.238 46.376C229.758 46.872 229.078 47.12 228.198 47.12ZM228.198 46.196C228.702 46.196 229.098 46.036 229.386 45.716C229.682 45.396 229.842 44.936 229.866 44.336C229.874 44.256 229.878 44.104 229.878 43.88C229.878 43.656 229.874 43.504 229.866 43.424C229.842 42.824 229.682 42.364 229.386 42.044C229.098 41.724 228.702 41.564 228.198 41.564C227.694 41.564 227.294 41.724 226.998 42.044C226.702 42.364 226.546 42.824 226.53 43.424L226.518 43.88L226.53 44.336C226.546 44.936 226.702 45.396 226.998 45.716C227.294 46.036 227.694 46.196 228.198 46.196ZM233.409 47C233.329 47 233.261 46.976 233.205 46.928C233.157 46.872 233.133 46.804 233.133 46.724V41.048C233.133 40.968 233.157 40.9 233.205 40.844C233.261 40.788 233.329 40.76 233.409 40.76H233.961C234.041 40.76 234.109 40.788 234.165 40.844C234.221 40.9 234.249 40.968 234.249 41.048V41.576C234.577 41.032 235.137 40.76 235.929 40.76H236.397C236.477 40.76 236.541 40.788 236.589 40.844C236.645 40.892 236.673 40.956 236.673 41.036V41.528C236.673 41.608 236.645 41.672 236.589 41.72C236.541 41.768 236.477 41.792 236.397 41.792H235.677C235.245 41.792 234.905 41.92 234.657 42.176C234.409 42.424 234.285 42.764 234.285 43.196V46.724C234.285 46.804 234.257 46.872 234.201 46.928C234.145 46.976 234.077 47 233.997 47H233.409ZM240.718 49.64C240.062 49.64 239.534 49.528 239.134 49.304C238.734 49.088 238.45 48.84 238.282 48.56C238.114 48.28 238.022 48.028 238.006 47.804C237.998 47.724 238.022 47.656 238.078 47.6C238.142 47.544 238.21 47.516 238.282 47.516H238.858C238.93 47.516 238.99 47.532 239.038 47.564C239.086 47.604 239.126 47.672 239.158 47.768C239.254 48.024 239.41 48.244 239.626 48.428C239.85 48.62 240.194 48.716 240.658 48.716C241.25 48.716 241.686 48.588 241.966 48.332C242.246 48.084 242.386 47.64 242.386 47V46.184C242.178 46.448 241.914 46.66 241.594 46.82C241.274 46.972 240.894 47.048 240.454 47.048C239.606 47.048 238.97 46.78 238.546 46.244C238.13 45.7 237.91 45.012 237.886 44.18L237.874 43.844L237.886 43.52C237.91 42.696 238.134 42.012 238.558 41.468C238.982 40.916 239.614 40.64 240.454 40.64C241.294 40.64 241.95 40.948 242.422 41.564V41.048C242.422 40.968 242.446 40.9 242.494 40.844C242.55 40.788 242.618 40.76 242.698 40.76H243.25C243.33 40.76 243.398 40.788 243.454 40.844C243.51 40.9 243.538 40.968 243.538 41.048V46.868C243.538 48.716 242.598 49.64 240.718 49.64ZM240.694 46.088C241.238 46.088 241.65 45.908 241.93 45.548C242.21 45.188 242.362 44.76 242.386 44.264C242.394 44.192 242.398 44.052 242.398 43.844C242.398 43.644 242.394 43.508 242.386 43.436C242.362 42.94 242.21 42.512 241.93 42.152C241.658 41.792 241.246 41.612 240.694 41.612C240.126 41.612 239.714 41.788 239.458 42.14C239.202 42.492 239.062 42.956 239.038 43.532L239.026 43.844L239.038 44.168C239.062 44.736 239.202 45.2 239.458 45.56C239.714 45.912 240.126 46.088 240.694 46.088ZM248.25 47.12C247.49 47.12 246.902 46.876 246.486 46.388C246.07 45.892 245.862 45.236 245.862 44.42V41.036C245.862 40.956 245.886 40.892 245.934 40.844C245.99 40.788 246.058 40.76 246.138 40.76H246.738C246.818 40.76 246.882 40.788 246.93 40.844C246.986 40.892 247.014 40.956 247.014 41.036V44.36C247.014 45.552 247.534 46.148 248.574 46.148C249.078 46.148 249.478 45.992 249.774 45.68C250.07 45.36 250.218 44.92 250.218 44.36V41.036C250.218 40.956 250.242 40.892 250.29 40.844C250.346 40.788 250.414 40.76 250.494 40.76H251.094C251.174 40.76 251.238 40.788 251.286 40.844C251.334 40.892 251.358 40.956 251.358 41.036V46.724C251.358 46.804 251.334 46.872 251.286 46.928C251.238 46.976 251.174 47 251.094 47H250.53C250.45 47 250.382 46.976 250.326 46.928C250.278 46.872 250.254 46.804 250.254 46.724V46.196C250.03 46.5 249.758 46.732 249.438 46.892C249.118 47.044 248.722 47.12 248.25 47.12ZM254.017 47C253.937 47 253.869 46.976 253.813 46.928C253.765 46.872 253.741 46.804 253.741 46.724V41.036C253.741 40.956 253.765 40.892 253.813 40.844C253.869 40.788 253.937 40.76 254.017 40.76H254.581C254.661 40.76 254.725 40.788 254.773 40.844C254.829 40.892 254.857 40.956 254.857 41.036V41.564C255.089 41.268 255.361 41.04 255.673 40.88C255.993 40.72 256.389 40.64 256.861 40.64C257.629 40.64 258.225 40.888 258.649 41.384C259.081 41.872 259.297 42.524 259.297 43.34V46.724C259.297 46.804 259.269 46.872 259.213 46.928C259.165 46.976 259.101 47 259.021 47H258.421C258.341 47 258.273 46.976 258.217 46.928C258.169 46.872 258.145 46.804 258.145 46.724V43.4C258.145 42.832 258.005 42.392 257.725 42.08C257.453 41.768 257.057 41.612 256.537 41.612C256.033 41.612 255.633 41.772 255.337 42.092C255.041 42.404 254.893 42.84 254.893 43.4V46.724C254.893 46.804 254.865 46.872 254.809 46.928C254.761 46.976 254.697 47 254.617 47H254.017ZM264.174 49.64C263.518 49.64 262.99 49.528 262.59 49.304C262.19 49.088 261.906 48.84 261.738 48.56C261.57 48.28 261.478 48.028 261.462 47.804C261.454 47.724 261.478 47.656 261.534 47.6C261.598 47.544 261.666 47.516 261.738 47.516H262.314C262.386 47.516 262.446 47.532 262.494 47.564C262.542 47.604 262.582 47.672 262.614 47.768C262.71 48.024 262.866 48.244 263.082 48.428C263.306 48.62 263.65 48.716 264.114 48.716C264.706 48.716 265.142 48.588 265.422 48.332C265.702 48.084 265.842 47.64 265.842 47V46.184C265.634 46.448 265.37 46.66 265.05 46.82C264.73 46.972 264.35 47.048 263.91 47.048C263.062 47.048 262.426 46.78 262.002 46.244C261.586 45.7 261.366 45.012 261.342 44.18L261.33 43.844L261.342 43.52C261.366 42.696 261.59 42.012 262.014 41.468C262.438 40.916 263.07 40.64 263.91 40.64C264.75 40.64 265.406 40.948 265.878 41.564V41.048C265.878 40.968 265.902 40.9 265.95 40.844C266.006 40.788 266.074 40.76 266.154 40.76H266.706C266.786 40.76 266.854 40.788 266.91 40.844C266.966 40.9 266.994 40.968 266.994 41.048V46.868C266.994 48.716 266.054 49.64 264.174 49.64ZM264.15 46.088C264.694 46.088 265.106 45.908 265.386 45.548C265.666 45.188 265.818 44.76 265.842 44.264C265.85 44.192 265.854 44.052 265.854 43.844C265.854 43.644 265.85 43.508 265.842 43.436C265.818 42.94 265.666 42.512 265.386 42.152C265.114 41.792 264.702 41.612 264.15 41.612C263.582 41.612 263.17 41.788 262.914 42.14C262.658 42.492 262.518 42.956 262.494 43.532L262.482 43.844L262.494 44.168C262.518 44.736 262.658 45.2 262.914 45.56C263.17 45.912 263.582 46.088 264.15 46.088Z" fill="#333333"/>
</svg>
