<svg width="144" height="144" viewBox="0 0 144 144" fill="none" xmlns="http://www.w3.org/2000/svg">
<path d="M109.112 60.2618L109.438 60.5179L109.75 60.2449L112.103 58.1866C112.54 58.7886 113.185 59.3619 114.007 59.9133C116.081 61.8165 118.072 63.8931 120.076 65.9836L120.082 65.9898C122.087 68.0807 124.104 70.1856 126.211 72.1174C127.064 72.971 127.921 73.9983 128.796 75.0483L128.805 75.0588C129.661 76.0863 130.536 77.1352 131.414 78.018C131.542 78.2117 131.693 78.4501 131.864 78.7202C131.914 78.8 131.966 78.8825 132.02 78.9675C132.267 79.3564 132.544 79.7886 132.833 80.2114C133.122 80.6333 133.428 81.0526 133.732 81.4145C134.032 81.7709 134.352 82.0976 134.674 82.3117L135.283 82.7178L132.474 86.4622L130.401 88.5349L130.343 88.5922L130.307 88.6648C130.128 89.0235 129.967 89.3418 129.814 89.5726C129.739 89.6839 129.682 89.7513 129.642 89.787H129.396L129.258 90.0633C129.125 90.3292 128.922 90.5373 128.652 90.8075L128.633 90.8262C128.419 91.0407 128.16 91.2992 127.957 91.6336C126.964 92.035 125.963 92.7705 124.977 93.6306C124.06 94.4314 123.122 95.3714 122.189 96.3064C122.056 96.4404 121.922 96.5742 121.789 96.7076C120.716 97.7794 119.653 98.8205 118.601 99.6584C117.545 100.5 116.541 101.103 115.595 101.34L115.431 101.381L115.325 101.513L114.018 103.147C110.818 104.253 108.595 106.404 106.561 108.61C106.246 108.952 105.936 109.295 105.628 109.635C103.897 111.546 102.23 113.387 100.071 114.682L100.064 114.686L100.058 114.691C95.6691 117.511 90.7101 119.482 85.9033 121.392C85.5046 121.551 85.1069 121.709 84.7107 121.867L83.6128 120.769L82.6016 118.411L82.3927 117.923L81.9185 118.16L81.4862 118.376C75.6038 114.247 70.0394 111.13 63.4508 108.357L63.4331 108.349L63.4149 108.343L62.4263 108.014C62.2932 107.919 62.0828 107.704 61.7999 107.333C61.5007 106.941 61.1567 106.424 60.7811 105.813C60.0304 104.593 59.1731 103.031 58.3221 101.417C57.5285 99.9117 56.7361 98.3516 56.0461 96.9931C55.2684 95.4619 54.6208 94.1869 54.2483 93.5352L54.167 93.393L54.0172 93.3264L51.0153 91.9926C50.8713 91.773 50.6478 91.5115 50.3929 91.236C50.0536 90.8693 49.6107 90.4282 49.0987 89.9411C48.0739 88.9661 46.7553 87.7909 45.3959 86.629C44.0361 85.467 42.6309 84.3145 41.432 83.3853C40.2484 82.4679 39.226 81.7365 38.6498 81.4485L38.4646 81.3559L38.2681 81.4213L37.219 81.771L36.7446 81.9291L36.9027 82.4035C37.2255 83.3715 37.4017 85.3103 37.4455 87.326C37.483 89.0507 37.4225 90.7547 37.2982 91.8341L35.1013 91.5901C35.1177 89.6564 34.2239 87.7065 33.1256 85.9172C32.5247 84.9382 31.8484 83.9854 31.197 83.0879C31.0643 82.9052 30.9329 82.725 30.8035 82.5474C30.4394 82.0481 30.0904 81.5696 29.7704 81.1116L30.1909 80.9715L30.8742 80.7438L30.422 80.1832C26.0882 74.8108 22.699 68.3867 19.4648 61.8326C18.907 60.7023 18.3537 59.5677 17.8009 58.4341C15.1566 53.0121 12.5238 47.6136 9.47099 42.8176L9.46068 42.8014L9.44916 42.786L8.81154 41.9361C9.16722 41.8095 9.52843 41.6761 9.89497 41.5408C11.0194 41.1256 12.1941 40.6918 13.4135 40.38C15.2537 39.9094 17.0526 39.7624 18.6559 40.4035L19.1877 40.6162L19.3266 40.0606C19.6913 38.6021 19.6913 36.4586 19.6912 34.743V34.7357C19.8675 33.6533 19.8658 32.6655 19.8218 31.7428C19.8057 31.4039 19.7846 31.0813 19.764 30.7676C19.7398 30.3984 19.7165 30.0416 19.703 29.6852C24.057 30.3563 28.3519 31.0487 32.3228 32.372L32.8778 32.557L32.9741 31.9799L33.2617 30.2544C34.1368 30.1541 35.1255 30.0317 36.19 29.8998C38.9842 29.5536 42.3011 29.1427 45.4591 28.8998L45.4709 28.8989L45.4827 28.8974C48.2462 28.5521 50.666 28.5517 52.765 28.5517H52.8064L52.8472 28.5449C53.771 28.3909 55.1793 28.64 56.8831 29.1532C58.5638 29.6594 60.4465 30.3945 62.2824 31.1374C62.6793 31.298 63.0744 31.4592 63.4647 31.6184C64.8696 32.1913 66.2121 32.7389 67.3515 33.1445C68.08 33.4038 68.7429 33.6115 69.2988 33.7317C69.827 33.8458 70.3565 33.9048 70.7592 33.7706L70.9557 33.7051L71.0483 33.5198L71.0878 33.4409L71.6465 33.9994L71.7039 34.0568L71.7764 34.093L72.4759 34.4427L72.5814 34.4955H72.6994C72.7006 34.4955 72.7018 34.4955 72.7048 34.4963C72.7082 34.4972 72.7174 34.5 72.7333 34.5084C72.7676 34.5266 72.8263 34.5671 72.9143 34.655C73.0949 34.8356 73.3339 35.1488 73.6824 35.6714L73.7099 35.7126L73.7449 35.7476C74.0989 36.1015 74.4334 36.4364 74.6805 36.7246C74.8041 36.8688 74.8937 36.9875 74.95 37.0799C74.9801 37.1293 74.9926 37.1584 74.9973 37.17V37.2936L75.0813 37.4196C75.4355 37.9508 75.7694 38.4631 76.094 38.9611C77.0364 40.4068 77.8999 41.7317 78.9539 43.0488L79.0225 43.1345L79.1207 43.1836L79.6418 43.4441C79.7887 43.789 80.0429 44.1357 80.3423 44.4708C80.7149 44.8877 81.1992 45.3319 81.7531 45.7883C82.8616 46.7016 84.2894 47.6966 85.7584 48.6611C87.2071 49.6123 88.7081 50.5415 89.9999 51.3412L90.0592 51.378C91.373 52.1913 92.4477 52.8578 93.0428 53.2827L93.8334 53.8473V52.8758C93.8334 52.1361 94.1246 51.5374 94.48 50.8269L94.4962 50.7945C94.7222 50.3428 94.9724 49.8427 95.1152 49.2672L109.112 60.2618ZM129.618 89.8063C129.618 89.8061 129.619 89.8056 129.62 89.8048C129.618 89.806 129.617 89.8065 129.618 89.8063Z" stroke="#333333"/>
</svg>
