<svg width="144" height="144" viewBox="0 0 144 144" fill="none" xmlns="http://www.w3.org/2000/svg">
<mask id="path-1-outside-1" maskUnits="userSpaceOnUse" x="8" y="10" width="129" height="131" fill="black">
<rect fill="white" x="8" y="10" width="129" height="131"/>
<path d="M43.9352 122.871C44.1206 121.388 45.2333 119.534 46.7168 118.978C46.7168 118.978 47.2731 118.051 47.4586 118.051L47.644 117.68L47.8294 117.309C48.5712 113.787 46.5314 111.006 44.677 108.04C44.3061 107.298 44.1206 104.703 43.9352 103.776C43.9352 103.405 43.5644 102.663 43.5644 102.107C43.5644 101.737 42.8226 100.624 42.6372 100.253C42.0809 100.068 41.71 99.5118 41.3391 99.141C40.041 98.0287 38.3721 97.6579 37.074 96.5456C35.5905 95.2478 33.3652 94.5063 31.5109 93.7647C30.3982 92.6524 28.3584 91.7254 26.6895 91.7254C26.504 91.54 26.3186 91.54 26.1332 90.9839C25.7623 90.9839 25.5768 91.1693 25.206 91.1693C25.0205 90.9839 24.8351 90.7984 24.2788 90.6131C24.0933 90.6131 23.7224 90.4277 23.537 90.4277C19.8282 89.5007 17.4175 93.5793 10 89.13C11.1126 87.276 11.8544 85.0513 12.7816 83.012L10 81.3435C10.7418 80.0458 11.2981 78.748 12.0398 77.4503L11.2981 76.7088C11.669 75.9672 12.0398 75.411 12.4107 74.6695C14.0796 76.5234 16.4903 78.1919 19.0865 78.0065C19.2719 77.4503 19.2719 76.8941 19.8282 76.5234L20.0137 76.1526L20.1991 75.2257C20.3846 73.7425 20.3846 72.2594 20.57 70.9616C20.9409 67.81 32.2526 46.1194 34.2924 42.0408C34.4779 41.8554 34.2925 41.67 34.4779 41.4846C34.8488 39.0745 34.107 36.8498 33.3652 34.6251C34.8488 34.2544 36.3323 34.0689 37.8158 34.0689C37.8158 31.8443 37.2595 23.5017 37.2595 22.204C37.2595 22.0186 37.074 21.8332 37.074 21.8332C37.2595 21.6478 36.8886 21.6478 36.8886 21.277L36.7031 20.9062C36.7031 20.9062 35.7759 16.4568 35.5905 16.4568C35.5905 16.4568 35.5905 16.4568 35.5905 16.2714C35.9614 16.2714 36.3323 16.0861 36.8886 16.0861C55.4324 14.0468 66.7441 7.7435 86.0297 13.1198C90.8511 14.4176 95.4871 16.6422 100.309 18.3107C100.309 19.2377 100.494 20.35 101.421 20.9062C101.792 21.0916 102.348 21.277 102.905 21.4624C108.097 23.1309 112.733 26.6533 117.925 27.7657L116.813 28.5072C118.667 31.6589 119.223 31.2881 119.78 34.9959C119.78 35.3667 120.15 35.7375 119.965 36.1082C119.78 37.406 119.409 38.5183 119.409 39.8161C119.223 40.0014 119.038 40.3722 118.852 40.743C117.925 42.5969 113.289 46.4901 114.587 48.9002C114.402 49.6417 114.216 49.8272 113.475 50.3833L112.362 50.1979C111.249 51.4957 104.759 59.6528 104.017 59.8382C103.276 62.6191 102.905 65.4 101.607 67.9954C104.017 69.4786 104.944 70.0347 105.686 70.7763C106.428 71.5179 106.799 72.4448 108.468 75.0403L107.541 77.6357L106.799 78.1919C106.799 79.1189 107.355 82.6413 107.726 83.7536L110.137 83.5682C110.693 86.5345 111.435 89.6861 111.991 92.8378L107.911 94.5063L108.097 95.2478C110.322 94.1355 112.733 93.2085 115.144 92.2816L115.885 92.467C116.071 91.1692 116.998 89.6861 118.481 90.7985H119.038L119.78 89.6861L121.448 89.5007L120.892 88.7591V88.3884C121.448 88.5738 121.819 88.9446 122.376 89.13H124.416V89.6861L127.012 89.8715C127.568 89.3153 132.76 89.8715 133.873 90.0569V89.3154L134.985 89.8715L134.429 97.1017H130.35L130.164 97.8433C129.237 99.8826 129.793 102.107 128.495 104.147L127.382 104.517C127.382 105.444 126.27 108.596 125.528 109.152C127.939 110.821 127.939 112.304 125.528 114.158C123.674 120.832 124.786 123.056 125.157 128.804L119.78 129.36L120.336 131.399L115.7 138.444C115.144 138.258 114.587 137.888 114.031 137.517L112.918 139C112.177 138.629 111.064 137.517 110.322 136.961C105.872 133.809 101.792 130.287 96.9706 127.691C96.0434 127.135 94.9308 126.764 94.189 125.837C93.6327 125.652 91.7783 123.983 90.6657 123.798C90.1094 123.242 85.1025 120.461 84.1754 119.905L82.5064 120.276C81.0229 121.944 79.9103 124.54 78.0559 126.023C77.685 126.393 76.9433 126.208 76.5724 126.208C75.8306 126.208 75.0889 126.579 74.3471 126.579L73.2345 126.95C72.8636 127.32 72.3073 127.691 71.9364 128.062C68.9694 131.399 66.1878 135.107 62.8499 138.073C62.1082 136.59 60.6247 135.663 59.8829 134.365C57.6577 133.624 53.7635 127.506 51.1673 127.877C50.2402 127.506 49.313 127.135 48.2003 126.95C46.5314 126.393 45.2333 125.466 44.3061 123.983L43.9352 122.871Z"/>
</mask>
<path d="M43.9352 122.871C44.1206 121.388 45.2333 119.534 46.7168 118.978C46.7168 118.978 47.2731 118.051 47.4586 118.051L47.644 117.68L47.8294 117.309C48.5712 113.787 46.5314 111.006 44.677 108.04C44.3061 107.298 44.1206 104.703 43.9352 103.776C43.9352 103.405 43.5644 102.663 43.5644 102.107C43.5644 101.737 42.8226 100.624 42.6372 100.253C42.0809 100.068 41.71 99.5118 41.3391 99.141C40.041 98.0287 38.3721 97.6579 37.074 96.5456C35.5905 95.2478 33.3652 94.5063 31.5109 93.7647C30.3982 92.6524 28.3584 91.7254 26.6895 91.7254C26.504 91.54 26.3186 91.54 26.1332 90.9839C25.7623 90.9839 25.5768 91.1693 25.206 91.1693C25.0205 90.9839 24.8351 90.7984 24.2788 90.6131C24.0933 90.6131 23.7224 90.4277 23.537 90.4277C19.8282 89.5007 17.4175 93.5793 10 89.13C11.1126 87.276 11.8544 85.0513 12.7816 83.012L10 81.3435C10.7418 80.0458 11.2981 78.748 12.0398 77.4503L11.2981 76.7088C11.669 75.9672 12.0398 75.411 12.4107 74.6695C14.0796 76.5234 16.4903 78.1919 19.0865 78.0065C19.2719 77.4503 19.2719 76.8941 19.8282 76.5234L20.0137 76.1526L20.1991 75.2257C20.3846 73.7425 20.3846 72.2594 20.57 70.9616C20.9409 67.81 32.2526 46.1194 34.2924 42.0408C34.4779 41.8554 34.2925 41.67 34.4779 41.4846C34.8488 39.0745 34.107 36.8498 33.3652 34.6251C34.8488 34.2544 36.3323 34.0689 37.8158 34.0689C37.8158 31.8443 37.2595 23.5017 37.2595 22.204C37.2595 22.0186 37.074 21.8332 37.074 21.8332C37.2595 21.6478 36.8886 21.6478 36.8886 21.277L36.7031 20.9062C36.7031 20.9062 35.7759 16.4568 35.5905 16.4568C35.5905 16.4568 35.5905 16.4568 35.5905 16.2714C35.9614 16.2714 36.3323 16.0861 36.8886 16.0861C55.4324 14.0468 66.7441 7.7435 86.0297 13.1198C90.8511 14.4176 95.4871 16.6422 100.309 18.3107C100.309 19.2377 100.494 20.35 101.421 20.9062C101.792 21.0916 102.348 21.277 102.905 21.4624C108.097 23.1309 112.733 26.6533 117.925 27.7657L116.813 28.5072C118.667 31.6589 119.223 31.2881 119.78 34.9959C119.78 35.3667 120.15 35.7375 119.965 36.1082C119.78 37.406 119.409 38.5183 119.409 39.8161C119.223 40.0014 119.038 40.3722 118.852 40.743C117.925 42.5969 113.289 46.4901 114.587 48.9002C114.402 49.6417 114.216 49.8272 113.475 50.3833L112.362 50.1979C111.249 51.4957 104.759 59.6528 104.017 59.8382C103.276 62.6191 102.905 65.4 101.607 67.9954C104.017 69.4786 104.944 70.0347 105.686 70.7763C106.428 71.5179 106.799 72.4448 108.468 75.0403L107.541 77.6357L106.799 78.1919C106.799 79.1189 107.355 82.6413 107.726 83.7536L110.137 83.5682C110.693 86.5345 111.435 89.6861 111.991 92.8378L107.911 94.5063L108.097 95.2478C110.322 94.1355 112.733 93.2085 115.144 92.2816L115.885 92.467C116.071 91.1692 116.998 89.6861 118.481 90.7985H119.038L119.78 89.6861L121.448 89.5007L120.892 88.7591V88.3884C121.448 88.5738 121.819 88.9446 122.376 89.13H124.416V89.6861L127.012 89.8715C127.568 89.3153 132.76 89.8715 133.873 90.0569V89.3154L134.985 89.8715L134.429 97.1017H130.35L130.164 97.8433C129.237 99.8826 129.793 102.107 128.495 104.147L127.382 104.517C127.382 105.444 126.27 108.596 125.528 109.152C127.939 110.821 127.939 112.304 125.528 114.158C123.674 120.832 124.786 123.056 125.157 128.804L119.78 129.36L120.336 131.399L115.7 138.444C115.144 138.258 114.587 137.888 114.031 137.517L112.918 139C112.177 138.629 111.064 137.517 110.322 136.961C105.872 133.809 101.792 130.287 96.9706 127.691C96.0434 127.135 94.9308 126.764 94.189 125.837C93.6327 125.652 91.7783 123.983 90.6657 123.798C90.1094 123.242 85.1025 120.461 84.1754 119.905L82.5064 120.276C81.0229 121.944 79.9103 124.54 78.0559 126.023C77.685 126.393 76.9433 126.208 76.5724 126.208C75.8306 126.208 75.0889 126.579 74.3471 126.579L73.2345 126.95C72.8636 127.32 72.3073 127.691 71.9364 128.062C68.9694 131.399 66.1878 135.107 62.8499 138.073C62.1082 136.59 60.6247 135.663 59.8829 134.365C57.6577 133.624 53.7635 127.506 51.1673 127.877C50.2402 127.506 49.313 127.135 48.2003 126.95C46.5314 126.393 45.2333 125.466 44.3061 123.983L43.9352 122.871Z" stroke="#333333" stroke-width="2" mask="url(#path-1-outside-1)"/>
</svg>
