<svg width="144" height="144" viewBox="0 0 144 144" fill="none" xmlns="http://www.w3.org/2000/svg">
<path d="M134.267 64.2347L134.368 64.1967L134.445 64.1201C134.611 63.9536 134.912 63.5761 135.148 63.2717C135.272 63.1129 135.386 62.9632 135.47 62.8533C135.512 62.7983 135.546 62.7532 135.57 62.7217L135.585 62.7008L135.84 62.4468L135.897 62.3894L135.933 62.3168L136.212 61.7589L136.241 61.7014L136.254 61.6384C137.393 56.2324 134.352 51.6782 131.641 47.6174C131.574 47.5158 131.506 47.4144 131.439 47.3134L131.411 47.2722L131.376 47.2372C131.339 47.1998 131.278 47.1121 131.209 46.9429C131.142 46.7796 131.079 46.5704 131.022 46.3198C130.907 45.8182 130.822 45.1973 130.753 44.5404C130.702 44.0551 130.66 43.5624 130.621 43.0928C130.607 42.9272 130.593 42.7644 130.579 42.6059C130.53 42.0347 130.478 41.5039 130.406 41.1255C130.396 40.6335 130.237 40.0969 130.106 39.6697C130.091 39.6209 130.076 39.5736 130.062 39.5274C130.007 39.3511 129.958 39.1932 129.919 39.0473C129.869 38.858 129.849 38.7367 129.849 38.6664C129.849 38.4082 129.734 38.1098 129.627 37.8699C129.508 37.6047 129.351 37.3101 129.192 37.0267C129.051 36.7774 128.904 36.5281 128.774 36.3075L128.72 36.2162C128.573 35.9668 128.462 35.7744 128.401 35.6538L128.309 35.4686L128.112 35.4031C127.802 35.2999 127.519 35.0846 127.227 34.7918C127.081 34.6464 126.942 34.4912 126.797 34.3288L126.781 34.3102C126.644 34.1574 126.5 33.9962 126.355 33.8505L126.314 33.8102L126.266 33.7801C125.444 33.2666 124.615 32.8233 123.817 32.3966C123.516 32.2357 123.219 32.0771 122.929 31.918C121.863 31.3336 120.857 30.7289 119.925 29.9321C118.882 28.8956 117.424 28.1027 115.917 27.4369C114.939 27.0051 113.903 26.6116 112.924 26.2397C112.435 26.0539 111.96 25.8735 111.513 25.6964C110.616 24.6892 109.329 23.8472 107.993 23.2849C106.741 22.7578 105.394 22.4547 104.232 22.5223C104.114 22.3531 103.999 22.2379 103.9 22.1385L103.898 22.1371C103.769 22.008 103.676 21.9145 103.574 21.7093L103.435 21.4329H103.126C102.766 21.4329 102.492 21.5243 102.284 21.5936L102.271 21.598C102.136 21.643 102.029 21.6774 101.919 21.6961C101.811 21.5949 101.683 21.4858 101.521 21.3774C101.266 21.208 100.945 21.0509 100.495 20.9008L100.202 20.8031L100.077 20.9279C100.055 20.9187 100.031 20.9072 100.002 20.893C99.9587 20.8712 99.9136 20.8468 99.8614 20.8185L99.8552 20.8152C99.8073 20.7892 99.7518 20.759 99.6973 20.7318C99.6186 20.6925 99.4676 20.6183 99.2961 20.6002C97.7494 20.2401 96.3733 20.3746 95.0343 20.6548C94.4698 20.7729 93.9038 20.9188 93.3382 21.0646C93.2325 21.0919 93.1268 21.1192 93.0212 21.1462C92.3448 21.3195 91.6606 21.4876 90.9394 21.6148C88.1017 22.1155 84.5966 22.0041 79.1137 18.7153L78.779 18.5145L78.503 18.7904C78.3641 18.9293 78.2733 19.07 78.2074 19.1896C77.888 18.8879 77.6001 18.6603 77.1753 18.4421C75.718 17.2896 73.5177 16.2337 71.2909 15.3989C69.0516 14.5593 66.7359 13.9251 65.0275 13.6369C64.527 13.4785 64.0424 13.4852 63.6116 13.5211C63.4408 13.5353 63.2872 13.5526 63.1422 13.5688C62.8825 13.5979 62.6507 13.624 62.3977 13.624H62.1907L62.0442 13.7704C61.8846 13.9299 61.6865 13.979 61.3478 14.0542C61.3377 14.0565 61.3273 14.0587 61.3166 14.0611C61.0518 14.1193 60.5885 14.2211 60.325 14.6502C60.1349 14.8228 59.7267 15.1149 59.1057 15.514C58.4462 15.9378 57.5877 16.4567 56.5922 17.0391C54.6018 18.2035 52.0784 19.6128 49.5344 21.0064C44.4447 23.7946 39.2905 26.5101 38.1834 27.0635L37.9866 27.1619L37.9262 27.3734C37.6508 28.3371 37.3057 29.3722 36.9563 30.4204L36.9542 30.4266C36.6087 31.4628 36.259 32.5117 35.9778 33.4939C35.2002 35.6906 34.5012 38.0549 33.7995 40.4281C33.4301 41.6777 33.0599 42.9297 32.6772 44.1611C31.5588 47.7588 30.3256 51.2083 28.6643 54.0679C27.0053 56.9234 24.9393 59.1557 22.1706 60.367C19.4054 61.5767 15.8677 61.7991 11.2031 60.4961L10.9217 60.4174L10.7151 60.624L7.6465 63.6917L7.32349 64.0146L7.61593 64.3655L17.3796 76.0789L17.6933 76.4553L18.076 76.1493L20.6933 74.056L25.3167 74.7858L25.0764 77.6695L25.0571 77.9007L25.2211 78.0646L62.8811 115.715C64.055 116.889 65.2159 118.084 66.3798 119.282C69.8901 122.896 73.4273 126.538 77.4309 129.698L77.5951 129.828L77.8027 129.802L80.0344 129.523L80.2824 129.492L80.4065 129.275C80.9612 128.304 81.3166 127.272 81.6455 126.317C81.6638 126.263 81.6821 126.21 81.7004 126.157C82.0516 125.139 82.3821 124.223 82.8991 123.448C83.1506 123.07 83.5921 122.577 84.1437 121.999C84.3743 121.757 84.6299 121.495 84.8933 121.225C85.2332 120.877 85.5861 120.515 85.9151 120.167C86.5112 119.536 87.0888 118.888 87.5194 118.283C87.932 117.704 88.2834 117.067 88.2834 116.477V116.194L88.0406 116.048L87.0501 115.454C88.0456 113.63 89.3969 112.185 90.7968 110.689C91.2374 110.218 91.6829 109.742 92.1236 109.247L92.6466 109.421L92.9734 109.53L93.1916 109.263C93.7262 108.61 94.3352 107.808 94.9905 106.944C95.1136 106.782 95.2384 106.618 95.3646 106.452C96.1661 105.398 97.0317 104.273 97.9301 103.202C98.8292 102.131 99.7537 101.122 100.671 100.298C101.585 99.4779 102.466 98.864 103.286 98.5445L105.216 97.993L105.371 97.9488L105.471 97.823C107.155 95.7002 108.859 93.5756 110.569 91.4447C115.332 85.5091 120.134 79.5244 124.636 73.3939L126.996 72.6076L127.338 72.4936V72.1332V70.1232H129.907H130.348L130.403 69.6852C130.531 68.6573 130.987 67.4761 131.681 66.4524C132.376 65.4264 133.278 64.6054 134.267 64.2347Z" stroke="#333333"/>
</svg>
