<svg width="144" height="144" viewBox="0 0 144 144" fill="none" xmlns="http://www.w3.org/2000/svg">
<path d="M17.6627 80.0846H17.7807L17.8159 80.0669C17.8676 80.0724 17.9471 80.0867 18.0588 80.1143C18.2924 80.1722 18.6099 80.2739 18.995 80.411C19.7625 80.6844 20.7457 81.0794 21.7614 81.4894L21.9351 81.5596C22.89 81.9452 23.8618 82.3377 24.6781 82.6391C25.111 82.7989 25.5078 82.936 25.8401 83.0338C26.1551 83.1264 26.4662 83.2008 26.7021 83.2008H26.8405L26.9593 83.1295C27.6097 82.7393 28.1007 82.7424 28.5911 82.8405C28.77 82.8763 28.9319 82.9205 29.1109 82.9694C29.2095 82.9964 29.3133 83.0247 29.428 83.0539C29.7299 83.1306 30.0691 83.2008 30.4424 83.2008C31.0618 83.2008 31.7411 83.0475 32.4218 82.8438C32.958 82.6834 33.5237 82.4824 34.0856 82.2828C34.2387 82.2284 34.3915 82.1741 34.5434 82.1208C36.0062 81.6069 37.3742 81.1884 38.4847 81.3272L38.5155 81.331H38.5467C38.7861 81.331 39.0371 81.3911 39.3605 81.4719L39.3844 81.4779C39.6472 81.5436 39.963 81.6226 40.2924 81.6394L40.7593 81.8729C43.2344 84.0375 45.4161 85.9055 47.9095 87.7751L47.9094 87.7752L47.9188 87.782C49.1302 88.647 50.3318 89.4584 51.5143 90.2569C54.643 92.3695 57.6377 94.3917 60.3239 97.0773C60.4431 97.1964 60.6767 97.4997 61.0148 97.9851C61.3436 98.4572 61.7491 99.0689 62.2056 99.7753C63.1182 101.187 64.2264 102.966 65.3168 104.737C66.3886 106.479 67.4474 108.22 68.2831 109.595C69.0667 110.883 69.6541 111.85 69.8724 112.191C69.8814 112.218 69.891 112.242 69.8995 112.262C69.9269 112.325 69.9607 112.381 69.9924 112.428C70.0555 112.523 70.1363 112.619 70.2191 112.71C70.3864 112.893 70.605 113.101 70.8221 113.298C71.0286 113.486 71.2434 113.673 71.4256 113.832L71.4581 113.86C71.6264 114.007 71.7522 114.117 71.8244 114.185C72.1619 114.687 72.9293 115.756 73.7709 116.788C74.2048 117.321 74.6641 117.85 75.0985 118.29C75.5179 118.714 75.9525 119.094 76.3406 119.291C77.1256 119.724 78.5145 120.083 80.2839 120.397C82.0829 120.716 84.3438 120.999 86.914 121.25C92.0555 121.753 98.4653 122.133 104.955 122.425C113.997 122.833 123.226 123.07 129.405 123.229C132.09 123.298 134.199 123.352 135.467 123.399L135.927 123.416L135.982 122.96C137.236 112.618 136.303 101.607 132.196 93.0789L132.196 93.0788L132.192 93.0722C125.286 79.2629 111.818 67.0596 99.6589 57.7062L99.3701 57.4175L99.2896 57.4981C99.3701 57.4175 99.3701 57.4175 99.37 57.4174L99.3698 57.4172L99.3694 57.4168L99.3685 57.416L99.3664 57.4139L99.3608 57.4083L99.3438 57.3922C99.3301 57.3794 99.3114 57.3625 99.2885 57.3428C99.2431 57.3039 99.1782 57.252 99.0992 57.1993C98.9875 57.1248 98.8037 57.0189 98.5811 56.9773C89.2416 50.139 79.5938 44.2305 69.3327 38.635L69.3249 38.6307L69.3169 38.6267C66.1945 37.0659 63.1062 35.5214 60.3313 33.6719L60.3178 33.663L60.3038 33.6549C52.1913 28.9758 44.0783 24.6084 35.9649 20.5528L35.5305 20.3356L35.3008 20.7635C31.871 27.1539 28.5193 33.5438 25.1688 39.9313L25.1683 39.9324C21.8177 46.3202 18.4684 52.7055 15.0415 59.0905C11.5816 65.3802 10.0103 71.0423 8.14097 77.8949L8.03307 78.2904L8.39978 78.4737L8.63527 78.5914L7.52567 81.9194L7.35486 82.4317L7.87879 82.5627L9.12557 82.8742L9.30494 82.919L9.47032 82.8364L10.0937 82.5248L10.1662 82.4885L10.2236 82.4312C10.4742 82.1807 10.9188 81.8984 11.5204 81.6143C12.1123 81.3347 12.8196 81.0702 13.5627 80.8415C15.0591 80.3812 16.6419 80.0846 17.6627 80.0846ZM17.7717 80.0647C17.7716 80.0646 17.7743 80.0643 17.7804 80.0644C17.7748 80.0649 17.7718 80.0649 17.7717 80.0647Z" stroke="#333333"/>
</svg>
