<svg width="144" height="144" viewBox="0 0 144 144" fill="none" xmlns="http://www.w3.org/2000/svg">
<path d="M68.2863 48.3666L68.4016 48.4325H68.501C68.5186 48.4382 68.5454 48.4482 68.5829 48.4642C68.6677 48.5006 68.7691 48.5511 68.8884 48.6107L68.8959 48.6144C69.0059 48.6694 69.1324 48.7327 69.2471 48.7818C69.3064 48.8072 69.3718 48.8329 69.4375 48.8529C69.497 48.871 69.5881 48.8944 69.6895 48.8944H69.9468L70.0964 48.6851L72.322 45.57C72.4351 45.5243 72.5677 45.4704 72.7163 45.4099C73.4151 45.1256 74.4686 44.6969 75.5257 44.3006C76.2148 44.0423 76.8968 43.801 77.4743 43.6249C78.0743 43.4421 78.4968 43.3507 78.7004 43.3507C81.3972 43.3507 83.8543 43.351 86.5134 43.5611L89.1511 47.2969L90.0304 46.8403C89.7905 46.1687 89.8784 45.6411 90.1288 45.1967C90.392 44.7294 90.8553 44.3213 91.4157 43.966C91.9717 43.6135 92.583 43.3377 93.1027 43.1156C93.1792 43.0829 93.255 43.0508 93.3288 43.0196C93.4982 42.9479 93.6567 42.8808 93.7874 42.8215C93.8826 42.7783 93.9744 42.7342 94.0541 42.6899C94.0662 42.6832 94.0791 42.676 94.0924 42.6681C94.1801 42.6685 94.2701 42.6629 94.3579 42.6545C94.5315 42.6379 94.7313 42.6068 94.9494 42.5649C95.386 42.4811 95.9227 42.3492 96.5189 42.1851C97.713 41.8566 99.1748 41.391 100.61 40.8983C102.046 40.4053 103.462 39.8826 104.566 39.4383C105.117 39.2164 105.595 39.012 105.961 38.8392C106.022 38.8106 106.08 38.7825 106.135 38.7552L106.872 41.1499L106.998 41.5582L107.421 41.4978L112.273 40.8048L116.736 40.1674L117.052 40.9576L117.227 41.3952L117.674 41.2462L119.379 40.6782C119.632 41.1072 120.004 41.7895 120.33 42.4622C120.543 42.9032 120.729 43.3244 120.846 43.6562C120.905 43.8236 120.942 43.9528 120.958 44.0425C120.96 44.0572 120.962 44.0694 120.964 44.0794L120.848 44.31L121.064 44.5621C121.165 44.6789 121.32 44.9986 121.506 45.5707C121.683 46.1162 121.866 46.8205 122.05 47.635C122.419 49.2626 122.785 51.2938 123.117 53.2979C123.418 55.1163 123.689 56.9051 123.907 58.341C123.929 58.4866 123.95 58.6285 123.971 58.7664C124.085 59.5147 124.182 60.1486 124.258 60.6101C124.296 60.8404 124.329 61.0321 124.357 61.1754C124.371 61.2466 124.385 61.3107 124.398 61.3638L124.398 61.3645C124.4 61.3735 124.403 61.3853 124.407 61.399C124.397 61.5208 124.367 61.7073 124.313 61.9466C124.251 62.2254 124.168 62.5397 124.082 62.8381C123.997 63.1356 123.912 63.4125 123.848 63.6153C123.825 63.687 123.806 63.7492 123.789 63.7997C123.335 64.1588 122.894 64.604 122.494 65.03C122.32 65.2158 122.157 65.3947 122.002 65.5639C121.755 65.834 121.531 66.0793 121.322 66.2888L120.154 67.4566L121.773 67.1327C127.322 66.0233 130.257 65.9913 135.445 66.8271C135.208 68.6708 134.816 70.8027 134.14 72.8057C133.402 74.9895 132.342 76.9717 130.823 78.2741L130.746 78.3398L130.701 78.4301L130.47 78.8921L130.404 79.0242L130.42 79.171C130.521 80.0823 130.272 80.8526 129.966 81.5772C129.91 81.7078 129.849 81.8462 129.787 81.9857C129.688 82.2092 129.587 82.4355 129.509 82.6375C129.417 82.873 129.335 83.123 129.292 83.3806C129.251 83.4012 129.21 83.4234 129.169 83.4463C128.989 83.5462 128.78 83.6781 128.582 83.8152C128.385 83.9515 128.186 84.1016 128.032 84.2393C127.956 84.307 127.878 84.3824 127.816 84.4598C127.798 84.4819 127.778 84.5077 127.759 84.5368C127.632 84.6188 127.5 84.7221 127.376 84.8272C127.191 84.9848 126.996 85.1724 126.823 85.3609C126.654 85.5451 126.489 85.7496 126.379 85.9404C126.326 86.0325 126.267 86.1534 126.241 86.2868C126.233 86.3279 126.227 86.3806 126.228 86.4396C126.212 86.4806 126.195 86.5236 126.18 86.5666C126.133 86.7 126.084 86.8675 126.034 87.0506C125.933 87.4186 125.823 87.8819 125.722 88.3316C125.62 88.7827 125.525 89.2259 125.456 89.5559C125.422 89.721 125.394 89.858 125.374 89.9539L125.352 90.0652L125.35 90.0742L125.129 90.7379L125.082 90.8761L125.118 91.0174L125.349 91.9413L125.572 92.8326L125.795 94.8428C125.79 94.9011 125.759 94.9575 125.665 95.1141L125.661 95.1216C125.622 95.1854 125.54 95.3227 125.511 95.483C125.502 95.5351 125.498 95.592 125.502 95.6521C125.446 95.7499 125.401 95.8576 125.364 95.9655C125.284 96.1945 125.222 96.4744 125.171 96.7752C125.069 97.3797 125.003 98.1374 124.959 98.8941C124.872 100.41 124.872 101.98 124.872 102.444V102.445C124.872 102.604 124.832 102.774 124.771 103.017L124.766 103.039C124.712 103.253 124.643 103.531 124.641 103.82L124.206 114.041L117.186 112.126L117.181 112.125C91.523 105.424 65.6366 99.6468 39.754 94.333L39.4111 94.2626L39.2276 94.5607C38.525 95.7022 37.6894 96.8055 36.8324 97.937C36.5811 98.2689 36.3279 98.6032 36.0756 98.9417C35.0418 100.329 34.0345 101.773 33.321 103.331H31.1047C29.838 103.331 28.5337 103.345 27.2149 103.36C23.2221 103.403 19.096 103.448 15.4783 103.106C15.4573 103.098 15.4264 103.085 15.3842 103.066C15.2826 103.019 15.1425 102.95 14.971 102.863C14.6472 102.697 14.2326 102.477 13.7958 102.245L13.7219 102.206C13.2606 101.961 12.7801 101.706 12.3712 101.498C12.1416 101.381 11.9213 101.272 11.7347 101.187V76.6792L13.021 76.84L13.4903 76.8986L13.575 76.4333C14.0542 73.7979 13.8094 71.8717 13.1041 69.2856L8.63829 52.0966C13.0577 51.871 17.4766 51.5948 21.8921 51.3189L21.894 51.3188C26.5155 51.03 31.1333 50.7415 35.7506 50.5107L35.7506 50.5108L35.7612 50.5101C36.5325 50.455 37.3106 50.3876 38.0944 50.3198C40.6397 50.0994 43.2437 49.8739 45.8584 50.0482L46.2439 50.0739L46.366 49.7075C46.9427 47.9779 47.5195 46.3056 48.0972 44.6306L48.0974 44.6302C48.6038 43.162 49.1109 41.6917 49.6182 40.1819L56.8864 45.311C56.9391 45.3671 57.0309 45.4701 57.157 45.6119L57.158 45.613C57.3018 45.7747 57.4777 45.9726 57.6543 46.1639C57.8297 46.3539 58.0138 46.5461 58.1732 46.6934C58.2518 46.7661 58.335 46.8379 58.415 46.8946C58.4548 46.9227 58.5042 46.9547 58.5598 46.9814C58.5812 46.9918 58.6139 47.0065 58.6552 47.0193C58.9842 47.2015 59.3127 47.5624 59.6349 48.0187C59.7987 48.2508 59.9509 48.4925 60.0941 48.7251C60.1238 48.7734 60.1534 48.8218 60.1829 48.87C60.2916 49.0475 60.3976 49.2206 60.4938 49.3648L60.832 49.8721L61.2632 49.441C61.262 49.4422 61.2632 49.4413 61.2673 49.438C61.279 49.4286 61.3149 49.4 61.3874 49.348C61.4732 49.2865 61.5877 49.2081 61.7237 49.1181C61.9952 48.9383 62.3427 48.7185 62.6976 48.5056C63.0537 48.292 63.4105 48.0894 63.7022 47.9419C63.8487 47.8678 63.971 47.8115 64.0644 47.775C64.0929 47.7639 64.1151 47.756 64.1315 47.7506C64.9227 47.9338 65.5691 47.9241 66.1143 47.9159C66.222 47.9143 66.3258 47.9127 66.426 47.9127C67.0427 47.9127 67.5813 47.9638 68.2863 48.3666ZM68.4851 48.4279C68.4848 48.4278 68.4857 48.428 68.4879 48.4286C68.4863 48.4282 68.4854 48.428 68.4851 48.4279Z" stroke="#333333"/>
</svg>
